<?xml version="1.0" encoding="utf-8" standalone="no"?>
<!DOCTYPE svg PUBLIC "-//W3C//DTD SVG 1.1//EN"
  "http://www.w3.org/Graphics/SVG/1.1/DTD/svg11.dtd">
<svg height="481.197516pt" version="1.1" viewBox="0 0 245.16 481.197516" width="245.16pt" xmlns="http://www.w3.org/2000/svg" xmlns:xlink="http://www.w3.org/1999/xlink">
 <metadata>
  <rdf:RDF xmlns:cc="http://creativecommons.org/ns#" xmlns:dc="http://purl.org/dc/elements/1.1/" xmlns:rdf="http://www.w3.org/1999/02/22-rdf-syntax-ns#">
   <cc:Work>
    <dc:type rdf:resource="http://purl.org/dc/dcmitype/StillImage"/>
    <dc:date>2020-10-26T19:18:47.965739</dc:date>
    <dc:format>image/svg+xml</dc:format>
    <dc:creator>
     <cc:Agent>
      <dc:title>Matplotlib v1.4.3.post24134+g0d1f34338, https://matplotlib.org/</dc:title>
     </cc:Agent>
    </dc:creator>
   </cc:Work>
  </rdf:RDF>
 </metadata>
 <defs>
  <style type="text/css">*{stroke-linecap:butt;stroke-linejoin:round;}</style>
 </defs>
 <g id="figure_1">
  <g id="patch_1">
   <path d="M 0 481.197516 
L 245.16 481.197516 
L 245.16 0 
L 0 0 
z
" style="fill:none;"/>
  </g>
  <g id="axes_1">
   <g id="patch_2">
    <path d="M 41.64 128.821652 
L 245.16 128.821652 
L 245.16 3.039375 
L 41.64 3.039375 
z
" style="fill:#ffffff;"/>
   </g>
   <g id="matplotlib.axis_1">
    <g id="xtick_1">
     <g id="line2d_1">
      <defs>
       <path d="M 0 0 
L 0 3.5 
" id="m4a2e2dc33d" style="stroke:#000000;stroke-width:0.8;"/>
      </defs>
      <g>
       <use style="stroke:#000000;stroke-width:0.8;" x="108.128099" xlink:href="#m4a2e2dc33d" y="128.821652"/>
      </g>
     </g>
     <g id="text_1">
      <!-- $\mathdefault{10^{2}}$ -->
      <g transform="translate(101.088099 141.900402)scale(0.08 -0.08)">
       <defs>
        <path d="M 794 531 
L 1825 531 
L 1825 4091 
L 703 3866 
L 703 4441 
L 1819 4666 
L 2450 4666 
L 2450 531 
L 3481 531 
L 3481 0 
L 794 0 
L 794 531 
z
" id="DejaVuSans-31" transform="scale(0.015625)"/>
        <path d="M 2034 4250 
Q 1547 4250 1301 3770 
Q 1056 3291 1056 2328 
Q 1056 1369 1301 889 
Q 1547 409 2034 409 
Q 2525 409 2770 889 
Q 3016 1369 3016 2328 
Q 3016 3291 2770 3770 
Q 2525 4250 2034 4250 
z
M 2034 4750 
Q 2819 4750 3233 4129 
Q 3647 3509 3647 2328 
Q 3647 1150 3233 529 
Q 2819 -91 2034 -91 
Q 1250 -91 836 529 
Q 422 1150 422 2328 
Q 422 3509 836 4129 
Q 1250 4750 2034 4750 
z
" id="DejaVuSans-30" transform="scale(0.015625)"/>
        <path d="M 1228 531 
L 3431 531 
L 3431 0 
L 469 0 
L 469 531 
Q 828 903 1448 1529 
Q 2069 2156 2228 2338 
Q 2531 2678 2651 2914 
Q 2772 3150 2772 3378 
Q 2772 3750 2511 3984 
Q 2250 4219 1831 4219 
Q 1534 4219 1204 4116 
Q 875 4013 500 3803 
L 500 4441 
Q 881 4594 1212 4672 
Q 1544 4750 1819 4750 
Q 2544 4750 2975 4387 
Q 3406 4025 3406 3419 
Q 3406 3131 3298 2873 
Q 3191 2616 2906 2266 
Q 2828 2175 2409 1742 
Q 1991 1309 1228 531 
z
" id="DejaVuSans-32" transform="scale(0.015625)"/>
       </defs>
       <use transform="translate(0 0.765625)" xlink:href="#DejaVuSans-31"/>
       <use transform="translate(63.623047 0.765625)" xlink:href="#DejaVuSans-30"/>
       <use transform="translate(128.203125 39.046875)scale(0.7)" xlink:href="#DejaVuSans-32"/>
      </g>
     </g>
    </g>
    <g id="xtick_2">
     <g id="line2d_2">
      <g>
       <use style="stroke:#000000;stroke-width:0.8;" x="217.593613" xlink:href="#m4a2e2dc33d" y="128.821652"/>
      </g>
     </g>
     <g id="text_2">
      <!-- $\mathdefault{10^{3}}$ -->
      <g transform="translate(210.553613 141.900402)scale(0.08 -0.08)">
       <defs>
        <path d="M 2597 2516 
Q 3050 2419 3304 2112 
Q 3559 1806 3559 1356 
Q 3559 666 3084 287 
Q 2609 -91 1734 -91 
Q 1441 -91 1130 -33 
Q 819 25 488 141 
L 488 750 
Q 750 597 1062 519 
Q 1375 441 1716 441 
Q 2309 441 2620 675 
Q 2931 909 2931 1356 
Q 2931 1769 2642 2001 
Q 2353 2234 1838 2234 
L 1294 2234 
L 1294 2753 
L 1863 2753 
Q 2328 2753 2575 2939 
Q 2822 3125 2822 3475 
Q 2822 3834 2567 4026 
Q 2313 4219 1838 4219 
Q 1578 4219 1281 4162 
Q 984 4106 628 3988 
L 628 4550 
Q 988 4650 1302 4700 
Q 1616 4750 1894 4750 
Q 2613 4750 3031 4423 
Q 3450 4097 3450 3541 
Q 3450 3153 3228 2886 
Q 3006 2619 2597 2516 
z
" id="DejaVuSans-33" transform="scale(0.015625)"/>
       </defs>
       <use transform="translate(0 0.765625)" xlink:href="#DejaVuSans-31"/>
       <use transform="translate(63.623047 0.765625)" xlink:href="#DejaVuSans-30"/>
       <use transform="translate(128.203125 39.046875)scale(0.7)" xlink:href="#DejaVuSans-33"/>
      </g>
     </g>
    </g>
    <g id="xtick_3">
     <g id="line2d_3">
      <defs>
       <path d="M 0 0 
L 0 2 
" id="ma05c59f4e0" style="stroke:#000000;stroke-width:0.6;"/>
      </defs>
      <g>
       <use style="stroke:#000000;stroke-width:0.6;" x="50.890909" xlink:href="#ma05c59f4e0" y="128.821652"/>
      </g>
     </g>
    </g>
    <g id="xtick_4">
     <g id="line2d_4">
      <g>
       <use style="stroke:#000000;stroke-width:0.6;" x="64.567392" xlink:href="#ma05c59f4e0" y="128.821652"/>
      </g>
     </g>
    </g>
    <g id="xtick_5">
     <g id="line2d_5">
      <g>
       <use style="stroke:#000000;stroke-width:0.6;" x="75.175696" xlink:href="#ma05c59f4e0" y="128.821652"/>
      </g>
     </g>
    </g>
    <g id="xtick_6">
     <g id="line2d_6">
      <g>
       <use style="stroke:#000000;stroke-width:0.6;" x="83.843312" xlink:href="#ma05c59f4e0" y="128.821652"/>
      </g>
     </g>
    </g>
    <g id="xtick_7">
     <g id="line2d_7">
      <g>
       <use style="stroke:#000000;stroke-width:0.6;" x="91.171677" xlink:href="#ma05c59f4e0" y="128.821652"/>
      </g>
     </g>
    </g>
    <g id="xtick_8">
     <g id="line2d_8">
      <g>
       <use style="stroke:#000000;stroke-width:0.6;" x="97.519795" xlink:href="#ma05c59f4e0" y="128.821652"/>
      </g>
     </g>
    </g>
    <g id="xtick_9">
     <g id="line2d_9">
      <g>
       <use style="stroke:#000000;stroke-width:0.6;" x="103.119232" xlink:href="#ma05c59f4e0" y="128.821652"/>
      </g>
     </g>
    </g>
    <g id="xtick_10">
     <g id="line2d_10">
      <g>
       <use style="stroke:#000000;stroke-width:0.6;" x="141.080502" xlink:href="#ma05c59f4e0" y="128.821652"/>
      </g>
     </g>
    </g>
    <g id="xtick_11">
     <g id="line2d_11">
      <g>
       <use style="stroke:#000000;stroke-width:0.6;" x="160.356423" xlink:href="#ma05c59f4e0" y="128.821652"/>
      </g>
     </g>
    </g>
    <g id="xtick_12">
     <g id="line2d_12">
      <g>
       <use style="stroke:#000000;stroke-width:0.6;" x="174.032906" xlink:href="#ma05c59f4e0" y="128.821652"/>
      </g>
     </g>
    </g>
    <g id="xtick_13">
     <g id="line2d_13">
      <g>
       <use style="stroke:#000000;stroke-width:0.6;" x="184.64121" xlink:href="#ma05c59f4e0" y="128.821652"/>
      </g>
     </g>
    </g>
    <g id="xtick_14">
     <g id="line2d_14">
      <g>
       <use style="stroke:#000000;stroke-width:0.6;" x="193.308826" xlink:href="#ma05c59f4e0" y="128.821652"/>
      </g>
     </g>
    </g>
    <g id="xtick_15">
     <g id="line2d_15">
      <g>
       <use style="stroke:#000000;stroke-width:0.6;" x="200.63719" xlink:href="#ma05c59f4e0" y="128.821652"/>
      </g>
     </g>
    </g>
    <g id="xtick_16">
     <g id="line2d_16">
      <g>
       <use style="stroke:#000000;stroke-width:0.6;" x="206.985309" xlink:href="#ma05c59f4e0" y="128.821652"/>
      </g>
     </g>
    </g>
    <g id="xtick_17">
     <g id="line2d_17">
      <g>
       <use style="stroke:#000000;stroke-width:0.6;" x="212.584746" xlink:href="#ma05c59f4e0" y="128.821652"/>
      </g>
     </g>
    </g>
    <g id="text_3">
     <!-- time (s) -->
     <g transform="translate(127.886875 153.642902)scale(0.08 -0.08)">
      <defs>
       <path d="M 1172 4494 
L 1172 3500 
L 2356 3500 
L 2356 3053 
L 1172 3053 
L 1172 1153 
Q 1172 725 1289 603 
Q 1406 481 1766 481 
L 2356 481 
L 2356 0 
L 1766 0 
Q 1100 0 847 248 
Q 594 497 594 1153 
L 594 3053 
L 172 3053 
L 172 3500 
L 594 3500 
L 594 4494 
L 1172 4494 
z
" id="DejaVuSans-74" transform="scale(0.015625)"/>
       <path d="M 603 3500 
L 1178 3500 
L 1178 0 
L 603 0 
L 603 3500 
z
M 603 4863 
L 1178 4863 
L 1178 4134 
L 603 4134 
L 603 4863 
z
" id="DejaVuSans-69" transform="scale(0.015625)"/>
       <path d="M 3328 2828 
Q 3544 3216 3844 3400 
Q 4144 3584 4550 3584 
Q 5097 3584 5394 3201 
Q 5691 2819 5691 2113 
L 5691 0 
L 5113 0 
L 5113 2094 
Q 5113 2597 4934 2840 
Q 4756 3084 4391 3084 
Q 3944 3084 3684 2787 
Q 3425 2491 3425 1978 
L 3425 0 
L 2847 0 
L 2847 2094 
Q 2847 2600 2669 2842 
Q 2491 3084 2119 3084 
Q 1678 3084 1418 2786 
Q 1159 2488 1159 1978 
L 1159 0 
L 581 0 
L 581 3500 
L 1159 3500 
L 1159 2956 
Q 1356 3278 1631 3431 
Q 1906 3584 2284 3584 
Q 2666 3584 2933 3390 
Q 3200 3197 3328 2828 
z
" id="DejaVuSans-6d" transform="scale(0.015625)"/>
       <path d="M 3597 1894 
L 3597 1613 
L 953 1613 
Q 991 1019 1311 708 
Q 1631 397 2203 397 
Q 2534 397 2845 478 
Q 3156 559 3463 722 
L 3463 178 
Q 3153 47 2828 -22 
Q 2503 -91 2169 -91 
Q 1331 -91 842 396 
Q 353 884 353 1716 
Q 353 2575 817 3079 
Q 1281 3584 2069 3584 
Q 2775 3584 3186 3129 
Q 3597 2675 3597 1894 
z
M 3022 2063 
Q 3016 2534 2758 2815 
Q 2500 3097 2075 3097 
Q 1594 3097 1305 2825 
Q 1016 2553 972 2059 
L 3022 2063 
z
" id="DejaVuSans-65" transform="scale(0.015625)"/>
       <path id="DejaVuSans-20" transform="scale(0.015625)"/>
       <path d="M 1984 4856 
Q 1566 4138 1362 3434 
Q 1159 2731 1159 2009 
Q 1159 1288 1364 580 
Q 1569 -128 1984 -844 
L 1484 -844 
Q 1016 -109 783 600 
Q 550 1309 550 2009 
Q 550 2706 781 3412 
Q 1013 4119 1484 4856 
L 1984 4856 
z
" id="DejaVuSans-28" transform="scale(0.015625)"/>
       <path d="M 2834 3397 
L 2834 2853 
Q 2591 2978 2328 3040 
Q 2066 3103 1784 3103 
Q 1356 3103 1142 2972 
Q 928 2841 928 2578 
Q 928 2378 1081 2264 
Q 1234 2150 1697 2047 
L 1894 2003 
Q 2506 1872 2764 1633 
Q 3022 1394 3022 966 
Q 3022 478 2636 193 
Q 2250 -91 1575 -91 
Q 1294 -91 989 -36 
Q 684 19 347 128 
L 347 722 
Q 666 556 975 473 
Q 1284 391 1588 391 
Q 1994 391 2212 530 
Q 2431 669 2431 922 
Q 2431 1156 2273 1281 
Q 2116 1406 1581 1522 
L 1381 1569 
Q 847 1681 609 1914 
Q 372 2147 372 2553 
Q 372 3047 722 3315 
Q 1072 3584 1716 3584 
Q 2034 3584 2315 3537 
Q 2597 3491 2834 3397 
z
" id="DejaVuSans-73" transform="scale(0.015625)"/>
       <path d="M 513 4856 
L 1013 4856 
Q 1481 4119 1714 3412 
Q 1947 2706 1947 2009 
Q 1947 1309 1714 600 
Q 1481 -109 1013 -844 
L 513 -844 
Q 928 -128 1133 580 
Q 1338 1288 1338 2009 
Q 1338 2731 1133 3434 
Q 928 4138 513 4856 
z
" id="DejaVuSans-29" transform="scale(0.015625)"/>
      </defs>
      <use xlink:href="#DejaVuSans-74"/>
      <use x="39.208984" xlink:href="#DejaVuSans-69"/>
      <use x="66.992188" xlink:href="#DejaVuSans-6d"/>
      <use x="164.404297" xlink:href="#DejaVuSans-65"/>
      <use x="225.927734" xlink:href="#DejaVuSans-20"/>
      <use x="257.714844" xlink:href="#DejaVuSans-28"/>
      <use x="296.728516" xlink:href="#DejaVuSans-73"/>
      <use x="348.828125" xlink:href="#DejaVuSans-29"/>
     </g>
    </g>
   </g>
   <g id="matplotlib.axis_2">
    <g id="ytick_1">
     <g id="line2d_18">
      <defs>
       <path d="M 0 0 
L -3.5 0 
" id="m89d920a010" style="stroke:#000000;stroke-width:0.8;"/>
      </defs>
      <g>
       <use style="stroke:#000000;stroke-width:0.8;" x="41.64" xlink:href="#m89d920a010" y="128.821652"/>
      </g>
     </g>
     <g id="text_4">
      <!-- $2\times{}10^{-1}$ -->
      <g transform="translate(0.96 131.861027)scale(0.08 -0.08)">
       <defs>
        <path d="M 4488 3438 
L 3059 2003 
L 4488 575 
L 4116 197 
L 2681 1631 
L 1247 197 
L 878 575 
L 2303 2003 
L 878 3438 
L 1247 3816 
L 2681 2381 
L 4116 3816 
L 4488 3438 
z
" id="DejaVuSans-d7" transform="scale(0.015625)"/>
        <path d="M 678 2272 
L 4684 2272 
L 4684 1741 
L 678 1741 
L 678 2272 
z
" id="DejaVuSans-2212" transform="scale(0.015625)"/>
       </defs>
       <use transform="translate(0 0.684375)" xlink:href="#DejaVuSans-32"/>
       <use transform="translate(83.105469 0.684375)" xlink:href="#DejaVuSans-d7"/>
       <use transform="translate(186.376953 0.684375)" xlink:href="#DejaVuSans-31"/>
       <use transform="translate(250 0.684375)" xlink:href="#DejaVuSans-30"/>
       <use transform="translate(314.580078 38.965625)scale(0.7)" xlink:href="#DejaVuSans-2212"/>
       <use transform="translate(373.232422 38.965625)scale(0.7)" xlink:href="#DejaVuSans-31"/>
      </g>
     </g>
    </g>
    <g id="ytick_2">
     <g id="line2d_19">
      <g>
       <use style="stroke:#000000;stroke-width:0.8;" x="41.64" xlink:href="#m89d920a010" y="109.988794"/>
      </g>
     </g>
    </g>
    <g id="ytick_3">
     <g id="line2d_20">
      <g>
       <use style="stroke:#000000;stroke-width:0.8;" x="41.64" xlink:href="#m89d920a010" y="96.626669"/>
      </g>
     </g>
    </g>
    <g id="ytick_4">
     <g id="line2d_21">
      <g>
       <use style="stroke:#000000;stroke-width:0.8;" x="41.64" xlink:href="#m89d920a010" y="86.262199"/>
      </g>
     </g>
    </g>
    <g id="ytick_5">
     <g id="line2d_22">
      <g>
       <use style="stroke:#000000;stroke-width:0.8;" x="41.64" xlink:href="#m89d920a010" y="77.793811"/>
      </g>
     </g>
    </g>
    <g id="ytick_6">
     <g id="line2d_23">
      <g>
       <use style="stroke:#000000;stroke-width:0.8;" x="41.64" xlink:href="#m89d920a010" y="70.633891"/>
      </g>
     </g>
    </g>
    <g id="ytick_7">
     <g id="line2d_24">
      <g>
       <use style="stroke:#000000;stroke-width:0.8;" x="41.64" xlink:href="#m89d920a010" y="64.431686"/>
      </g>
     </g>
    </g>
    <g id="ytick_8">
     <g id="line2d_25">
      <g>
       <use style="stroke:#000000;stroke-width:0.8;" x="41.64" xlink:href="#m89d920a010" y="58.960953"/>
      </g>
     </g>
    </g>
    <g id="ytick_9">
     <g id="line2d_26">
      <g>
       <use style="stroke:#000000;stroke-width:0.8;" x="41.64" xlink:href="#m89d920a010" y="54.067216"/>
      </g>
     </g>
     <g id="text_5">
      <!-- $10^0$ -->
      <g transform="translate(20.56 57.106591)scale(0.08 -0.08)">
       <use transform="translate(0 0.765625)" xlink:href="#DejaVuSans-31"/>
       <use transform="translate(63.623047 0.765625)" xlink:href="#DejaVuSans-30"/>
       <use transform="translate(128.203125 39.046875)scale(0.7)" xlink:href="#DejaVuSans-30"/>
      </g>
     </g>
    </g>
    <g id="ytick_10">
     <g id="line2d_27">
      <g>
       <use style="stroke:#000000;stroke-width:0.8;" x="41.64" xlink:href="#m89d920a010" y="21.872233"/>
      </g>
     </g>
    </g>
    <g id="ytick_11">
     <g id="line2d_28">
      <g>
       <use style="stroke:#000000;stroke-width:0.8;" x="41.64" xlink:href="#m89d920a010" y="3.039375"/>
      </g>
     </g>
     <g id="text_6">
      <!-- $3\times{}10^0$ -->
      <g transform="translate(5.68 6.07875)scale(0.08 -0.08)">
       <use transform="translate(0 0.765625)" xlink:href="#DejaVuSans-33"/>
       <use transform="translate(83.105469 0.765625)" xlink:href="#DejaVuSans-d7"/>
       <use transform="translate(186.376953 0.765625)" xlink:href="#DejaVuSans-31"/>
       <use transform="translate(250 0.765625)" xlink:href="#DejaVuSans-30"/>
       <use transform="translate(314.580078 39.046875)scale(0.7)" xlink:href="#DejaVuSans-30"/>
      </g>
     </g>
    </g>
    <g id="text_7">
     <!-- MSCD ($\mu{}m^2$) -->
     <g transform="translate(7.28 90.730514)rotate(-90)scale(0.08 -0.08)">
      <defs>
       <path d="M 628 4666 
L 1569 4666 
L 2759 1491 
L 3956 4666 
L 4897 4666 
L 4897 0 
L 4281 0 
L 4281 4097 
L 3078 897 
L 2444 897 
L 1241 4097 
L 1241 0 
L 628 0 
L 628 4666 
z
" id="DejaVuSans-4d" transform="scale(0.015625)"/>
       <path d="M 3425 4513 
L 3425 3897 
Q 3066 4069 2747 4153 
Q 2428 4238 2131 4238 
Q 1616 4238 1336 4038 
Q 1056 3838 1056 3469 
Q 1056 3159 1242 3001 
Q 1428 2844 1947 2747 
L 2328 2669 
Q 3034 2534 3370 2195 
Q 3706 1856 3706 1288 
Q 3706 609 3251 259 
Q 2797 -91 1919 -91 
Q 1588 -91 1214 -16 
Q 841 59 441 206 
L 441 856 
Q 825 641 1194 531 
Q 1563 422 1919 422 
Q 2459 422 2753 634 
Q 3047 847 3047 1241 
Q 3047 1584 2836 1778 
Q 2625 1972 2144 2069 
L 1759 2144 
Q 1053 2284 737 2584 
Q 422 2884 422 3419 
Q 422 4038 858 4394 
Q 1294 4750 2059 4750 
Q 2388 4750 2728 4690 
Q 3069 4631 3425 4513 
z
" id="DejaVuSans-53" transform="scale(0.015625)"/>
       <path d="M 4122 4306 
L 4122 3641 
Q 3803 3938 3442 4084 
Q 3081 4231 2675 4231 
Q 1875 4231 1450 3742 
Q 1025 3253 1025 2328 
Q 1025 1406 1450 917 
Q 1875 428 2675 428 
Q 3081 428 3442 575 
Q 3803 722 4122 1019 
L 4122 359 
Q 3791 134 3420 21 
Q 3050 -91 2638 -91 
Q 1578 -91 968 557 
Q 359 1206 359 2328 
Q 359 3453 968 4101 
Q 1578 4750 2638 4750 
Q 3056 4750 3426 4639 
Q 3797 4528 4122 4306 
z
" id="DejaVuSans-43" transform="scale(0.015625)"/>
       <path d="M 1259 4147 
L 1259 519 
L 2022 519 
Q 2988 519 3436 956 
Q 3884 1394 3884 2338 
Q 3884 3275 3436 3711 
Q 2988 4147 2022 4147 
L 1259 4147 
z
M 628 4666 
L 1925 4666 
Q 3281 4666 3915 4102 
Q 4550 3538 4550 2338 
Q 4550 1131 3912 565 
Q 3275 0 1925 0 
L 628 0 
L 628 4666 
z
" id="DejaVuSans-44" transform="scale(0.015625)"/>
       <path d="M -84 -1331 
L 856 3500 
L 1434 3500 
L 1009 1322 
Q 997 1256 987 1175 
Q 978 1094 978 1013 
Q 978 722 1161 565 
Q 1344 409 1684 409 
Q 2147 409 2431 671 
Q 2716 934 2816 1459 
L 3213 3500 
L 3788 3500 
L 3266 809 
Q 3253 750 3248 706 
Q 3244 663 3244 628 
Q 3244 531 3283 486 
Q 3322 441 3406 441 
Q 3438 441 3492 456 
Q 3547 472 3647 513 
L 3559 50 
Q 3422 -19 3297 -55 
Q 3172 -91 3053 -91 
Q 2847 -91 2730 40 
Q 2613 172 2613 403 
Q 2438 153 2195 31 
Q 1953 -91 1625 -91 
Q 1334 -91 1117 43 
Q 900 178 831 397 
L 494 -1331 
L -84 -1331 
z
" id="DejaVuSans-Oblique-3bc" transform="scale(0.015625)"/>
       <path d="M 5747 2113 
L 5338 0 
L 4763 0 
L 5166 2094 
Q 5191 2228 5203 2325 
Q 5216 2422 5216 2491 
Q 5216 2772 5059 2928 
Q 4903 3084 4622 3084 
Q 4203 3084 3875 2770 
Q 3547 2456 3450 1953 
L 3066 0 
L 2491 0 
L 2900 2094 
Q 2925 2209 2937 2307 
Q 2950 2406 2950 2484 
Q 2950 2769 2794 2926 
Q 2638 3084 2363 3084 
Q 1938 3084 1609 2770 
Q 1281 2456 1184 1953 
L 800 0 
L 225 0 
L 909 3500 
L 1484 3500 
L 1375 2956 
Q 1609 3263 1923 3423 
Q 2238 3584 2597 3584 
Q 2978 3584 3223 3384 
Q 3469 3184 3519 2828 
Q 3781 3197 4126 3390 
Q 4472 3584 4856 3584 
Q 5306 3584 5551 3325 
Q 5797 3066 5797 2591 
Q 5797 2488 5784 2364 
Q 5772 2241 5747 2113 
z
" id="DejaVuSans-Oblique-6d" transform="scale(0.015625)"/>
      </defs>
      <use transform="translate(0 0.765625)" xlink:href="#DejaVuSans-4d"/>
      <use transform="translate(86.279297 0.765625)" xlink:href="#DejaVuSans-53"/>
      <use transform="translate(149.755859 0.765625)" xlink:href="#DejaVuSans-43"/>
      <use transform="translate(219.580078 0.765625)" xlink:href="#DejaVuSans-44"/>
      <use transform="translate(296.582031 0.765625)" xlink:href="#DejaVuSans-20"/>
      <use transform="translate(328.369141 0.765625)" xlink:href="#DejaVuSans-28"/>
      <use transform="translate(367.382812 0.765625)" xlink:href="#DejaVuSans-Oblique-3bc"/>
      <use transform="translate(431.005859 0.765625)" xlink:href="#DejaVuSans-Oblique-6d"/>
      <use transform="translate(533.067865 39.046875)scale(0.7)" xlink:href="#DejaVuSans-32"/>
      <use transform="translate(580.338372 0.765625)" xlink:href="#DejaVuSans-29"/>
     </g>
    </g>
   </g>
   <g id="line2d_29">
    <path clip-path="url(#p59e20642fa)" d="M 50.890909 77.646824 
L 83.843312 64.090777 
L 103.119232 69.003818 
L 116.795715 54.533404 
L 127.40402 59.916296 
L 136.071635 58.175137 
L 143.4 59.153321 
L 149.748118 72.82448 
L 155.347555 45.888487 
L 160.356423 69.04493 
L 164.887494 87.184235 
" style="fill:none;stroke:#aec7e8;stroke-linecap:square;"/>
   </g>
   <g id="line2d_30">
    <path clip-path="url(#p59e20642fa)" d="M 50.890909 77.646824 
L 83.843312 64.090777 
L 103.119232 69.003818 
L 116.795715 54.533404 
L 127.40402 59.916296 
L 136.071635 58.175137 
L 143.4 59.153321 
L 149.748118 72.82448 
L 155.347555 45.888487 
L 160.356423 69.04493 
L 164.887494 87.184235 
" style="fill:none;stroke:#aec7e8;stroke-linecap:square;stroke-opacity:0.3;stroke-width:3;"/>
   </g>
   <g id="line2d_31">
    <path clip-path="url(#p59e20642fa)" d="M 50.890909 44.074719 
L 83.843312 40.134708 
L 103.119232 38.812918 
L 116.795715 35.126198 
L 127.40402 31.28558 
L 136.071635 36.267636 
L 143.4 35.748953 
L 149.748118 30.682688 
L 155.347555 30.084671 
L 160.356423 32.646813 
L 164.887494 31.278125 
L 169.024038 30.209517 
L 172.82929 37.665719 
L 176.352403 41.551274 
L 179.632343 35.181985 
L 182.700521 37.481032 
L 185.582632 35.933657 
L 188.299958 30.470647 
L 190.870329 30.050336 
L 193.308826 34.836104 
L 195.628323 33.500341 
L 197.839897 27.870061 
L 199.953146 40.27176 
L 201.976441 33.129617 
L 203.91713 32.324849 
L 205.781693 32.208707 
L 207.575879 33.741124 
L 209.304806 34.920378 
L 210.973057 34.129294 
L 212.584746 34.734799 
L 214.143583 30.060049 
L 215.652924 31.16581 
L 217.115817 21.598037 
L 218.535035 17.684984 
L 219.91311 20.857261 
" style="fill:none;stroke:#aec7e8;stroke-linecap:square;"/>
   </g>
   <g id="line2d_32">
    <path clip-path="url(#p59e20642fa)" d="M 50.890909 44.074719 
L 83.843312 40.134708 
L 103.119232 38.812918 
L 116.795715 35.126198 
L 127.40402 31.28558 
L 136.071635 36.267636 
L 143.4 35.748953 
L 149.748118 30.682688 
L 155.347555 30.084671 
L 160.356423 32.646813 
L 164.887494 31.278125 
L 169.024038 30.209517 
L 172.82929 37.665719 
L 176.352403 41.551274 
L 179.632343 35.181985 
L 182.700521 37.481032 
L 185.582632 35.933657 
L 188.299958 30.470647 
L 190.870329 30.050336 
L 193.308826 34.836104 
L 195.628323 33.500341 
L 197.839897 27.870061 
L 199.953146 40.27176 
L 201.976441 33.129617 
L 203.91713 32.324849 
L 205.781693 32.208707 
L 207.575879 33.741124 
L 209.304806 34.920378 
L 210.973057 34.129294 
L 212.584746 34.734799 
L 214.143583 30.060049 
L 215.652924 31.16581 
L 217.115817 21.598037 
L 218.535035 17.684984 
L 219.91311 20.857261 
" style="fill:none;stroke:#aec7e8;stroke-linecap:square;stroke-opacity:0.3;stroke-width:3;"/>
   </g>
   <g id="line2d_33">
    <path clip-path="url(#p59e20642fa)" d="M 50.890909 52.833802 
L 83.843312 55.17781 
L 103.119232 42.762387 
L 116.795715 42.766699 
L 127.40402 34.827207 
L 136.071635 32.377855 
L 143.4 29.39655 
L 149.748118 27.603337 
L 155.347555 29.230555 
L 160.356423 30.794507 
L 164.887494 30.546466 
L 169.024038 32.147773 
L 172.82929 33.085448 
L 176.352403 30.153402 
L 179.632343 29.126335 
L 182.700521 27.970899 
L 185.582632 26.07563 
L 188.299958 24.691794 
L 190.870329 24.254966 
L 193.308826 25.796124 
L 195.628323 25.749436 
L 197.839897 30.218154 
L 199.953146 28.928797 
L 201.976441 32.248711 
L 203.91713 33.905089 
L 205.781693 34.684306 
L 207.575879 32.069162 
L 209.304806 31.64862 
L 210.973057 31.551708 
L 212.584746 30.491514 
L 214.143583 31.92144 
L 215.652924 29.233643 
L 217.115817 29.532784 
L 218.535035 30.353715 
L 219.91311 29.319087 
L 221.252362 31.294342 
L 222.554916 30.619081 
L 223.822732 30.562406 
L 225.057613 26.863519 
L 226.261229 26.859694 
L 227.435122 24.453886 
L 228.580726 21.381792 
L 229.699372 18.672708 
L 230.7923 21.568821 
L 231.860666 18.696801 
L 232.905549 21.01262 
L 233.92796 18.606865 
L 234.928844 24.555804 
L 235.909091 6.656691 
" style="fill:none;stroke:#aec7e8;stroke-linecap:square;"/>
   </g>
   <g id="line2d_34">
    <path clip-path="url(#p59e20642fa)" d="M 50.890909 52.833802 
L 83.843312 55.17781 
L 103.119232 42.762387 
L 116.795715 42.766699 
L 127.40402 34.827207 
L 136.071635 32.377855 
L 143.4 29.39655 
L 149.748118 27.603337 
L 155.347555 29.230555 
L 160.356423 30.794507 
L 164.887494 30.546466 
L 169.024038 32.147773 
L 172.82929 33.085448 
L 176.352403 30.153402 
L 179.632343 29.126335 
L 182.700521 27.970899 
L 185.582632 26.07563 
L 188.299958 24.691794 
L 190.870329 24.254966 
L 193.308826 25.796124 
L 195.628323 25.749436 
L 197.839897 30.218154 
L 199.953146 28.928797 
L 201.976441 32.248711 
L 203.91713 33.905089 
L 205.781693 34.684306 
L 207.575879 32.069162 
L 209.304806 31.64862 
L 210.973057 31.551708 
L 212.584746 30.491514 
L 214.143583 31.92144 
L 215.652924 29.233643 
L 217.115817 29.532784 
L 218.535035 30.353715 
L 219.91311 29.319087 
L 221.252362 31.294342 
L 222.554916 30.619081 
L 223.822732 30.562406 
L 225.057613 26.863519 
L 226.261229 26.859694 
L 227.435122 24.453886 
L 228.580726 21.381792 
L 229.699372 18.672708 
L 230.7923 21.568821 
L 231.860666 18.696801 
L 232.905549 21.01262 
L 233.92796 18.606865 
L 234.928844 24.555804 
L 235.909091 6.656691 
" style="fill:none;stroke:#aec7e8;stroke-linecap:square;stroke-opacity:0.3;stroke-width:3;"/>
   </g>
   <g id="line2d_35">
    <path clip-path="url(#p59e20642fa)" d="M 50.890909 80.74522 
L 83.843312 78.817242 
L 103.119232 103.694396 
L 116.795715 76.11129 
L 127.40402 91.826711 
L 136.071635 74.580654 
L 143.4 76.284025 
L 149.748118 97.271987 
L 155.347555 70.887388 
L 160.356423 76.663304 
L 164.887494 83.243737 
L 169.024038 71.486715 
L 172.82929 86.47394 
L 176.352403 80.689078 
L 179.632343 71.36997 
L 182.700521 70.652635 
L 185.582632 57.733113 
L 188.299958 83.746009 
L 190.870329 71.456653 
L 193.308826 60.926211 
L 195.628323 71.187778 
L 197.839897 107.561896 
L 199.953146 87.296061 
L 200.4557 482.197516 
M 203.427453 482.197516 
L 203.91713 78.924302 
L 205.781693 101.577563 
L 207.575879 62.268817 
L 209.304806 65.221185 
L 210.973057 85.981443 
L 212.584746 79.796286 
L 214.143583 92.239145 
L 215.652924 69.845393 
L 217.115817 70.905507 
L 218.535035 97.912133 
L 221.252362 91.824262 
L 223.822732 72.901235 
L 225.057613 80.530339 
L 226.261229 71.290952 
L 227.435122 64.693828 
L 229.699372 77.492121 
L 232.905549 60.0295 
L 233.92796 87.184235 
L 234.928844 90.903275 
" style="fill:none;stroke:#aec7e8;stroke-linecap:square;"/>
   </g>
   <g id="line2d_36">
    <path clip-path="url(#p59e20642fa)" d="M 50.890909 80.74522 
L 83.843312 78.817242 
L 103.119232 103.694396 
L 116.795715 76.11129 
L 127.40402 91.826711 
L 136.071635 74.580654 
L 143.4 76.284025 
L 149.748118 97.271987 
L 155.347555 70.887388 
L 160.356423 76.663304 
L 164.887494 83.243737 
L 169.024038 71.486715 
L 172.82929 86.47394 
L 176.352403 80.689078 
L 179.632343 71.36997 
L 182.700521 70.652635 
L 185.582632 57.733113 
L 188.299958 83.746009 
L 190.870329 71.456653 
L 193.308826 60.926211 
L 195.628323 71.187778 
L 197.839897 107.561896 
L 199.953146 87.296061 
L 200.4557 482.197516 
M 203.427453 482.197516 
L 203.91713 78.924302 
L 205.781693 101.577563 
L 207.575879 62.268817 
L 209.304806 65.221185 
L 210.973057 85.981443 
L 212.584746 79.796286 
L 214.143583 92.239145 
L 215.652924 69.845393 
L 217.115817 70.905507 
L 218.535035 97.912133 
L 221.252362 91.824262 
L 223.822732 72.901235 
L 225.057613 80.530339 
L 226.261229 71.290952 
L 227.435122 64.693828 
L 229.699372 77.492121 
L 232.905549 60.0295 
L 233.92796 87.184235 
L 234.928844 90.903275 
" style="fill:none;stroke:#aec7e8;stroke-linecap:square;stroke-opacity:0.3;stroke-width:3;"/>
   </g>
   <g id="line2d_37">
    <path clip-path="url(#p59e20642fa)" d="M 50.890909 54.320666 
L 83.843312 48.881944 
L 103.119232 44.374461 
L 116.795715 40.975363 
L 127.40402 43.865033 
L 136.071635 41.757142 
L 143.4 39.522022 
L 149.748118 41.395779 
L 155.347555 41.466249 
L 160.356423 44.669186 
L 164.887494 47.025507 
L 169.024038 46.182194 
L 172.82929 44.216977 
L 176.352403 43.501139 
L 179.632343 41.706189 
L 182.700521 40.017793 
L 185.582632 40.12837 
L 188.299958 39.656959 
L 190.870329 40.429824 
L 193.308826 41.033555 
L 195.628323 38.236129 
L 197.839897 42.594351 
L 199.953146 45.37023 
L 201.976441 42.300135 
L 203.91713 41.809321 
L 205.781693 39.802148 
L 207.575879 39.638144 
L 209.304806 37.137741 
L 210.973057 40.447612 
L 212.584746 42.84162 
L 214.143583 42.731458 
L 215.652924 47.798639 
L 217.115817 43.57287 
L 218.535035 43.618439 
L 219.91311 44.631199 
L 221.252362 41.28704 
L 222.554916 39.539371 
L 223.822732 39.626626 
L 225.057613 37.093163 
L 226.261229 36.417963 
L 227.435122 37.799405 
L 228.580726 37.744373 
L 229.699372 37.611379 
L 230.7923 39.234978 
L 231.860666 44.250799 
L 232.905549 46.438569 
L 233.92796 35.83877 
L 234.928844 39.624955 
L 235.909091 16.658796 
" style="fill:none;stroke:#aec7e8;stroke-linecap:square;"/>
   </g>
   <g id="line2d_38">
    <path clip-path="url(#p59e20642fa)" d="M 50.890909 54.320666 
L 83.843312 48.881944 
L 103.119232 44.374461 
L 116.795715 40.975363 
L 127.40402 43.865033 
L 136.071635 41.757142 
L 143.4 39.522022 
L 149.748118 41.395779 
L 155.347555 41.466249 
L 160.356423 44.669186 
L 164.887494 47.025507 
L 169.024038 46.182194 
L 172.82929 44.216977 
L 176.352403 43.501139 
L 179.632343 41.706189 
L 182.700521 40.017793 
L 185.582632 40.12837 
L 188.299958 39.656959 
L 190.870329 40.429824 
L 193.308826 41.033555 
L 195.628323 38.236129 
L 197.839897 42.594351 
L 199.953146 45.37023 
L 201.976441 42.300135 
L 203.91713 41.809321 
L 205.781693 39.802148 
L 207.575879 39.638144 
L 209.304806 37.137741 
L 210.973057 40.447612 
L 212.584746 42.84162 
L 214.143583 42.731458 
L 215.652924 47.798639 
L 217.115817 43.57287 
L 218.535035 43.618439 
L 219.91311 44.631199 
L 221.252362 41.28704 
L 222.554916 39.539371 
L 223.822732 39.626626 
L 225.057613 37.093163 
L 226.261229 36.417963 
L 227.435122 37.799405 
L 228.580726 37.744373 
L 229.699372 37.611379 
L 230.7923 39.234978 
L 231.860666 44.250799 
L 232.905549 46.438569 
L 233.92796 35.83877 
L 234.928844 39.624955 
L 235.909091 16.658796 
" style="fill:none;stroke:#aec7e8;stroke-linecap:square;stroke-opacity:0.3;stroke-width:3;"/>
   </g>
   <g id="line2d_39">
    <path clip-path="url(#p59e20642fa)" d="M 50.890909 40.932843 
L 83.843312 34.23775 
L 103.119232 27.910707 
L 116.795715 27.160256 
L 127.40402 30.612194 
L 136.071635 30.707267 
L 143.4 34.524652 
L 149.748118 31.520377 
L 155.347555 28.872827 
L 160.356423 25.531324 
L 164.887494 24.050876 
L 169.024038 26.193866 
L 172.82929 28.692873 
L 176.352403 25.58017 
L 179.632343 31.670776 
L 182.700521 33.005831 
L 185.582632 30.941355 
L 188.299958 26.327005 
L 190.870329 25.774461 
L 193.308826 28.282216 
L 195.628323 29.216257 
L 197.839897 29.139237 
L 199.953146 29.943728 
L 201.976441 31.836579 
L 203.91713 28.137396 
L 205.781693 28.440682 
L 207.575879 34.565616 
L 209.304806 27.615938 
L 210.973057 32.388722 
L 212.584746 29.616145 
L 214.143583 32.861528 
L 215.652924 38.352149 
L 217.115817 36.23292 
L 218.535035 32.324301 
L 219.91311 39.176025 
L 221.252362 37.039691 
L 222.554916 38.761978 
L 223.822732 32.402579 
L 225.057613 38.818537 
L 226.261229 35.055189 
L 227.435122 36.924842 
L 228.580726 41.335339 
L 229.699372 30.473198 
L 230.7923 38.971809 
L 231.860666 30.54993 
L 232.905549 26.690182 
L 233.92796 37.554638 
L 234.928844 53.90701 
" style="fill:none;stroke:#aec7e8;stroke-linecap:square;"/>
   </g>
   <g id="line2d_40">
    <path clip-path="url(#p59e20642fa)" d="M 50.890909 40.932843 
L 83.843312 34.23775 
L 103.119232 27.910707 
L 116.795715 27.160256 
L 127.40402 30.612194 
L 136.071635 30.707267 
L 143.4 34.524652 
L 149.748118 31.520377 
L 155.347555 28.872827 
L 160.356423 25.531324 
L 164.887494 24.050876 
L 169.024038 26.193866 
L 172.82929 28.692873 
L 176.352403 25.58017 
L 179.632343 31.670776 
L 182.700521 33.005831 
L 185.582632 30.941355 
L 188.299958 26.327005 
L 190.870329 25.774461 
L 193.308826 28.282216 
L 195.628323 29.216257 
L 197.839897 29.139237 
L 199.953146 29.943728 
L 201.976441 31.836579 
L 203.91713 28.137396 
L 205.781693 28.440682 
L 207.575879 34.565616 
L 209.304806 27.615938 
L 210.973057 32.388722 
L 212.584746 29.616145 
L 214.143583 32.861528 
L 215.652924 38.352149 
L 217.115817 36.23292 
L 218.535035 32.324301 
L 219.91311 39.176025 
L 221.252362 37.039691 
L 222.554916 38.761978 
L 223.822732 32.402579 
L 225.057613 38.818537 
L 226.261229 35.055189 
L 227.435122 36.924842 
L 228.580726 41.335339 
L 229.699372 30.473198 
L 230.7923 38.971809 
L 231.860666 30.54993 
L 232.905549 26.690182 
L 233.92796 37.554638 
L 234.928844 53.90701 
" style="fill:none;stroke:#aec7e8;stroke-linecap:square;stroke-opacity:0.3;stroke-width:3;"/>
   </g>
   <g id="line2d_41">
    <path clip-path="url(#p59e20642fa)" d="M 50.890909 34.026234 
L 83.843312 28.458894 
L 103.119232 29.331652 
L 116.795715 29.596711 
L 127.40402 30.366363 
L 136.071635 24.558984 
L 143.4 24.595917 
L 149.748118 32.50297 
L 155.347555 25.039793 
L 160.356423 26.243186 
L 164.887494 28.803934 
L 169.024038 28.348312 
L 172.82929 30.468809 
L 176.352403 32.572364 
L 179.632343 30.618015 
L 182.700521 33.019422 
L 185.582632 24.929215 
L 188.299958 27.992713 
L 190.870329 30.203168 
L 193.308826 27.659548 
L 195.628323 26.856254 
L 197.839897 23.681647 
L 199.953146 28.209426 
L 201.976441 31.069709 
L 203.91713 21.381603 
L 205.781693 30.872986 
L 207.575879 31.294263 
L 209.304806 28.471583 
L 210.973057 25.230125 
L 212.584746 20.168908 
L 214.143583 28.682285 
L 215.652924 29.463741 
L 217.115817 21.31205 
L 218.535035 27.257537 
L 219.91311 26.486185 
L 221.252362 19.488457 
L 222.554916 20.085862 
L 223.822732 21.807079 
L 225.057613 30.172867 
L 226.261229 30.181292 
L 227.435122 17.894795 
L 228.580726 30.047417 
L 229.699372 27.209281 
L 230.7923 25.719635 
L 231.860666 21.296688 
L 232.905549 12.977626 
L 233.92796 27.968387 
L 234.928844 8.28437 
L 235.909091 14.532771 
" style="fill:none;stroke:#aec7e8;stroke-linecap:square;"/>
   </g>
   <g id="line2d_42">
    <path clip-path="url(#p59e20642fa)" d="M 50.890909 34.026234 
L 83.843312 28.458894 
L 103.119232 29.331652 
L 116.795715 29.596711 
L 127.40402 30.366363 
L 136.071635 24.558984 
L 143.4 24.595917 
L 149.748118 32.50297 
L 155.347555 25.039793 
L 160.356423 26.243186 
L 164.887494 28.803934 
L 169.024038 28.348312 
L 172.82929 30.468809 
L 176.352403 32.572364 
L 179.632343 30.618015 
L 182.700521 33.019422 
L 185.582632 24.929215 
L 188.299958 27.992713 
L 190.870329 30.203168 
L 193.308826 27.659548 
L 195.628323 26.856254 
L 197.839897 23.681647 
L 199.953146 28.209426 
L 201.976441 31.069709 
L 203.91713 21.381603 
L 205.781693 30.872986 
L 207.575879 31.294263 
L 209.304806 28.471583 
L 210.973057 25.230125 
L 212.584746 20.168908 
L 214.143583 28.682285 
L 215.652924 29.463741 
L 217.115817 21.31205 
L 218.535035 27.257537 
L 219.91311 26.486185 
L 221.252362 19.488457 
L 222.554916 20.085862 
L 223.822732 21.807079 
L 225.057613 30.172867 
L 226.261229 30.181292 
L 227.435122 17.894795 
L 228.580726 30.047417 
L 229.699372 27.209281 
L 230.7923 25.719635 
L 231.860666 21.296688 
L 232.905549 12.977626 
L 233.92796 27.968387 
L 234.928844 8.28437 
L 235.909091 14.532771 
" style="fill:none;stroke:#aec7e8;stroke-linecap:square;stroke-opacity:0.3;stroke-width:3;"/>
   </g>
   <g id="line2d_43">
    <path clip-path="url(#p59e20642fa)" d="M 50.890909 38.248447 
L 83.843312 31.507387 
L 103.119232 33.718903 
L 116.795715 29.397234 
L 127.40402 31.714399 
L 136.071635 28.078711 
L 143.4 28.509521 
L 149.748118 27.207968 
L 155.347555 29.206653 
L 160.356423 25.4046 
L 164.887494 28.839252 
L 169.024038 30.370833 
L 172.82929 29.337716 
L 176.352403 38.78613 
L 179.632343 36.806939 
L 182.700521 29.374247 
L 185.582632 34.453343 
L 188.299958 39.209382 
L 190.870329 32.452322 
L 193.308826 39.664556 
L 195.628323 33.652564 
L 197.839897 35.339482 
L 199.953146 41.781311 
L 201.976441 26.606269 
L 203.91713 26.363895 
L 205.781693 39.43511 
L 207.575879 37.009905 
" style="fill:none;stroke:#aec7e8;stroke-linecap:square;"/>
   </g>
   <g id="line2d_44">
    <path clip-path="url(#p59e20642fa)" d="M 50.890909 38.248447 
L 83.843312 31.507387 
L 103.119232 33.718903 
L 116.795715 29.397234 
L 127.40402 31.714399 
L 136.071635 28.078711 
L 143.4 28.509521 
L 149.748118 27.207968 
L 155.347555 29.206653 
L 160.356423 25.4046 
L 164.887494 28.839252 
L 169.024038 30.370833 
L 172.82929 29.337716 
L 176.352403 38.78613 
L 179.632343 36.806939 
L 182.700521 29.374247 
L 185.582632 34.453343 
L 188.299958 39.209382 
L 190.870329 32.452322 
L 193.308826 39.664556 
L 195.628323 33.652564 
L 197.839897 35.339482 
L 199.953146 41.781311 
L 201.976441 26.606269 
L 203.91713 26.363895 
L 205.781693 39.43511 
L 207.575879 37.009905 
" style="fill:none;stroke:#aec7e8;stroke-linecap:square;stroke-opacity:0.3;stroke-width:3;"/>
   </g>
   <g id="line2d_45">
    <path clip-path="url(#p59e20642fa)" d="M 50.890909 30.983406 
L 83.843312 27.836015 
L 103.119232 28.196719 
L 116.795715 24.870424 
L 127.40402 22.148181 
L 136.071635 22.566444 
L 143.4 21.269324 
L 149.748118 26.853317 
L 155.347555 23.397164 
L 160.356423 22.369204 
L 164.887494 20.777855 
L 169.024038 20.921408 
L 172.82929 21.685869 
L 176.352403 21.778152 
L 179.632343 22.106822 
L 182.700521 23.355461 
L 185.582632 24.942445 
L 188.299958 25.123696 
L 190.870329 27.815042 
L 193.308826 24.514567 
L 195.628323 26.12633 
L 197.839897 25.24857 
L 199.953146 26.590407 
L 201.976441 21.209557 
L 203.91713 23.714923 
L 205.781693 23.674606 
L 207.575879 22.093544 
L 209.304806 21.263429 
L 210.973057 18.178899 
L 212.584746 15.772038 
L 214.143583 29.51483 
L 215.652924 23.305564 
L 217.115817 22.59024 
L 218.535035 20.045575 
L 219.91311 24.746172 
L 221.252362 26.101717 
L 222.554916 17.494249 
L 223.822732 21.089574 
L 225.057613 21.704876 
L 226.261229 20.520265 
L 227.435122 18.689439 
L 228.580726 22.690294 
L 229.699372 23.195797 
L 230.7923 38.770872 
L 231.860666 26.018636 
L 232.905549 42.3923 
L 233.92796 77.492121 
L 234.928844 42.481137 
L 235.909091 44.854527 
" style="fill:none;stroke:#aec7e8;stroke-linecap:square;"/>
   </g>
   <g id="line2d_46">
    <path clip-path="url(#p59e20642fa)" d="M 50.890909 30.983406 
L 83.843312 27.836015 
L 103.119232 28.196719 
L 116.795715 24.870424 
L 127.40402 22.148181 
L 136.071635 22.566444 
L 143.4 21.269324 
L 149.748118 26.853317 
L 155.347555 23.397164 
L 160.356423 22.369204 
L 164.887494 20.777855 
L 169.024038 20.921408 
L 172.82929 21.685869 
L 176.352403 21.778152 
L 179.632343 22.106822 
L 182.700521 23.355461 
L 185.582632 24.942445 
L 188.299958 25.123696 
L 190.870329 27.815042 
L 193.308826 24.514567 
L 195.628323 26.12633 
L 197.839897 25.24857 
L 199.953146 26.590407 
L 201.976441 21.209557 
L 203.91713 23.714923 
L 205.781693 23.674606 
L 207.575879 22.093544 
L 209.304806 21.263429 
L 210.973057 18.178899 
L 212.584746 15.772038 
L 214.143583 29.51483 
L 215.652924 23.305564 
L 217.115817 22.59024 
L 218.535035 20.045575 
L 219.91311 24.746172 
L 221.252362 26.101717 
L 222.554916 17.494249 
L 223.822732 21.089574 
L 225.057613 21.704876 
L 226.261229 20.520265 
L 227.435122 18.689439 
L 228.580726 22.690294 
L 229.699372 23.195797 
L 230.7923 38.770872 
L 231.860666 26.018636 
L 232.905549 42.3923 
L 233.92796 77.492121 
L 234.928844 42.481137 
L 235.909091 44.854527 
" style="fill:none;stroke:#aec7e8;stroke-linecap:square;stroke-opacity:0.3;stroke-width:3;"/>
   </g>
   <g id="line2d_47">
    <path clip-path="url(#p59e20642fa)" d="M 50.890909 109.124421 
L 103.119232 81.857773 
L 116.795715 96.62783 
L 127.40402 80.941804 
L 136.071635 90.903275 
L 143.4 97.912133 
L 149.748118 78.652635 
L 155.347555 131.55818 
L 160.356423 87.468592 
L 164.887494 69.845393 
L 169.024038 99.314328 
L 172.82929 147.655672 
L 176.352403 71.93692 
L 179.632343 84.68662 
L 182.700521 94.180962 
L 190.870329 71.990382 
L 193.308826 59.250612 
L 197.839897 125.304565 
L 199.953146 94.180962 
L 203.91713 83.265705 
L 207.575879 81.46941 
L 209.304806 112.643919 
L 212.584746 77.492121 
L 222.554916 112.643919 
L 228.580726 67.168213 
" style="fill:none;stroke:#aec7e8;stroke-linecap:square;"/>
   </g>
   <g id="line2d_48">
    <path clip-path="url(#p59e20642fa)" d="M 50.890909 109.124421 
L 103.119232 81.857773 
L 116.795715 96.62783 
L 127.40402 80.941804 
L 136.071635 90.903275 
L 143.4 97.912133 
L 149.748118 78.652635 
L 155.347555 131.55818 
L 160.356423 87.468592 
L 164.887494 69.845393 
L 169.024038 99.314328 
L 172.82929 147.655672 
L 176.352403 71.93692 
L 179.632343 84.68662 
L 182.700521 94.180962 
L 190.870329 71.990382 
L 193.308826 59.250612 
L 197.839897 125.304565 
L 199.953146 94.180962 
L 203.91713 83.265705 
L 207.575879 81.46941 
L 209.304806 112.643919 
L 212.584746 77.492121 
L 222.554916 112.643919 
L 228.580726 67.168213 
" style="fill:none;stroke:#aec7e8;stroke-linecap:square;stroke-opacity:0.3;stroke-width:3;"/>
   </g>
   <g id="line2d_49"/>
   <g id="line2d_50"/>
   <g id="line2d_51">
    <path clip-path="url(#p59e20642fa)" d="M 50.890909 38.927055 
L 83.843312 29.745685 
L 103.119232 34.027364 
L 116.795715 35.964716 
L 127.40402 44.927901 
L 136.071635 39.887709 
L 143.4 37.026116 
L 149.748118 62.536348 
L 155.347555 22.773951 
L 160.356423 43.608402 
" style="fill:none;stroke:#aec7e8;stroke-linecap:square;"/>
   </g>
   <g id="line2d_52">
    <path clip-path="url(#p59e20642fa)" d="M 50.890909 38.927055 
L 83.843312 29.745685 
L 103.119232 34.027364 
L 116.795715 35.964716 
L 127.40402 44.927901 
L 136.071635 39.887709 
L 143.4 37.026116 
L 149.748118 62.536348 
L 155.347555 22.773951 
L 160.356423 43.608402 
" style="fill:none;stroke:#aec7e8;stroke-linecap:square;stroke-opacity:0.3;stroke-width:3;"/>
   </g>
   <g id="line2d_53">
    <path clip-path="url(#p59e20642fa)" d="M 50.890909 62.656686 
L 83.843312 48.017583 
L 103.119232 45.393254 
L 116.795715 40.011787 
L 127.40402 42.341424 
L 136.071635 57.331876 
L 143.4 85.088462 
L 149.748118 62.002569 
L 155.347555 51.475099 
L 160.356423 69.266299 
L 164.887494 79.932295 
L 169.024038 64.432847 
L 172.82929 51.990128 
L 176.352403 90.903275 
" style="fill:none;stroke:#aec7e8;stroke-linecap:square;"/>
   </g>
   <g id="line2d_54">
    <path clip-path="url(#p59e20642fa)" d="M 50.890909 62.656686 
L 83.843312 48.017583 
L 103.119232 45.393254 
L 116.795715 40.011787 
L 127.40402 42.341424 
L 136.071635 57.331876 
L 143.4 85.088462 
L 149.748118 62.002569 
L 155.347555 51.475099 
L 160.356423 69.266299 
L 164.887494 79.932295 
L 169.024038 64.432847 
L 172.82929 51.990128 
L 176.352403 90.903275 
" style="fill:none;stroke:#aec7e8;stroke-linecap:square;stroke-opacity:0.3;stroke-width:3;"/>
   </g>
   <g id="line2d_55">
    <path clip-path="url(#p59e20642fa)" d="M 50.890909 60.851555 
L 83.843312 103.966479 
L 103.119232 63.475023 
L 116.795715 71.990382 
L 160.356423 110.278453 
L 169.024038 94.180962 
L 172.82929 53.958895 
L 176.352403 81.857773 
" style="fill:none;stroke:#aec7e8;stroke-linecap:square;"/>
   </g>
   <g id="line2d_56">
    <path clip-path="url(#p59e20642fa)" d="M 50.890909 60.851555 
L 83.843312 103.966479 
L 103.119232 63.475023 
L 116.795715 71.990382 
L 160.356423 110.278453 
L 169.024038 94.180962 
L 172.82929 53.958895 
L 176.352403 81.857773 
" style="fill:none;stroke:#aec7e8;stroke-linecap:square;stroke-opacity:0.3;stroke-width:3;"/>
   </g>
   <g id="line2d_57">
    <path clip-path="url(#p59e20642fa)" d="M 50.890909 45.708296 
L 83.843312 29.833867 
L 103.119232 34.494103 
L 116.795715 30.597742 
L 127.40402 34.948344 
L 136.071635 38.115894 
L 143.4 34.37938 
L 149.748118 34.66559 
L 155.347555 41.342558 
L 160.356423 32.444907 
L 164.887494 36.633873 
L 169.024038 46.367925 
L 172.82929 42.37816 
L 176.352403 31.095905 
L 179.632343 45.286176 
L 182.700521 39.70343 
L 185.582632 33.481502 
L 188.299958 30.319207 
L 190.870329 29.421087 
L 193.308826 35.070875 
L 195.628323 40.830642 
L 197.839897 43.062546 
L 199.953146 30.756587 
L 201.976441 30.342196 
L 203.91713 39.505371 
L 205.781693 24.50548 
L 207.575879 36.841581 
L 209.304806 37.384235 
L 210.973057 33.186326 
L 212.584746 30.671193 
L 214.143583 33.974143 
L 215.652924 31.767427 
L 217.115817 37.678813 
L 218.535035 31.025027 
L 219.91311 24.184238 
L 221.252362 35.780078 
L 222.554916 46.15556 
L 223.822732 35.618995 
L 225.057613 20.766718 
L 226.261229 19.653595 
L 227.435122 33.371758 
L 228.580726 28.362796 
L 229.699372 22.752489 
L 230.7923 35.070157 
L 231.860666 41.473492 
L 232.905549 38.580121 
L 233.92796 25.886831 
L 234.928844 16.119995 
" style="fill:none;stroke:#aec7e8;stroke-linecap:square;"/>
   </g>
   <g id="line2d_58">
    <path clip-path="url(#p59e20642fa)" d="M 50.890909 45.708296 
L 83.843312 29.833867 
L 103.119232 34.494103 
L 116.795715 30.597742 
L 127.40402 34.948344 
L 136.071635 38.115894 
L 143.4 34.37938 
L 149.748118 34.66559 
L 155.347555 41.342558 
L 160.356423 32.444907 
L 164.887494 36.633873 
L 169.024038 46.367925 
L 172.82929 42.37816 
L 176.352403 31.095905 
L 179.632343 45.286176 
L 182.700521 39.70343 
L 185.582632 33.481502 
L 188.299958 30.319207 
L 190.870329 29.421087 
L 193.308826 35.070875 
L 195.628323 40.830642 
L 197.839897 43.062546 
L 199.953146 30.756587 
L 201.976441 30.342196 
L 203.91713 39.505371 
L 205.781693 24.50548 
L 207.575879 36.841581 
L 209.304806 37.384235 
L 210.973057 33.186326 
L 212.584746 30.671193 
L 214.143583 33.974143 
L 215.652924 31.767427 
L 217.115817 37.678813 
L 218.535035 31.025027 
L 219.91311 24.184238 
L 221.252362 35.780078 
L 222.554916 46.15556 
L 223.822732 35.618995 
L 225.057613 20.766718 
L 226.261229 19.653595 
L 227.435122 33.371758 
L 228.580726 28.362796 
L 229.699372 22.752489 
L 230.7923 35.070157 
L 231.860666 41.473492 
L 232.905549 38.580121 
L 233.92796 25.886831 
L 234.928844 16.119995 
" style="fill:none;stroke:#aec7e8;stroke-linecap:square;stroke-opacity:0.3;stroke-width:3;"/>
   </g>
   <g id="line2d_59">
    <path clip-path="url(#p59e20642fa)" d="M 50.890909 80.023153 
L 83.843312 80.602351 
L 103.119232 54.937999 
L 116.795715 78.08347 
L 127.40402 81.857773 
L 136.071635 103.966479 
L 143.4 77.50287 
L 149.748118 83.501364 
L 155.347555 61.697481 
L 160.356423 49.487295 
L 164.887494 59.250612 
L 169.024038 71.990382 
L 172.82929 88.969389 
L 176.352403 103.684948 
L 179.632343 53.356871 
L 185.582632 66.722568 
L 188.299958 86.030052 
L 190.870329 100.813149 
L 193.308826 60.353491 
L 195.628323 56.093046 
L 197.839897 53.356871 
L 199.953146 83.501364 
L 201.976441 107.998368 
L 205.781693 61.688422 
L 207.575879 69.340816 
L 209.304806 68.799895 
L 210.973057 88.921972 
L 212.584746 92.239145 
L 214.143583 115.460688 
L 215.652924 107.998368 
" style="fill:none;stroke:#aec7e8;stroke-linecap:square;"/>
   </g>
   <g id="line2d_60">
    <path clip-path="url(#p59e20642fa)" d="M 50.890909 80.023153 
L 83.843312 80.602351 
L 103.119232 54.937999 
L 116.795715 78.08347 
L 127.40402 81.857773 
L 136.071635 103.966479 
L 143.4 77.50287 
L 149.748118 83.501364 
L 155.347555 61.697481 
L 160.356423 49.487295 
L 164.887494 59.250612 
L 169.024038 71.990382 
L 172.82929 88.969389 
L 176.352403 103.684948 
L 179.632343 53.356871 
L 185.582632 66.722568 
L 188.299958 86.030052 
L 190.870329 100.813149 
L 193.308826 60.353491 
L 195.628323 56.093046 
L 197.839897 53.356871 
L 199.953146 83.501364 
L 201.976441 107.998368 
L 205.781693 61.688422 
L 207.575879 69.340816 
L 209.304806 68.799895 
L 210.973057 88.921972 
L 212.584746 92.239145 
L 214.143583 115.460688 
L 215.652924 107.998368 
" style="fill:none;stroke:#aec7e8;stroke-linecap:square;stroke-opacity:0.3;stroke-width:3;"/>
   </g>
   <g id="line2d_61">
    <path clip-path="url(#p59e20642fa)" d="M 50.890909 51.801033 
L 127.516769 51.801033 
" style="fill:none;stroke:#000000;stroke-linecap:square;stroke-width:1.5;"/>
   </g>
   <g id="line2d_62">
    <path clip-path="url(#p59e20642fa)" d="M 50.890909 51.801033 
L 127.516769 51.801033 
" style="fill:none;stroke:#000000;stroke-linecap:square;stroke-width:1.5;"/>
   </g>
   <g id="line2d_63">
    <path clip-path="url(#p59e20642fa)" d="M 127.516769 51.801033 
L 127.516769 51.801033 
" style="fill:none;stroke:#000000;stroke-linecap:square;stroke-width:1.5;"/>
   </g>
   <g id="line2d_64">
    <path clip-path="url(#p59e20642fa)" d="M 146.67994 100.247791 
L 223.305799 62.815494 
" style="fill:none;stroke:#000000;stroke-linecap:square;stroke-width:1.5;"/>
   </g>
   <g id="line2d_65">
    <path clip-path="url(#p59e20642fa)" d="M 146.67994 100.247791 
L 223.305799 100.247791 
" style="fill:none;stroke:#000000;stroke-linecap:square;stroke-width:1.5;"/>
   </g>
   <g id="line2d_66">
    <path clip-path="url(#p59e20642fa)" d="M 223.305799 100.247791 
L 223.305799 62.815494 
" style="fill:none;stroke:#000000;stroke-linecap:square;stroke-width:1.5;"/>
   </g>
   <g id="patch_3">
    <path d="M 41.64 128.821652 
L 41.64 3.039375 
" style="fill:none;stroke:#000000;stroke-linecap:square;stroke-linejoin:miter;stroke-width:0.8;"/>
   </g>
   <g id="patch_4">
    <path d="M 245.16 128.821652 
L 245.16 3.039375 
" style="fill:none;stroke:#000000;stroke-linecap:square;stroke-linejoin:miter;stroke-width:0.8;"/>
   </g>
   <g id="patch_5">
    <path d="M 41.64 128.821652 
L 245.16 128.821652 
" style="fill:none;stroke:#000000;stroke-linecap:square;stroke-linejoin:miter;stroke-width:0.8;"/>
   </g>
   <g id="patch_6">
    <path d="M 41.64 3.039375 
L 245.16 3.039375 
" style="fill:none;stroke:#000000;stroke-linecap:square;stroke-linejoin:miter;stroke-width:0.8;"/>
   </g>
   <g id="line2d_67">
    <path clip-path="url(#p59e20642fa)" d="M 50.890909 86.743484 
L 83.843312 85.797363 
L 103.119232 86.865218 
L 116.795715 82.593546 
L 127.40402 76.632835 
L 136.071635 80.421149 
L 143.4 69.276843 
L 149.748118 72.400231 
L 155.347555 67.992844 
L 160.356423 72.205739 
L 164.887494 78.740872 
L 169.024038 75.840552 
L 172.82929 68.783047 
L 176.352403 69.168903 
L 179.632343 71.070289 
L 182.700521 72.688113 
L 185.582632 67.770816 
L 188.299958 75.132174 
L 190.870329 69.603468 
L 193.308826 63.997236 
L 195.628323 67.484626 
L 197.839897 65.853944 
L 199.953146 65.814496 
L 201.976441 59.524388 
L 203.91713 56.210772 
L 205.781693 57.184123 
L 207.575879 52.902082 
L 209.304806 50.742387 
L 210.973057 52.637099 
L 212.584746 55.496826 
L 214.143583 53.742911 
L 215.652924 49.024391 
L 217.115817 49.589424 
L 218.535035 56.6615 
L 219.91311 54.40842 
L 221.252362 53.976372 
L 222.554916 46.674769 
L 223.822732 42.17349 
L 225.057613 50.581917 
L 226.261229 55.968029 
L 227.435122 42.601288 
L 228.580726 37.131161 
" style="fill:none;stroke:#1f77b4;stroke-linecap:square;stroke-width:5;"/>
   </g>
   <g id="text_8">
    <g id="patch_7">
     <path d="M 75.083839 65.019754 
L 103.323839 65.019754 
L 103.323839 49.277254 
L 75.083839 49.277254 
z
" style="fill:#ffffff;fill-opacity:0.9;stroke:#ffffff;stroke-linejoin:miter;stroke-opacity:0.9;"/>
    </g>
    <!-- $\alpha=0$ -->
    <g transform="translate(79.083839 59.356004)scale(0.08 -0.08)">
     <defs>
      <path d="M 2619 1628 
L 2622 2350 
Q 2625 3088 2069 3091 
Q 1653 3094 1394 2747 
Q 1069 2319 959 1747 
Q 825 1059 994 731 
Q 1169 397 1547 397 
Q 1966 397 2319 1063 
L 2619 1628 
z
M 2166 3578 
Q 3141 3594 3128 2584 
Q 3128 2584 3616 3500 
L 4128 3500 
L 3119 1603 
L 3109 919 
Q 3109 766 3194 638 
Q 3291 488 3391 488 
L 3669 488 
L 3575 0 
L 3228 0 
Q 2934 0 2722 263 
Q 2622 394 2619 669 
Q 2416 334 2066 50 
Q 1900 -81 1453 -78 
Q 722 -72 456 397 
Q 184 884 353 1747 
Q 534 2675 1009 3097 
Q 1544 3569 2166 3578 
z
" id="DejaVuSans-Oblique-3b1" transform="scale(0.015625)"/>
      <path d="M 678 2906 
L 4684 2906 
L 4684 2381 
L 678 2381 
L 678 2906 
z
M 678 1631 
L 4684 1631 
L 4684 1100 
L 678 1100 
L 678 1631 
z
" id="DejaVuSans-3d" transform="scale(0.015625)"/>
     </defs>
     <use transform="translate(0 0.78125)" xlink:href="#DejaVuSans-Oblique-3b1"/>
     <use transform="translate(85.400391 0.78125)" xlink:href="#DejaVuSans-3d"/>
     <use transform="translate(188.671875 0.78125)" xlink:href="#DejaVuSans-30"/>
    </g>
   </g>
   <g id="text_9">
    <g id="patch_8">
     <path d="M 167.072869 113.466512 
L 202.912869 113.466512 
L 202.912869 97.724012 
L 167.072869 97.724012 
z
" style="fill:#ffffff;fill-opacity:0.9;stroke:#ffffff;stroke-linejoin:miter;stroke-opacity:0.9;"/>
    </g>
    <!-- $\alpha=0.5$ -->
    <g transform="translate(171.072869 107.802762)scale(0.08 -0.08)">
     <defs>
      <path d="M 684 794 
L 1344 794 
L 1344 0 
L 684 0 
L 684 794 
z
" id="DejaVuSans-2e" transform="scale(0.015625)"/>
      <path d="M 691 4666 
L 3169 4666 
L 3169 4134 
L 1269 4134 
L 1269 2991 
Q 1406 3038 1543 3061 
Q 1681 3084 1819 3084 
Q 2600 3084 3056 2656 
Q 3513 2228 3513 1497 
Q 3513 744 3044 326 
Q 2575 -91 1722 -91 
Q 1428 -91 1123 -41 
Q 819 9 494 109 
L 494 744 
Q 775 591 1075 516 
Q 1375 441 1709 441 
Q 2250 441 2565 725 
Q 2881 1009 2881 1497 
Q 2881 1984 2565 2268 
Q 2250 2553 1709 2553 
Q 1456 2553 1204 2497 
Q 953 2441 691 2322 
L 691 4666 
z
" id="DejaVuSans-35" transform="scale(0.015625)"/>
     </defs>
     <use transform="translate(0 0.78125)" xlink:href="#DejaVuSans-Oblique-3b1"/>
     <use transform="translate(85.400391 0.78125)" xlink:href="#DejaVuSans-3d"/>
     <use transform="translate(188.671875 0.78125)" xlink:href="#DejaVuSans-30"/>
     <use transform="translate(252.294922 0.78125)" xlink:href="#DejaVuSans-2e"/>
     <use transform="translate(284.082031 0.78125)" xlink:href="#DejaVuSans-35"/>
    </g>
   </g>
  </g>
  <g id="axes_2">
   <g id="patch_9">
    <path d="M 41.64 302.835533 
L 245.16 302.835533 
L 245.16 177.053255 
L 41.64 177.053255 
z
" style="fill:#ffffff;"/>
   </g>
   <g id="matplotlib.axis_3">
    <g id="xtick_18">
     <g id="line2d_68">
      <g>
       <use style="stroke:#000000;stroke-width:0.8;" x="50.890909" xlink:href="#m4a2e2dc33d" y="302.835533"/>
      </g>
     </g>
     <g id="text_10">
      <!-- $\mathdefault{10^{1}}$ -->
      <g transform="translate(43.850909 315.914283)scale(0.08 -0.08)">
       <use transform="translate(0 0.684375)" xlink:href="#DejaVuSans-31"/>
       <use transform="translate(63.623047 0.684375)" xlink:href="#DejaVuSans-30"/>
       <use transform="translate(128.203125 38.965625)scale(0.7)" xlink:href="#DejaVuSans-31"/>
      </g>
     </g>
    </g>
    <g id="xtick_19">
     <g id="line2d_69">
      <g>
       <use style="stroke:#000000;stroke-width:0.8;" x="112.563636" xlink:href="#m4a2e2dc33d" y="302.835533"/>
      </g>
     </g>
     <g id="text_11">
      <!-- $\mathdefault{10^{2}}$ -->
      <g transform="translate(105.523636 315.914283)scale(0.08 -0.08)">
       <use transform="translate(0 0.765625)" xlink:href="#DejaVuSans-31"/>
       <use transform="translate(63.623047 0.765625)" xlink:href="#DejaVuSans-30"/>
       <use transform="translate(128.203125 39.046875)scale(0.7)" xlink:href="#DejaVuSans-32"/>
      </g>
     </g>
    </g>
    <g id="xtick_20">
     <g id="line2d_70">
      <g>
       <use style="stroke:#000000;stroke-width:0.8;" x="174.236364" xlink:href="#m4a2e2dc33d" y="302.835533"/>
      </g>
     </g>
     <g id="text_12">
      <!-- $\mathdefault{10^{3}}$ -->
      <g transform="translate(167.196364 315.914283)scale(0.08 -0.08)">
       <use transform="translate(0 0.765625)" xlink:href="#DejaVuSans-31"/>
       <use transform="translate(63.623047 0.765625)" xlink:href="#DejaVuSans-30"/>
       <use transform="translate(128.203125 39.046875)scale(0.7)" xlink:href="#DejaVuSans-33"/>
      </g>
     </g>
    </g>
    <g id="xtick_21">
     <g id="line2d_71">
      <g>
       <use style="stroke:#000000;stroke-width:0.8;" x="235.909091" xlink:href="#m4a2e2dc33d" y="302.835533"/>
      </g>
     </g>
     <g id="text_13">
      <!-- $\mathdefault{10^{4}}$ -->
      <g transform="translate(228.869091 315.914283)scale(0.08 -0.08)">
       <defs>
        <path d="M 2419 4116 
L 825 1625 
L 2419 1625 
L 2419 4116 
z
M 2253 4666 
L 3047 4666 
L 3047 1625 
L 3713 1625 
L 3713 1100 
L 3047 1100 
L 3047 0 
L 2419 0 
L 2419 1100 
L 313 1100 
L 313 1709 
L 2253 4666 
z
" id="DejaVuSans-34" transform="scale(0.015625)"/>
       </defs>
       <use transform="translate(0 0.684375)" xlink:href="#DejaVuSans-31"/>
       <use transform="translate(63.623047 0.684375)" xlink:href="#DejaVuSans-30"/>
       <use transform="translate(128.203125 38.965625)scale(0.7)" xlink:href="#DejaVuSans-34"/>
      </g>
     </g>
    </g>
    <g id="xtick_22">
     <g id="line2d_72">
      <g>
       <use style="stroke:#000000;stroke-width:0.6;" x="44.914204" xlink:href="#ma05c59f4e0" y="302.835533"/>
      </g>
     </g>
    </g>
    <g id="xtick_23">
     <g id="line2d_73">
      <g>
       <use style="stroke:#000000;stroke-width:0.6;" x="48.06892" xlink:href="#ma05c59f4e0" y="302.835533"/>
      </g>
     </g>
    </g>
    <g id="xtick_24">
     <g id="line2d_74">
      <g>
       <use style="stroke:#000000;stroke-width:0.6;" x="69.45625" xlink:href="#ma05c59f4e0" y="302.835533"/>
      </g>
     </g>
    </g>
    <g id="xtick_25">
     <g id="line2d_75">
      <g>
       <use style="stroke:#000000;stroke-width:0.6;" x="80.316278" xlink:href="#ma05c59f4e0" y="302.835533"/>
      </g>
     </g>
    </g>
    <g id="xtick_26">
     <g id="line2d_76">
      <g>
       <use style="stroke:#000000;stroke-width:0.6;" x="88.021591" xlink:href="#ma05c59f4e0" y="302.835533"/>
      </g>
     </g>
    </g>
    <g id="xtick_27">
     <g id="line2d_77">
      <g>
       <use style="stroke:#000000;stroke-width:0.6;" x="93.998296" xlink:href="#ma05c59f4e0" y="302.835533"/>
      </g>
     </g>
    </g>
    <g id="xtick_28">
     <g id="line2d_78">
      <g>
       <use style="stroke:#000000;stroke-width:0.6;" x="98.881619" xlink:href="#ma05c59f4e0" y="302.835533"/>
      </g>
     </g>
    </g>
    <g id="xtick_29">
     <g id="line2d_79">
      <g>
       <use style="stroke:#000000;stroke-width:0.6;" x="103.01041" xlink:href="#ma05c59f4e0" y="302.835533"/>
      </g>
     </g>
    </g>
    <g id="xtick_30">
     <g id="line2d_80">
      <g>
       <use style="stroke:#000000;stroke-width:0.6;" x="106.586932" xlink:href="#ma05c59f4e0" y="302.835533"/>
      </g>
     </g>
    </g>
    <g id="xtick_31">
     <g id="line2d_81">
      <g>
       <use style="stroke:#000000;stroke-width:0.6;" x="109.741647" xlink:href="#ma05c59f4e0" y="302.835533"/>
      </g>
     </g>
    </g>
    <g id="xtick_32">
     <g id="line2d_82">
      <g>
       <use style="stroke:#000000;stroke-width:0.6;" x="131.128977" xlink:href="#ma05c59f4e0" y="302.835533"/>
      </g>
     </g>
    </g>
    <g id="xtick_33">
     <g id="line2d_83">
      <g>
       <use style="stroke:#000000;stroke-width:0.6;" x="141.989005" xlink:href="#ma05c59f4e0" y="302.835533"/>
      </g>
     </g>
    </g>
    <g id="xtick_34">
     <g id="line2d_84">
      <g>
       <use style="stroke:#000000;stroke-width:0.6;" x="149.694318" xlink:href="#ma05c59f4e0" y="302.835533"/>
      </g>
     </g>
    </g>
    <g id="xtick_35">
     <g id="line2d_85">
      <g>
       <use style="stroke:#000000;stroke-width:0.6;" x="155.671023" xlink:href="#ma05c59f4e0" y="302.835533"/>
      </g>
     </g>
    </g>
    <g id="xtick_36">
     <g id="line2d_86">
      <g>
       <use style="stroke:#000000;stroke-width:0.6;" x="160.554346" xlink:href="#ma05c59f4e0" y="302.835533"/>
      </g>
     </g>
    </g>
    <g id="xtick_37">
     <g id="line2d_87">
      <g>
       <use style="stroke:#000000;stroke-width:0.6;" x="164.683137" xlink:href="#ma05c59f4e0" y="302.835533"/>
      </g>
     </g>
    </g>
    <g id="xtick_38">
     <g id="line2d_88">
      <g>
       <use style="stroke:#000000;stroke-width:0.6;" x="168.259659" xlink:href="#ma05c59f4e0" y="302.835533"/>
      </g>
     </g>
    </g>
    <g id="xtick_39">
     <g id="line2d_89">
      <g>
       <use style="stroke:#000000;stroke-width:0.6;" x="171.414374" xlink:href="#ma05c59f4e0" y="302.835533"/>
      </g>
     </g>
    </g>
    <g id="xtick_40">
     <g id="line2d_90">
      <g>
       <use style="stroke:#000000;stroke-width:0.6;" x="192.801704" xlink:href="#ma05c59f4e0" y="302.835533"/>
      </g>
     </g>
    </g>
    <g id="xtick_41">
     <g id="line2d_91">
      <g>
       <use style="stroke:#000000;stroke-width:0.6;" x="203.661733" xlink:href="#ma05c59f4e0" y="302.835533"/>
      </g>
     </g>
    </g>
    <g id="xtick_42">
     <g id="line2d_92">
      <g>
       <use style="stroke:#000000;stroke-width:0.6;" x="211.367045" xlink:href="#ma05c59f4e0" y="302.835533"/>
      </g>
     </g>
    </g>
    <g id="xtick_43">
     <g id="line2d_93">
      <g>
       <use style="stroke:#000000;stroke-width:0.6;" x="217.34375" xlink:href="#ma05c59f4e0" y="302.835533"/>
      </g>
     </g>
    </g>
    <g id="xtick_44">
     <g id="line2d_94">
      <g>
       <use style="stroke:#000000;stroke-width:0.6;" x="222.227073" xlink:href="#ma05c59f4e0" y="302.835533"/>
      </g>
     </g>
    </g>
    <g id="xtick_45">
     <g id="line2d_95">
      <g>
       <use style="stroke:#000000;stroke-width:0.6;" x="226.355865" xlink:href="#ma05c59f4e0" y="302.835533"/>
      </g>
     </g>
    </g>
    <g id="xtick_46">
     <g id="line2d_96">
      <g>
       <use style="stroke:#000000;stroke-width:0.6;" x="229.932386" xlink:href="#ma05c59f4e0" y="302.835533"/>
      </g>
     </g>
    </g>
    <g id="xtick_47">
     <g id="line2d_97">
      <g>
       <use style="stroke:#000000;stroke-width:0.6;" x="233.087102" xlink:href="#ma05c59f4e0" y="302.835533"/>
      </g>
     </g>
    </g>
    <g id="text_14">
     <!-- time (s) -->
     <g transform="translate(127.886875 327.656783)scale(0.08 -0.08)">
      <use xlink:href="#DejaVuSans-74"/>
      <use x="39.208984" xlink:href="#DejaVuSans-69"/>
      <use x="66.992188" xlink:href="#DejaVuSans-6d"/>
      <use x="164.404297" xlink:href="#DejaVuSans-65"/>
      <use x="225.927734" xlink:href="#DejaVuSans-20"/>
      <use x="257.714844" xlink:href="#DejaVuSans-28"/>
      <use x="296.728516" xlink:href="#DejaVuSans-73"/>
      <use x="348.828125" xlink:href="#DejaVuSans-29"/>
     </g>
    </g>
   </g>
   <g id="matplotlib.axis_4">
    <g id="ytick_12">
     <g id="line2d_98">
      <g>
       <use style="stroke:#000000;stroke-width:0.8;" x="41.64" xlink:href="#m89d920a010" y="251.087686"/>
      </g>
     </g>
     <g id="text_15">
      <!-- $\mathdefault{10^{-1}}$ -->
      <g transform="translate(15.84 254.127061)scale(0.08 -0.08)">
       <use transform="translate(0 0.684375)" xlink:href="#DejaVuSans-31"/>
       <use transform="translate(63.623047 0.684375)" xlink:href="#DejaVuSans-30"/>
       <use transform="translate(128.203125 38.965625)scale(0.7)" xlink:href="#DejaVuSans-2212"/>
       <use transform="translate(186.855469 38.965625)scale(0.7)" xlink:href="#DejaVuSans-31"/>
      </g>
     </g>
    </g>
    <g id="ytick_13">
     <g id="line2d_99">
      <g>
       <use style="stroke:#000000;stroke-width:0.8;" x="41.64" xlink:href="#m89d920a010" y="177.053255"/>
      </g>
     </g>
     <g id="text_16">
      <!-- $\mathdefault{10^{0}}$ -->
      <g transform="translate(20.56 180.09263)scale(0.08 -0.08)">
       <use transform="translate(0 0.765625)" xlink:href="#DejaVuSans-31"/>
       <use transform="translate(63.623047 0.765625)" xlink:href="#DejaVuSans-30"/>
       <use transform="translate(128.203125 39.046875)scale(0.7)" xlink:href="#DejaVuSans-30"/>
      </g>
     </g>
    </g>
    <g id="ytick_14">
     <g id="line2d_100">
      <defs>
       <path d="M 0 0 
L -2 0 
" id="m069a00c844" style="stroke:#000000;stroke-width:0.6;"/>
      </defs>
      <g>
       <use style="stroke:#000000;stroke-width:0.6;" x="41.64" xlink:href="#m069a00c844" y="302.835533"/>
      </g>
     </g>
    </g>
    <g id="ytick_15">
     <g id="line2d_101">
      <g>
       <use style="stroke:#000000;stroke-width:0.6;" x="41.64" xlink:href="#m069a00c844" y="289.798716"/>
      </g>
     </g>
    </g>
    <g id="ytick_16">
     <g id="line2d_102">
      <g>
       <use style="stroke:#000000;stroke-width:0.6;" x="41.64" xlink:href="#m069a00c844" y="280.548948"/>
      </g>
     </g>
    </g>
    <g id="ytick_17">
     <g id="line2d_103">
      <g>
       <use style="stroke:#000000;stroke-width:0.6;" x="41.64" xlink:href="#m069a00c844" y="273.37427"/>
      </g>
     </g>
    </g>
    <g id="ytick_18">
     <g id="line2d_104">
      <g>
       <use style="stroke:#000000;stroke-width:0.6;" x="41.64" xlink:href="#m069a00c844" y="267.512132"/>
      </g>
     </g>
    </g>
    <g id="ytick_19">
     <g id="line2d_105">
      <g>
       <use style="stroke:#000000;stroke-width:0.6;" x="41.64" xlink:href="#m069a00c844" y="262.555764"/>
      </g>
     </g>
    </g>
    <g id="ytick_20">
     <g id="line2d_106">
      <g>
       <use style="stroke:#000000;stroke-width:0.6;" x="41.64" xlink:href="#m069a00c844" y="258.262364"/>
      </g>
     </g>
    </g>
    <g id="ytick_21">
     <g id="line2d_107">
      <g>
       <use style="stroke:#000000;stroke-width:0.6;" x="41.64" xlink:href="#m069a00c844" y="254.475316"/>
      </g>
     </g>
    </g>
    <g id="ytick_22">
     <g id="line2d_108">
      <g>
       <use style="stroke:#000000;stroke-width:0.6;" x="41.64" xlink:href="#m069a00c844" y="228.801102"/>
      </g>
     </g>
    </g>
    <g id="ytick_23">
     <g id="line2d_109">
      <g>
       <use style="stroke:#000000;stroke-width:0.6;" x="41.64" xlink:href="#m069a00c844" y="215.764285"/>
      </g>
     </g>
    </g>
    <g id="ytick_24">
     <g id="line2d_110">
      <g>
       <use style="stroke:#000000;stroke-width:0.6;" x="41.64" xlink:href="#m069a00c844" y="206.514517"/>
      </g>
     </g>
    </g>
    <g id="ytick_25">
     <g id="line2d_111">
      <g>
       <use style="stroke:#000000;stroke-width:0.6;" x="41.64" xlink:href="#m069a00c844" y="199.33984"/>
      </g>
     </g>
    </g>
    <g id="ytick_26">
     <g id="line2d_112">
      <g>
       <use style="stroke:#000000;stroke-width:0.6;" x="41.64" xlink:href="#m069a00c844" y="193.477701"/>
      </g>
     </g>
    </g>
    <g id="ytick_27">
     <g id="line2d_113">
      <g>
       <use style="stroke:#000000;stroke-width:0.6;" x="41.64" xlink:href="#m069a00c844" y="188.521334"/>
      </g>
     </g>
    </g>
    <g id="ytick_28">
     <g id="line2d_114">
      <g>
       <use style="stroke:#000000;stroke-width:0.6;" x="41.64" xlink:href="#m069a00c844" y="184.227933"/>
      </g>
     </g>
    </g>
    <g id="ytick_29">
     <g id="line2d_115">
      <g>
       <use style="stroke:#000000;stroke-width:0.6;" x="41.64" xlink:href="#m069a00c844" y="180.440885"/>
      </g>
     </g>
    </g>
    <g id="text_17">
     <!-- MSCD ($\mu{}m^2$) -->
     <g transform="translate(10.16 264.744394)rotate(-90)scale(0.08 -0.08)">
      <use transform="translate(0 0.765625)" xlink:href="#DejaVuSans-4d"/>
      <use transform="translate(86.279297 0.765625)" xlink:href="#DejaVuSans-53"/>
      <use transform="translate(149.755859 0.765625)" xlink:href="#DejaVuSans-43"/>
      <use transform="translate(219.580078 0.765625)" xlink:href="#DejaVuSans-44"/>
      <use transform="translate(296.582031 0.765625)" xlink:href="#DejaVuSans-20"/>
      <use transform="translate(328.369141 0.765625)" xlink:href="#DejaVuSans-28"/>
      <use transform="translate(367.382812 0.765625)" xlink:href="#DejaVuSans-Oblique-3bc"/>
      <use transform="translate(431.005859 0.765625)" xlink:href="#DejaVuSans-Oblique-6d"/>
      <use transform="translate(533.067865 39.046875)scale(0.7)" xlink:href="#DejaVuSans-32"/>
      <use transform="translate(580.338372 0.765625)" xlink:href="#DejaVuSans-29"/>
     </g>
    </g>
   </g>
   <g id="line2d_116">
    <path clip-path="url(#p88a8542ffe)" d="M 50.890909 285.614445 
L 54.66679 285.614445 
L 58.442672 285.614445 
L 62.218553 285.614445 
L 65.994434 285.614445 
L 69.770315 285.614445 
L 73.546197 285.614445 
L 77.322078 285.614445 
L 81.097959 285.614445 
L 84.87384 285.614445 
L 88.649722 285.614445 
L 92.425603 285.614445 
L 96.201484 285.614445 
L 99.977365 285.614445 
L 103.753247 285.614445 
L 107.529128 285.614445 
L 111.305009 285.614445 
L 115.080891 285.614445 
L 118.856772 285.614445 
L 122.632653 285.614445 
L 126.408534 285.614445 
L 130.184416 285.614445 
L 133.960297 285.614445 
L 137.736178 285.614445 
L 141.512059 285.614445 
L 145.287941 285.614445 
L 149.063822 285.614445 
L 152.839703 285.614445 
L 156.615584 285.614445 
L 160.391466 285.614445 
L 164.167347 285.614445 
L 167.943228 285.614445 
L 171.719109 285.614445 
L 175.494991 285.614445 
L 179.270872 285.614445 
L 183.046753 285.614445 
L 186.822635 285.614445 
L 190.598516 285.614445 
L 194.374397 285.614445 
L 198.150278 285.614445 
L 201.92616 285.614445 
L 205.702041 285.614445 
L 209.477922 285.614445 
L 213.253803 285.614445 
L 217.029685 285.614445 
L 220.805566 285.614445 
L 224.581447 285.614445 
L 228.357328 285.614445 
L 232.13321 285.614445 
L 235.909091 285.614445 
" style="fill:none;stroke:#1f77b4;stroke-linecap:square;stroke-width:1.5;"/>
   </g>
   <g id="line2d_117">
    <path clip-path="url(#p88a8542ffe)" d="M 50.890909 271.308028 
L 54.66679 271.308025 
L 58.442672 271.308025 
L 62.218553 271.308025 
L 65.994434 271.308025 
L 69.770315 271.308025 
L 73.546197 271.308025 
L 77.322078 271.308025 
L 81.097959 271.308025 
L 84.87384 271.308025 
L 88.649722 271.308025 
L 92.425603 271.308025 
L 96.201484 271.308025 
L 99.977365 271.308025 
L 103.753247 271.308025 
L 107.529128 271.308025 
L 111.305009 271.308025 
L 115.080891 271.308025 
L 118.856772 271.308025 
L 122.632653 271.308025 
L 126.408534 271.308025 
L 130.184416 271.308025 
L 133.960297 271.308025 
L 137.736178 271.308025 
L 141.512059 271.308025 
L 145.287941 271.308025 
L 149.063822 271.308025 
L 152.839703 271.308025 
L 156.615584 271.308025 
L 160.391466 271.308025 
L 164.167347 271.308025 
L 167.943228 271.308025 
L 171.719109 271.308025 
L 175.494991 271.308025 
L 179.270872 271.308025 
L 183.046753 271.308025 
L 186.822635 271.308025 
L 190.598516 271.308025 
L 194.374397 271.308025 
L 198.150278 271.308025 
L 201.92616 271.308025 
L 205.702041 271.308025 
L 209.477922 271.308025 
L 213.253803 271.308025 
L 217.029685 271.308025 
L 220.805566 271.308025 
L 224.581447 271.308025 
L 228.357328 271.308025 
L 232.13321 271.308025 
L 235.909091 271.308025 
" style="fill:none;stroke:#ff7f0e;stroke-linecap:square;stroke-width:1.5;"/>
   </g>
   <g id="line2d_118">
    <path clip-path="url(#p88a8542ffe)" d="M 50.890909 234.7009 
L 54.66679 234.677907 
L 58.442672 234.668586 
L 62.218553 234.665351 
L 65.994434 234.664412 
L 69.770315 234.66419 
L 73.546197 234.664149 
L 77.322078 234.664143 
L 81.097959 234.664142 
L 84.87384 234.664142 
L 88.649722 234.664142 
L 92.425603 234.664142 
L 96.201484 234.664142 
L 99.977365 234.664142 
L 103.753247 234.664142 
L 107.529128 234.664142 
L 111.305009 234.664142 
L 115.080891 234.664142 
L 118.856772 234.664142 
L 122.632653 234.664142 
L 126.408534 234.664142 
L 130.184416 234.664142 
L 133.960297 234.664142 
L 137.736178 234.664142 
L 141.512059 234.664142 
L 145.287941 234.664142 
L 149.063822 234.664142 
L 152.839703 234.664142 
L 156.615584 234.664142 
L 160.391466 234.664142 
L 164.167347 234.664142 
L 167.943228 234.664142 
L 171.719109 234.664142 
L 175.494991 234.664142 
L 179.270872 234.664142 
L 183.046753 234.664142 
L 186.822635 234.664142 
L 190.598516 234.664142 
L 194.374397 234.664142 
L 198.150278 234.664142 
L 201.92616 234.664142 
L 205.702041 234.664142 
L 209.477922 234.664142 
L 213.253803 234.664142 
L 217.029685 234.664142 
L 220.805566 234.664142 
L 224.581447 234.664142 
L 228.357328 234.664142 
L 232.13321 234.664142 
L 235.909091 234.664142 
" style="fill:none;stroke:#2ca02c;stroke-linecap:square;stroke-width:1.5;"/>
   </g>
   <g id="line2d_119">
    <path clip-path="url(#p88a8542ffe)" d="M 50.890909 223.612009 
L 54.66679 223.477185 
L 58.442672 223.403695 
L 62.218553 223.367812 
L 65.994434 223.352386 
L 69.770315 223.346658 
L 73.546197 223.344861 
L 77.322078 223.344397 
L 81.097959 223.344301 
L 84.87384 223.344285 
L 88.649722 223.344284 
L 92.425603 223.344283 
L 96.201484 223.344283 
L 99.977365 223.344283 
L 103.753247 223.344283 
L 107.529128 223.344283 
L 111.305009 223.344283 
L 115.080891 223.344283 
L 118.856772 223.344283 
L 122.632653 223.344283 
L 126.408534 223.344283 
L 130.184416 223.344283 
L 133.960297 223.344283 
L 137.736178 223.344283 
L 141.512059 223.344283 
L 145.287941 223.344283 
L 149.063822 223.344283 
L 152.839703 223.344283 
L 156.615584 223.344283 
L 160.391466 223.344283 
L 164.167347 223.344283 
L 167.943228 223.344283 
L 171.719109 223.344283 
L 175.494991 223.344283 
L 179.270872 223.344283 
L 183.046753 223.344283 
L 186.822635 223.344283 
L 190.598516 223.344283 
L 194.374397 223.344283 
L 198.150278 223.344283 
L 201.92616 223.344283 
L 205.702041 223.344283 
L 209.477922 223.344283 
L 213.253803 223.344283 
L 217.029685 223.344283 
L 220.805566 223.344283 
L 224.581447 223.344283 
L 228.357328 223.344283 
L 232.13321 223.344283 
L 235.909091 223.344283 
" style="fill:none;stroke:#d62728;stroke-linecap:square;stroke-width:1.5;"/>
   </g>
   <g id="line2d_120">
    <path clip-path="url(#p88a8542ffe)" d="M 50.890909 200.787383 
L 54.66679 198.86245 
L 58.442672 197.154402 
L 62.218553 195.674573 
L 65.994434 194.428204 
L 69.770315 193.413098 
L 73.546197 192.61866 
L 77.322078 192.025688 
L 81.097959 191.607266 
L 84.87384 191.330972 
L 88.649722 191.162227 
L 92.425603 191.068162 
L 96.201484 191.021011 
L 99.977365 191.000114 
L 103.753247 190.992078 
L 107.529128 190.989453 
L 111.305009 190.988743 
L 115.080891 190.988587 
L 118.856772 190.988561 
L 122.632653 190.988558 
L 126.408534 190.988557 
L 130.184416 190.988557 
L 133.960297 190.988557 
L 137.736178 190.988557 
L 141.512059 190.988557 
L 145.287941 190.988557 
L 149.063822 190.988557 
L 152.839703 190.988557 
L 156.615584 190.988557 
L 160.391466 190.988557 
L 164.167347 190.988557 
L 167.943228 190.988557 
L 171.719109 190.988557 
L 175.494991 190.988557 
L 179.270872 190.988557 
L 183.046753 190.988557 
L 186.822635 190.988557 
L 190.598516 190.988557 
L 194.374397 190.988557 
L 198.150278 190.988557 
L 201.92616 190.988557 
L 205.702041 190.988557 
L 209.477922 190.988557 
L 213.253803 190.988557 
L 217.029685 190.988557 
L 220.805566 190.988557 
L 224.581447 190.988557 
L 228.357328 190.988557 
L 232.13321 190.988557 
L 235.909091 190.988557 
" style="fill:none;stroke:#9467bd;stroke-linecap:square;stroke-width:1.5;"/>
   </g>
   <g id="patch_10">
    <path d="M 41.64 302.835533 
L 41.64 177.053255 
" style="fill:none;stroke:#000000;stroke-linecap:square;stroke-linejoin:miter;stroke-width:0.8;"/>
   </g>
   <g id="patch_11">
    <path d="M 245.16 302.835533 
L 245.16 177.053255 
" style="fill:none;stroke:#000000;stroke-linecap:square;stroke-linejoin:miter;stroke-width:0.8;"/>
   </g>
   <g id="patch_12">
    <path d="M 41.64 302.835533 
L 245.16 302.835533 
" style="fill:none;stroke:#000000;stroke-linecap:square;stroke-linejoin:miter;stroke-width:0.8;"/>
   </g>
   <g id="patch_13">
    <path d="M 41.64 177.053255 
L 245.16 177.053255 
" style="fill:none;stroke:#000000;stroke-linecap:square;stroke-linejoin:miter;stroke-width:0.8;"/>
   </g>
   <g id="text_18">
    <!-- Cell 0 -->
    <g style="fill:#1f77b4;" transform="translate(208.805591 283.617945)scale(0.096 -0.096)">
     <defs>
      <path d="M 603 4863 
L 1178 4863 
L 1178 0 
L 603 0 
L 603 4863 
z
" id="DejaVuSans-6c" transform="scale(0.015625)"/>
     </defs>
     <use xlink:href="#DejaVuSans-43"/>
     <use x="69.824219" xlink:href="#DejaVuSans-65"/>
     <use x="131.347656" xlink:href="#DejaVuSans-6c"/>
     <use x="159.130859" xlink:href="#DejaVuSans-6c"/>
     <use x="186.914062" xlink:href="#DejaVuSans-20"/>
     <use x="218.701172" xlink:href="#DejaVuSans-30"/>
    </g>
   </g>
   <g id="text_19">
    <!-- Cell 1 -->
    <g style="fill:#ff7f0e;" transform="translate(208.805591 269.311525)scale(0.096 -0.096)">
     <use xlink:href="#DejaVuSans-43"/>
     <use x="69.824219" xlink:href="#DejaVuSans-65"/>
     <use x="131.347656" xlink:href="#DejaVuSans-6c"/>
     <use x="159.130859" xlink:href="#DejaVuSans-6c"/>
     <use x="186.914062" xlink:href="#DejaVuSans-20"/>
     <use x="218.701172" xlink:href="#DejaVuSans-31"/>
    </g>
   </g>
   <g id="text_20">
    <!-- Cell 2 -->
    <g style="fill:#2ca02c;" transform="translate(208.805591 232.667642)scale(0.096 -0.096)">
     <use xlink:href="#DejaVuSans-43"/>
     <use x="69.824219" xlink:href="#DejaVuSans-65"/>
     <use x="131.347656" xlink:href="#DejaVuSans-6c"/>
     <use x="159.130859" xlink:href="#DejaVuSans-6c"/>
     <use x="186.914062" xlink:href="#DejaVuSans-20"/>
     <use x="218.701172" xlink:href="#DejaVuSans-32"/>
    </g>
   </g>
   <g id="text_21">
    <!-- Cell 3 -->
    <g style="fill:#d62728;" transform="translate(208.805591 221.347783)scale(0.096 -0.096)">
     <use xlink:href="#DejaVuSans-43"/>
     <use x="69.824219" xlink:href="#DejaVuSans-65"/>
     <use x="131.347656" xlink:href="#DejaVuSans-6c"/>
     <use x="159.130859" xlink:href="#DejaVuSans-6c"/>
     <use x="186.914062" xlink:href="#DejaVuSans-20"/>
     <use x="218.701172" xlink:href="#DejaVuSans-33"/>
    </g>
   </g>
   <g id="text_22">
    <!-- Cell 4 -->
    <g style="fill:#9467bd;" transform="translate(208.805591 188.992057)scale(0.096 -0.096)">
     <use xlink:href="#DejaVuSans-43"/>
     <use x="69.824219" xlink:href="#DejaVuSans-65"/>
     <use x="131.347656" xlink:href="#DejaVuSans-6c"/>
     <use x="159.130859" xlink:href="#DejaVuSans-6c"/>
     <use x="186.914062" xlink:href="#DejaVuSans-20"/>
     <use x="218.701172" xlink:href="#DejaVuSans-34"/>
    </g>
   </g>
  </g>
  <g id="axes_3">
   <g id="line2d_121">
    <path clip-path="url(#p81eaf34fe6)" d="M 34.3224 364.746516 
L 34.3224 393.82386 
" style="fill:none;stroke:#c5978f;stroke-linecap:round;stroke-width:15;"/>
   </g>
   <g id="line2d_122">
    <path clip-path="url(#p81eaf34fe6)" d="M 34.3224 393.82386 
L 34.3224 475.068516 
" style="fill:none;stroke:#c5978f;stroke-linecap:round;stroke-width:15;"/>
   </g>
   <g id="line2d_123">
    <path clip-path="url(#p81eaf34fe6)" d="M 14.7096 364.746516 
L 14.7096 393.82386 
" style="fill:none;stroke:#c5978f;stroke-linecap:round;stroke-width:15;"/>
   </g>
   <g id="line2d_124">
    <path clip-path="url(#p81eaf34fe6)" d="M 14.7096 393.82386 
L 14.7096 475.068516 
" style="fill:none;stroke:#c5978f;stroke-linecap:round;stroke-width:15;"/>
   </g>
   <g id="line2d_125">
    <path clip-path="url(#p81eaf34fe6)" d="M 14.7096 378.771052 
L 34.3224 378.771052 
" style="fill:none;stroke:#0000ff;stroke-linecap:round;stroke-width:5;"/>
   </g>
   <g id="line2d_126">
    <path clip-path="url(#p81eaf34fe6)" d="M 14.7096 393.401137 
L 34.3224 393.401137 
" style="fill:none;stroke:#0000ff;stroke-linecap:round;stroke-width:5;"/>
   </g>
   <g id="line2d_127">
    <path clip-path="url(#p81eaf34fe6)" d="M 14.7096 410.95638 
L 34.3224 410.95638 
" style="fill:none;stroke:#0000ff;stroke-linecap:round;stroke-width:5;"/>
   </g>
   <g id="line2d_128">
    <path clip-path="url(#p81eaf34fe6)" d="M 14.7096 469.918968 
L 34.3224 469.918968 
" style="fill:none;stroke:#0000ff;stroke-linecap:round;stroke-width:5;"/>
   </g>
   <g id="line2d_129">
    <path clip-path="url(#p81eaf34fe6)" d="M 83.3544 364.746516 
L 83.3544 393.82386 
" style="fill:none;stroke:#c5978f;stroke-linecap:round;stroke-width:15;"/>
   </g>
   <g id="line2d_130">
    <path clip-path="url(#p81eaf34fe6)" d="M 83.3544 393.82386 
L 83.3544 475.068516 
" style="fill:none;stroke:#c5978f;stroke-linecap:round;stroke-width:15;"/>
   </g>
   <g id="line2d_131">
    <path clip-path="url(#p81eaf34fe6)" d="M 63.7416 364.746516 
L 63.7416 393.82386 
" style="fill:none;stroke:#c5978f;stroke-linecap:round;stroke-width:15;"/>
   </g>
   <g id="line2d_132">
    <path clip-path="url(#p81eaf34fe6)" d="M 63.7416 393.82386 
L 63.7416 475.068516 
" style="fill:none;stroke:#c5978f;stroke-linecap:round;stroke-width:15;"/>
   </g>
   <g id="line2d_133">
    <path clip-path="url(#p81eaf34fe6)" d="M 63.7416 367.44743 
L 83.3544 367.44743 
" style="fill:none;stroke:#0000ff;stroke-linecap:round;stroke-width:5;"/>
   </g>
   <g id="line2d_134">
    <path clip-path="url(#p81eaf34fe6)" d="M 63.7416 371.227125 
L 83.3544 371.227125 
" style="fill:none;stroke:#0000ff;stroke-linecap:round;stroke-width:5;"/>
   </g>
   <g id="line2d_135">
    <path clip-path="url(#p81eaf34fe6)" d="M 63.7416 380.649967 
L 83.3544 380.649967 
" style="fill:none;stroke:#0000ff;stroke-linecap:round;stroke-width:5;"/>
   </g>
   <g id="line2d_136">
    <path clip-path="url(#p81eaf34fe6)" d="M 63.7416 433.082209 
L 83.3544 433.082209 
" style="fill:none;stroke:#0000ff;stroke-linecap:round;stroke-width:5;"/>
   </g>
   <g id="line2d_137">
    <path clip-path="url(#p81eaf34fe6)" d="M 63.7416 440.300689 
L 83.3544 440.300689 
" style="fill:none;stroke:#0000ff;stroke-linecap:round;stroke-width:5;"/>
   </g>
   <g id="line2d_138">
    <path clip-path="url(#p81eaf34fe6)" d="M 63.7416 448.605686 
L 83.3544 448.605686 
" style="fill:none;stroke:#0000ff;stroke-linecap:round;stroke-width:5;"/>
   </g>
   <g id="line2d_139">
    <path clip-path="url(#p81eaf34fe6)" d="M 132.3864 364.746516 
L 132.3864 393.82386 
" style="fill:none;stroke:#c5978f;stroke-linecap:round;stroke-width:15;"/>
   </g>
   <g id="line2d_140">
    <path clip-path="url(#p81eaf34fe6)" d="M 132.3864 393.82386 
L 132.3864 475.068516 
" style="fill:none;stroke:#c5978f;stroke-linecap:round;stroke-width:15;"/>
   </g>
   <g id="line2d_141">
    <path clip-path="url(#p81eaf34fe6)" d="M 112.7736 364.746516 
L 112.7736 393.82386 
" style="fill:none;stroke:#c5978f;stroke-linecap:round;stroke-width:15;"/>
   </g>
   <g id="line2d_142">
    <path clip-path="url(#p81eaf34fe6)" d="M 112.7736 393.82386 
L 112.7736 475.068516 
" style="fill:none;stroke:#c5978f;stroke-linecap:round;stroke-width:15;"/>
   </g>
   <g id="line2d_143">
    <path clip-path="url(#p81eaf34fe6)" d="M 112.7736 404.575997 
L 132.3864 404.575997 
" style="fill:none;stroke:#0000ff;stroke-linecap:round;stroke-width:5;"/>
   </g>
   <g id="line2d_144">
    <path clip-path="url(#p81eaf34fe6)" d="M 112.7736 405.036117 
L 132.3864 405.036117 
" style="fill:none;stroke:#0000ff;stroke-linecap:round;stroke-width:5;"/>
   </g>
   <g id="line2d_145">
    <path clip-path="url(#p81eaf34fe6)" d="M 112.7736 442.808209 
L 132.3864 442.808209 
" style="fill:none;stroke:#0000ff;stroke-linecap:round;stroke-width:5;"/>
   </g>
   <g id="line2d_146">
    <path clip-path="url(#p81eaf34fe6)" d="M 181.4184 364.746516 
L 181.4184 393.82386 
" style="fill:none;stroke:#c5978f;stroke-linecap:round;stroke-width:15;"/>
   </g>
   <g id="line2d_147">
    <path clip-path="url(#p81eaf34fe6)" d="M 181.4184 393.82386 
L 181.4184 475.068516 
" style="fill:none;stroke:#c5978f;stroke-linecap:round;stroke-width:15;"/>
   </g>
   <g id="line2d_148">
    <path clip-path="url(#p81eaf34fe6)" d="M 161.8056 364.746516 
L 161.8056 393.82386 
" style="fill:none;stroke:#c5978f;stroke-linecap:round;stroke-width:15;"/>
   </g>
   <g id="line2d_149">
    <path clip-path="url(#p81eaf34fe6)" d="M 161.8056 393.82386 
L 161.8056 475.068516 
" style="fill:none;stroke:#c5978f;stroke-linecap:round;stroke-width:15;"/>
   </g>
   <g id="line2d_150">
    <path clip-path="url(#p81eaf34fe6)" d="M 161.8056 411.976353 
L 181.4184 411.976353 
" style="fill:none;stroke:#0000ff;stroke-linecap:round;stroke-width:5;"/>
   </g>
   <g id="line2d_151">
    <path clip-path="url(#p81eaf34fe6)" d="M 161.8056 451.46156 
L 181.4184 451.46156 
" style="fill:none;stroke:#0000ff;stroke-linecap:round;stroke-width:5;"/>
   </g>
   <g id="line2d_152">
    <path clip-path="url(#p81eaf34fe6)" d="M 161.8056 458.472408 
L 181.4184 458.472408 
" style="fill:none;stroke:#0000ff;stroke-linecap:round;stroke-width:5;"/>
   </g>
   <g id="line2d_153">
    <path clip-path="url(#p81eaf34fe6)" d="M 230.4504 364.746516 
L 230.4504 393.82386 
" style="fill:none;stroke:#c5978f;stroke-linecap:round;stroke-width:15;"/>
   </g>
   <g id="line2d_154">
    <path clip-path="url(#p81eaf34fe6)" d="M 230.4504 393.82386 
L 230.4504 475.068516 
" style="fill:none;stroke:#c5978f;stroke-linecap:round;stroke-width:15;"/>
   </g>
   <g id="line2d_155">
    <path clip-path="url(#p81eaf34fe6)" d="M 210.8376 364.746516 
L 210.8376 393.82386 
" style="fill:none;stroke:#c5978f;stroke-linecap:round;stroke-width:15;"/>
   </g>
   <g id="line2d_156">
    <path clip-path="url(#p81eaf34fe6)" d="M 210.8376 393.82386 
L 210.8376 475.068516 
" style="fill:none;stroke:#c5978f;stroke-linecap:round;stroke-width:15;"/>
   </g>
   <g id="line2d_157">
    <path clip-path="url(#p81eaf34fe6)" d="M 210.8376 455.253914 
L 230.4504 455.253914 
" style="fill:none;stroke:#0000ff;stroke-linecap:round;stroke-width:5;"/>
   </g>
   <g id="text_23">
    <!-- Cell 0 -->
    <g style="fill:#1f77b4;" transform="translate(10.96425 352.000116)scale(0.096 -0.096)">
     <use xlink:href="#DejaVuSans-43"/>
     <use x="69.824219" xlink:href="#DejaVuSans-65"/>
     <use x="131.347656" xlink:href="#DejaVuSans-6c"/>
     <use x="159.130859" xlink:href="#DejaVuSans-6c"/>
     <use x="186.914062" xlink:href="#DejaVuSans-20"/>
     <use x="218.701172" xlink:href="#DejaVuSans-30"/>
    </g>
    <!--  -->
    <g style="fill:#1f77b4;" transform="translate(24.516 362.750016)scale(0.096 -0.096)"/>
   </g>
   <g id="text_24">
    <!-- Cell 1 -->
    <g style="fill:#ff7f0e;" transform="translate(59.99625 352.000116)scale(0.096 -0.096)">
     <use xlink:href="#DejaVuSans-43"/>
     <use x="69.824219" xlink:href="#DejaVuSans-65"/>
     <use x="131.347656" xlink:href="#DejaVuSans-6c"/>
     <use x="159.130859" xlink:href="#DejaVuSans-6c"/>
     <use x="186.914062" xlink:href="#DejaVuSans-20"/>
     <use x="218.701172" xlink:href="#DejaVuSans-31"/>
    </g>
    <!--  -->
    <g style="fill:#ff7f0e;" transform="translate(73.548 362.750016)scale(0.096 -0.096)"/>
   </g>
   <g id="text_25">
    <!-- Cell 2 -->
    <g style="fill:#2ca02c;" transform="translate(109.02825 352.000116)scale(0.096 -0.096)">
     <use xlink:href="#DejaVuSans-43"/>
     <use x="69.824219" xlink:href="#DejaVuSans-65"/>
     <use x="131.347656" xlink:href="#DejaVuSans-6c"/>
     <use x="159.130859" xlink:href="#DejaVuSans-6c"/>
     <use x="186.914062" xlink:href="#DejaVuSans-20"/>
     <use x="218.701172" xlink:href="#DejaVuSans-32"/>
    </g>
    <!--  -->
    <g style="fill:#2ca02c;" transform="translate(122.58 362.750016)scale(0.096 -0.096)"/>
   </g>
   <g id="text_26">
    <!-- Cell 3 -->
    <g style="fill:#d62728;" transform="translate(158.06025 352.000116)scale(0.096 -0.096)">
     <use xlink:href="#DejaVuSans-43"/>
     <use x="69.824219" xlink:href="#DejaVuSans-65"/>
     <use x="131.347656" xlink:href="#DejaVuSans-6c"/>
     <use x="159.130859" xlink:href="#DejaVuSans-6c"/>
     <use x="186.914062" xlink:href="#DejaVuSans-20"/>
     <use x="218.701172" xlink:href="#DejaVuSans-33"/>
    </g>
    <!--  -->
    <g style="fill:#d62728;" transform="translate(171.612 362.750016)scale(0.096 -0.096)"/>
   </g>
   <g id="text_27">
    <!-- Cell 4 -->
    <g style="fill:#9467bd;" transform="translate(207.09225 352.000116)scale(0.096 -0.096)">
     <use xlink:href="#DejaVuSans-43"/>
     <use x="69.824219" xlink:href="#DejaVuSans-65"/>
     <use x="131.347656" xlink:href="#DejaVuSans-6c"/>
     <use x="159.130859" xlink:href="#DejaVuSans-6c"/>
     <use x="186.914062" xlink:href="#DejaVuSans-20"/>
     <use x="218.701172" xlink:href="#DejaVuSans-34"/>
    </g>
    <!--  -->
    <g style="fill:#9467bd;" transform="translate(220.644 362.750016)scale(0.096 -0.096)"/>
   </g>
   <g id="PathCollection_1">
    <defs>
     <path d="M 0 7.071068 
C 1.875269 7.071068 3.673985 6.326016 5 5 
C 6.326016 3.673985 7.071068 1.875269 7.071068 0 
C 7.071068 -1.875269 6.326016 -3.673985 5 -5 
C 3.673985 -6.326016 1.875269 -7.071068 0 -7.071068 
C -1.875269 -7.071068 -3.673985 -6.326016 -5 -5 
C -6.326016 -3.673985 -7.071068 -1.875269 -7.071068 0 
C -7.071068 1.875269 -6.326016 3.673985 -5 5 
C -3.673985 6.326016 -1.875269 7.071068 0 7.071068 
z
" id="m0e193c4f27" style="stroke:#000000;"/>
    </defs>
    <g clip-path="url(#p81eaf34fe6)">
     <use style="stroke:#000000;" x="34.3224" xlink:href="#m0e193c4f27" y="393.82386"/>
    </g>
   </g>
   <g id="PathCollection_2">
    <g clip-path="url(#p81eaf34fe6)">
     <use style="stroke:#000000;" x="14.7096" xlink:href="#m0e193c4f27" y="393.82386"/>
    </g>
   </g>
   <g id="PathCollection_3">
    <g clip-path="url(#p81eaf34fe6)">
     <use style="stroke:#000000;" x="83.3544" xlink:href="#m0e193c4f27" y="393.82386"/>
    </g>
   </g>
   <g id="PathCollection_4">
    <g clip-path="url(#p81eaf34fe6)">
     <use style="stroke:#000000;" x="63.7416" xlink:href="#m0e193c4f27" y="393.82386"/>
    </g>
   </g>
   <g id="PathCollection_5">
    <g clip-path="url(#p81eaf34fe6)">
     <use style="stroke:#000000;" x="132.3864" xlink:href="#m0e193c4f27" y="393.82386"/>
    </g>
   </g>
   <g id="PathCollection_6">
    <g clip-path="url(#p81eaf34fe6)">
     <use style="stroke:#000000;" x="112.7736" xlink:href="#m0e193c4f27" y="393.82386"/>
    </g>
   </g>
   <g id="PathCollection_7">
    <g clip-path="url(#p81eaf34fe6)">
     <use style="stroke:#000000;" x="181.4184" xlink:href="#m0e193c4f27" y="393.82386"/>
    </g>
   </g>
   <g id="PathCollection_8">
    <g clip-path="url(#p81eaf34fe6)">
     <use style="stroke:#000000;" x="161.8056" xlink:href="#m0e193c4f27" y="393.82386"/>
    </g>
   </g>
   <g id="PathCollection_9">
    <g clip-path="url(#p81eaf34fe6)">
     <use style="stroke:#000000;" x="230.4504" xlink:href="#m0e193c4f27" y="393.82386"/>
    </g>
   </g>
   <g id="PathCollection_10">
    <g clip-path="url(#p81eaf34fe6)">
     <use style="stroke:#000000;" x="210.8376" xlink:href="#m0e193c4f27" y="393.82386"/>
    </g>
   </g>
   <g id="PathCollection_11">
    <defs>
     <path d="M 0 -11.18034 
L -2.510143 -3.454915 
L -10.633135 -3.454915 
L -4.061496 1.31966 
L -6.571639 9.045085 
L -0 4.27051 
L 6.571639 9.045085 
L 4.061496 1.31966 
L 10.633135 -3.454915 
L 2.510143 -3.454915 
z
" id="m15f4836e8e" style="stroke:#000000;"/>
    </defs>
    <g clip-path="url(#p81eaf34fe6)">
     <use style="fill:#008000;stroke:#000000;" x="34.3224" xlink:href="#m15f4836e8e" y="387.039201"/>
    </g>
   </g>
   <g id="PathCollection_12">
    <g clip-path="url(#p81eaf34fe6)">
     <use style="fill:#008000;stroke:#000000;" x="14.7096" xlink:href="#m15f4836e8e" y="387.039201"/>
    </g>
   </g>
   <g id="PathCollection_13">
    <g clip-path="url(#p81eaf34fe6)">
     <use style="fill:#008000;stroke:#000000;" x="83.3544" xlink:href="#m15f4836e8e" y="387.039201"/>
    </g>
   </g>
   <g id="PathCollection_14">
    <g clip-path="url(#p81eaf34fe6)">
     <use style="fill:#008000;stroke:#000000;" x="63.7416" xlink:href="#m15f4836e8e" y="387.039201"/>
    </g>
   </g>
   <g id="PathCollection_15">
    <g clip-path="url(#p81eaf34fe6)">
     <use style="fill:#008000;stroke:#000000;" x="132.3864" xlink:href="#m15f4836e8e" y="387.039201"/>
    </g>
   </g>
   <g id="PathCollection_16">
    <g clip-path="url(#p81eaf34fe6)">
     <use style="fill:#008000;stroke:#000000;" x="112.7736" xlink:href="#m15f4836e8e" y="387.039201"/>
    </g>
   </g>
   <g id="PathCollection_17">
    <g clip-path="url(#p81eaf34fe6)">
     <use style="fill:#008000;stroke:#000000;" x="181.4184" xlink:href="#m15f4836e8e" y="387.039201"/>
    </g>
   </g>
   <g id="PathCollection_18">
    <g clip-path="url(#p81eaf34fe6)">
     <use style="fill:#008000;stroke:#000000;" x="161.8056" xlink:href="#m15f4836e8e" y="387.039201"/>
    </g>
   </g>
   <g id="PathCollection_19">
    <g clip-path="url(#p81eaf34fe6)">
     <use style="fill:#008000;stroke:#000000;" x="230.4504" xlink:href="#m15f4836e8e" y="387.039201"/>
    </g>
   </g>
   <g id="PathCollection_20">
    <g clip-path="url(#p81eaf34fe6)">
     <use style="fill:#008000;stroke:#000000;" x="210.8376" xlink:href="#m15f4836e8e" y="387.039201"/>
    </g>
   </g>
   <g id="line2d_158">
    <path clip-path="url(#p81eaf34fe6)" d="M 14.7096 387.039201 
L 14.7096 378.771052 
L 34.3224 378.771052 
L 34.3224 387.039201 
" style="fill:none;stroke:#ffffff;stroke-dasharray:4.44,1.92;stroke-dashoffset:0;stroke-width:1.2;"/>
   </g>
   <g id="line2d_159">
    <path clip-path="url(#p81eaf34fe6)" d="M 14.7096 387.039201 
L 14.7096 393.401137 
L 34.3224 393.401137 
L 34.3224 387.039201 
" style="fill:none;stroke:#ffffff;stroke-dasharray:12.95,5.6;stroke-dashoffset:0;stroke-width:3.5;"/>
   </g>
   <g id="line2d_160">
    <path clip-path="url(#p81eaf34fe6)" d="M 63.7416 387.039201 
L 63.7416 380.649967 
L 83.3544 380.649967 
L 83.3544 387.039201 
" style="fill:none;stroke:#ffffff;stroke-dasharray:12.95,5.6;stroke-dashoffset:0;stroke-width:3.5;"/>
   </g>
   <g id="line2d_161">
    <path clip-path="url(#p81eaf34fe6)" d="M 63.7416 387.039201 
L 63.7416 433.082209 
L 83.3544 433.082209 
L 83.3544 387.039201 
" style="fill:none;stroke:#ffffff;stroke-dasharray:4.44,1.92;stroke-dashoffset:0;stroke-width:1.2;"/>
   </g>
   <g id="line2d_162">
    <path clip-path="url(#p81eaf34fe6)" d="M 112.7736 387.039201 
L 112.7736 404.575997 
L 132.3864 404.575997 
L 132.3864 387.039201 
" style="fill:none;stroke:#ffffff;stroke-dasharray:12.95,5.6;stroke-dashoffset:0;stroke-width:3.5;"/>
   </g>
   <g id="line2d_163">
    <path clip-path="url(#p81eaf34fe6)" d="M 161.8056 387.039201 
L 161.8056 411.976353 
L 181.4184 411.976353 
L 181.4184 387.039201 
" style="fill:none;stroke:#ffffff;stroke-dasharray:12.95,5.6;stroke-dashoffset:0;stroke-width:3.5;"/>
   </g>
   <g id="line2d_164">
    <path clip-path="url(#p81eaf34fe6)" d="M 210.8376 387.039201 
L 210.8376 455.253914 
L 230.4504 455.253914 
L 230.4504 387.039201 
" style="fill:none;stroke:#ffffff;stroke-dasharray:12.95,5.6;stroke-dashoffset:0;stroke-width:3.5;"/>
   </g>
  </g>
 </g>
 <defs>
  <clipPath id="p59e20642fa">
   <rect height="125.782277" width="203.52" x="41.64" y="3.039375"/>
  </clipPath>
  <clipPath id="p88a8542ffe">
   <rect height="125.782277" width="203.52" x="41.64" y="177.053255"/>
  </clipPath>
  <clipPath id="p81eaf34fe6">
   <rect height="122.58" width="245.16" x="0" y="358.617516"/>
  </clipPath>
 </defs>
</svg>
