<?xml version="1.0" encoding="utf-8" standalone="no"?>
<!DOCTYPE svg PUBLIC "-//W3C//DTD SVG 1.1//EN"
  "http://www.w3.org/Graphics/SVG/1.1/DTD/svg11.dtd">
<svg height="151.517213pt" version="1.1" viewBox="0 0 245.16 151.517213" width="245.16pt" xmlns="http://www.w3.org/2000/svg" xmlns:xlink="http://www.w3.org/1999/xlink">
 <metadata>
  <rdf:RDF xmlns:cc="http://creativecommons.org/ns#" xmlns:dc="http://purl.org/dc/elements/1.1/" xmlns:rdf="http://www.w3.org/1999/02/22-rdf-syntax-ns#">
   <cc:Work>
    <dc:type rdf:resource="http://purl.org/dc/dcmitype/StillImage"/>
    <dc:date>2020-10-23T00:49:25.017637</dc:date>
    <dc:format>image/svg+xml</dc:format>
    <dc:creator>
     <cc:Agent>
      <dc:title>Matplotlib v3.3.2.post1425+g0d1f34338, https://matplotlib.org/</dc:title>
     </cc:Agent>
    </dc:creator>
   </cc:Work>
  </rdf:RDF>
 </metadata>
 <defs>
  <style type="text/css">*{stroke-linecap:butt;stroke-linejoin:round;}</style>
 </defs>
 <g id="figure_1">
  <g id="patch_1">
   <path d="M 0 151.517213 
L 245.16 151.517213 
L 245.16 0 
L 0 0 
z
" style="fill:none;"/>
  </g>
  <g id="axes_1">
   <g id="patch_2">
    <path d="M 44.063437 110.477213 
L 196.152748 110.477213 
L 196.152748 8.64 
L 44.063437 8.64 
z
" style="fill:#ffffff;"/>
   </g>
   <g id="matplotlib.axis_1">
    <g id="xtick_1">
     <g id="line2d_1">
      <defs>
       <path d="M 0 0 
L 0 3.5 
" id="mbe0f6931b3" style="stroke:#000000;stroke-width:0.8;"/>
      </defs>
      <g>
       <use style="stroke:#000000;stroke-width:0.8;" x="50.976588" xlink:href="#mbe0f6931b3" y="110.477213"/>
      </g>
     </g>
     <g id="text_1">
      <!-- $\mathdefault{10^{0}}$ -->
      <g transform="translate(43.936588 123.555963)scale(0.08 -0.08)">
       <defs>
        <path d="M 794 531 
L 1825 531 
L 1825 4091 
L 703 3866 
L 703 4441 
L 1819 4666 
L 2450 4666 
L 2450 531 
L 3481 531 
L 3481 0 
L 794 0 
L 794 531 
z
" id="DejaVuSans-31" transform="scale(0.015625)"/>
        <path d="M 2034 4250 
Q 1547 4250 1301 3770 
Q 1056 3291 1056 2328 
Q 1056 1369 1301 889 
Q 1547 409 2034 409 
Q 2525 409 2770 889 
Q 3016 1369 3016 2328 
Q 3016 3291 2770 3770 
Q 2525 4250 2034 4250 
z
M 2034 4750 
Q 2819 4750 3233 4129 
Q 3647 3509 3647 2328 
Q 3647 1150 3233 529 
Q 2819 -91 2034 -91 
Q 1250 -91 836 529 
Q 422 1150 422 2328 
Q 422 3509 836 4129 
Q 1250 4750 2034 4750 
z
" id="DejaVuSans-30" transform="scale(0.015625)"/>
       </defs>
       <use transform="translate(0 0.765625)" xlink:href="#DejaVuSans-31"/>
       <use transform="translate(63.623047 0.765625)" xlink:href="#DejaVuSans-30"/>
       <use transform="translate(128.203125 39.046875)scale(0.7)" xlink:href="#DejaVuSans-30"/>
      </g>
     </g>
    </g>
    <g id="xtick_2">
     <g id="line2d_2">
      <g>
       <use style="stroke:#000000;stroke-width:0.8;" x="132.357077" xlink:href="#mbe0f6931b3" y="110.477213"/>
      </g>
     </g>
     <g id="text_2">
      <!-- $\mathdefault{10^{1}}$ -->
      <g transform="translate(125.317077 123.555963)scale(0.08 -0.08)">
       <use transform="translate(0 0.684375)" xlink:href="#DejaVuSans-31"/>
       <use transform="translate(63.623047 0.684375)" xlink:href="#DejaVuSans-30"/>
       <use transform="translate(128.203125 38.965625)scale(0.7)" xlink:href="#DejaVuSans-31"/>
      </g>
     </g>
    </g>
    <g id="xtick_3">
     <g id="line2d_3">
      <defs>
       <path d="M 0 0 
L 0 2 
" id="mea541cb811" style="stroke:#000000;stroke-width:0.6;"/>
      </defs>
      <g>
       <use style="stroke:#000000;stroke-width:0.6;" x="47.252821" xlink:href="#mea541cb811" y="110.477213"/>
      </g>
     </g>
    </g>
    <g id="xtick_4">
     <g id="line2d_4">
      <g>
       <use style="stroke:#000000;stroke-width:0.6;" x="75.474556" xlink:href="#mea541cb811" y="110.477213"/>
      </g>
     </g>
    </g>
    <g id="xtick_5">
     <g id="line2d_5">
      <g>
       <use style="stroke:#000000;stroke-width:0.6;" x="89.804949" xlink:href="#mea541cb811" y="110.477213"/>
      </g>
     </g>
    </g>
    <g id="xtick_6">
     <g id="line2d_6">
      <g>
       <use style="stroke:#000000;stroke-width:0.6;" x="99.972524" xlink:href="#mea541cb811" y="110.477213"/>
      </g>
     </g>
    </g>
    <g id="xtick_7">
     <g id="line2d_7">
      <g>
       <use style="stroke:#000000;stroke-width:0.6;" x="107.859109" xlink:href="#mea541cb811" y="110.477213"/>
      </g>
     </g>
    </g>
    <g id="xtick_8">
     <g id="line2d_8">
      <g>
       <use style="stroke:#000000;stroke-width:0.6;" x="114.302917" xlink:href="#mea541cb811" y="110.477213"/>
      </g>
     </g>
    </g>
    <g id="xtick_9">
     <g id="line2d_9">
      <g>
       <use style="stroke:#000000;stroke-width:0.6;" x="119.751079" xlink:href="#mea541cb811" y="110.477213"/>
      </g>
     </g>
    </g>
    <g id="xtick_10">
     <g id="line2d_10">
      <g>
       <use style="stroke:#000000;stroke-width:0.6;" x="124.470492" xlink:href="#mea541cb811" y="110.477213"/>
      </g>
     </g>
    </g>
    <g id="xtick_11">
     <g id="line2d_11">
      <g>
       <use style="stroke:#000000;stroke-width:0.6;" x="128.63331" xlink:href="#mea541cb811" y="110.477213"/>
      </g>
     </g>
    </g>
    <g id="xtick_12">
     <g id="line2d_12">
      <g>
       <use style="stroke:#000000;stroke-width:0.6;" x="156.855045" xlink:href="#mea541cb811" y="110.477213"/>
      </g>
     </g>
    </g>
    <g id="xtick_13">
     <g id="line2d_13">
      <g>
       <use style="stroke:#000000;stroke-width:0.6;" x="171.185438" xlink:href="#mea541cb811" y="110.477213"/>
      </g>
     </g>
    </g>
    <g id="xtick_14">
     <g id="line2d_14">
      <g>
       <use style="stroke:#000000;stroke-width:0.6;" x="181.353013" xlink:href="#mea541cb811" y="110.477213"/>
      </g>
     </g>
    </g>
    <g id="xtick_15">
     <g id="line2d_15">
      <g>
       <use style="stroke:#000000;stroke-width:0.6;" x="189.239597" xlink:href="#mea541cb811" y="110.477213"/>
      </g>
     </g>
    </g>
    <g id="xtick_16">
     <g id="line2d_16">
      <g>
       <use style="stroke:#000000;stroke-width:0.6;" x="195.683406" xlink:href="#mea541cb811" y="110.477213"/>
      </g>
     </g>
    </g>
    <g id="text_3">
     <!-- time (s) -->
     <g transform="translate(104.594968 135.298463)scale(0.08 -0.08)">
      <defs>
       <path d="M 1172 4494 
L 1172 3500 
L 2356 3500 
L 2356 3053 
L 1172 3053 
L 1172 1153 
Q 1172 725 1289 603 
Q 1406 481 1766 481 
L 2356 481 
L 2356 0 
L 1766 0 
Q 1100 0 847 248 
Q 594 497 594 1153 
L 594 3053 
L 172 3053 
L 172 3500 
L 594 3500 
L 594 4494 
L 1172 4494 
z
" id="DejaVuSans-74" transform="scale(0.015625)"/>
       <path d="M 603 3500 
L 1178 3500 
L 1178 0 
L 603 0 
L 603 3500 
z
M 603 4863 
L 1178 4863 
L 1178 4134 
L 603 4134 
L 603 4863 
z
" id="DejaVuSans-69" transform="scale(0.015625)"/>
       <path d="M 3328 2828 
Q 3544 3216 3844 3400 
Q 4144 3584 4550 3584 
Q 5097 3584 5394 3201 
Q 5691 2819 5691 2113 
L 5691 0 
L 5113 0 
L 5113 2094 
Q 5113 2597 4934 2840 
Q 4756 3084 4391 3084 
Q 3944 3084 3684 2787 
Q 3425 2491 3425 1978 
L 3425 0 
L 2847 0 
L 2847 2094 
Q 2847 2600 2669 2842 
Q 2491 3084 2119 3084 
Q 1678 3084 1418 2786 
Q 1159 2488 1159 1978 
L 1159 0 
L 581 0 
L 581 3500 
L 1159 3500 
L 1159 2956 
Q 1356 3278 1631 3431 
Q 1906 3584 2284 3584 
Q 2666 3584 2933 3390 
Q 3200 3197 3328 2828 
z
" id="DejaVuSans-6d" transform="scale(0.015625)"/>
       <path d="M 3597 1894 
L 3597 1613 
L 953 1613 
Q 991 1019 1311 708 
Q 1631 397 2203 397 
Q 2534 397 2845 478 
Q 3156 559 3463 722 
L 3463 178 
Q 3153 47 2828 -22 
Q 2503 -91 2169 -91 
Q 1331 -91 842 396 
Q 353 884 353 1716 
Q 353 2575 817 3079 
Q 1281 3584 2069 3584 
Q 2775 3584 3186 3129 
Q 3597 2675 3597 1894 
z
M 3022 2063 
Q 3016 2534 2758 2815 
Q 2500 3097 2075 3097 
Q 1594 3097 1305 2825 
Q 1016 2553 972 2059 
L 3022 2063 
z
" id="DejaVuSans-65" transform="scale(0.015625)"/>
       <path id="DejaVuSans-20" transform="scale(0.015625)"/>
       <path d="M 1984 4856 
Q 1566 4138 1362 3434 
Q 1159 2731 1159 2009 
Q 1159 1288 1364 580 
Q 1569 -128 1984 -844 
L 1484 -844 
Q 1016 -109 783 600 
Q 550 1309 550 2009 
Q 550 2706 781 3412 
Q 1013 4119 1484 4856 
L 1984 4856 
z
" id="DejaVuSans-28" transform="scale(0.015625)"/>
       <path d="M 2834 3397 
L 2834 2853 
Q 2591 2978 2328 3040 
Q 2066 3103 1784 3103 
Q 1356 3103 1142 2972 
Q 928 2841 928 2578 
Q 928 2378 1081 2264 
Q 1234 2150 1697 2047 
L 1894 2003 
Q 2506 1872 2764 1633 
Q 3022 1394 3022 966 
Q 3022 478 2636 193 
Q 2250 -91 1575 -91 
Q 1294 -91 989 -36 
Q 684 19 347 128 
L 347 722 
Q 666 556 975 473 
Q 1284 391 1588 391 
Q 1994 391 2212 530 
Q 2431 669 2431 922 
Q 2431 1156 2273 1281 
Q 2116 1406 1581 1522 
L 1381 1569 
Q 847 1681 609 1914 
Q 372 2147 372 2553 
Q 372 3047 722 3315 
Q 1072 3584 1716 3584 
Q 2034 3584 2315 3537 
Q 2597 3491 2834 3397 
z
" id="DejaVuSans-73" transform="scale(0.015625)"/>
       <path d="M 513 4856 
L 1013 4856 
Q 1481 4119 1714 3412 
Q 1947 2706 1947 2009 
Q 1947 1309 1714 600 
Q 1481 -109 1013 -844 
L 513 -844 
Q 928 -128 1133 580 
Q 1338 1288 1338 2009 
Q 1338 2731 1133 3434 
Q 928 4138 513 4856 
z
" id="DejaVuSans-29" transform="scale(0.015625)"/>
      </defs>
      <use xlink:href="#DejaVuSans-74"/>
      <use x="39.208984" xlink:href="#DejaVuSans-69"/>
      <use x="66.992188" xlink:href="#DejaVuSans-6d"/>
      <use x="164.404297" xlink:href="#DejaVuSans-65"/>
      <use x="225.927734" xlink:href="#DejaVuSans-20"/>
      <use x="257.714844" xlink:href="#DejaVuSans-28"/>
      <use x="296.728516" xlink:href="#DejaVuSans-73"/>
      <use x="348.828125" xlink:href="#DejaVuSans-29"/>
     </g>
    </g>
   </g>
   <g id="matplotlib.axis_2">
    <g id="ytick_1">
     <g id="line2d_17">
      <defs>
       <path d="M 0 0 
L -3.5 0 
" id="m20cb023d7d" style="stroke:#000000;stroke-width:0.8;"/>
      </defs>
      <g>
       <use style="stroke:#000000;stroke-width:0.8;" x="44.063437" xlink:href="#m20cb023d7d" y="105.904953"/>
      </g>
     </g>
     <g id="text_4">
      <!-- $\mathdefault{10^{0}}$ -->
      <g transform="translate(22.983438 108.944328)scale(0.08 -0.08)">
       <use transform="translate(0 0.765625)" xlink:href="#DejaVuSans-31"/>
       <use transform="translate(63.623047 0.765625)" xlink:href="#DejaVuSans-30"/>
       <use transform="translate(128.203125 39.046875)scale(0.7)" xlink:href="#DejaVuSans-30"/>
      </g>
     </g>
    </g>
    <g id="ytick_2">
     <g id="line2d_18">
      <g>
       <use style="stroke:#000000;stroke-width:0.8;" x="44.063437" xlink:href="#m20cb023d7d" y="31.133449"/>
      </g>
     </g>
     <g id="text_5">
      <!-- $\mathdefault{10^{1}}$ -->
      <g transform="translate(22.983438 34.172824)scale(0.08 -0.08)">
       <use transform="translate(0 0.684375)" xlink:href="#DejaVuSans-31"/>
       <use transform="translate(63.623047 0.684375)" xlink:href="#DejaVuSans-30"/>
       <use transform="translate(128.203125 38.965625)scale(0.7)" xlink:href="#DejaVuSans-31"/>
      </g>
     </g>
    </g>
    <g id="ytick_3">
     <g id="line2d_19">
      <defs>
       <path d="M 0 0 
L -2 0 
" id="m44f2012013" style="stroke:#000000;stroke-width:0.6;"/>
      </defs>
      <g>
       <use style="stroke:#000000;stroke-width:0.6;" x="44.063437" xlink:href="#m44f2012013" y="109.326309"/>
      </g>
     </g>
    </g>
    <g id="ytick_4">
     <g id="line2d_20">
      <g>
       <use style="stroke:#000000;stroke-width:0.6;" x="44.063437" xlink:href="#m44f2012013" y="83.396487"/>
      </g>
     </g>
    </g>
    <g id="ytick_5">
     <g id="line2d_21">
      <g>
       <use style="stroke:#000000;stroke-width:0.6;" x="44.063437" xlink:href="#m44f2012013" y="70.229879"/>
      </g>
     </g>
    </g>
    <g id="ytick_6">
     <g id="line2d_22">
      <g>
       <use style="stroke:#000000;stroke-width:0.6;" x="44.063437" xlink:href="#m44f2012013" y="60.888022"/>
      </g>
     </g>
    </g>
    <g id="ytick_7">
     <g id="line2d_23">
      <g>
       <use style="stroke:#000000;stroke-width:0.6;" x="44.063437" xlink:href="#m44f2012013" y="53.641915"/>
      </g>
     </g>
    </g>
    <g id="ytick_8">
     <g id="line2d_24">
      <g>
       <use style="stroke:#000000;stroke-width:0.6;" x="44.063437" xlink:href="#m44f2012013" y="47.721414"/>
      </g>
     </g>
    </g>
    <g id="ytick_9">
     <g id="line2d_25">
      <g>
       <use style="stroke:#000000;stroke-width:0.6;" x="44.063437" xlink:href="#m44f2012013" y="42.715702"/>
      </g>
     </g>
    </g>
    <g id="ytick_10">
     <g id="line2d_26">
      <g>
       <use style="stroke:#000000;stroke-width:0.6;" x="44.063437" xlink:href="#m44f2012013" y="38.379557"/>
      </g>
     </g>
    </g>
    <g id="ytick_11">
     <g id="line2d_27">
      <g>
       <use style="stroke:#000000;stroke-width:0.6;" x="44.063437" xlink:href="#m44f2012013" y="34.554806"/>
      </g>
     </g>
    </g>
    <g id="text_6">
     <!-- Ratio -->
     <g transform="translate(17.319688 69.826106)rotate(-90)scale(0.08 -0.08)">
      <defs>
       <path d="M 2841 2188 
Q 3044 2119 3236 1894 
Q 3428 1669 3622 1275 
L 4263 0 
L 3584 0 
L 2988 1197 
Q 2756 1666 2539 1819 
Q 2322 1972 1947 1972 
L 1259 1972 
L 1259 0 
L 628 0 
L 628 4666 
L 2053 4666 
Q 2853 4666 3247 4331 
Q 3641 3997 3641 3322 
Q 3641 2881 3436 2590 
Q 3231 2300 2841 2188 
z
M 1259 4147 
L 1259 2491 
L 2053 2491 
Q 2509 2491 2742 2702 
Q 2975 2913 2975 3322 
Q 2975 3731 2742 3939 
Q 2509 4147 2053 4147 
L 1259 4147 
z
" id="DejaVuSans-52" transform="scale(0.015625)"/>
       <path d="M 2194 1759 
Q 1497 1759 1228 1600 
Q 959 1441 959 1056 
Q 959 750 1161 570 
Q 1363 391 1709 391 
Q 2188 391 2477 730 
Q 2766 1069 2766 1631 
L 2766 1759 
L 2194 1759 
z
M 3341 1997 
L 3341 0 
L 2766 0 
L 2766 531 
Q 2569 213 2275 61 
Q 1981 -91 1556 -91 
Q 1019 -91 701 211 
Q 384 513 384 1019 
Q 384 1609 779 1909 
Q 1175 2209 1959 2209 
L 2766 2209 
L 2766 2266 
Q 2766 2663 2505 2880 
Q 2244 3097 1772 3097 
Q 1472 3097 1187 3025 
Q 903 2953 641 2809 
L 641 3341 
Q 956 3463 1253 3523 
Q 1550 3584 1831 3584 
Q 2591 3584 2966 3190 
Q 3341 2797 3341 1997 
z
" id="DejaVuSans-61" transform="scale(0.015625)"/>
       <path d="M 1959 3097 
Q 1497 3097 1228 2736 
Q 959 2375 959 1747 
Q 959 1119 1226 758 
Q 1494 397 1959 397 
Q 2419 397 2687 759 
Q 2956 1122 2956 1747 
Q 2956 2369 2687 2733 
Q 2419 3097 1959 3097 
z
M 1959 3584 
Q 2709 3584 3137 3096 
Q 3566 2609 3566 1747 
Q 3566 888 3137 398 
Q 2709 -91 1959 -91 
Q 1206 -91 779 398 
Q 353 888 353 1747 
Q 353 2609 779 3096 
Q 1206 3584 1959 3584 
z
" id="DejaVuSans-6f" transform="scale(0.015625)"/>
      </defs>
      <use xlink:href="#DejaVuSans-52"/>
      <use x="67.232422" xlink:href="#DejaVuSans-61"/>
      <use x="128.511719" xlink:href="#DejaVuSans-74"/>
      <use x="167.720703" xlink:href="#DejaVuSans-69"/>
      <use x="195.503906" xlink:href="#DejaVuSans-6f"/>
     </g>
    </g>
   </g>
   <g id="line2d_28">
    <path clip-path="url(#p7a359a517e)" d="M 50.976588 105.848248 
L 75.474556 105.780154 
L 89.804949 105.754672 
L 99.972524 105.730258 
L 107.859109 105.730153 
L 114.302917 105.730012 
L 119.751079 105.707485 
L 124.470492 105.724183 
L 128.63331 105.711518 
L 132.357077 105.695673 
L 135.725634 105.700133 
L 138.800885 105.698 
L 141.629842 105.696524 
L 144.249048 105.694909 
L 146.687469 105.690925 
L 148.968461 105.682683 
L 151.111123 105.675539 
L 153.131278 105.658817 
L 155.042181 105.660067 
L 156.855045 105.656783 
L 158.57944 105.662942 
L 160.223602 105.651798 
L 161.794665 105.623073 
L 163.298853 105.620588 
L 164.741629 105.615469 
L 166.127811 105.599222 
L 167.461671 105.596489 
L 168.747016 105.579516 
L 169.987252 105.523731 
L 171.185438 105.547071 
L 172.344331 105.578088 
L 173.466429 105.545021 
L 174.553994 105.509442 
L 175.609091 105.446768 
L 176.6336 105.499677 
L 177.629246 105.468689 
L 178.597611 105.410555 
L 179.540149 105.415228 
L 180.458203 105.343364 
L 181.353013 105.301607 
L 182.225726 105.211267 
L 183.077409 105.192675 
L 183.909049 105.085533 
L 184.72157 105.055294 
L 185.51583 104.854598 
L 186.292633 104.687033 
L 187.052729 104.371686 
L 187.796821 104.251756 
L 188.525571 103.981157 
L 189.239597 104.105152 
" style="fill:none;stroke:#7fb0db;stroke-linecap:square;stroke-width:1.5;"/>
   </g>
   <g id="line2d_29">
    <path clip-path="url(#p7a359a517e)" d="M 50.976588 100.638019 
L 75.474556 100.528994 
L 89.804949 100.433553 
L 99.972524 100.396834 
L 107.859109 100.320136 
L 114.302917 100.350071 
L 119.751079 100.300993 
L 124.470492 100.328686 
L 128.63331 100.273708 
L 132.357077 100.282605 
L 135.725634 100.263005 
L 138.800885 100.277251 
L 141.629842 100.247499 
L 144.249048 100.348257 
L 146.687469 100.344 
L 148.968461 100.37913 
L 151.111123 100.365657 
L 153.131278 100.360507 
L 155.042181 100.368499 
L 156.855045 100.366446 
L 158.57944 100.270628 
L 160.223602 100.309693 
L 161.794665 100.313522 
L 163.298853 100.342561 
L 164.741629 100.364201 
L 166.127811 100.339729 
L 167.461671 100.331225 
L 168.747016 100.305645 
L 169.987252 100.312251 
L 171.185438 100.38268 
L 172.344331 100.384585 
L 173.466429 100.304911 
L 174.553994 100.276386 
L 175.609091 100.29499 
L 176.6336 100.223869 
L 177.629246 100.175862 
L 178.597611 100.241328 
L 179.540149 100.216226 
L 180.458203 100.286083 
L 181.353013 100.221363 
L 182.225726 100.377233 
L 183.077409 100.30933 
L 183.909049 100.024651 
L 184.72157 100.177532 
L 185.51583 99.993797 
L 186.292633 100.467218 
L 187.052729 100.392206 
L 187.796821 100.71692 
L 188.525571 100.561822 
L 189.239597 102.875641 
" style="fill:none;stroke:#7fb0db;stroke-linecap:square;stroke-width:1.5;"/>
   </g>
   <g id="line2d_30">
    <path clip-path="url(#p7a359a517e)" d="M 50.976588 80.55212 
L 75.474556 79.609687 
L 89.804949 79.206022 
L 99.972524 79.090037 
L 107.859109 78.928515 
L 114.302917 79.149501 
L 119.751079 78.87442 
L 124.470492 78.862111 
L 128.63331 78.887314 
L 132.357077 78.827861 
L 135.725634 78.99133 
L 138.800885 78.888179 
L 141.629842 78.911605 
L 144.249048 78.82034 
L 146.687469 78.81433 
L 148.968461 78.813098 
L 151.111123 78.924391 
L 153.131278 79.032849 
L 155.042181 79.00731 
L 156.855045 78.96435 
L 158.57944 78.92157 
L 160.223602 78.917623 
L 161.794665 79.071498 
L 163.298853 79.088931 
L 164.741629 78.802052 
L 166.127811 78.95151 
L 167.461671 78.812945 
L 168.747016 78.820851 
L 169.987252 78.914627 
L 171.185438 79.151741 
L 172.344331 79.125438 
L 173.466429 79.008341 
L 174.553994 79.113351 
L 175.609091 79.176812 
L 176.6336 79.071036 
L 177.629246 79.565385 
L 178.597611 79.016896 
L 179.540149 79.122016 
L 180.458203 78.787746 
L 181.353013 79.230271 
L 182.225726 78.869508 
L 183.077409 79.099119 
L 183.909049 79.44302 
L 184.72157 80.005136 
L 185.51583 79.531586 
L 186.292633 80.488427 
L 187.052729 80.290568 
L 187.796821 80.838732 
L 188.525571 81.247753 
L 189.239597 87.4013 
" style="fill:none;stroke:#92b6e1;stroke-linecap:square;stroke-width:1.5;"/>
   </g>
   <g id="line2d_31">
    <path clip-path="url(#p7a359a517e)" d="M 50.976588 62.668901 
L 75.474556 60.870483 
L 89.804949 60.00012 
L 99.972524 59.927008 
L 107.859109 59.361005 
L 114.302917 59.401777 
L 119.751079 59.652797 
L 124.470492 59.617228 
L 128.63331 59.11652 
L 132.357077 59.38203 
L 135.725634 59.386037 
L 138.800885 59.149353 
L 141.629842 59.829284 
L 144.249048 59.797201 
L 146.687469 59.668733 
L 148.968461 59.478151 
L 151.111123 59.336238 
L 153.131278 59.43397 
L 155.042181 59.104995 
L 156.855045 58.880734 
L 158.57944 59.185711 
L 160.223602 59.175567 
L 161.794665 59.346244 
L 163.298853 59.272313 
L 164.741629 59.213562 
L 166.127811 59.043514 
L 167.461671 59.241053 
L 168.747016 59.32538 
L 169.987252 59.154057 
L 171.185438 58.714388 
L 172.344331 59.190942 
L 173.466429 58.735599 
L 174.553994 58.650777 
L 175.609091 58.845341 
L 176.6336 59.330882 
L 177.629246 59.002087 
L 178.597611 58.663753 
L 179.540149 58.896043 
L 180.458203 59.147244 
L 181.353013 59.646863 
L 182.225726 58.798449 
L 183.077409 59.5464 
L 183.909049 58.857163 
L 184.72157 59.546925 
L 185.51583 59.723965 
L 186.292633 60.921269 
L 187.052729 60.498315 
L 187.796821 62.116111 
L 188.525571 63.865265 
L 189.239597 68.388507 
" style="fill:none;stroke:#a3bce6;stroke-linecap:square;stroke-width:1.5;"/>
   </g>
   <g id="line2d_32">
    <path clip-path="url(#p7a359a517e)" d="M 50.976588 65.005919 
L 75.474556 64.355239 
L 89.804949 64.762478 
L 99.972524 65.130514 
L 107.859109 64.674344 
L 114.302917 64.252439 
L 119.751079 64.536113 
L 124.470492 64.730819 
L 128.63331 64.34874 
L 132.357077 64.253804 
L 135.725634 64.598151 
L 138.800885 64.797955 
L 141.629842 65.226469 
L 144.249048 64.853028 
L 146.687469 64.554449 
L 148.968461 64.703854 
L 151.111123 64.398579 
L 153.131278 65.236965 
L 155.042181 64.689685 
L 156.855045 64.898464 
L 158.57944 63.908482 
L 160.223602 64.640275 
L 161.794665 64.115674 
L 163.298853 64.55295 
L 164.741629 65.042568 
L 166.127811 64.036005 
L 167.461671 64.413759 
L 168.747016 64.421059 
L 169.987252 64.408971 
L 171.185438 64.988359 
L 172.344331 64.912725 
L 173.466429 65.149322 
L 174.553994 64.922071 
L 175.609091 64.427712 
L 176.6336 64.617111 
L 177.629246 64.305962 
L 178.597611 64.078786 
L 179.540149 65.429552 
L 180.458203 64.308445 
L 181.353013 65.06133 
L 182.225726 65.668181 
L 183.077409 65.06059 
L 183.909049 64.778783 
L 184.72157 65.964859 
L 185.51583 66.083871 
L 186.292633 66.721538 
L 187.052729 63.666951 
L 187.796821 63.897839 
L 188.525571 67.325563 
L 189.239597 68.734472 
" style="fill:none;stroke:#b3c2ec;stroke-linecap:square;stroke-width:1.5;"/>
   </g>
   <g id="line2d_33">
    <path clip-path="url(#p7a359a517e)" d="M 50.976588 70.728936 
L 75.474556 70.736865 
L 89.804949 70.625301 
L 99.972524 70.729634 
L 107.859109 70.494059 
L 114.302917 71.096003 
L 119.751079 70.389031 
L 124.470492 70.892718 
L 128.63331 70.322134 
L 132.357077 70.558571 
L 135.725634 70.461902 
L 138.800885 70.714177 
L 141.629842 70.559908 
L 144.249048 70.915223 
L 146.687469 70.789044 
L 148.968461 70.710092 
L 151.111123 70.765839 
L 153.131278 70.562193 
L 155.042181 70.417809 
L 156.855045 70.625325 
L 158.57944 70.818241 
L 160.223602 70.971913 
L 161.794665 71.277516 
L 163.298853 70.74643 
L 164.741629 70.611457 
L 166.127811 70.872024 
L 167.461671 70.867266 
L 168.747016 70.339708 
L 169.987252 70.661717 
L 171.185438 70.93727 
L 172.344331 70.45761 
L 173.466429 71.065264 
L 174.553994 70.764802 
L 175.609091 70.730804 
L 176.6336 71.194759 
L 177.629246 70.869439 
L 178.597611 71.173916 
L 179.540149 71.129739 
L 180.458203 70.901285 
L 181.353013 70.677202 
L 182.225726 71.249034 
L 183.077409 71.070473 
L 183.909049 70.569755 
L 184.72157 70.364123 
L 185.51583 70.793125 
L 186.292633 70.674526 
L 187.052729 70.073816 
L 187.796821 71.400004 
L 188.525571 69.582568 
L 189.239597 69.573002 
" style="fill:none;stroke:#bcbbe4;stroke-linecap:square;stroke-width:1.5;"/>
   </g>
   <g id="line2d_34">
    <path clip-path="url(#p7a359a517e)" d="M 50.976588 66.386872 
L 75.474556 65.154022 
L 89.804949 63.599794 
L 99.972524 67.847981 
L 107.859109 63.524753 
L 114.302917 64.657339 
L 119.751079 66.132018 
L 124.470492 66.882815 
L 128.63331 66.31709 
L 132.357077 64.830119 
L 135.725634 64.646487 
L 138.800885 67.045755 
L 141.629842 66.952349 
L 144.249048 66.358199 
L 146.687469 67.19561 
L 148.968461 64.675868 
L 151.111123 65.505592 
L 153.131278 68.11464 
L 155.042181 65.878579 
L 156.855045 64.869855 
L 158.57944 64.917866 
L 160.223602 67.270462 
L 161.794665 65.853585 
L 163.298853 62.181308 
L 164.741629 66.315919 
L 166.127811 69.315078 
L 167.461671 66.707137 
L 168.747016 65.80323 
L 169.987252 64.341318 
L 171.185438 66.126561 
L 172.344331 66.147561 
L 173.466429 62.162979 
L 174.553994 68.500861 
L 175.609091 67.855902 
L 176.6336 66.348245 
L 177.629246 68.109805 
L 178.597611 64.431723 
L 179.540149 67.793491 
L 180.458203 62.748033 
L 181.353013 66.936105 
L 182.225726 65.527772 
L 183.077409 64.612168 
L 183.909049 62.598439 
L 184.72157 68.738948 
L 185.51583 77.005346 
L 186.292633 63.883485 
L 187.052729 63.539586 
L 187.796821 62.130783 
L 188.525571 63.130317 
L 189.239597 51.506713 
" style="fill:none;stroke:#bcb1d9;stroke-linecap:square;stroke-width:1.5;"/>
   </g>
   <g id="line2d_35">
    <path clip-path="url(#p7a359a517e)" d="M 50.976588 57.757829 
L 75.474556 57.240586 
L 89.804949 59.551422 
L 99.972524 57.100602 
L 107.859109 58.169939 
L 114.302917 59.398394 
L 119.751079 56.641737 
L 124.470492 55.693088 
L 128.63331 56.583254 
L 132.357077 54.723515 
L 135.725634 57.12218 
L 138.800885 59.237117 
L 141.629842 64.227196 
L 144.249048 58.745229 
L 146.687469 56.570092 
L 148.968461 53.887696 
L 151.111123 54.943103 
L 153.131278 55.226147 
L 155.042181 57.741052 
L 156.855045 60.312241 
L 158.57944 56.306104 
L 160.223602 55.550009 
L 161.794665 58.2449 
L 163.298853 55.085214 
L 164.741629 56.295164 
L 166.127811 55.426137 
L 167.461671 61.171208 
L 168.747016 56.568502 
L 169.987252 57.304522 
L 171.185438 60.425299 
L 172.344331 59.661207 
L 173.466429 56.253445 
L 174.553994 54.940506 
L 175.609091 57.233057 
L 176.6336 57.60419 
L 177.629246 61.219985 
L 178.597611 56.146697 
L 179.540149 57.289919 
L 180.458203 60.500891 
L 181.353013 56.06702 
L 182.225726 59.263193 
L 183.077409 54.809675 
L 183.909049 69.570445 
L 184.72157 63.03746 
L 185.51583 59.536858 
L 186.292633 51.727638 
L 187.052729 52.060859 
L 187.796821 59.858191 
L 188.525571 93.276939 
" style="fill:none;stroke:#bba7ce;stroke-linecap:square;stroke-width:1.5;"/>
   </g>
   <g id="line2d_36">
    <path clip-path="url(#p7a359a517e)" d="M 50.976588 50.759821 
L 75.474556 50.722898 
L 89.804949 50.589691 
L 99.972524 49.129322 
L 107.859109 50.444344 
L 114.302917 50.794879 
L 119.751079 50.406463 
L 124.470492 51.737926 
L 128.63331 49.07113 
L 132.357077 52.079919 
L 135.725634 51.352149 
L 138.800885 51.437715 
L 141.629842 49.916355 
L 144.249048 53.01344 
L 146.687469 52.795101 
L 148.968461 50.520943 
L 151.111123 49.694279 
L 153.131278 51.259998 
L 155.042181 51.290688 
L 156.855045 50.276324 
L 158.57944 50.251192 
L 160.223602 51.273839 
L 161.794665 51.73296 
L 163.298853 49.432746 
L 164.741629 51.177942 
L 166.127811 49.232844 
L 167.461671 52.880335 
L 168.747016 49.479914 
L 169.987252 51.703387 
L 171.185438 49.504325 
L 172.344331 51.880639 
L 173.466429 49.721662 
L 174.553994 50.373856 
L 175.609091 49.968187 
L 176.6336 48.308422 
L 177.629246 51.278189 
L 178.597611 49.646683 
L 179.540149 48.313232 
L 180.458203 48.962151 
L 181.353013 47.141979 
L 182.225726 47.401002 
L 183.077409 50.630236 
L 183.909049 48.450471 
L 184.72157 51.774731 
L 185.51583 52.684677 
L 186.292633 48.979334 
L 187.052729 46.279848 
L 187.796821 47.518 
L 188.525571 57.813709 
L 189.239597 53.543334 
" style="fill:none;stroke:#bba2c9;stroke-linecap:square;stroke-width:1.5;"/>
   </g>
   <g id="line2d_37">
    <path clip-path="url(#p7a359a517e)" d="M 50.976588 55.769568 
L 75.474556 55.300665 
L 89.804949 54.8235 
L 99.972524 54.933884 
L 107.859109 55.408748 
L 114.302917 54.500911 
L 119.751079 54.462302 
L 124.470492 55.196227 
L 128.63331 56.611652 
L 132.357077 55.125841 
L 135.725634 55.928564 
L 138.800885 56.283364 
L 141.629842 56.01287 
L 144.249048 54.751233 
L 146.687469 55.322751 
L 148.968461 56.820834 
L 151.111123 53.887764 
L 153.131278 56.044876 
L 155.042181 54.724795 
L 156.855045 55.13746 
L 158.57944 55.782554 
L 160.223602 54.952419 
L 161.794665 55.758882 
L 163.298853 54.883141 
L 164.741629 56.735959 
L 166.127811 55.003201 
L 167.461671 56.116818 
L 168.747016 55.396046 
L 169.987252 56.725368 
L 171.185438 53.554725 
L 172.344331 53.766195 
L 173.466429 55.652621 
L 174.553994 54.917615 
L 175.609091 56.771068 
L 176.6336 54.64979 
L 177.629246 53.880557 
L 178.597611 58.442448 
L 179.540149 52.867222 
L 180.458203 54.856626 
L 181.353013 55.032923 
L 182.225726 53.610209 
L 183.077409 54.807843 
L 183.909049 54.408804 
L 184.72157 55.14635 
L 185.51583 60.821645 
L 186.292633 54.814283 
L 187.052729 58.765523 
L 187.796821 57.823831 
L 188.525571 58.395097 
L 189.239597 72.939358 
" style="fill:none;stroke:#bba2c9;stroke-linecap:square;stroke-width:1.5;"/>
   </g>
   <g id="line2d_38">
    <path clip-path="url(#p7a359a517e)" d="M 50.976588 48.946114 
L 75.474556 48.336294 
L 89.804949 48.641455 
L 99.972524 48.468363 
L 107.859109 48.580513 
L 114.302917 48.541508 
L 119.751079 47.716941 
L 124.470492 47.546459 
L 128.63331 48.563365 
L 132.357077 48.87002 
L 135.725634 47.92974 
L 138.800885 49.245073 
L 141.629842 48.757243 
L 144.249048 48.825128 
L 146.687469 48.232613 
L 148.968461 48.280078 
L 151.111123 47.822121 
L 153.131278 48.786641 
L 155.042181 48.036579 
L 156.855045 48.03399 
L 158.57944 48.140179 
L 160.223602 48.802287 
L 161.794665 48.126199 
L 163.298853 48.106678 
L 164.741629 47.985729 
L 166.127811 48.698543 
L 167.461671 47.651493 
L 168.747016 48.028239 
L 169.987252 49.187718 
L 171.185438 48.912959 
L 172.344331 48.699021 
L 173.466429 49.337821 
L 174.553994 49.745594 
L 175.609091 48.181974 
L 176.6336 49.033877 
L 177.629246 49.571157 
L 178.597611 47.968146 
L 179.540149 47.856662 
L 180.458203 50.186156 
L 181.353013 48.261213 
L 182.225726 47.66133 
L 183.077409 49.414195 
L 183.909049 48.223045 
L 184.72157 48.485285 
L 185.51583 48.009987 
L 186.292633 48.727681 
L 187.052729 49.401974 
L 187.796821 49.585675 
L 188.525571 46.756306 
L 189.239597 49.569397 
" style="fill:none;stroke:#bba2c9;stroke-linecap:square;stroke-width:1.5;"/>
   </g>
   <g id="line2d_39">
    <path clip-path="url(#p7a359a517e)" d="M 50.976588 34.230391 
L 75.474556 24.174462 
L 89.804949 31.923345 
L 99.972524 26.947425 
L 107.859109 33.348207 
L 114.302917 40.591833 
L 119.751079 34.843212 
L 124.470492 47.406782 
L 128.63331 34.643321 
L 132.357077 28.266474 
L 135.725634 27.130604 
L 138.800885 32.651741 
L 141.629842 20.417629 
L 144.249048 76.620679 
L 146.687469 21.925971 
L 148.968461 25.286094 
L 151.111123 31.746497 
L 153.131278 37.171911 
L 155.042181 72.432679 
L 156.855045 16.963658 
L 158.57944 13.268964 
L 160.223602 22.631323 
L 161.794665 29.300289 
L 163.298853 59.923535 
L 164.741629 36.92221 
L 166.127811 33.287183 
L 167.461671 18.022 
L 168.747016 37.016772 
L 169.987252 27.279655 
L 171.185438 28.378014 
L 172.344331 75.387274 
L 173.466429 30.145748 
L 174.553994 41.111775 
L 175.609091 32.053102 
L 176.6336 27.578543 
L 177.629246 20.843845 
L 178.597611 14.931575 
L 179.540149 22.718823 
L 180.458203 37.215722 
L 181.353013 27.478983 
L 182.225726 23.51656 
L 183.077409 14.863656 
L 183.909049 46.41573 
L 184.72157 25.469125 
L 185.51583 68.708414 
L 186.292633 23.941488 
" style="fill:none;stroke:#bba2c9;stroke-linecap:square;stroke-width:1.5;"/>
   </g>
   <g id="patch_3">
    <path d="M 44.063437 110.477213 
L 44.063437 8.64 
" style="fill:none;stroke:#000000;stroke-linecap:square;stroke-linejoin:miter;stroke-width:0.8;"/>
   </g>
   <g id="patch_4">
    <path d="M 196.152748 110.477213 
L 196.152748 8.64 
" style="fill:none;stroke:#000000;stroke-linecap:square;stroke-linejoin:miter;stroke-width:0.8;"/>
   </g>
   <g id="patch_5">
    <path d="M 44.063437 110.477213 
L 196.152748 110.477213 
" style="fill:none;stroke:#000000;stroke-linecap:square;stroke-linejoin:miter;stroke-width:0.8;"/>
   </g>
   <g id="patch_6">
    <path d="M 44.063437 8.64 
L 196.152748 8.64 
" style="fill:none;stroke:#000000;stroke-linecap:square;stroke-linejoin:miter;stroke-width:0.8;"/>
   </g>
  </g>
  <g id="axes_2">
   <g id="patch_7">
    <path d="M 205.65833 110.477213 
L 210.75019 110.477213 
L 210.75019 8.64 
L 205.65833 8.64 
z
" style="fill:#ffffff;"/>
   </g>
   <g id="patch_8">
    <path clip-path="url(#pd947452f96)" d="M 205.65833 110.477213 
L 205.65833 103.688065 
L 205.65833 15.429148 
L 205.65833 8.64 
L 210.75019 8.64 
L 210.75019 15.429148 
L 210.75019 103.688065 
L 210.75019 110.477213 
L 210.75019 110.477213 
z
" style="fill:#ffffff;stroke:#ffffff;stroke-linejoin:miter;stroke-width:0.01;"/>
   </g>
   <g id="QuadMesh_1">
    <path clip-path="url(#pd947452f96)" d="M 205.65833 110.477213 
L 210.75019 110.477213 
L 210.75019 103.688065 
L 205.65833 103.688065 
L 205.65833 110.477213 
" style="fill:#7fb0db;"/>
    <path clip-path="url(#pd947452f96)" d="M 205.65833 103.688065 
L 210.75019 103.688065 
L 210.75019 96.898918 
L 205.65833 96.898918 
L 205.65833 103.688065 
" style="fill:#89b3de;"/>
    <path clip-path="url(#pd947452f96)" d="M 205.65833 96.898918 
L 210.75019 96.898918 
L 210.75019 90.10977 
L 205.65833 90.10977 
L 205.65833 96.898918 
" style="fill:#92b6e1;"/>
    <path clip-path="url(#pd947452f96)" d="M 205.65833 90.10977 
L 210.75019 90.10977 
L 210.75019 83.320623 
L 205.65833 83.320623 
L 205.65833 90.10977 
" style="fill:#9ab9e4;"/>
    <path clip-path="url(#pd947452f96)" d="M 205.65833 83.320623 
L 210.75019 83.320623 
L 210.75019 76.531475 
L 205.65833 76.531475 
L 205.65833 83.320623 
" style="fill:#a3bce6;"/>
    <path clip-path="url(#pd947452f96)" d="M 205.65833 76.531475 
L 210.75019 76.531475 
L 210.75019 69.742328 
L 205.65833 69.742328 
L 205.65833 76.531475 
" style="fill:#abbfe9;"/>
    <path clip-path="url(#pd947452f96)" d="M 205.65833 69.742328 
L 210.75019 69.742328 
L 210.75019 62.95318 
L 205.65833 62.95318 
L 205.65833 69.742328 
" style="fill:#b3c2ec;"/>
    <path clip-path="url(#pd947452f96)" d="M 205.65833 62.95318 
L 210.75019 62.95318 
L 210.75019 56.164033 
L 205.65833 56.164033 
L 205.65833 62.95318 
" style="fill:#bcc5ee;"/>
    <path clip-path="url(#pd947452f96)" d="M 205.65833 56.164033 
L 210.75019 56.164033 
L 210.75019 49.374885 
L 205.65833 49.374885 
L 205.65833 56.164033 
" style="fill:#bcc0e9;"/>
    <path clip-path="url(#pd947452f96)" d="M 205.65833 49.374885 
L 210.75019 49.374885 
L 210.75019 42.585738 
L 205.65833 42.585738 
L 205.65833 49.374885 
" style="fill:#bcbbe4;"/>
    <path clip-path="url(#pd947452f96)" d="M 205.65833 42.585738 
L 210.75019 42.585738 
L 210.75019 35.79659 
L 205.65833 35.79659 
L 205.65833 42.585738 
" style="fill:#bcb6de;"/>
    <path clip-path="url(#pd947452f96)" d="M 205.65833 35.79659 
L 210.75019 35.79659 
L 210.75019 29.007443 
L 205.65833 29.007443 
L 205.65833 35.79659 
" style="fill:#bcb1d9;"/>
    <path clip-path="url(#pd947452f96)" d="M 205.65833 29.007443 
L 210.75019 29.007443 
L 210.75019 22.218295 
L 205.65833 22.218295 
L 205.65833 29.007443 
" style="fill:#bcacd3;"/>
    <path clip-path="url(#pd947452f96)" d="M 205.65833 22.218295 
L 210.75019 22.218295 
L 210.75019 15.429148 
L 205.65833 15.429148 
L 205.65833 22.218295 
" style="fill:#bba7ce;"/>
    <path clip-path="url(#pd947452f96)" d="M 205.65833 15.429148 
L 210.75019 15.429148 
L 210.75019 8.64 
L 205.65833 8.64 
L 205.65833 15.429148 
" style="fill:#bba2c9;"/>
   </g>
   <g id="matplotlib.axis_3"/>
   <g id="matplotlib.axis_4">
    <g id="ytick_12">
     <g id="line2d_40">
      <defs>
       <path d="M 0 0 
L 3.5 0 
" id="mc1af2c68ec" style="stroke:#000000;stroke-width:0.8;"/>
      </defs>
      <g>
       <use style="stroke:#000000;stroke-width:0.8;" x="210.75019" xlink:href="#mc1af2c68ec" y="94.809949"/>
      </g>
     </g>
     <g id="text_7">
      <!-- 2 -->
      <g transform="translate(217.75019 97.849324)scale(0.08 -0.08)">
       <defs>
        <path d="M 1228 531 
L 3431 531 
L 3431 0 
L 469 0 
L 469 531 
Q 828 903 1448 1529 
Q 2069 2156 2228 2338 
Q 2531 2678 2651 2914 
Q 2772 3150 2772 3378 
Q 2772 3750 2511 3984 
Q 2250 4219 1831 4219 
Q 1534 4219 1204 4116 
Q 875 4013 500 3803 
L 500 4441 
Q 881 4594 1212 4672 
Q 1544 4750 1819 4750 
Q 2544 4750 2975 4387 
Q 3406 4025 3406 3419 
Q 3406 3131 3298 2873 
Q 3191 2616 2906 2266 
Q 2828 2175 2409 1742 
Q 1991 1309 1228 531 
z
" id="DejaVuSans-32" transform="scale(0.015625)"/>
       </defs>
       <use xlink:href="#DejaVuSans-32"/>
      </g>
     </g>
    </g>
    <g id="ytick_13">
     <g id="line2d_41">
      <g>
       <use style="stroke:#000000;stroke-width:0.8;" x="210.75019" xlink:href="#mc1af2c68ec" y="63.475422"/>
      </g>
     </g>
     <g id="text_8">
      <!-- 4 -->
      <g transform="translate(217.75019 66.514797)scale(0.08 -0.08)">
       <defs>
        <path d="M 2419 4116 
L 825 1625 
L 2419 1625 
L 2419 4116 
z
M 2253 4666 
L 3047 4666 
L 3047 1625 
L 3713 1625 
L 3713 1100 
L 3047 1100 
L 3047 0 
L 2419 0 
L 2419 1100 
L 313 1100 
L 313 1709 
L 2253 4666 
z
" id="DejaVuSans-34" transform="scale(0.015625)"/>
       </defs>
       <use xlink:href="#DejaVuSans-34"/>
      </g>
     </g>
    </g>
    <g id="ytick_14">
     <g id="line2d_42">
      <g>
       <use style="stroke:#000000;stroke-width:0.8;" x="210.75019" xlink:href="#mc1af2c68ec" y="32.140895"/>
      </g>
     </g>
     <g id="text_9">
      <!-- 6 -->
      <g transform="translate(217.75019 35.18027)scale(0.08 -0.08)">
       <defs>
        <path d="M 2113 2584 
Q 1688 2584 1439 2293 
Q 1191 2003 1191 1497 
Q 1191 994 1439 701 
Q 1688 409 2113 409 
Q 2538 409 2786 701 
Q 3034 994 3034 1497 
Q 3034 2003 2786 2293 
Q 2538 2584 2113 2584 
z
M 3366 4563 
L 3366 3988 
Q 3128 4100 2886 4159 
Q 2644 4219 2406 4219 
Q 1781 4219 1451 3797 
Q 1122 3375 1075 2522 
Q 1259 2794 1537 2939 
Q 1816 3084 2150 3084 
Q 2853 3084 3261 2657 
Q 3669 2231 3669 1497 
Q 3669 778 3244 343 
Q 2819 -91 2113 -91 
Q 1303 -91 875 529 
Q 447 1150 447 2328 
Q 447 3434 972 4092 
Q 1497 4750 2381 4750 
Q 2619 4750 2861 4703 
Q 3103 4656 3366 4563 
z
" id="DejaVuSans-36" transform="scale(0.015625)"/>
       </defs>
       <use xlink:href="#DejaVuSans-36"/>
      </g>
     </g>
    </g>
    <g id="text_10">
     <!-- Linkages per chromosome -->
     <g transform="translate(232.91894 112.371731)rotate(-90)scale(0.08 -0.08)">
      <defs>
       <path d="M 628 4666 
L 1259 4666 
L 1259 531 
L 3531 531 
L 3531 0 
L 628 0 
L 628 4666 
z
" id="DejaVuSans-4c" transform="scale(0.015625)"/>
       <path d="M 3513 2113 
L 3513 0 
L 2938 0 
L 2938 2094 
Q 2938 2591 2744 2837 
Q 2550 3084 2163 3084 
Q 1697 3084 1428 2787 
Q 1159 2491 1159 1978 
L 1159 0 
L 581 0 
L 581 3500 
L 1159 3500 
L 1159 2956 
Q 1366 3272 1645 3428 
Q 1925 3584 2291 3584 
Q 2894 3584 3203 3211 
Q 3513 2838 3513 2113 
z
" id="DejaVuSans-6e" transform="scale(0.015625)"/>
       <path d="M 581 4863 
L 1159 4863 
L 1159 1991 
L 2875 3500 
L 3609 3500 
L 1753 1863 
L 3688 0 
L 2938 0 
L 1159 1709 
L 1159 0 
L 581 0 
L 581 4863 
z
" id="DejaVuSans-6b" transform="scale(0.015625)"/>
       <path d="M 2906 1791 
Q 2906 2416 2648 2759 
Q 2391 3103 1925 3103 
Q 1463 3103 1205 2759 
Q 947 2416 947 1791 
Q 947 1169 1205 825 
Q 1463 481 1925 481 
Q 2391 481 2648 825 
Q 2906 1169 2906 1791 
z
M 3481 434 
Q 3481 -459 3084 -895 
Q 2688 -1331 1869 -1331 
Q 1566 -1331 1297 -1286 
Q 1028 -1241 775 -1147 
L 775 -588 
Q 1028 -725 1275 -790 
Q 1522 -856 1778 -856 
Q 2344 -856 2625 -561 
Q 2906 -266 2906 331 
L 2906 616 
Q 2728 306 2450 153 
Q 2172 0 1784 0 
Q 1141 0 747 490 
Q 353 981 353 1791 
Q 353 2603 747 3093 
Q 1141 3584 1784 3584 
Q 2172 3584 2450 3431 
Q 2728 3278 2906 2969 
L 2906 3500 
L 3481 3500 
L 3481 434 
z
" id="DejaVuSans-67" transform="scale(0.015625)"/>
       <path d="M 1159 525 
L 1159 -1331 
L 581 -1331 
L 581 3500 
L 1159 3500 
L 1159 2969 
Q 1341 3281 1617 3432 
Q 1894 3584 2278 3584 
Q 2916 3584 3314 3078 
Q 3713 2572 3713 1747 
Q 3713 922 3314 415 
Q 2916 -91 2278 -91 
Q 1894 -91 1617 61 
Q 1341 213 1159 525 
z
M 3116 1747 
Q 3116 2381 2855 2742 
Q 2594 3103 2138 3103 
Q 1681 3103 1420 2742 
Q 1159 2381 1159 1747 
Q 1159 1113 1420 752 
Q 1681 391 2138 391 
Q 2594 391 2855 752 
Q 3116 1113 3116 1747 
z
" id="DejaVuSans-70" transform="scale(0.015625)"/>
       <path d="M 2631 2963 
Q 2534 3019 2420 3045 
Q 2306 3072 2169 3072 
Q 1681 3072 1420 2755 
Q 1159 2438 1159 1844 
L 1159 0 
L 581 0 
L 581 3500 
L 1159 3500 
L 1159 2956 
Q 1341 3275 1631 3429 
Q 1922 3584 2338 3584 
Q 2397 3584 2469 3576 
Q 2541 3569 2628 3553 
L 2631 2963 
z
" id="DejaVuSans-72" transform="scale(0.015625)"/>
       <path d="M 3122 3366 
L 3122 2828 
Q 2878 2963 2633 3030 
Q 2388 3097 2138 3097 
Q 1578 3097 1268 2742 
Q 959 2388 959 1747 
Q 959 1106 1268 751 
Q 1578 397 2138 397 
Q 2388 397 2633 464 
Q 2878 531 3122 666 
L 3122 134 
Q 2881 22 2623 -34 
Q 2366 -91 2075 -91 
Q 1284 -91 818 406 
Q 353 903 353 1747 
Q 353 2603 823 3093 
Q 1294 3584 2113 3584 
Q 2378 3584 2631 3529 
Q 2884 3475 3122 3366 
z
" id="DejaVuSans-63" transform="scale(0.015625)"/>
       <path d="M 3513 2113 
L 3513 0 
L 2938 0 
L 2938 2094 
Q 2938 2591 2744 2837 
Q 2550 3084 2163 3084 
Q 1697 3084 1428 2787 
Q 1159 2491 1159 1978 
L 1159 0 
L 581 0 
L 581 4863 
L 1159 4863 
L 1159 2956 
Q 1366 3272 1645 3428 
Q 1925 3584 2291 3584 
Q 2894 3584 3203 3211 
Q 3513 2838 3513 2113 
z
" id="DejaVuSans-68" transform="scale(0.015625)"/>
      </defs>
      <use xlink:href="#DejaVuSans-4c"/>
      <use x="55.712891" xlink:href="#DejaVuSans-69"/>
      <use x="83.496094" xlink:href="#DejaVuSans-6e"/>
      <use x="146.875" xlink:href="#DejaVuSans-6b"/>
      <use x="203.035156" xlink:href="#DejaVuSans-61"/>
      <use x="264.314453" xlink:href="#DejaVuSans-67"/>
      <use x="327.791016" xlink:href="#DejaVuSans-65"/>
      <use x="389.314453" xlink:href="#DejaVuSans-73"/>
      <use x="441.414062" xlink:href="#DejaVuSans-20"/>
      <use x="473.201172" xlink:href="#DejaVuSans-70"/>
      <use x="536.677734" xlink:href="#DejaVuSans-65"/>
      <use x="598.201172" xlink:href="#DejaVuSans-72"/>
      <use x="639.314453" xlink:href="#DejaVuSans-20"/>
      <use x="671.101562" xlink:href="#DejaVuSans-63"/>
      <use x="726.082031" xlink:href="#DejaVuSans-68"/>
      <use x="789.460938" xlink:href="#DejaVuSans-72"/>
      <use x="828.324219" xlink:href="#DejaVuSans-6f"/>
      <use x="889.505859" xlink:href="#DejaVuSans-6d"/>
      <use x="986.917969" xlink:href="#DejaVuSans-6f"/>
      <use x="1048.099609" xlink:href="#DejaVuSans-73"/>
      <use x="1100.199219" xlink:href="#DejaVuSans-6f"/>
      <use x="1161.380859" xlink:href="#DejaVuSans-6d"/>
      <use x="1258.792969" xlink:href="#DejaVuSans-65"/>
     </g>
    </g>
   </g>
   <g id="LineCollection_1"/>
   <g id="patch_9">
    <path d="M 205.65833 110.477213 
L 205.65833 103.688065 
L 205.65833 15.429148 
L 205.65833 8.64 
L 210.75019 8.64 
L 210.75019 15.429148 
L 210.75019 103.688065 
L 210.75019 110.477213 
z
" style="fill:none;stroke:#000000;stroke-linecap:square;stroke-linejoin:miter;stroke-width:0.8;"/>
   </g>
  </g>
 </g>
 <defs>
  <clipPath id="p7a359a517e">
   <rect height="101.837213" width="152.08931" x="44.063437" y="8.64"/>
  </clipPath>
  <clipPath id="pd947452f96">
   <rect height="101.837213" width="5.091861" x="205.65833" y="8.64"/>
  </clipPath>
 </defs>
</svg>
