<?xml version="1.0" encoding="utf-8" standalone="no"?>
<!DOCTYPE svg PUBLIC "-//W3C//DTD SVG 1.1//EN"
  "http://www.w3.org/Graphics/SVG/1.1/DTD/svg11.dtd">
<svg height="151.517213pt" version="1.1" viewBox="0 0 245.16 151.517213" width="245.16pt" xmlns="http://www.w3.org/2000/svg" xmlns:xlink="http://www.w3.org/1999/xlink">
 <metadata>
  <rdf:RDF xmlns:cc="http://creativecommons.org/ns#" xmlns:dc="http://purl.org/dc/elements/1.1/" xmlns:rdf="http://www.w3.org/1999/02/22-rdf-syntax-ns#">
   <cc:Work>
    <dc:type rdf:resource="http://purl.org/dc/dcmitype/StillImage"/>
    <dc:date>2020-10-26T21:07:18.824649</dc:date>
    <dc:format>image/svg+xml</dc:format>
    <dc:creator>
     <cc:Agent>
      <dc:title>Matplotlib v1.4.3.post24134+g0d1f34338, https://matplotlib.org/</dc:title>
     </cc:Agent>
    </dc:creator>
   </cc:Work>
  </rdf:RDF>
 </metadata>
 <defs>
  <style type="text/css">*{stroke-linecap:butt;stroke-linejoin:round;}</style>
 </defs>
 <g id="figure_1">
  <g id="patch_1">
   <path d="M 0 151.517213 
L 245.16 151.517213 
L 245.16 0 
L 0 0 
z
" style="fill:none;"/>
  </g>
  <g id="axes_1">
   <g id="patch_2">
    <path d="M 30.645 132.577561 
L 220.644 132.577561 
L 220.644 18.182066 
L 30.645 18.182066 
z
" style="fill:#ffffff;"/>
   </g>
   <g id="PolyCollection_1">
    <path clip-path="url(#p39fe09ec09)" d="M 39.281318 95.136069 
L 39.281318 29.532252 
L 39.289379 26.241699 
L 39.297478 26.241699 
L 39.305614 26.241699 
L 39.313788 26.241699 
L 39.321999 26.241699 
L 39.330248 26.241699 
L 39.338536 26.241699 
L 39.346861 26.241699 
L 39.355225 26.241699 
L 39.363628 26.241699 
L 39.37207 26.241699 
L 39.38055 26.241699 
L 39.38907 26.241699 
L 39.397629 26.241699 
L 39.406228 26.241699 
L 39.414866 26.241699 
L 39.423545 26.241699 
L 39.432263 26.241699 
L 39.441022 26.241699 
L 39.449821 26.241699 
L 39.458661 26.241699 
L 39.467542 26.241699 
L 39.476463 26.241699 
L 39.485426 26.241699 
L 39.494431 26.241699 
L 39.503477 26.241699 
L 39.512564 26.241699 
L 39.521694 26.241699 
L 39.530866 26.241699 
L 39.54008 26.241699 
L 39.549337 26.241699 
L 39.558637 26.241699 
L 39.56798 26.241699 
L 39.577365 26.241699 
L 39.586795 26.241699 
L 39.596267 26.241699 
L 39.605784 26.241699 
L 39.615344 26.241699 
L 39.624949 26.241699 
L 39.634598 26.241699 
L 39.644292 26.241699 
L 39.65403 26.241699 
L 39.663813 26.241699 
L 39.673642 26.241699 
L 39.683516 26.241699 
L 39.693436 26.241699 
L 39.703401 26.241699 
L 39.713412 26.241699 
L 39.72347 26.241699 
L 39.733574 26.241699 
L 39.743725 26.241699 
L 39.753923 26.241699 
L 39.764168 26.241699 
L 39.77446 26.241699 
L 39.7848 26.241699 
L 39.795188 26.241699 
L 39.805623 26.241699 
L 39.816107 26.241699 
L 39.826639 26.241699 
L 39.83722 26.241699 
L 39.84785 26.241699 
L 39.858529 26.241699 
L 39.869257 26.241699 
L 39.880035 26.241699 
L 39.890863 26.241699 
L 39.90174 26.241699 
L 39.912668 26.241699 
L 39.923647 26.241699 
L 39.934676 26.241699 
L 39.945756 26.241699 
L 39.956887 26.241699 
L 39.96807 26.241699 
L 39.979304 26.241699 
L 39.990591 26.241699 
L 40.001929 26.241699 
L 40.01332 26.241699 
L 40.024763 26.241699 
L 40.03626 26.241699 
L 40.047809 26.241699 
L 40.059412 26.241699 
L 40.071068 26.241699 
L 40.082779 26.241699 
L 40.094543 26.241699 
L 40.106362 26.241699 
L 40.118235 26.241699 
L 40.130163 26.241699 
L 40.142147 26.241699 
L 40.154185 26.241699 
L 40.16628 26.241699 
L 40.17843 26.241699 
L 40.190636 26.241699 
L 40.202899 26.241699 
L 40.215218 26.241699 
L 40.227595 26.241699 
L 40.240028 26.241699 
L 40.252519 26.241699 
L 40.265068 26.241699 
L 40.277674 26.241699 
L 40.290339 26.241699 
L 40.303063 26.241699 
L 40.315845 26.241699 
L 40.328686 26.241699 
L 40.341587 26.241699 
L 40.354547 26.241699 
L 40.367567 26.241699 
L 40.380647 26.241699 
L 40.393788 26.241699 
L 40.406989 26.241699 
L 40.420252 26.241699 
L 40.433575 26.241699 
L 40.44696 26.241699 
L 40.460407 26.241699 
L 40.473917 26.241699 
L 40.487488 26.241699 
L 40.501123 26.241699 
L 40.51482 26.241699 
L 40.52858 26.241699 
L 40.542405 26.241699 
L 40.556293 26.241699 
L 40.570245 26.241699 
L 40.584262 26.241699 
L 40.598343 26.241699 
L 40.61249 26.241699 
L 40.626701 26.241699 
L 40.640979 26.241699 
L 40.655322 26.241699 
L 40.669732 26.241699 
L 40.684209 26.241699 
L 40.698752 26.241699 
L 40.713362 26.241699 
L 40.72804 26.241699 
L 40.742786 26.241699 
L 40.7576 26.241699 
L 40.772482 26.241699 
L 40.787433 26.241699 
L 40.802453 26.241699 
L 40.817543 26.241699 
L 40.832702 26.241699 
L 40.847932 26.241699 
L 40.863231 26.241699 
L 40.878602 26.241699 
L 40.894043 26.241699 
L 40.909556 26.241699 
L 40.92514 26.241699 
L 40.940797 26.241699 
L 40.956526 26.241699 
L 40.972327 26.241707 
L 40.988202 26.241699 
L 41.004149 26.241699 
L 41.020171 26.241699 
L 41.036267 26.241699 
L 41.052436 26.241699 
L 41.068681 26.241699 
L 41.085001 26.241699 
L 41.101396 26.241699 
L 41.117867 26.241699 
L 41.134414 26.241699 
L 41.151037 26.241699 
L 41.167737 26.241699 
L 41.184514 26.241699 
L 41.201369 26.241699 
L 41.218302 26.241699 
L 41.235313 26.241699 
L 41.252403 26.241699 
L 41.269571 26.241699 
L 41.286819 26.241699 
L 41.304147 26.241699 
L 41.321554 26.241699 
L 41.339042 26.241699 
L 41.356611 26.241699 
L 41.374261 26.241699 
L 41.391993 26.241699 
L 41.409806 26.241699 
L 41.427702 26.241699 
L 41.44568 26.241699 
L 41.463742 26.241699 
L 41.481887 26.241699 
L 41.500116 26.241699 
L 41.518429 26.241699 
L 41.536827 26.241699 
L 41.555309 26.241699 
L 41.573877 26.241699 
L 41.592531 26.241699 
L 41.611271 26.241699 
L 41.630098 26.241699 
L 41.649012 26.241699 
L 41.668013 26.241699 
L 41.687102 26.241699 
L 41.706279 26.241699 
L 41.725544 26.241699 
L 41.744899 26.241699 
L 41.764343 26.241699 
L 41.783877 26.241699 
L 41.803501 26.241699 
L 41.823216 26.241699 
L 41.843022 26.241699 
L 41.862919 26.241699 
L 41.882909 26.241699 
L 41.902991 26.241699 
L 41.923165 26.241699 
L 41.943433 26.241699 
L 41.963794 26.241699 
L 41.98425 26.241699 
L 42.0048 26.241699 
L 42.025445 26.241699 
L 42.046185 26.241699 
L 42.067021 26.241699 
L 42.087953 26.241699 
L 42.108983 26.241699 
L 42.130109 26.241699 
L 42.151333 26.241699 
L 42.172655 26.241699 
L 42.194075 26.241699 
L 42.215595 26.241699 
L 42.237214 26.241699 
L 42.258932 26.241699 
L 42.280752 26.241699 
L 42.302671 26.241699 
L 42.324693 26.241699 
L 42.346816 26.241699 
L 42.369041 26.241699 
L 42.391369 26.241699 
L 42.4138 26.241699 
L 42.436334 26.241699 
L 42.458973 26.241699 
L 42.481717 26.241699 
L 42.504565 26.241699 
L 42.527519 26.241699 
L 42.550579 26.241699 
L 42.573746 26.241699 
L 42.59702 26.241699 
L 42.620401 26.241699 
L 42.64389 26.241699 
L 42.667488 26.241699 
L 42.691195 26.241699 
L 42.715011 26.241699 
L 42.738938 26.241699 
L 42.762975 26.241699 
L 42.787123 26.241699 
L 42.811382 26.241699 
L 42.835754 26.241699 
L 42.860238 26.241699 
L 42.884836 26.241699 
L 42.909547 26.241699 
L 42.934372 26.241699 
L 42.959312 26.241699 
L 42.984367 26.241699 
L 43.009538 26.241699 
L 43.034825 26.241699 
L 43.060229 26.241699 
L 43.085751 26.241699 
L 43.11139 26.241699 
L 43.137148 26.241699 
L 43.163025 26.241699 
L 43.189021 26.241699 
L 43.215138 26.241699 
L 43.241375 26.241699 
L 43.267733 26.241699 
L 43.294214 26.241699 
L 43.320816 26.241699 
L 43.347542 26.241699 
L 43.374391 26.241699 
L 43.401364 26.241699 
L 43.428461 26.241699 
L 43.455684 26.241699 
L 43.483033 26.241699 
L 43.510508 26.241699 
L 43.53811 26.241699 
L 43.565839 26.241699 
L 43.593697 26.241699 
L 43.621683 26.241699 
L 43.649799 26.241699 
L 43.678044 26.241699 
L 43.70642 26.241699 
L 43.734927 26.241699 
L 43.763566 26.241699 
L 43.792337 26.241699 
L 43.821241 26.241699 
L 43.850279 26.241699 
L 43.879451 26.241699 
L 43.908758 26.241699 
L 43.9382 26.241699 
L 43.967778 26.241699 
L 43.997492 26.241699 
L 44.027344 26.241699 
L 44.057334 26.241699 
L 44.087463 26.241699 
L 44.117731 26.241699 
L 44.148138 26.241699 
L 44.178686 26.241699 
L 44.209375 26.241699 
L 44.240206 26.241699 
L 44.27118 26.241699 
L 44.302296 26.241699 
L 44.333557 26.241699 
L 44.364961 26.241699 
L 44.396511 26.241699 
L 44.428207 26.241699 
L 44.460049 26.241699 
L 44.492038 26.241699 
L 44.524175 26.241699 
L 44.556461 47.243508 
L 44.588895 26.241699 
L 44.62148 26.241699 
L 44.654215 26.241699 
L 44.687101 26.241699 
L 44.72014 26.241699 
L 44.753331 26.241699 
L 44.786675 26.241699 
L 44.820173 26.241699 
L 44.853827 26.241699 
L 44.887635 26.241699 
L 44.9216 26.241699 
L 44.955722 26.241699 
L 44.990001 26.241699 
L 45.024439 26.241699 
L 45.059036 26.241699 
L 45.093793 26.241699 
L 45.12871 26.241699 
L 45.163789 26.241699 
L 45.19903 26.241699 
L 45.234433 26.241699 
L 45.27 26.241699 
L 45.305732 26.241699 
L 45.341629 26.241699 
L 45.377691 26.241699 
L 45.41392 26.241699 
L 45.450317 26.241699 
L 45.486881 26.241699 
L 45.523615 26.241699 
L 45.560518 26.241699 
L 45.597592 26.241699 
L 45.634837 26.241699 
L 45.672255 26.241699 
L 45.709845 26.241699 
L 45.747608 26.241699 
L 45.785547 26.241699 
L 45.82366 26.241699 
L 45.86195 26.241699 
L 45.900417 26.241699 
L 45.939061 26.241699 
L 45.977884 26.241699 
L 46.016886 26.241699 
L 46.056069 26.241699 
L 46.095432 26.241699 
L 46.134977 26.241699 
L 46.174706 26.241699 
L 46.214617 26.241699 
L 46.254713 26.241699 
L 46.294995 26.241699 
L 46.335462 26.241699 
L 46.376116 26.241699 
L 46.416959 26.241699 
L 46.45799 26.241699 
L 46.49921 26.241699 
L 46.540621 26.241699 
L 46.582223 26.241699 
L 46.624018 26.241699 
L 46.666006 26.241699 
L 46.708187 26.241699 
L 46.750564 26.241699 
L 46.793136 26.241699 
L 46.835905 26.241699 
L 46.878872 26.241699 
L 46.922037 26.241699 
L 46.965402 26.241699 
L 47.008967 26.241699 
L 47.052733 26.241699 
L 47.096702 26.241699 
L 47.140873 26.241699 
L 47.185249 26.241699 
L 47.22983 26.241699 
L 47.274617 26.241699 
L 47.31961 26.241699 
L 47.364812 26.241699 
L 47.410222 26.241699 
L 47.455843 26.241699 
L 47.501674 26.241699 
L 47.547717 26.241699 
L 47.593972 26.241699 
L 47.640441 26.241699 
L 47.687125 26.241699 
L 47.734025 26.241699 
L 47.781141 26.241699 
L 47.828475 26.241699 
L 47.876028 26.241699 
L 47.923801 26.241699 
L 47.971794 26.241699 
L 48.020009 26.241699 
L 48.068447 26.241699 
L 48.117108 26.241699 
L 48.165994 26.241699 
L 48.215107 26.241699 
L 48.264446 26.241699 
L 48.314013 26.241699 
L 48.363809 26.241699 
L 48.413835 26.241699 
L 48.464093 26.241699 
L 48.514582 26.241699 
L 48.565305 26.241699 
L 48.616262 26.241699 
L 48.667455 26.241699 
L 48.718884 26.241699 
L 48.770551 26.241699 
L 48.822457 26.241699 
L 48.874602 26.241699 
L 48.926988 26.241699 
L 48.979617 26.241699 
L 49.032488 26.241699 
L 49.085604 26.241699 
L 49.138965 26.241699 
L 49.192573 26.241699 
L 49.246429 26.241699 
L 49.300533 26.241699 
L 49.354887 26.241699 
L 49.409493 26.241699 
L 49.46435 26.241582 
L 49.519462 26.241699 
L 49.574827 26.241699 
L 49.630449 26.241699 
L 49.686328 26.241699 
L 49.742465 26.241699 
L 49.798861 26.241699 
L 49.855517 26.241699 
L 49.912436 26.241699 
L 49.969618 26.241699 
L 50.027063 26.241699 
L 50.084775 26.241699 
L 50.142752 26.241699 
L 50.200998 26.241699 
L 50.259513 26.241699 
L 50.318298 26.241699 
L 50.377355 26.241699 
L 50.436684 26.241699 
L 50.496288 26.241699 
L 50.556167 26.241699 
L 50.616323 26.241699 
L 50.676757 26.241699 
L 50.73747 26.241699 
L 50.798464 26.241699 
L 50.859739 26.241699 
L 50.921298 26.241699 
L 50.98314 26.241699 
L 51.045269 26.241699 
L 51.107685 26.241699 
L 51.170389 26.241699 
L 51.233383 26.241699 
L 51.296668 26.241699 
L 51.360245 26.241699 
L 51.424116 26.241699 
L 51.488282 26.241699 
L 51.552745 26.241699 
L 51.617505 26.241699 
L 51.682565 26.241699 
L 51.747925 26.241699 
L 51.813587 26.241699 
L 51.879553 26.241699 
L 51.945823 26.241699 
L 52.0124 26.241699 
L 52.079284 26.241699 
L 52.146478 26.241699 
L 52.213981 26.241699 
L 52.281797 26.241699 
L 52.349926 26.241699 
L 52.41837 26.241699 
L 52.48713 26.241699 
L 52.556208 26.241699 
L 52.625604 26.241699 
L 52.695322 26.241699 
L 52.765362 26.241699 
L 52.835725 26.241699 
L 52.906413 26.241699 
L 52.977428 26.241699 
L 53.048771 26.241699 
L 53.120444 26.241699 
L 53.192448 26.241699 
L 53.264785 26.241699 
L 53.337455 26.241699 
L 53.410462 26.241699 
L 53.483806 26.241699 
L 53.557489 26.241699 
L 53.631512 26.241699 
L 53.705877 26.241699 
L 53.780586 26.241699 
L 53.85564 26.241699 
L 53.931041 26.241699 
L 54.00679 26.241699 
L 54.082889 26.241699 
L 54.15934 26.241699 
L 54.236144 26.241699 
L 54.313303 26.241699 
L 54.390818 26.241699 
L 54.468692 26.241699 
L 54.546925 26.241699 
L 54.62552 26.241699 
L 54.704478 26.241699 
L 54.783801 26.241699 
L 54.86349 26.241699 
L 54.943548 26.241699 
L 55.023975 26.241699 
L 55.104774 26.241699 
L 55.185946 26.241699 
L 55.267494 26.241699 
L 55.349418 26.241699 
L 55.43172 26.241699 
L 55.514403 26.241699 
L 55.597468 26.241699 
L 55.680917 26.241699 
L 55.764752 26.241699 
L 55.848973 26.241699 
L 55.933584 26.241699 
L 56.018586 26.241699 
L 56.10398 26.241699 
L 56.18977 26.241699 
L 56.275955 26.241699 
L 56.362539 26.241699 
L 56.449522 26.241699 
L 56.536908 26.241699 
L 56.624697 26.241699 
L 56.712892 26.241699 
L 56.801495 26.241699 
L 56.890507 26.241699 
L 56.97993 26.241699 
L 57.069766 26.241699 
L 57.160018 26.241699 
L 57.250686 26.241699 
L 57.341774 26.241699 
L 57.433282 26.241699 
L 57.525213 26.241699 
L 57.617569 26.241699 
L 57.710351 26.241699 
L 57.803562 26.241699 
L 57.897204 26.241699 
L 57.991279 26.241699 
L 58.085788 26.241699 
L 58.180734 26.241699 
L 58.276118 26.241699 
L 58.371944 26.241699 
L 58.468212 26.241699 
L 58.564924 26.241699 
L 58.662084 26.241699 
L 58.759693 26.241699 
L 58.857752 26.241699 
L 58.956265 26.241699 
L 59.055233 26.241699 
L 59.154658 26.241699 
L 59.254543 26.241699 
L 59.354889 26.241699 
L 59.455698 26.241699 
L 59.556974 26.241699 
L 59.658717 26.241699 
L 59.76093 26.241699 
L 59.863616 26.241699 
L 59.966776 26.241699 
L 60.070413 26.241699 
L 60.174529 26.241699 
L 60.279126 26.241699 
L 60.384206 26.241699 
L 60.489771 26.241699 
L 60.595824 26.241699 
L 60.702368 26.241699 
L 60.809403 26.241699 
L 60.916933 26.241699 
L 61.02496 26.241699 
L 61.133486 26.241699 
L 61.242514 26.241699 
L 61.352045 26.241699 
L 61.462083 26.241699 
L 61.572628 26.241699 
L 61.683685 26.241699 
L 61.795255 26.241699 
L 61.90734 26.241699 
L 62.019943 26.241699 
L 62.133066 26.241699 
L 62.246712 26.241699 
L 62.360883 26.241699 
L 62.475582 26.241699 
L 62.59081 26.241699 
L 62.706571 26.241699 
L 62.822867 26.241699 
L 62.9397 26.241699 
L 63.057073 26.241699 
L 63.174989 26.241699 
L 63.293449 26.241699 
L 63.412456 26.241699 
L 63.532014 26.230704 
L 63.652123 26.241699 
L 63.772788 26.241699 
L 63.89401 26.241699 
L 64.015793 26.241699 
L 64.138138 26.241699 
L 64.261048 26.241699 
L 64.384526 26.241699 
L 64.508575 26.241699 
L 64.633197 26.241699 
L 64.758394 26.241699 
L 64.88417 26.241699 
L 65.010528 26.241699 
L 65.137469 26.241699 
L 65.264996 26.241699 
L 65.393113 26.241699 
L 65.521822 26.241699 
L 65.651125 26.241699 
L 65.781026 26.241699 
L 65.911527 26.241699 
L 66.042632 26.241699 
L 66.174341 26.241699 
L 66.30666 26.241699 
L 66.43959 26.241699 
L 66.573134 26.241699 
L 66.707295 26.241699 
L 66.842075 26.241699 
L 66.977479 26.241699 
L 67.113508 26.241699 
L 67.250166 26.241699 
L 67.387455 26.241699 
L 67.525379 26.241699 
L 67.663939 26.241699 
L 67.80314 26.241699 
L 67.942984 26.241699 
L 68.083475 26.241699 
L 68.224614 26.241699 
L 68.366406 26.241699 
L 68.508852 26.241699 
L 68.651957 26.241699 
L 68.795723 26.241699 
L 68.940153 26.241699 
L 69.085251 26.241699 
L 69.231019 26.241699 
L 69.377461 26.241699 
L 69.524579 26.241699 
L 69.672377 26.241699 
L 69.820858 26.241699 
L 69.970024 26.241699 
L 70.11988 26.241699 
L 70.270429 26.241699 
L 70.421673 26.241699 
L 70.573616 26.241699 
L 70.726261 26.241699 
L 70.879611 26.241699 
L 71.03367 26.241699 
L 71.18844 26.241699 
L 71.343926 26.241699 
L 71.50013 26.241699 
L 71.657056 26.241699 
L 71.814706 26.241699 
L 71.973086 26.241699 
L 72.132197 26.241699 
L 72.292043 26.241699 
L 72.452628 26.241699 
L 72.613954 26.241699 
L 72.776027 26.241699 
L 72.938848 26.241699 
L 73.102421 26.241699 
L 73.26675 26.241699 
L 73.431838 26.241699 
L 73.597689 26.241699 
L 73.764307 26.241699 
L 73.931694 26.241699 
L 74.099854 26.241699 
L 74.268792 26.241699 
L 74.43851 26.241699 
L 74.609013 26.241699 
L 74.780303 26.241699 
L 74.952384 26.241699 
L 75.125261 26.241699 
L 75.298936 26.241699 
L 75.473414 26.241699 
L 75.648698 26.241699 
L 75.824792 26.241699 
L 76.0017 26.241699 
L 76.179425 26.241699 
L 76.357971 26.241699 
L 76.537342 26.241699 
L 76.717542 26.241699 
L 76.898574 26.241699 
L 77.080443 26.241699 
L 77.263152 26.241699 
L 77.446705 26.241699 
L 77.631107 26.241699 
L 77.81636 26.241699 
L 78.00247 26.241699 
L 78.189439 26.241699 
L 78.377272 26.241699 
L 78.565973 26.241699 
L 78.755546 26.241699 
L 78.945995 26.241699 
L 79.137324 26.241699 
L 79.329537 26.241699 
L 79.522638 26.241699 
L 79.716631 26.241699 
L 79.911521 26.241699 
L 80.107311 26.241699 
L 80.304005 26.241699 
L 80.501608 26.241699 
L 80.700125 26.241699 
L 80.899559 26.241699 
L 81.099914 26.241699 
L 81.301194 26.241699 
L 81.503405 26.241699 
L 81.70655 26.241699 
L 81.910634 26.241699 
L 82.115661 26.241699 
L 82.321635 26.241699 
L 82.528561 26.241699 
L 82.736442 26.241699 
L 82.945285 26.241699 
L 83.155092 26.241699 
L 83.365868 26.241699 
L 83.577619 26.241699 
L 83.790348 26.241699 
L 84.00406 26.241699 
L 84.218759 26.241699 
L 84.43445 26.241699 
L 84.651138 26.241699 
L 84.868827 26.241699 
L 85.087522 26.241699 
L 85.307227 26.241699 
L 85.527947 26.241699 
L 85.749687 26.241693 
L 85.972452 26.241699 
L 86.196246 26.241699 
L 86.421074 26.241699 
L 86.646941 26.241699 
L 86.873852 26.241699 
L 87.10181 26.241699 
L 87.330823 26.241699 
L 87.560893 26.241699 
L 87.792026 26.241699 
L 88.024227 26.241699 
L 88.257501 26.241699 
L 88.491853 26.241699 
L 88.727288 26.241699 
L 88.96381 26.241699 
L 89.201426 26.241699 
L 89.440139 26.241699 
L 89.679955 26.241699 
L 89.920879 26.241699 
L 90.162917 26.241699 
L 90.406073 26.241699 
L 90.650352 26.241699 
L 90.89576 26.241699 
L 91.142301 26.241699 
L 91.389982 26.241699 
L 91.638808 26.241699 
L 91.888783 26.241699 
L 92.139913 26.241699 
L 92.392203 26.241699 
L 92.645659 26.241699 
L 92.900286 26.241699 
L 93.156089 26.241699 
L 93.413075 26.241699 
L 93.671248 26.241699 
L 93.930613 26.241699 
L 94.191177 26.241699 
L 94.452945 26.241699 
L 94.715923 26.241699 
L 94.980115 26.241699 
L 95.245529 26.241699 
L 95.512168 26.241699 
L 95.78004 26.241699 
L 96.049149 26.241699 
L 96.319501 26.241699 
L 96.591103 26.241699 
L 96.86396 26.241699 
L 97.138077 26.241699 
L 97.413461 26.241699 
L 97.690117 26.241699 
L 97.968052 26.241699 
L 98.247271 26.241699 
L 98.527779 26.241699 
L 98.809584 26.241699 
L 99.092691 26.241699 
L 99.377106 26.241699 
L 99.662836 26.241699 
L 99.949885 26.241699 
L 100.238261 26.241699 
L 100.527969 26.241699 
L 100.819015 26.241699 
L 101.111407 26.241699 
L 101.405149 26.241699 
L 101.700249 26.241699 
L 101.996712 26.241699 
L 102.294544 26.241699 
L 102.593753 26.241699 
L 102.894345 26.241699 
L 103.196325 26.241699 
L 103.499701 26.241699 
L 103.804478 26.241699 
L 104.110663 26.241699 
L 104.418264 26.241699 
L 104.727285 26.241699 
L 105.037734 26.241699 
L 105.349618 26.241699 
L 105.662943 26.241699 
L 105.977715 26.241699 
L 106.293942 26.241699 
L 106.61163 26.241699 
L 106.930785 26.241699 
L 107.251416 26.241699 
L 107.573527 26.241699 
L 107.897128 26.241699 
L 108.222223 26.241699 
L 108.54882 26.241699 
L 108.876926 26.241699 
L 109.206549 26.241699 
L 109.537694 26.241699 
L 109.870369 26.241699 
L 110.204582 26.241699 
L 110.540339 26.241699 
L 110.877647 26.241699 
L 111.216513 26.241699 
L 111.556945 26.241699 
L 111.89895 26.241699 
L 112.242536 26.241699 
L 112.587709 26.241699 
L 112.934476 26.241699 
L 113.282846 26.241699 
L 113.632826 26.241699 
L 113.984422 26.241699 
L 114.337644 26.241699 
L 114.692497 26.241699 
L 115.048989 26.241699 
L 115.407129 26.241699 
L 115.766924 26.241699 
L 116.128381 26.241699 
L 116.491508 26.241699 
L 116.856313 26.241699 
L 117.222803 26.241699 
L 117.590987 26.241699 
L 117.960872 26.241699 
L 118.332466 26.241699 
L 118.705777 26.241699 
L 119.080813 26.241699 
L 119.457581 26.241699 
L 119.836091 26.241699 
L 120.216349 26.241699 
L 120.598364 26.241699 
L 120.982145 26.241699 
L 121.367698 26.241699 
L 121.755033 26.241699 
L 122.144158 26.241699 
L 122.53508 26.241699 
L 122.927809 26.241699 
L 123.322352 26.241699 
L 123.718719 26.241699 
L 124.116916 26.241699 
L 124.516954 26.241699 
L 124.91884 26.241699 
L 125.322582 26.241699 
L 125.728191 26.241699 
L 126.135673 26.241699 
L 126.545038 26.241699 
L 126.956294 26.241699 
L 127.369451 26.241699 
L 127.784517 26.241699 
L 128.2015 26.241699 
L 128.62041 26.241699 
L 129.041256 26.241699 
L 129.464046 26.241699 
L 129.888789 26.241699 
L 130.315495 26.241699 
L 130.744173 26.241699 
L 131.174831 26.241699 
L 131.607479 26.241699 
L 132.042126 26.241699 
L 132.478781 26.241699 
L 132.917454 26.241699 
L 133.358154 26.241699 
L 133.80089 26.241699 
L 134.245671 26.241699 
L 134.692508 26.241699 
L 135.141409 26.241699 
L 135.592384 26.241699 
L 136.045443 26.241699 
L 136.500596 26.241699 
L 136.957851 26.241699 
L 137.417219 26.241699 
L 137.87871 26.241699 
L 138.342332 26.241699 
L 138.808097 26.241699 
L 139.276014 26.241699 
L 139.746093 26.241699 
L 140.218344 26.241699 
L 140.692777 26.241699 
L 141.169402 26.241699 
L 141.648229 26.241699 
L 142.129269 26.241699 
L 142.612531 26.241699 
L 143.098026 26.241699 
L 143.585764 26.241699 
L 144.075756 26.241699 
L 144.568012 26.241699 
L 145.062542 26.241699 
L 145.559357 26.241699 
L 146.058468 26.241699 
L 146.559884 26.241699 
L 147.063618 26.241699 
L 147.569679 26.241699 
L 148.078078 26.241699 
L 148.588826 26.241699 
L 149.101934 26.241699 
L 149.617413 26.241699 
L 150.135273 26.241699 
L 150.655527 26.241699 
L 151.178184 26.241699 
L 151.703256 26.241699 
L 152.230754 26.241699 
L 152.760689 26.241699 
L 153.293073 26.241699 
L 153.827916 26.241699 
L 154.365231 26.241699 
L 154.905029 26.241699 
L 155.44732 26.241699 
L 155.992118 26.241699 
L 156.539432 26.241699 
L 157.089275 26.241699 
L 157.641659 26.241699 
L 158.196595 26.241699 
L 158.754095 26.241699 
L 159.314171 26.241699 
L 159.876834 26.241699 
L 160.442098 26.241699 
L 161.009973 26.241699 
L 161.580472 26.241699 
L 162.153607 26.241699 
L 162.72939 26.241699 
L 163.307833 26.241699 
L 163.888949 26.241699 
L 164.47275 26.241699 
L 165.059249 26.241699 
L 165.648457 26.241699 
L 166.240388 26.241699 
L 166.835053 26.241699 
L 167.432467 26.241699 
L 168.03264 26.241699 
L 168.635587 26.241699 
L 169.24132 26.241699 
L 169.849851 26.241699 
L 170.461194 26.241699 
L 171.075361 26.241699 
L 171.692367 26.241699 
L 172.312223 26.241699 
L 172.934943 26.241699 
L 173.56054 26.241699 
L 174.189028 26.241699 
L 174.82042 26.241699 
L 175.454729 26.241699 
L 176.091969 26.241699 
L 176.732153 26.241699 
L 177.375295 26.241699 
L 178.021409 26.241699 
L 178.670508 26.241699 
L 179.322606 26.241699 
L 179.977717 26.241699 
L 180.635855 26.241699 
L 181.297034 26.241699 
L 181.961267 26.241699 
L 182.62857 26.241699 
L 183.298956 26.241699 
L 183.97244 26.241699 
L 184.649035 26.241699 
L 185.328756 26.241699 
L 186.011618 26.241699 
L 186.697635 26.241699 
L 187.386822 26.241699 
L 188.079193 26.241699 
L 188.774763 26.241699 
L 189.473547 26.241699 
L 190.17556 26.241699 
L 190.880816 26.241699 
L 191.589331 26.241699 
L 192.30112 26.241699 
L 193.016197 26.241699 
L 193.734578 26.241699 
L 194.456279 26.241699 
L 195.181314 26.241699 
L 195.909699 26.241699 
L 196.641449 26.241699 
L 197.37658 26.241699 
L 198.115108 26.241699 
L 198.857049 26.241699 
L 199.602417 26.241699 
L 200.351229 26.241699 
L 201.103502 26.241699 
L 201.85925 26.241699 
L 202.618489 26.241699 
L 203.381237 26.241699 
L 204.147509 26.241699 
L 204.917322 26.241699 
L 205.690691 26.241699 
L 206.467634 26.241699 
L 207.248167 26.241699 
L 208.032306 26.241699 
L 208.820067 26.241699 
L 209.611469 26.241699 
L 210.406528 26.241699 
L 211.205259 26.241699 
L 212.007682 28.290895 
L 212.007682 28.356574 
L 212.007682 28.356574 
L 211.205259 91.920071 
L 210.406528 91.920071 
L 209.611469 91.920071 
L 208.820067 91.920071 
L 208.032306 91.920071 
L 207.248167 91.920071 
L 206.467634 91.920071 
L 205.690691 91.920071 
L 204.917322 91.920071 
L 204.147509 91.920071 
L 203.381237 91.920071 
L 202.618489 91.920071 
L 201.85925 91.920071 
L 201.103502 91.920071 
L 200.351229 91.920071 
L 199.602417 91.920071 
L 198.857049 91.920071 
L 198.115108 91.920071 
L 197.37658 91.920071 
L 196.641449 91.920071 
L 195.909699 91.920071 
L 195.181314 91.920071 
L 194.456279 91.920071 
L 193.734578 91.920071 
L 193.016197 91.920071 
L 192.30112 91.920071 
L 191.589331 91.920071 
L 190.880816 91.920071 
L 190.17556 91.920071 
L 189.473547 91.920071 
L 188.774763 91.920071 
L 188.079193 91.920071 
L 187.386822 91.920071 
L 186.697635 91.920071 
L 186.011618 91.920071 
L 185.328756 91.920071 
L 184.649035 91.920071 
L 183.97244 91.920071 
L 183.298956 91.920071 
L 182.62857 91.920071 
L 181.961267 91.920071 
L 181.297034 91.920071 
L 180.635855 91.920071 
L 179.977717 91.920071 
L 179.322606 91.920071 
L 178.670508 91.920071 
L 178.021409 91.920071 
L 177.375295 91.920071 
L 176.732153 91.920071 
L 176.091969 91.920071 
L 175.454729 91.920071 
L 174.82042 91.920071 
L 174.189028 91.920071 
L 173.56054 91.920071 
L 172.934943 91.920071 
L 172.312223 91.920071 
L 171.692367 91.920071 
L 171.075361 91.920071 
L 170.461194 91.920071 
L 169.849851 91.920071 
L 169.24132 91.920071 
L 168.635587 91.920071 
L 168.03264 91.920071 
L 167.432467 91.920071 
L 166.835053 91.920071 
L 166.240388 91.920071 
L 165.648457 91.920071 
L 165.059249 91.920071 
L 164.47275 91.920071 
L 163.888949 91.920071 
L 163.307833 91.920071 
L 162.72939 91.920071 
L 162.153607 91.920071 
L 161.580472 91.920071 
L 161.009973 91.920071 
L 160.442098 91.920071 
L 159.876834 91.920071 
L 159.314171 91.920071 
L 158.754095 91.920071 
L 158.196595 91.920071 
L 157.641659 91.920071 
L 157.089275 91.920071 
L 156.539432 91.920071 
L 155.992118 91.920071 
L 155.44732 91.920071 
L 154.905029 91.920071 
L 154.365231 91.920071 
L 153.827916 91.920071 
L 153.293073 91.920071 
L 152.760689 91.920071 
L 152.230754 91.920071 
L 151.703256 91.920071 
L 151.178184 91.920071 
L 150.655527 91.920071 
L 150.135273 91.920071 
L 149.617413 91.920071 
L 149.101934 91.920071 
L 148.588826 91.920071 
L 148.078078 91.920071 
L 147.569679 91.920071 
L 147.063618 91.920071 
L 146.559884 91.920071 
L 146.058468 91.920071 
L 145.559357 91.920071 
L 145.062542 91.920071 
L 144.568012 91.920071 
L 144.075756 91.920071 
L 143.585764 91.920071 
L 143.098026 91.920071 
L 142.612531 91.920071 
L 142.129269 91.920071 
L 141.648229 91.920071 
L 141.169402 91.920071 
L 140.692777 91.920071 
L 140.218344 91.920071 
L 139.746093 91.920071 
L 139.276014 91.920071 
L 138.808097 91.920071 
L 138.342332 91.920071 
L 137.87871 91.920071 
L 137.417219 91.920071 
L 136.957851 91.920071 
L 136.500596 91.920071 
L 136.045443 91.920071 
L 135.592384 91.920071 
L 135.141409 91.920071 
L 134.692508 91.920071 
L 134.245671 91.920071 
L 133.80089 91.920071 
L 133.358154 91.920071 
L 132.917454 91.920071 
L 132.478781 91.920071 
L 132.042126 91.920071 
L 131.607479 91.920071 
L 131.174831 91.920071 
L 130.744173 91.920071 
L 130.315495 91.920071 
L 129.888789 91.920071 
L 129.464046 91.920071 
L 129.041256 91.920071 
L 128.62041 91.920071 
L 128.2015 91.920071 
L 127.784517 91.920071 
L 127.369451 91.920071 
L 126.956294 91.920071 
L 126.545038 91.920071 
L 126.135673 91.920071 
L 125.728191 91.920071 
L 125.322582 91.920071 
L 124.91884 91.920071 
L 124.516954 91.920071 
L 124.116916 91.920071 
L 123.718719 91.920071 
L 123.322352 91.920071 
L 122.927809 91.920071 
L 122.53508 91.920071 
L 122.144158 91.920071 
L 121.755033 91.920071 
L 121.367698 91.920071 
L 120.982145 91.920071 
L 120.598364 91.920071 
L 120.216349 91.920071 
L 119.836091 91.920071 
L 119.457581 91.920071 
L 119.080813 91.920071 
L 118.705777 91.920071 
L 118.332466 91.920071 
L 117.960872 91.920071 
L 117.590987 91.920071 
L 117.222803 91.920071 
L 116.856313 91.920071 
L 116.491508 91.920071 
L 116.128381 91.920071 
L 115.766924 91.920071 
L 115.407129 91.920071 
L 115.048989 91.920071 
L 114.692497 91.920071 
L 114.337644 91.920071 
L 113.984422 91.920071 
L 113.632826 91.920071 
L 113.282846 91.920071 
L 112.934476 91.920071 
L 112.587709 91.920071 
L 112.242536 91.920071 
L 111.89895 91.920071 
L 111.556945 91.920071 
L 111.216513 91.920071 
L 110.877647 91.920071 
L 110.540339 91.920071 
L 110.204582 91.920071 
L 109.870369 91.920071 
L 109.537694 91.920071 
L 109.206549 91.920071 
L 108.876926 91.920071 
L 108.54882 91.920071 
L 108.222223 91.920071 
L 107.897128 91.920071 
L 107.573527 91.920071 
L 107.251416 91.920071 
L 106.930785 91.920071 
L 106.61163 91.920071 
L 106.293942 91.920071 
L 105.977715 91.920071 
L 105.662943 91.920071 
L 105.349618 91.920071 
L 105.037734 91.920071 
L 104.727285 91.920071 
L 104.418264 91.920071 
L 104.110663 91.920071 
L 103.804478 91.920071 
L 103.499701 91.920071 
L 103.196325 91.920071 
L 102.894345 91.920071 
L 102.593753 91.920071 
L 102.294544 91.920071 
L 101.996712 91.920071 
L 101.700249 91.920071 
L 101.405149 91.920071 
L 101.111407 91.920071 
L 100.819015 91.920071 
L 100.527969 91.920071 
L 100.238261 91.920071 
L 99.949885 91.920071 
L 99.662836 91.920071 
L 99.377106 91.920071 
L 99.092691 91.920071 
L 98.809584 91.920071 
L 98.527779 91.920071 
L 98.247271 91.920071 
L 97.968052 91.920071 
L 97.690117 91.920071 
L 97.413461 91.920071 
L 97.138077 91.920071 
L 96.86396 91.920071 
L 96.591103 91.920071 
L 96.319501 91.920071 
L 96.049149 91.920071 
L 95.78004 91.920071 
L 95.512168 91.920071 
L 95.245529 91.920071 
L 94.980115 91.920071 
L 94.715923 91.920071 
L 94.452945 91.920071 
L 94.191177 91.920071 
L 93.930613 91.920071 
L 93.671248 91.920071 
L 93.413075 91.920071 
L 93.156089 91.920071 
L 92.900286 91.920071 
L 92.645659 91.920071 
L 92.392203 91.920071 
L 92.139913 91.920071 
L 91.888783 91.920071 
L 91.638808 91.920071 
L 91.389982 91.920071 
L 91.142301 91.920071 
L 90.89576 91.920071 
L 90.650352 91.920071 
L 90.406073 91.920071 
L 90.162917 91.920071 
L 89.920879 91.920071 
L 89.679955 91.920071 
L 89.440139 91.920071 
L 89.201426 91.920071 
L 88.96381 91.920071 
L 88.727288 91.920071 
L 88.491853 91.920071 
L 88.257501 91.920071 
L 88.024227 91.920071 
L 87.792026 91.920071 
L 87.560893 91.920071 
L 87.330823 91.920071 
L 87.10181 91.920071 
L 86.873852 91.920071 
L 86.646941 91.920071 
L 86.421074 91.920071 
L 86.196246 91.920071 
L 85.972452 91.920071 
L 85.749687 91.920066 
L 85.527947 91.920071 
L 85.307227 91.920071 
L 85.087522 91.920071 
L 84.868827 91.920071 
L 84.651138 91.920071 
L 84.43445 91.920071 
L 84.218759 91.920071 
L 84.00406 91.920071 
L 83.790348 91.920071 
L 83.577619 91.920071 
L 83.365868 91.920071 
L 83.155092 91.920071 
L 82.945285 91.920071 
L 82.736442 91.920071 
L 82.528561 91.920071 
L 82.321635 91.920071 
L 82.115661 91.920071 
L 81.910634 91.920071 
L 81.70655 91.920071 
L 81.503405 91.920071 
L 81.301194 91.920071 
L 81.099914 91.920071 
L 80.899559 91.920071 
L 80.700125 91.920071 
L 80.501608 91.920071 
L 80.304005 91.920071 
L 80.107311 91.920071 
L 79.911521 91.920071 
L 79.716631 91.920071 
L 79.522638 91.920071 
L 79.329537 91.920071 
L 79.137324 91.920071 
L 78.945995 91.920071 
L 78.755546 91.920071 
L 78.565973 91.920071 
L 78.377272 91.920071 
L 78.189439 91.920071 
L 78.00247 91.920071 
L 77.81636 91.920071 
L 77.631107 91.920071 
L 77.446705 91.920071 
L 77.263152 91.920071 
L 77.080443 91.920071 
L 76.898574 91.920071 
L 76.717542 91.920071 
L 76.537342 91.920071 
L 76.357971 91.920071 
L 76.179425 91.920071 
L 76.0017 91.920071 
L 75.824792 91.920071 
L 75.648698 91.920071 
L 75.473414 91.920071 
L 75.298936 91.920071 
L 75.125261 91.920071 
L 74.952384 91.920071 
L 74.780303 91.920071 
L 74.609013 91.920071 
L 74.43851 91.920071 
L 74.268792 91.920071 
L 74.099854 91.920071 
L 73.931694 91.920071 
L 73.764307 91.920071 
L 73.597689 91.920071 
L 73.431838 91.920071 
L 73.26675 91.920071 
L 73.102421 91.920071 
L 72.938848 91.920071 
L 72.776027 91.920071 
L 72.613954 91.920071 
L 72.452628 91.920071 
L 72.292043 91.920071 
L 72.132197 91.920071 
L 71.973086 91.920071 
L 71.814706 91.920071 
L 71.657056 91.920071 
L 71.50013 91.920071 
L 71.343926 91.920071 
L 71.18844 91.920071 
L 71.03367 91.920071 
L 70.879611 91.920071 
L 70.726261 91.920071 
L 70.573616 91.920071 
L 70.421673 91.920071 
L 70.270429 91.920071 
L 70.11988 91.920071 
L 69.970024 91.920071 
L 69.820858 91.920071 
L 69.672377 91.920071 
L 69.524579 91.920071 
L 69.377461 91.920071 
L 69.231019 91.920071 
L 69.085251 91.920071 
L 68.940153 91.920071 
L 68.795723 91.920071 
L 68.651957 91.920071 
L 68.508852 91.920071 
L 68.366406 91.920071 
L 68.224614 91.920071 
L 68.083475 91.920071 
L 67.942984 91.920071 
L 67.80314 91.920071 
L 67.663939 91.920071 
L 67.525379 91.920071 
L 67.387455 91.920071 
L 67.250166 91.920071 
L 67.113508 91.920071 
L 66.977479 91.920071 
L 66.842075 91.920071 
L 66.707295 91.920071 
L 66.573134 91.920071 
L 66.43959 91.920071 
L 66.30666 91.920071 
L 66.174341 91.920071 
L 66.042632 91.920071 
L 65.911527 91.920071 
L 65.781026 91.920071 
L 65.651125 91.920071 
L 65.521822 91.920071 
L 65.393113 91.920071 
L 65.264996 91.920071 
L 65.137469 91.920071 
L 65.010528 91.920071 
L 64.88417 91.920071 
L 64.758394 91.920071 
L 64.633197 91.920071 
L 64.508575 91.920071 
L 64.384526 91.920071 
L 64.261048 91.920071 
L 64.138138 91.920071 
L 64.015793 91.920071 
L 63.89401 91.920071 
L 63.772788 91.920071 
L 63.652123 91.920071 
L 63.532014 91.909071 
L 63.412456 91.920071 
L 63.293449 91.920071 
L 63.174989 91.920071 
L 63.057073 91.920071 
L 62.9397 91.920071 
L 62.822867 91.920071 
L 62.706571 91.920071 
L 62.59081 91.920071 
L 62.475582 91.920071 
L 62.360883 91.920071 
L 62.246712 91.920071 
L 62.133066 91.920071 
L 62.019943 91.920071 
L 61.90734 91.920071 
L 61.795255 91.920071 
L 61.683685 91.920071 
L 61.572628 91.920071 
L 61.462083 91.920071 
L 61.352045 91.920071 
L 61.242514 91.920071 
L 61.133486 91.920071 
L 61.02496 91.920071 
L 60.916933 91.920071 
L 60.809403 91.920071 
L 60.702368 91.920071 
L 60.595824 91.920071 
L 60.489771 91.920071 
L 60.384206 91.920071 
L 60.279126 91.920071 
L 60.174529 91.920071 
L 60.070413 91.920071 
L 59.966776 91.920071 
L 59.863616 91.920071 
L 59.76093 91.920071 
L 59.658717 91.920071 
L 59.556974 91.920071 
L 59.455698 91.920071 
L 59.354889 91.920071 
L 59.254543 91.920071 
L 59.154658 91.920071 
L 59.055233 91.920071 
L 58.956265 91.920071 
L 58.857752 91.920071 
L 58.759693 91.920071 
L 58.662084 91.920071 
L 58.564924 91.920071 
L 58.468212 91.920071 
L 58.371944 91.920071 
L 58.276118 91.920071 
L 58.180734 91.920071 
L 58.085788 91.920071 
L 57.991279 91.920071 
L 57.897204 91.920071 
L 57.803562 91.920071 
L 57.710351 91.920071 
L 57.617569 91.920071 
L 57.525213 91.920071 
L 57.433282 91.920071 
L 57.341774 91.920071 
L 57.250686 91.920071 
L 57.160018 91.920071 
L 57.069766 91.920071 
L 56.97993 91.920071 
L 56.890507 91.920071 
L 56.801495 91.920071 
L 56.712892 91.920071 
L 56.624697 91.920071 
L 56.536908 91.920071 
L 56.449522 91.920071 
L 56.362539 91.920071 
L 56.275955 91.920071 
L 56.18977 91.920071 
L 56.10398 91.920071 
L 56.018586 91.920071 
L 55.933584 91.920071 
L 55.848973 91.920071 
L 55.764752 91.920071 
L 55.680917 91.920071 
L 55.597468 91.920071 
L 55.514403 91.920071 
L 55.43172 91.920071 
L 55.349418 91.920071 
L 55.267494 91.920071 
L 55.185946 91.920071 
L 55.104774 91.920071 
L 55.023975 91.920071 
L 54.943548 91.920071 
L 54.86349 91.920071 
L 54.783801 91.920071 
L 54.704478 91.920071 
L 54.62552 91.920071 
L 54.546925 91.920071 
L 54.468692 91.920071 
L 54.390818 91.920071 
L 54.313303 91.920071 
L 54.236144 91.920071 
L 54.15934 91.920071 
L 54.082889 91.920071 
L 54.00679 91.920071 
L 53.931041 91.920071 
L 53.85564 91.920071 
L 53.780586 91.920071 
L 53.705877 91.920071 
L 53.631512 91.920071 
L 53.557489 91.920071 
L 53.483806 91.920071 
L 53.410462 91.920071 
L 53.337455 91.920071 
L 53.264785 91.920071 
L 53.192448 91.920071 
L 53.120444 91.920071 
L 53.048771 91.920071 
L 52.977428 91.920071 
L 52.906413 91.920071 
L 52.835725 91.920071 
L 52.765362 91.920071 
L 52.695322 91.920071 
L 52.625604 91.920071 
L 52.556208 91.920071 
L 52.48713 91.920071 
L 52.41837 91.920071 
L 52.349926 91.920071 
L 52.281797 91.920071 
L 52.213981 91.920071 
L 52.146478 91.920071 
L 52.079284 91.920071 
L 52.0124 91.920071 
L 51.945823 91.920071 
L 51.879553 91.920071 
L 51.813587 91.920071 
L 51.747925 91.920071 
L 51.682565 91.920071 
L 51.617505 91.920071 
L 51.552745 91.920071 
L 51.488282 91.920071 
L 51.424116 91.920071 
L 51.360245 91.920071 
L 51.296668 91.920071 
L 51.233383 91.920071 
L 51.170389 91.920071 
L 51.107685 91.920071 
L 51.045269 91.920071 
L 50.98314 91.920071 
L 50.921298 91.920071 
L 50.859739 91.920071 
L 50.798464 91.920071 
L 50.73747 91.920071 
L 50.676757 91.920071 
L 50.616323 91.920071 
L 50.556167 91.920071 
L 50.496288 91.920071 
L 50.436684 91.920071 
L 50.377355 91.920071 
L 50.318298 91.920071 
L 50.259513 91.920071 
L 50.200998 91.920071 
L 50.142752 91.920071 
L 50.084775 91.920071 
L 50.027063 91.920071 
L 49.969618 91.920071 
L 49.912436 91.920071 
L 49.855517 91.920071 
L 49.798861 91.920071 
L 49.742465 91.920071 
L 49.686328 91.920071 
L 49.630449 91.920071 
L 49.574827 91.920071 
L 49.519462 91.920071 
L 49.46435 91.919955 
L 49.409493 91.920071 
L 49.354887 91.920071 
L 49.300533 91.920071 
L 49.246429 91.920071 
L 49.192573 91.920071 
L 49.138965 91.920071 
L 49.085604 91.920071 
L 49.032488 91.920071 
L 48.979617 91.920071 
L 48.926988 91.920071 
L 48.874602 91.920071 
L 48.822457 91.920071 
L 48.770551 91.920071 
L 48.718884 91.920071 
L 48.667455 91.920071 
L 48.616262 91.920071 
L 48.565305 91.920071 
L 48.514582 91.920071 
L 48.464093 91.920071 
L 48.413835 91.920071 
L 48.363809 91.920071 
L 48.314013 91.920071 
L 48.264446 91.920071 
L 48.215107 91.920071 
L 48.165994 91.920071 
L 48.117108 91.920071 
L 48.068447 91.920071 
L 48.020009 91.920071 
L 47.971794 91.920071 
L 47.923801 91.920071 
L 47.876028 91.920071 
L 47.828475 91.920071 
L 47.781141 91.920071 
L 47.734025 91.920071 
L 47.687125 91.920071 
L 47.640441 91.920071 
L 47.593972 91.920071 
L 47.547717 91.920071 
L 47.501674 91.920071 
L 47.455843 91.920071 
L 47.410222 91.920071 
L 47.364812 91.920071 
L 47.31961 91.920071 
L 47.274617 91.920071 
L 47.22983 91.920071 
L 47.185249 91.920071 
L 47.140873 91.920071 
L 47.096702 91.920071 
L 47.052733 91.920071 
L 47.008967 91.920071 
L 46.965402 91.920071 
L 46.922037 91.920071 
L 46.878872 91.920071 
L 46.835905 91.920071 
L 46.793136 91.920071 
L 46.750564 91.920071 
L 46.708187 91.920071 
L 46.666006 91.920071 
L 46.624018 91.920071 
L 46.582223 91.920071 
L 46.540621 91.920071 
L 46.49921 91.920071 
L 46.45799 91.920071 
L 46.416959 91.920071 
L 46.376116 91.920071 
L 46.335462 91.920071 
L 46.294995 91.920071 
L 46.254713 91.920071 
L 46.214617 91.920071 
L 46.174706 91.920071 
L 46.134977 91.920071 
L 46.095432 91.920071 
L 46.056069 91.920071 
L 46.016886 91.920071 
L 45.977884 91.920071 
L 45.939061 91.920071 
L 45.900417 91.920071 
L 45.86195 91.920071 
L 45.82366 91.920071 
L 45.785547 91.920071 
L 45.747608 91.920071 
L 45.709845 91.920071 
L 45.672255 91.920071 
L 45.634837 91.920071 
L 45.597592 91.920071 
L 45.560518 91.920071 
L 45.523615 91.920071 
L 45.486881 91.920071 
L 45.450317 91.920071 
L 45.41392 91.920071 
L 45.377691 91.920071 
L 45.341629 91.920071 
L 45.305732 91.920071 
L 45.27 91.920071 
L 45.234433 91.920071 
L 45.19903 91.920071 
L 45.163789 91.920071 
L 45.12871 91.920071 
L 45.093793 91.920071 
L 45.059036 91.920071 
L 45.024439 91.920071 
L 44.990001 91.920071 
L 44.955722 91.920071 
L 44.9216 91.920071 
L 44.887635 91.920071 
L 44.853827 91.920071 
L 44.820173 91.920071 
L 44.786675 91.920071 
L 44.753331 91.920071 
L 44.72014 91.920071 
L 44.687101 91.920071 
L 44.654215 91.920071 
L 44.62148 91.920071 
L 44.588895 91.920071 
L 44.556461 94.035583 
L 44.524175 91.920071 
L 44.492038 91.920071 
L 44.460049 91.920071 
L 44.428207 91.920071 
L 44.396511 91.920071 
L 44.364961 91.920071 
L 44.333557 91.920071 
L 44.302296 91.920071 
L 44.27118 91.920071 
L 44.240206 91.920071 
L 44.209375 91.920071 
L 44.178686 91.920071 
L 44.148138 91.920071 
L 44.117731 91.920071 
L 44.087463 91.920071 
L 44.057334 91.920071 
L 44.027344 91.920071 
L 43.997492 91.920071 
L 43.967778 91.920071 
L 43.9382 91.920071 
L 43.908758 91.920071 
L 43.879451 91.920071 
L 43.850279 91.920071 
L 43.821241 91.920071 
L 43.792337 91.920071 
L 43.763566 91.920071 
L 43.734927 91.920071 
L 43.70642 91.920071 
L 43.678044 91.920071 
L 43.649799 91.920071 
L 43.621683 91.920071 
L 43.593697 91.920071 
L 43.565839 91.920071 
L 43.53811 91.920071 
L 43.510508 91.920071 
L 43.483033 91.920071 
L 43.455684 91.920071 
L 43.428461 91.920071 
L 43.401364 91.920071 
L 43.374391 91.920071 
L 43.347542 91.920071 
L 43.320816 91.920071 
L 43.294214 91.920071 
L 43.267733 91.920071 
L 43.241375 91.920071 
L 43.215138 91.920071 
L 43.189021 91.920071 
L 43.163025 91.920071 
L 43.137148 91.920071 
L 43.11139 91.920071 
L 43.085751 91.920071 
L 43.060229 91.920071 
L 43.034825 91.920071 
L 43.009538 91.920071 
L 42.984367 91.920071 
L 42.959312 91.920071 
L 42.934372 91.920071 
L 42.909547 91.920071 
L 42.884836 91.920071 
L 42.860238 91.920071 
L 42.835754 91.920071 
L 42.811382 91.920071 
L 42.787123 91.920071 
L 42.762975 91.920071 
L 42.738938 91.920071 
L 42.715011 91.920071 
L 42.691195 91.920071 
L 42.667488 91.920071 
L 42.64389 91.920071 
L 42.620401 91.920071 
L 42.59702 91.920071 
L 42.573746 91.920071 
L 42.550579 91.920071 
L 42.527519 91.920071 
L 42.504565 91.920071 
L 42.481717 91.920071 
L 42.458973 91.920071 
L 42.436334 91.920071 
L 42.4138 91.920071 
L 42.391369 91.920071 
L 42.369041 91.920071 
L 42.346816 91.920071 
L 42.324693 91.920071 
L 42.302671 91.920071 
L 42.280752 91.920071 
L 42.258932 91.920071 
L 42.237214 91.920071 
L 42.215595 91.920071 
L 42.194075 91.920071 
L 42.172655 91.920071 
L 42.151333 91.920071 
L 42.130109 91.920071 
L 42.108983 91.920071 
L 42.087953 91.920071 
L 42.067021 91.920071 
L 42.046185 91.920071 
L 42.025445 91.920071 
L 42.0048 91.920071 
L 41.98425 91.920071 
L 41.963794 91.920071 
L 41.943433 91.920071 
L 41.923165 91.920071 
L 41.902991 91.920071 
L 41.882909 91.920071 
L 41.862919 91.920071 
L 41.843022 91.920071 
L 41.823216 91.920071 
L 41.803501 91.920071 
L 41.783877 91.920071 
L 41.764343 91.920071 
L 41.744899 91.920071 
L 41.725544 91.920071 
L 41.706279 91.920071 
L 41.687102 91.920071 
L 41.668013 91.920071 
L 41.649012 91.920071 
L 41.630098 91.920071 
L 41.611271 91.920071 
L 41.592531 91.920071 
L 41.573877 91.920071 
L 41.555309 91.920071 
L 41.536827 91.920071 
L 41.518429 91.920071 
L 41.500116 91.920071 
L 41.481887 91.920071 
L 41.463742 91.920071 
L 41.44568 91.920071 
L 41.427702 91.920071 
L 41.409806 91.920071 
L 41.391993 91.920071 
L 41.374261 91.920071 
L 41.356611 91.920071 
L 41.339042 91.920071 
L 41.321554 91.920071 
L 41.304147 91.920071 
L 41.286819 91.920071 
L 41.269571 91.920071 
L 41.252403 91.920071 
L 41.235313 91.920071 
L 41.218302 91.920071 
L 41.201369 91.920071 
L 41.184514 91.920071 
L 41.167737 91.920071 
L 41.151037 91.920071 
L 41.134414 91.920071 
L 41.117867 91.920071 
L 41.101396 91.920071 
L 41.085001 91.920071 
L 41.068681 91.920071 
L 41.052436 91.920071 
L 41.036267 91.920071 
L 41.020171 91.920071 
L 41.004149 91.920071 
L 40.988202 91.920071 
L 40.972327 91.920079 
L 40.956526 91.920071 
L 40.940797 91.920071 
L 40.92514 91.920071 
L 40.909556 91.920071 
L 40.894043 91.920071 
L 40.878602 91.920071 
L 40.863231 91.920071 
L 40.847932 91.920071 
L 40.832702 91.920071 
L 40.817543 91.920071 
L 40.802453 91.920071 
L 40.787433 91.920071 
L 40.772482 91.920071 
L 40.7576 91.920071 
L 40.742786 91.920071 
L 40.72804 91.920071 
L 40.713362 91.920071 
L 40.698752 91.920071 
L 40.684209 91.920071 
L 40.669732 91.920071 
L 40.655322 91.920071 
L 40.640979 91.920071 
L 40.626701 91.920071 
L 40.61249 91.920071 
L 40.598343 91.920071 
L 40.584262 91.920071 
L 40.570245 91.920071 
L 40.556293 91.920071 
L 40.542405 91.920071 
L 40.52858 91.920071 
L 40.51482 91.920071 
L 40.501123 91.920071 
L 40.487488 91.920071 
L 40.473917 91.920071 
L 40.460407 91.920071 
L 40.44696 91.920071 
L 40.433575 91.920071 
L 40.420252 91.920071 
L 40.406989 91.920071 
L 40.393788 91.920071 
L 40.380647 91.920071 
L 40.367567 91.920071 
L 40.354547 91.920071 
L 40.341587 91.920071 
L 40.328686 91.920071 
L 40.315845 91.920071 
L 40.303063 91.920071 
L 40.290339 91.920071 
L 40.277674 91.920071 
L 40.265068 91.920071 
L 40.252519 91.920071 
L 40.240028 91.920071 
L 40.227595 91.920071 
L 40.215218 91.920071 
L 40.202899 91.920071 
L 40.190636 91.920071 
L 40.17843 91.920071 
L 40.16628 91.920071 
L 40.154185 91.920071 
L 40.142147 91.920071 
L 40.130163 91.920071 
L 40.118235 91.920071 
L 40.106362 91.920071 
L 40.094543 91.920071 
L 40.082779 91.920071 
L 40.071068 91.920071 
L 40.059412 91.920071 
L 40.047809 91.920071 
L 40.03626 91.920071 
L 40.024763 91.920071 
L 40.01332 91.920071 
L 40.001929 91.920071 
L 39.990591 91.920071 
L 39.979304 91.920071 
L 39.96807 91.920071 
L 39.956887 91.920071 
L 39.945756 91.920071 
L 39.934676 91.920071 
L 39.923647 91.920071 
L 39.912668 91.920071 
L 39.90174 91.920071 
L 39.890863 91.920071 
L 39.880035 91.920071 
L 39.869257 91.920071 
L 39.858529 91.920071 
L 39.84785 91.920071 
L 39.83722 91.920071 
L 39.826639 91.920071 
L 39.816107 91.920071 
L 39.805623 91.920071 
L 39.795188 91.920071 
L 39.7848 91.920071 
L 39.77446 91.920071 
L 39.764168 91.920071 
L 39.753923 91.920071 
L 39.743725 91.920071 
L 39.733574 91.920071 
L 39.72347 91.920071 
L 39.713412 91.920071 
L 39.703401 91.920071 
L 39.693436 91.920071 
L 39.683516 91.920071 
L 39.673642 91.920071 
L 39.663813 91.920071 
L 39.65403 91.920071 
L 39.644292 91.920071 
L 39.634598 91.920071 
L 39.624949 91.920071 
L 39.615344 91.920071 
L 39.605784 91.920071 
L 39.596267 91.920071 
L 39.586795 91.920071 
L 39.577365 91.920071 
L 39.56798 91.920071 
L 39.558637 91.920071 
L 39.549337 91.920071 
L 39.54008 91.920071 
L 39.530866 91.920071 
L 39.521694 91.920071 
L 39.512564 91.920071 
L 39.503477 91.920071 
L 39.494431 91.920071 
L 39.485426 91.920071 
L 39.476463 91.920071 
L 39.467542 91.920071 
L 39.458661 91.920071 
L 39.449821 91.920071 
L 39.441022 91.920071 
L 39.432263 91.920071 
L 39.423545 91.920071 
L 39.414866 91.920071 
L 39.406228 91.920071 
L 39.397629 91.920071 
L 39.38907 91.920071 
L 39.38055 91.920071 
L 39.37207 91.920071 
L 39.363628 91.920071 
L 39.355225 91.920071 
L 39.346861 91.920071 
L 39.338536 91.920071 
L 39.330248 91.920071 
L 39.321999 91.920071 
L 39.313788 91.920071 
L 39.305614 91.920071 
L 39.297478 91.920071 
L 39.289379 91.920071 
L 39.281318 95.136069 
z
" style="fill:#1f77b4;fill-opacity:0.1;"/>
   </g>
   <g id="matplotlib.axis_1">
    <g id="xtick_1">
     <g id="line2d_1">
      <defs>
       <path d="M 0 0 
L 0 3.5 
" id="m9d0be130fe" style="stroke:#000000;stroke-width:0.8;"/>
      </defs>
      <g>
       <use style="stroke:#000000;stroke-width:0.8;" x="37.536607" xlink:href="#m9d0be130fe" y="132.577561"/>
      </g>
     </g>
     <g id="text_1">
      <!-- 0 -->
      <g transform="translate(34.991607 145.656311)scale(0.08 -0.08)">
       <defs>
        <path d="M 2034 4250 
Q 1547 4250 1301 3770 
Q 1056 3291 1056 2328 
Q 1056 1369 1301 889 
Q 1547 409 2034 409 
Q 2525 409 2770 889 
Q 3016 1369 3016 2328 
Q 3016 3291 2770 3770 
Q 2525 4250 2034 4250 
z
M 2034 4750 
Q 2819 4750 3233 4129 
Q 3647 3509 3647 2328 
Q 3647 1150 3233 529 
Q 2819 -91 2034 -91 
Q 1250 -91 836 529 
Q 422 1150 422 2328 
Q 422 3509 836 4129 
Q 1250 4750 2034 4750 
z
" id="DejaVuSans-30" transform="scale(0.015625)"/>
       </defs>
       <use xlink:href="#DejaVuSans-30"/>
      </g>
     </g>
    </g>
    <g id="xtick_2">
     <g id="line2d_2">
      <g>
       <use style="stroke:#000000;stroke-width:0.8;" x="72.430822" xlink:href="#m9d0be130fe" y="132.577561"/>
      </g>
     </g>
     <g id="text_2">
      <!-- 2 -->
      <g transform="translate(69.885822 145.656311)scale(0.08 -0.08)">
       <defs>
        <path d="M 1228 531 
L 3431 531 
L 3431 0 
L 469 0 
L 469 531 
Q 828 903 1448 1529 
Q 2069 2156 2228 2338 
Q 2531 2678 2651 2914 
Q 2772 3150 2772 3378 
Q 2772 3750 2511 3984 
Q 2250 4219 1831 4219 
Q 1534 4219 1204 4116 
Q 875 4013 500 3803 
L 500 4441 
Q 881 4594 1212 4672 
Q 1544 4750 1819 4750 
Q 2544 4750 2975 4387 
Q 3406 4025 3406 3419 
Q 3406 3131 3298 2873 
Q 3191 2616 2906 2266 
Q 2828 2175 2409 1742 
Q 1991 1309 1228 531 
z
" id="DejaVuSans-32" transform="scale(0.015625)"/>
       </defs>
       <use xlink:href="#DejaVuSans-32"/>
      </g>
     </g>
    </g>
    <g id="xtick_3">
     <g id="line2d_3">
      <g>
       <use style="stroke:#000000;stroke-width:0.8;" x="107.325037" xlink:href="#m9d0be130fe" y="132.577561"/>
      </g>
     </g>
     <g id="text_3">
      <!-- 4 -->
      <g transform="translate(104.780037 145.656311)scale(0.08 -0.08)">
       <defs>
        <path d="M 2419 4116 
L 825 1625 
L 2419 1625 
L 2419 4116 
z
M 2253 4666 
L 3047 4666 
L 3047 1625 
L 3713 1625 
L 3713 1100 
L 3047 1100 
L 3047 0 
L 2419 0 
L 2419 1100 
L 313 1100 
L 313 1709 
L 2253 4666 
z
" id="DejaVuSans-34" transform="scale(0.015625)"/>
       </defs>
       <use xlink:href="#DejaVuSans-34"/>
      </g>
     </g>
    </g>
    <g id="xtick_4">
     <g id="line2d_4">
      <g>
       <use style="stroke:#000000;stroke-width:0.8;" x="142.219252" xlink:href="#m9d0be130fe" y="132.577561"/>
      </g>
     </g>
     <g id="text_4">
      <!-- 6 -->
      <g transform="translate(139.674252 145.656311)scale(0.08 -0.08)">
       <defs>
        <path d="M 2113 2584 
Q 1688 2584 1439 2293 
Q 1191 2003 1191 1497 
Q 1191 994 1439 701 
Q 1688 409 2113 409 
Q 2538 409 2786 701 
Q 3034 994 3034 1497 
Q 3034 2003 2786 2293 
Q 2538 2584 2113 2584 
z
M 3366 4563 
L 3366 3988 
Q 3128 4100 2886 4159 
Q 2644 4219 2406 4219 
Q 1781 4219 1451 3797 
Q 1122 3375 1075 2522 
Q 1259 2794 1537 2939 
Q 1816 3084 2150 3084 
Q 2853 3084 3261 2657 
Q 3669 2231 3669 1497 
Q 3669 778 3244 343 
Q 2819 -91 2113 -91 
Q 1303 -91 875 529 
Q 447 1150 447 2328 
Q 447 3434 972 4092 
Q 1497 4750 2381 4750 
Q 2619 4750 2861 4703 
Q 3103 4656 3366 4563 
z
" id="DejaVuSans-36" transform="scale(0.015625)"/>
       </defs>
       <use xlink:href="#DejaVuSans-36"/>
      </g>
     </g>
    </g>
    <g id="xtick_5">
     <g id="line2d_5">
      <g>
       <use style="stroke:#000000;stroke-width:0.8;" x="177.113467" xlink:href="#m9d0be130fe" y="132.577561"/>
      </g>
     </g>
     <g id="text_5">
      <!-- 8 -->
      <g transform="translate(174.568467 145.656311)scale(0.08 -0.08)">
       <defs>
        <path d="M 2034 2216 
Q 1584 2216 1326 1975 
Q 1069 1734 1069 1313 
Q 1069 891 1326 650 
Q 1584 409 2034 409 
Q 2484 409 2743 651 
Q 3003 894 3003 1313 
Q 3003 1734 2745 1975 
Q 2488 2216 2034 2216 
z
M 1403 2484 
Q 997 2584 770 2862 
Q 544 3141 544 3541 
Q 544 4100 942 4425 
Q 1341 4750 2034 4750 
Q 2731 4750 3128 4425 
Q 3525 4100 3525 3541 
Q 3525 3141 3298 2862 
Q 3072 2584 2669 2484 
Q 3125 2378 3379 2068 
Q 3634 1759 3634 1313 
Q 3634 634 3220 271 
Q 2806 -91 2034 -91 
Q 1263 -91 848 271 
Q 434 634 434 1313 
Q 434 1759 690 2068 
Q 947 2378 1403 2484 
z
M 1172 3481 
Q 1172 3119 1398 2916 
Q 1625 2713 2034 2713 
Q 2441 2713 2670 2916 
Q 2900 3119 2900 3481 
Q 2900 3844 2670 4047 
Q 2441 4250 2034 4250 
Q 1625 4250 1398 4047 
Q 1172 3844 1172 3481 
z
" id="DejaVuSans-38" transform="scale(0.015625)"/>
       </defs>
       <use xlink:href="#DejaVuSans-38"/>
      </g>
     </g>
    </g>
    <g id="xtick_6">
     <g id="line2d_6">
      <g>
       <use style="stroke:#000000;stroke-width:0.8;" x="212.007682" xlink:href="#m9d0be130fe" y="132.577561"/>
      </g>
     </g>
     <g id="text_6">
      <!-- 10 -->
      <g transform="translate(206.917682 145.656311)scale(0.08 -0.08)">
       <defs>
        <path d="M 794 531 
L 1825 531 
L 1825 4091 
L 703 3866 
L 703 4441 
L 1819 4666 
L 2450 4666 
L 2450 531 
L 3481 531 
L 3481 0 
L 794 0 
L 794 531 
z
" id="DejaVuSans-31" transform="scale(0.015625)"/>
       </defs>
       <use xlink:href="#DejaVuSans-31"/>
       <use x="63.623047" xlink:href="#DejaVuSans-30"/>
      </g>
     </g>
    </g>
    <g id="text_7">
     <!-- D ($\mu{}m^2$) -->
     <g transform="translate(109.6445 158.600061)scale(0.08 -0.08)">
      <defs>
       <path d="M 1259 4147 
L 1259 519 
L 2022 519 
Q 2988 519 3436 956 
Q 3884 1394 3884 2338 
Q 3884 3275 3436 3711 
Q 2988 4147 2022 4147 
L 1259 4147 
z
M 628 4666 
L 1925 4666 
Q 3281 4666 3915 4102 
Q 4550 3538 4550 2338 
Q 4550 1131 3912 565 
Q 3275 0 1925 0 
L 628 0 
L 628 4666 
z
" id="DejaVuSans-44" transform="scale(0.015625)"/>
       <path id="DejaVuSans-20" transform="scale(0.015625)"/>
       <path d="M 1984 4856 
Q 1566 4138 1362 3434 
Q 1159 2731 1159 2009 
Q 1159 1288 1364 580 
Q 1569 -128 1984 -844 
L 1484 -844 
Q 1016 -109 783 600 
Q 550 1309 550 2009 
Q 550 2706 781 3412 
Q 1013 4119 1484 4856 
L 1984 4856 
z
" id="DejaVuSans-28" transform="scale(0.015625)"/>
       <path d="M -84 -1331 
L 856 3500 
L 1434 3500 
L 1009 1322 
Q 997 1256 987 1175 
Q 978 1094 978 1013 
Q 978 722 1161 565 
Q 1344 409 1684 409 
Q 2147 409 2431 671 
Q 2716 934 2816 1459 
L 3213 3500 
L 3788 3500 
L 3266 809 
Q 3253 750 3248 706 
Q 3244 663 3244 628 
Q 3244 531 3283 486 
Q 3322 441 3406 441 
Q 3438 441 3492 456 
Q 3547 472 3647 513 
L 3559 50 
Q 3422 -19 3297 -55 
Q 3172 -91 3053 -91 
Q 2847 -91 2730 40 
Q 2613 172 2613 403 
Q 2438 153 2195 31 
Q 1953 -91 1625 -91 
Q 1334 -91 1117 43 
Q 900 178 831 397 
L 494 -1331 
L -84 -1331 
z
" id="DejaVuSans-Oblique-3bc" transform="scale(0.015625)"/>
       <path d="M 5747 2113 
L 5338 0 
L 4763 0 
L 5166 2094 
Q 5191 2228 5203 2325 
Q 5216 2422 5216 2491 
Q 5216 2772 5059 2928 
Q 4903 3084 4622 3084 
Q 4203 3084 3875 2770 
Q 3547 2456 3450 1953 
L 3066 0 
L 2491 0 
L 2900 2094 
Q 2925 2209 2937 2307 
Q 2950 2406 2950 2484 
Q 2950 2769 2794 2926 
Q 2638 3084 2363 3084 
Q 1938 3084 1609 2770 
Q 1281 2456 1184 1953 
L 800 0 
L 225 0 
L 909 3500 
L 1484 3500 
L 1375 2956 
Q 1609 3263 1923 3423 
Q 2238 3584 2597 3584 
Q 2978 3584 3223 3384 
Q 3469 3184 3519 2828 
Q 3781 3197 4126 3390 
Q 4472 3584 4856 3584 
Q 5306 3584 5551 3325 
Q 5797 3066 5797 2591 
Q 5797 2488 5784 2364 
Q 5772 2241 5747 2113 
z
" id="DejaVuSans-Oblique-6d" transform="scale(0.015625)"/>
       <path d="M 513 4856 
L 1013 4856 
Q 1481 4119 1714 3412 
Q 1947 2706 1947 2009 
Q 1947 1309 1714 600 
Q 1481 -109 1013 -844 
L 513 -844 
Q 928 -128 1133 580 
Q 1338 1288 1338 2009 
Q 1338 2731 1133 3434 
Q 928 4138 513 4856 
z
" id="DejaVuSans-29" transform="scale(0.015625)"/>
      </defs>
      <use transform="translate(0 0.765625)" xlink:href="#DejaVuSans-44"/>
      <use transform="translate(77.001953 0.765625)" xlink:href="#DejaVuSans-20"/>
      <use transform="translate(108.789062 0.765625)" xlink:href="#DejaVuSans-28"/>
      <use transform="translate(147.802734 0.765625)" xlink:href="#DejaVuSans-Oblique-3bc"/>
      <use transform="translate(211.425781 0.765625)" xlink:href="#DejaVuSans-Oblique-6d"/>
      <use transform="translate(313.487786 39.046875)scale(0.7)" xlink:href="#DejaVuSans-32"/>
      <use transform="translate(360.758294 0.765625)" xlink:href="#DejaVuSans-29"/>
     </g>
    </g>
   </g>
   <g id="matplotlib.axis_2">
    <g id="ytick_1">
     <g id="line2d_7">
      <defs>
       <path d="M 0 0 
L -3.5 0 
" id="m0aa3c0b8db" style="stroke:#000000;stroke-width:0.8;"/>
      </defs>
      <g>
       <use style="stroke:#000000;stroke-width:0.8;" x="30.645" xlink:href="#m0aa3c0b8db" y="124.858792"/>
      </g>
     </g>
     <g id="text_8">
      <!-- 5 -->
      <g transform="translate(11.85125 127.898167)scale(0.08 -0.08)">
       <defs>
        <path d="M 678 2272 
L 4684 2272 
L 4684 1741 
L 678 1741 
L 678 2272 
z
" id="DejaVuSans-2212" transform="scale(0.015625)"/>
        <path d="M 691 4666 
L 3169 4666 
L 3169 4134 
L 1269 4134 
L 1269 2991 
Q 1406 3038 1543 3061 
Q 1681 3084 1819 3084 
Q 2600 3084 3056 2656 
Q 3513 2228 3513 1497 
Q 3513 744 3044 326 
Q 2575 -91 1722 -91 
Q 1428 -91 1123 -41 
Q 819 9 494 109 
L 494 744 
Q 775 591 1075 516 
Q 1375 441 1709 441 
Q 2250 441 2565 725 
Q 2881 1009 2881 1497 
Q 2881 1984 2565 2268 
Q 2250 2553 1709 2553 
Q 1456 2553 1204 2497 
Q 953 2441 691 2322 
L 691 4666 
z
" id="DejaVuSans-35" transform="scale(0.015625)"/>
       </defs>
       <use xlink:href="#DejaVuSans-2212"/>
       <use x="83.789062" xlink:href="#DejaVuSans-35"/>
      </g>
     </g>
    </g>
    <g id="ytick_2">
     <g id="line2d_8">
      <g>
       <use style="stroke:#000000;stroke-width:0.8;" x="30.645" xlink:href="#m0aa3c0b8db" y="102.945653"/>
      </g>
     </g>
     <g id="text_9">
      <!-- 4 -->
      <g transform="translate(11.85125 105.985028)scale(0.08 -0.08)">
       <use xlink:href="#DejaVuSans-2212"/>
       <use x="83.789062" xlink:href="#DejaVuSans-34"/>
      </g>
     </g>
    </g>
    <g id="ytick_3">
     <g id="line2d_9">
      <g>
       <use style="stroke:#000000;stroke-width:0.8;" x="30.645" xlink:href="#m0aa3c0b8db" y="81.032514"/>
      </g>
     </g>
     <g id="text_10">
      <!-- 3 -->
      <g transform="translate(11.85125 84.071889)scale(0.08 -0.08)">
       <defs>
        <path d="M 2597 2516 
Q 3050 2419 3304 2112 
Q 3559 1806 3559 1356 
Q 3559 666 3084 287 
Q 2609 -91 1734 -91 
Q 1441 -91 1130 -33 
Q 819 25 488 141 
L 488 750 
Q 750 597 1062 519 
Q 1375 441 1716 441 
Q 2309 441 2620 675 
Q 2931 909 2931 1356 
Q 2931 1769 2642 2001 
Q 2353 2234 1838 2234 
L 1294 2234 
L 1294 2753 
L 1863 2753 
Q 2328 2753 2575 2939 
Q 2822 3125 2822 3475 
Q 2822 3834 2567 4026 
Q 2313 4219 1838 4219 
Q 1578 4219 1281 4162 
Q 984 4106 628 3988 
L 628 4550 
Q 988 4650 1302 4700 
Q 1616 4750 1894 4750 
Q 2613 4750 3031 4423 
Q 3450 4097 3450 3541 
Q 3450 3153 3228 2886 
Q 3006 2619 2597 2516 
z
" id="DejaVuSans-33" transform="scale(0.015625)"/>
       </defs>
       <use xlink:href="#DejaVuSans-2212"/>
       <use x="83.789062" xlink:href="#DejaVuSans-33"/>
      </g>
     </g>
    </g>
    <g id="ytick_4">
     <g id="line2d_10">
      <g>
       <use style="stroke:#000000;stroke-width:0.8;" x="30.645" xlink:href="#m0aa3c0b8db" y="59.119375"/>
      </g>
     </g>
     <g id="text_11">
      <!-- 2 -->
      <g transform="translate(11.85125 62.15875)scale(0.08 -0.08)">
       <use xlink:href="#DejaVuSans-2212"/>
       <use x="83.789062" xlink:href="#DejaVuSans-32"/>
      </g>
     </g>
    </g>
    <g id="ytick_5">
     <g id="line2d_11">
      <g>
       <use style="stroke:#000000;stroke-width:0.8;" x="30.645" xlink:href="#m0aa3c0b8db" y="37.206237"/>
      </g>
     </g>
     <g id="text_12">
      <!-- 1 -->
      <g transform="translate(11.85125 40.245612)scale(0.08 -0.08)">
       <use xlink:href="#DejaVuSans-2212"/>
       <use x="83.789062" xlink:href="#DejaVuSans-31"/>
      </g>
     </g>
    </g>
    <g id="text_13">
     <!-- $-||$ Theory - - Experiment $||^2$ -->
     <g transform="translate(5.93125 131.059813)rotate(-90)scale(0.08 -0.08)">
      <defs>
       <path d="M 1344 4891 
L 1344 -1509 
L 813 -1509 
L 813 4891 
L 1344 4891 
z
" id="DejaVuSans-7c" transform="scale(0.015625)"/>
       <path d="M -19 4666 
L 3928 4666 
L 3928 4134 
L 2272 4134 
L 2272 0 
L 1638 0 
L 1638 4134 
L -19 4134 
L -19 4666 
z
" id="DejaVuSans-54" transform="scale(0.015625)"/>
       <path d="M 3513 2113 
L 3513 0 
L 2938 0 
L 2938 2094 
Q 2938 2591 2744 2837 
Q 2550 3084 2163 3084 
Q 1697 3084 1428 2787 
Q 1159 2491 1159 1978 
L 1159 0 
L 581 0 
L 581 4863 
L 1159 4863 
L 1159 2956 
Q 1366 3272 1645 3428 
Q 1925 3584 2291 3584 
Q 2894 3584 3203 3211 
Q 3513 2838 3513 2113 
z
" id="DejaVuSans-68" transform="scale(0.015625)"/>
       <path d="M 3597 1894 
L 3597 1613 
L 953 1613 
Q 991 1019 1311 708 
Q 1631 397 2203 397 
Q 2534 397 2845 478 
Q 3156 559 3463 722 
L 3463 178 
Q 3153 47 2828 -22 
Q 2503 -91 2169 -91 
Q 1331 -91 842 396 
Q 353 884 353 1716 
Q 353 2575 817 3079 
Q 1281 3584 2069 3584 
Q 2775 3584 3186 3129 
Q 3597 2675 3597 1894 
z
M 3022 2063 
Q 3016 2534 2758 2815 
Q 2500 3097 2075 3097 
Q 1594 3097 1305 2825 
Q 1016 2553 972 2059 
L 3022 2063 
z
" id="DejaVuSans-65" transform="scale(0.015625)"/>
       <path d="M 1959 3097 
Q 1497 3097 1228 2736 
Q 959 2375 959 1747 
Q 959 1119 1226 758 
Q 1494 397 1959 397 
Q 2419 397 2687 759 
Q 2956 1122 2956 1747 
Q 2956 2369 2687 2733 
Q 2419 3097 1959 3097 
z
M 1959 3584 
Q 2709 3584 3137 3096 
Q 3566 2609 3566 1747 
Q 3566 888 3137 398 
Q 2709 -91 1959 -91 
Q 1206 -91 779 398 
Q 353 888 353 1747 
Q 353 2609 779 3096 
Q 1206 3584 1959 3584 
z
" id="DejaVuSans-6f" transform="scale(0.015625)"/>
       <path d="M 2631 2963 
Q 2534 3019 2420 3045 
Q 2306 3072 2169 3072 
Q 1681 3072 1420 2755 
Q 1159 2438 1159 1844 
L 1159 0 
L 581 0 
L 581 3500 
L 1159 3500 
L 1159 2956 
Q 1341 3275 1631 3429 
Q 1922 3584 2338 3584 
Q 2397 3584 2469 3576 
Q 2541 3569 2628 3553 
L 2631 2963 
z
" id="DejaVuSans-72" transform="scale(0.015625)"/>
       <path d="M 2059 -325 
Q 1816 -950 1584 -1140 
Q 1353 -1331 966 -1331 
L 506 -1331 
L 506 -850 
L 844 -850 
Q 1081 -850 1212 -737 
Q 1344 -625 1503 -206 
L 1606 56 
L 191 3500 
L 800 3500 
L 1894 763 
L 2988 3500 
L 3597 3500 
L 2059 -325 
z
" id="DejaVuSans-79" transform="scale(0.015625)"/>
       <path d="M 313 2009 
L 1997 2009 
L 1997 1497 
L 313 1497 
L 313 2009 
z
" id="DejaVuSans-2d" transform="scale(0.015625)"/>
       <path d="M 628 4666 
L 3578 4666 
L 3578 4134 
L 1259 4134 
L 1259 2753 
L 3481 2753 
L 3481 2222 
L 1259 2222 
L 1259 531 
L 3634 531 
L 3634 0 
L 628 0 
L 628 4666 
z
" id="DejaVuSans-45" transform="scale(0.015625)"/>
       <path d="M 3513 3500 
L 2247 1797 
L 3578 0 
L 2900 0 
L 1881 1375 
L 863 0 
L 184 0 
L 1544 1831 
L 300 3500 
L 978 3500 
L 1906 2253 
L 2834 3500 
L 3513 3500 
z
" id="DejaVuSans-78" transform="scale(0.015625)"/>
       <path d="M 1159 525 
L 1159 -1331 
L 581 -1331 
L 581 3500 
L 1159 3500 
L 1159 2969 
Q 1341 3281 1617 3432 
Q 1894 3584 2278 3584 
Q 2916 3584 3314 3078 
Q 3713 2572 3713 1747 
Q 3713 922 3314 415 
Q 2916 -91 2278 -91 
Q 1894 -91 1617 61 
Q 1341 213 1159 525 
z
M 3116 1747 
Q 3116 2381 2855 2742 
Q 2594 3103 2138 3103 
Q 1681 3103 1420 2742 
Q 1159 2381 1159 1747 
Q 1159 1113 1420 752 
Q 1681 391 2138 391 
Q 2594 391 2855 752 
Q 3116 1113 3116 1747 
z
" id="DejaVuSans-70" transform="scale(0.015625)"/>
       <path d="M 603 3500 
L 1178 3500 
L 1178 0 
L 603 0 
L 603 3500 
z
M 603 4863 
L 1178 4863 
L 1178 4134 
L 603 4134 
L 603 4863 
z
" id="DejaVuSans-69" transform="scale(0.015625)"/>
       <path d="M 3328 2828 
Q 3544 3216 3844 3400 
Q 4144 3584 4550 3584 
Q 5097 3584 5394 3201 
Q 5691 2819 5691 2113 
L 5691 0 
L 5113 0 
L 5113 2094 
Q 5113 2597 4934 2840 
Q 4756 3084 4391 3084 
Q 3944 3084 3684 2787 
Q 3425 2491 3425 1978 
L 3425 0 
L 2847 0 
L 2847 2094 
Q 2847 2600 2669 2842 
Q 2491 3084 2119 3084 
Q 1678 3084 1418 2786 
Q 1159 2488 1159 1978 
L 1159 0 
L 581 0 
L 581 3500 
L 1159 3500 
L 1159 2956 
Q 1356 3278 1631 3431 
Q 1906 3584 2284 3584 
Q 2666 3584 2933 3390 
Q 3200 3197 3328 2828 
z
" id="DejaVuSans-6d" transform="scale(0.015625)"/>
       <path d="M 3513 2113 
L 3513 0 
L 2938 0 
L 2938 2094 
Q 2938 2591 2744 2837 
Q 2550 3084 2163 3084 
Q 1697 3084 1428 2787 
Q 1159 2491 1159 1978 
L 1159 0 
L 581 0 
L 581 3500 
L 1159 3500 
L 1159 2956 
Q 1366 3272 1645 3428 
Q 1925 3584 2291 3584 
Q 2894 3584 3203 3211 
Q 3513 2838 3513 2113 
z
" id="DejaVuSans-6e" transform="scale(0.015625)"/>
       <path d="M 1172 4494 
L 1172 3500 
L 2356 3500 
L 2356 3053 
L 1172 3053 
L 1172 1153 
Q 1172 725 1289 603 
Q 1406 481 1766 481 
L 2356 481 
L 2356 0 
L 1766 0 
Q 1100 0 847 248 
Q 594 497 594 1153 
L 594 3053 
L 172 3053 
L 172 3500 
L 594 3500 
L 594 4494 
L 1172 4494 
z
" id="DejaVuSans-74" transform="scale(0.015625)"/>
      </defs>
      <use transform="translate(0 0.765625)" xlink:href="#DejaVuSans-2212"/>
      <use transform="translate(83.789062 0.765625)" xlink:href="#DejaVuSans-7c"/>
      <use transform="translate(117.480469 0.765625)" xlink:href="#DejaVuSans-7c"/>
      <use transform="translate(151.171875 0.765625)" xlink:href="#DejaVuSans-20"/>
      <use transform="translate(182.958984 0.765625)" xlink:href="#DejaVuSans-54"/>
      <use transform="translate(244.042969 0.765625)" xlink:href="#DejaVuSans-68"/>
      <use transform="translate(307.421875 0.765625)" xlink:href="#DejaVuSans-65"/>
      <use transform="translate(368.945312 0.765625)" xlink:href="#DejaVuSans-6f"/>
      <use transform="translate(430.126953 0.765625)" xlink:href="#DejaVuSans-72"/>
      <use transform="translate(471.240234 0.765625)" xlink:href="#DejaVuSans-79"/>
      <use transform="translate(530.419922 0.765625)" xlink:href="#DejaVuSans-20"/>
      <use transform="translate(562.207031 0.765625)" xlink:href="#DejaVuSans-2d"/>
      <use transform="translate(598.291016 0.765625)" xlink:href="#DejaVuSans-2d"/>
      <use transform="translate(634.375 0.765625)" xlink:href="#DejaVuSans-20"/>
      <use transform="translate(666.162109 0.765625)" xlink:href="#DejaVuSans-45"/>
      <use transform="translate(729.345703 0.765625)" xlink:href="#DejaVuSans-78"/>
      <use transform="translate(788.525391 0.765625)" xlink:href="#DejaVuSans-70"/>
      <use transform="translate(852.001953 0.765625)" xlink:href="#DejaVuSans-65"/>
      <use transform="translate(913.525391 0.765625)" xlink:href="#DejaVuSans-72"/>
      <use transform="translate(954.638672 0.765625)" xlink:href="#DejaVuSans-69"/>
      <use transform="translate(982.421875 0.765625)" xlink:href="#DejaVuSans-6d"/>
      <use transform="translate(1079.833984 0.765625)" xlink:href="#DejaVuSans-65"/>
      <use transform="translate(1141.357422 0.765625)" xlink:href="#DejaVuSans-6e"/>
      <use transform="translate(1204.736328 0.765625)" xlink:href="#DejaVuSans-74"/>
      <use transform="translate(1243.945312 0.765625)" xlink:href="#DejaVuSans-20"/>
      <use transform="translate(1275.732422 0.765625)" xlink:href="#DejaVuSans-7c"/>
      <use transform="translate(1309.423828 0.765625)" xlink:href="#DejaVuSans-7c"/>
      <use transform="translate(1344.072266 39.046875)scale(0.7)" xlink:href="#DejaVuSans-32"/>
     </g>
    </g>
   </g>
   <g id="line2d_12">
    <path clip-path="url(#p39fe09ec09)" d="M 39.281318 62.334161 
L 39.397629 59.080885 
L 44.524175 59.080885 
L 44.556461 70.639545 
L 44.62148 59.080885 
L 211.205259 59.080885 
L 212.007682 28.323735 
L 212.007682 28.323735 
" style="fill:none;stroke:#1f77b4;stroke-linecap:square;stroke-width:1.5;"/>
   </g>
   <g id="patch_3">
    <path d="M 30.645 132.577561 
L 30.645 18.182066 
" style="fill:none;stroke:#000000;stroke-linecap:square;stroke-linejoin:miter;stroke-width:0.8;"/>
   </g>
   <g id="patch_4">
    <path d="M 220.644 132.577561 
L 220.644 18.182066 
" style="fill:none;stroke:#000000;stroke-linecap:square;stroke-linejoin:miter;stroke-width:0.8;"/>
   </g>
   <g id="patch_5">
    <path d="M 30.645 132.577561 
L 220.644 132.577561 
" style="fill:none;stroke:#000000;stroke-linecap:square;stroke-linejoin:miter;stroke-width:0.8;"/>
   </g>
   <g id="patch_6">
    <path d="M 30.645 18.182066 
L 220.644 18.182066 
" style="fill:none;stroke:#000000;stroke-linecap:square;stroke-linejoin:miter;stroke-width:0.8;"/>
   </g>
   <g id="PathCollection_1">
    <defs>
     <path d="M 0 3.535534 
C 0.937635 3.535534 1.836992 3.163008 2.5 2.5 
C 3.163008 1.836992 3.535534 0.937635 3.535534 0 
C 3.535534 -0.937635 3.163008 -1.836992 2.5 -2.5 
C 1.836992 -3.163008 0.937635 -3.535534 0 -3.535534 
C -0.937635 -3.535534 -1.836992 -3.163008 -2.5 -2.5 
C -3.163008 -1.836992 -3.535534 -0.937635 -3.535534 0 
C -3.535534 0.937635 -3.163008 1.836992 -2.5 2.5 
C -1.836992 3.163008 -0.937635 3.535534 0 3.535534 
z
" id="mb74f9eb6c0" style="stroke:#ff0000;"/>
    </defs>
    <g clip-path="url(#p39fe09ec09)">
     <use style="fill:#ff0000;stroke:#ff0000;" x="49.44265" xlink:href="#mb74f9eb6c0" y="44.339645"/>
     <use style="fill:#ff0000;stroke:#ff0000;" x="85.661794" xlink:href="#mb74f9eb6c0" y="23.381861"/>
     <use style="fill:#ff0000;stroke:#ff0000;" x="39.282237" xlink:href="#mb74f9eb6c0" y="127.377766"/>
     <use style="fill:#ff0000;stroke:#ff0000;" x="44.557439" xlink:href="#mb74f9eb6c0" y="75.55255"/>
     <use style="fill:#ff0000;stroke:#ff0000;" x="40.966142" xlink:href="#mb74f9eb6c0" y="98.130585"/>
     <use style="fill:#ff0000;stroke:#ff0000;" x="212.007682" xlink:href="#mb74f9eb6c0" y="28.323704"/>
     <use style="fill:#ff0000;stroke:#ff0000;" x="63.504929" xlink:href="#mb74f9eb6c0" y="33.385107"/>
     <use style="fill:#ff0000;stroke:#ff0000;" x="49.442248" xlink:href="#mb74f9eb6c0" y="52.00056"/>
     <use style="fill:#ff0000;stroke:#ff0000;" x="49.448107" xlink:href="#mb74f9eb6c0" y="49.236188"/>
     <use style="fill:#ff0000;stroke:#ff0000;" x="85.672152" xlink:href="#mb74f9eb6c0" y="27.277326"/>
    </g>
   </g>
  </g>
 </g>
 <defs>
  <clipPath id="p39fe09ec09">
   <rect height="114.395496" width="189.999" x="30.645" y="18.182066"/>
  </clipPath>
 </defs>
</svg>
