<?xml version="1.0" encoding="utf-8" standalone="no"?>
<!DOCTYPE svg PUBLIC "-//W3C//DTD SVG 1.1//EN"
  "http://www.w3.org/Graphics/SVG/1.1/DTD/svg11.dtd">
<svg height="151.517213pt" version="1.1" viewBox="0 0 245.16 151.517213" width="245.16pt" xmlns="http://www.w3.org/2000/svg" xmlns:xlink="http://www.w3.org/1999/xlink">
 <metadata>
  <rdf:RDF xmlns:cc="http://creativecommons.org/ns#" xmlns:dc="http://purl.org/dc/elements/1.1/" xmlns:rdf="http://www.w3.org/1999/02/22-rdf-syntax-ns#">
   <cc:Work>
    <dc:type rdf:resource="http://purl.org/dc/dcmitype/StillImage"/>
    <dc:date>2020-10-28T14:36:16.465444</dc:date>
    <dc:format>image/svg+xml</dc:format>
    <dc:creator>
     <cc:Agent>
      <dc:title>Matplotlib v1.4.3.post24134+g0d1f34338, https://matplotlib.org/</dc:title>
     </cc:Agent>
    </dc:creator>
   </cc:Work>
  </rdf:RDF>
 </metadata>
 <defs>
  <style type="text/css">*{stroke-linecap:butt;stroke-linejoin:round;}</style>
 </defs>
 <g id="figure_1">
  <g id="patch_1">
   <path d="M 0 151.517213 
L 245.16 151.517213 
L 245.16 0 
L 0 0 
z
" style="fill:none;"/>
  </g>
  <g id="axes_1">
   <g id="patch_2">
    <path d="M 30.645 132.577561 
L 220.644 132.577561 
L 220.644 18.182066 
L 30.645 18.182066 
z
" style="fill:#ffffff;"/>
   </g>
   <g id="PolyCollection_1">
    <path clip-path="url(#p586bc5fb81)" d="M 39.281318 25.532316 
L 39.281318 60.776676 
L 39.289379 107.005071 
L 39.297478 107.005079 
L 39.305614 107.005079 
L 39.313788 107.005079 
L 39.321999 107.005079 
L 39.330248 107.005079 
L 39.338536 107.005079 
L 39.346861 107.005079 
L 39.355225 107.005079 
L 39.363628 107.005079 
L 39.37207 107.005079 
L 39.38055 107.005079 
L 39.38907 107.005079 
L 39.397629 107.005079 
L 39.406228 107.005079 
L 39.414866 107.005079 
L 39.423545 107.005079 
L 39.432263 107.005079 
L 39.441022 107.005079 
L 39.449821 107.005079 
L 39.458661 107.005079 
L 39.467542 107.005079 
L 39.476463 107.005079 
L 39.485426 107.005079 
L 39.494431 107.005079 
L 39.503477 107.005079 
L 39.512564 107.005079 
L 39.521694 107.005079 
L 39.530866 107.005079 
L 39.54008 107.005079 
L 39.549337 107.005079 
L 39.558637 107.005079 
L 39.56798 107.005079 
L 39.577365 107.005079 
L 39.586795 107.005079 
L 39.596267 107.005079 
L 39.605784 107.005079 
L 39.615344 107.005079 
L 39.624949 107.005079 
L 39.634598 107.005079 
L 39.644292 107.005079 
L 39.65403 107.005079 
L 39.663813 107.005079 
L 39.673642 107.005079 
L 39.683516 107.005079 
L 39.693436 107.005079 
L 39.703401 107.005079 
L 39.713412 107.005079 
L 39.72347 107.005079 
L 39.733574 107.005079 
L 39.743725 107.005079 
L 39.753923 107.005079 
L 39.764168 107.005079 
L 39.77446 107.005079 
L 39.7848 107.005079 
L 39.795188 107.005079 
L 39.805623 107.005079 
L 39.816107 107.005079 
L 39.826639 107.005079 
L 39.83722 107.005079 
L 39.84785 107.005079 
L 39.858529 107.005079 
L 39.869257 107.005079 
L 39.880035 107.005079 
L 39.890863 107.005079 
L 39.90174 107.005079 
L 39.912668 107.005079 
L 39.923647 107.005079 
L 39.934676 107.005079 
L 39.945756 107.005079 
L 39.956887 107.005079 
L 39.96807 107.005079 
L 39.979304 107.005079 
L 39.990591 107.005079 
L 40.001929 107.005079 
L 40.01332 107.005079 
L 40.024763 107.005079 
L 40.03626 107.005079 
L 40.047809 107.005079 
L 40.059412 107.005079 
L 40.071068 107.005079 
L 40.082779 107.005079 
L 40.094543 107.005079 
L 40.106362 107.005079 
L 40.118235 107.005079 
L 40.130163 107.005079 
L 40.142147 107.005079 
L 40.154185 107.005079 
L 40.16628 107.005079 
L 40.17843 107.005079 
L 40.190636 107.005079 
L 40.202899 107.005079 
L 40.215218 107.005079 
L 40.227595 107.005079 
L 40.240028 107.005079 
L 40.252519 107.005079 
L 40.265068 107.005079 
L 40.277674 107.005079 
L 40.290339 107.005079 
L 40.303063 107.005079 
L 40.315845 107.005079 
L 40.328686 107.005079 
L 40.341587 107.005079 
L 40.354547 107.005079 
L 40.367567 107.005079 
L 40.380647 107.005079 
L 40.393788 107.005079 
L 40.406989 107.005079 
L 40.420252 107.005079 
L 40.433575 107.005079 
L 40.44696 107.005079 
L 40.460407 107.005079 
L 40.473917 107.005079 
L 40.487488 107.005079 
L 40.501123 107.005079 
L 40.51482 107.005079 
L 40.52858 107.005079 
L 40.542405 107.005079 
L 40.556293 107.005079 
L 40.570245 107.005079 
L 40.584262 107.005079 
L 40.598343 107.005079 
L 40.61249 107.005079 
L 40.626701 107.005079 
L 40.640979 107.005079 
L 40.655322 107.005079 
L 40.669732 107.005079 
L 40.684209 107.005079 
L 40.698752 107.005079 
L 40.713362 107.005079 
L 40.72804 107.005079 
L 40.742786 107.005079 
L 40.7576 107.005079 
L 40.772482 107.005079 
L 40.787433 107.005079 
L 40.802453 107.005079 
L 40.817543 107.005079 
L 40.832702 107.005079 
L 40.847932 107.005079 
L 40.863231 107.005079 
L 40.878602 107.005079 
L 40.894043 107.005079 
L 40.909556 107.005079 
L 40.92514 107.005079 
L 40.940797 107.005079 
L 40.956526 107.00213 
L 40.972327 106.657414 
L 40.988202 107.005079 
L 41.004149 107.005079 
L 41.020171 107.005079 
L 41.036267 107.005079 
L 41.052436 107.005079 
L 41.068681 107.005079 
L 41.085001 107.005079 
L 41.101396 107.005079 
L 41.117867 107.005079 
L 41.134414 107.005079 
L 41.151037 107.005079 
L 41.167737 107.005079 
L 41.184514 107.005079 
L 41.201369 107.005079 
L 41.218302 107.005079 
L 41.235313 107.005079 
L 41.252403 107.005079 
L 41.269571 107.005079 
L 41.286819 107.005079 
L 41.304147 107.005079 
L 41.321554 107.005079 
L 41.339042 107.005079 
L 41.356611 107.005079 
L 41.374261 107.005079 
L 41.391993 107.005079 
L 41.409806 107.005079 
L 41.427702 107.005079 
L 41.44568 107.005079 
L 41.463742 107.005079 
L 41.481887 107.005079 
L 41.500116 107.005079 
L 41.518429 107.005079 
L 41.536827 107.005079 
L 41.555309 107.005079 
L 41.573877 107.005079 
L 41.592531 107.005079 
L 41.611271 107.005079 
L 41.630098 107.005079 
L 41.649012 107.005079 
L 41.668013 107.005079 
L 41.687102 107.005079 
L 41.706279 107.005079 
L 41.725544 107.005079 
L 41.744899 107.005079 
L 41.764343 107.005079 
L 41.783877 107.005079 
L 41.803501 107.005079 
L 41.823216 107.005079 
L 41.843022 107.005079 
L 41.862919 107.005079 
L 41.882909 107.005079 
L 41.902991 107.005079 
L 41.923165 107.005079 
L 41.943433 107.005079 
L 41.963794 107.005079 
L 41.98425 107.005079 
L 42.0048 107.005079 
L 42.025445 107.005079 
L 42.046185 107.005079 
L 42.067021 107.005079 
L 42.087953 107.005079 
L 42.108983 107.005079 
L 42.130109 107.005079 
L 42.151333 107.005079 
L 42.172655 107.005079 
L 42.194075 107.005079 
L 42.215595 107.005079 
L 42.237214 107.005079 
L 42.258932 107.005079 
L 42.280752 107.005079 
L 42.302671 107.005079 
L 42.324693 107.005079 
L 42.346816 107.005079 
L 42.369041 107.005079 
L 42.391369 107.005079 
L 42.4138 107.005079 
L 42.436334 107.005079 
L 42.458973 107.005079 
L 42.481717 107.005079 
L 42.504565 107.005079 
L 42.527519 107.005079 
L 42.550579 107.005079 
L 42.573746 107.005079 
L 42.59702 107.005079 
L 42.620401 107.005079 
L 42.64389 107.005079 
L 42.667488 107.005079 
L 42.691195 107.005079 
L 42.715011 107.005079 
L 42.738938 107.005079 
L 42.762975 107.005079 
L 42.787123 107.005079 
L 42.811382 107.005079 
L 42.835754 107.005079 
L 42.860238 107.005079 
L 42.884836 107.005079 
L 42.909547 107.005079 
L 42.934372 107.005079 
L 42.959312 107.005079 
L 42.984367 107.005079 
L 43.009538 107.005079 
L 43.034825 107.005079 
L 43.060229 107.005079 
L 43.085751 107.005079 
L 43.11139 107.005079 
L 43.137148 107.005079 
L 43.163025 107.005079 
L 43.189021 107.005079 
L 43.215138 107.005079 
L 43.241375 107.005079 
L 43.267733 107.005079 
L 43.294214 107.005079 
L 43.320816 107.005079 
L 43.347542 107.005079 
L 43.374391 107.005079 
L 43.401364 107.005079 
L 43.428461 107.005079 
L 43.455684 107.005079 
L 43.483033 107.005079 
L 43.510508 107.005079 
L 43.53811 107.005079 
L 43.565839 107.005079 
L 43.593697 107.005079 
L 43.621683 107.005079 
L 43.649799 107.005079 
L 43.678044 107.005079 
L 43.70642 107.005079 
L 43.734927 107.005079 
L 43.763566 107.005079 
L 43.792337 107.005079 
L 43.821241 107.005079 
L 43.850279 107.005079 
L 43.879451 107.005079 
L 43.908758 107.005079 
L 43.9382 107.005079 
L 43.967778 107.005079 
L 43.997492 107.005079 
L 44.027344 107.005079 
L 44.057334 107.005079 
L 44.087463 107.005079 
L 44.117731 107.005079 
L 44.148138 107.005079 
L 44.178686 107.005079 
L 44.209375 107.005079 
L 44.240206 107.005079 
L 44.27118 107.005079 
L 44.302296 107.005079 
L 44.333557 107.005079 
L 44.364961 107.005079 
L 44.396511 107.005079 
L 44.428207 107.005079 
L 44.460049 107.005079 
L 44.492038 107.005079 
L 44.524175 107.005079 
L 44.556461 41.310209 
L 44.588895 107.005078 
L 44.62148 107.005079 
L 44.654215 107.005079 
L 44.687101 107.005079 
L 44.72014 107.005079 
L 44.753331 107.005079 
L 44.786675 107.005079 
L 44.820173 107.005079 
L 44.853827 107.005079 
L 44.887635 107.005079 
L 44.9216 107.005079 
L 44.955722 107.005079 
L 44.990001 107.005079 
L 45.024439 107.005079 
L 45.059036 107.005079 
L 45.093793 107.005079 
L 45.12871 107.005079 
L 45.163789 107.005079 
L 45.19903 107.005079 
L 45.234433 107.005079 
L 45.27 107.005079 
L 45.305732 107.005079 
L 45.341629 107.005079 
L 45.377691 107.005079 
L 45.41392 107.005079 
L 45.450317 107.005079 
L 45.486881 107.005079 
L 45.523615 107.005079 
L 45.560518 107.005079 
L 45.597592 107.005079 
L 45.634837 107.005079 
L 45.672255 107.005079 
L 45.709845 107.005079 
L 45.747608 107.005079 
L 45.785547 107.005079 
L 45.82366 107.005079 
L 45.86195 107.005079 
L 45.900417 107.005079 
L 45.939061 107.005079 
L 45.977884 107.005079 
L 46.016886 107.005079 
L 46.056069 107.005079 
L 46.095432 107.005079 
L 46.134977 107.005079 
L 46.174706 107.005079 
L 46.214617 107.005079 
L 46.254713 107.005079 
L 46.294995 107.005079 
L 46.335462 107.005079 
L 46.376116 107.005079 
L 46.416959 107.005079 
L 46.45799 107.005079 
L 46.49921 107.005079 
L 46.540621 107.005079 
L 46.582223 107.005079 
L 46.624018 107.005079 
L 46.666006 107.005079 
L 46.708187 107.005079 
L 46.750564 107.005079 
L 46.793136 107.005079 
L 46.835905 107.005079 
L 46.878872 107.005079 
L 46.922037 107.005079 
L 46.965402 107.005079 
L 47.008967 107.005079 
L 47.052733 107.005079 
L 47.096702 107.005079 
L 47.140873 107.005079 
L 47.185249 107.005079 
L 47.22983 107.005079 
L 47.274617 107.005079 
L 47.31961 107.005079 
L 47.364812 107.005079 
L 47.410222 107.005079 
L 47.455843 107.005079 
L 47.501674 107.005079 
L 47.547717 107.005079 
L 47.593972 107.005079 
L 47.640441 107.005079 
L 47.687125 107.005079 
L 47.734025 107.005079 
L 47.781141 107.005079 
L 47.828475 107.005079 
L 47.876028 107.005079 
L 47.923801 107.005079 
L 47.971794 107.005079 
L 48.020009 107.005079 
L 48.068447 107.005079 
L 48.117108 107.005079 
L 48.165994 107.005079 
L 48.215107 107.005079 
L 48.264446 107.005079 
L 48.314013 107.005079 
L 48.363809 107.005079 
L 48.413835 107.005079 
L 48.464093 107.005079 
L 48.514582 107.005079 
L 48.565305 107.005079 
L 48.616262 107.005079 
L 48.667455 107.005079 
L 48.718884 107.005079 
L 48.770551 107.005079 
L 48.822457 107.005079 
L 48.874602 107.005079 
L 48.926988 107.005079 
L 48.979617 107.005079 
L 49.032488 107.005079 
L 49.085604 107.005079 
L 49.138965 107.005079 
L 49.192573 107.005079 
L 49.246429 107.005079 
L 49.300533 107.005079 
L 49.354887 107.005079 
L 49.409493 107.005359 
L 49.46435 107.03252 
L 49.519462 107.005079 
L 49.574827 107.005079 
L 49.630449 107.005079 
L 49.686328 107.005079 
L 49.742465 107.005079 
L 49.798861 107.005079 
L 49.855517 107.005079 
L 49.912436 107.005079 
L 49.969618 107.005079 
L 50.027063 107.005079 
L 50.084775 107.005079 
L 50.142752 107.005079 
L 50.200998 107.005079 
L 50.259513 107.005079 
L 50.318298 107.005079 
L 50.377355 107.005079 
L 50.436684 107.005079 
L 50.496288 107.005079 
L 50.556167 107.005079 
L 50.616323 107.005079 
L 50.676757 107.005079 
L 50.73747 107.005079 
L 50.798464 107.005079 
L 50.859739 107.005079 
L 50.921298 107.005079 
L 50.98314 107.005079 
L 51.045269 107.005079 
L 51.107685 107.005079 
L 51.170389 107.005079 
L 51.233383 107.005079 
L 51.296668 107.005079 
L 51.360245 107.005079 
L 51.424116 107.005079 
L 51.488282 107.005079 
L 51.552745 107.005079 
L 51.617505 107.005079 
L 51.682565 107.005079 
L 51.747925 107.005079 
L 51.813587 107.005079 
L 51.879553 107.005079 
L 51.945823 107.005079 
L 52.0124 107.005079 
L 52.079284 107.005079 
L 52.146478 107.005079 
L 52.213981 107.005079 
L 52.281797 107.005079 
L 52.349926 107.005079 
L 52.41837 107.005079 
L 52.48713 107.005079 
L 52.556208 107.005079 
L 52.625604 107.005079 
L 52.695322 107.005079 
L 52.765362 107.005079 
L 52.835725 107.005079 
L 52.906413 107.005079 
L 52.977428 107.005079 
L 53.048771 107.005079 
L 53.120444 107.005079 
L 53.192448 107.005079 
L 53.264785 107.005079 
L 53.337455 107.005079 
L 53.410462 107.005079 
L 53.483806 107.005079 
L 53.557489 107.005079 
L 53.631512 107.005079 
L 53.705877 107.005079 
L 53.780586 107.005079 
L 53.85564 107.005079 
L 53.931041 107.005079 
L 54.00679 107.005079 
L 54.082889 107.005079 
L 54.15934 107.005079 
L 54.236144 107.005079 
L 54.313303 107.005079 
L 54.390818 107.005079 
L 54.468692 107.005079 
L 54.546925 107.005079 
L 54.62552 107.005079 
L 54.704478 107.005079 
L 54.783801 107.005079 
L 54.86349 107.005079 
L 54.943548 107.005079 
L 55.023975 107.005079 
L 55.104774 107.005079 
L 55.185946 107.005079 
L 55.267494 107.005079 
L 55.349418 107.005079 
L 55.43172 107.005079 
L 55.514403 107.005079 
L 55.597468 107.005079 
L 55.680917 107.005079 
L 55.764752 107.005079 
L 55.848973 107.005079 
L 55.933584 107.005079 
L 56.018586 107.005079 
L 56.10398 107.005079 
L 56.18977 107.005079 
L 56.275955 107.005079 
L 56.362539 107.005079 
L 56.449522 107.005079 
L 56.536908 107.005079 
L 56.624697 107.005079 
L 56.712892 107.005079 
L 56.801495 107.005079 
L 56.890507 107.005079 
L 56.97993 107.005079 
L 57.069766 107.005079 
L 57.160018 107.005079 
L 57.250686 107.005079 
L 57.341774 107.005079 
L 57.433282 107.005079 
L 57.525213 107.005079 
L 57.617569 107.005079 
L 57.710351 107.005079 
L 57.803562 107.005079 
L 57.897204 107.005079 
L 57.991279 107.005079 
L 58.085788 107.005079 
L 58.180734 107.005079 
L 58.276118 107.005079 
L 58.371944 107.005079 
L 58.468212 107.005079 
L 58.564924 107.005079 
L 58.662084 107.005079 
L 58.759693 107.005079 
L 58.857752 107.005079 
L 58.956265 107.005079 
L 59.055233 107.005079 
L 59.154658 107.005079 
L 59.254543 107.005079 
L 59.354889 107.005079 
L 59.455698 107.005079 
L 59.556974 107.005079 
L 59.658717 107.005079 
L 59.76093 107.005079 
L 59.863616 107.005079 
L 59.966776 107.005079 
L 60.070413 107.005079 
L 60.174529 107.005079 
L 60.279126 107.005079 
L 60.384206 107.005079 
L 60.489771 107.005079 
L 60.595824 107.005079 
L 60.702368 107.005079 
L 60.809403 107.005079 
L 60.916933 107.005079 
L 61.02496 107.005079 
L 61.133486 107.005079 
L 61.242514 107.005079 
L 61.352045 107.005079 
L 61.462083 107.005079 
L 61.572628 107.005079 
L 61.683685 107.005079 
L 61.795255 107.005079 
L 61.90734 107.005079 
L 62.019943 107.005079 
L 62.133066 107.005079 
L 62.246712 107.005079 
L 62.360883 107.005079 
L 62.475582 107.005079 
L 62.59081 107.005079 
L 62.706571 107.005079 
L 62.822867 107.005079 
L 62.9397 107.005079 
L 63.057073 107.005079 
L 63.174989 107.005079 
L 63.293449 107.005079 
L 63.412456 107.005079 
L 63.532014 107.005079 
L 63.652123 127.377766 
L 63.772788 107.004973 
L 63.89401 107.005079 
L 64.015793 107.005079 
L 64.138138 107.005079 
L 64.261048 107.005079 
L 64.384526 107.005079 
L 64.508575 107.005079 
L 64.633197 107.005079 
L 64.758394 107.005079 
L 64.88417 107.005079 
L 65.010528 107.005079 
L 65.137469 107.005079 
L 65.264996 107.005079 
L 65.393113 107.005079 
L 65.521822 107.005079 
L 65.651125 107.005079 
L 65.781026 107.005079 
L 65.911527 107.005079 
L 66.042632 107.005079 
L 66.174341 107.005079 
L 66.30666 107.005079 
L 66.43959 107.005079 
L 66.573134 107.005079 
L 66.707295 107.005079 
L 66.842075 107.005079 
L 66.977479 107.005079 
L 67.113508 107.005079 
L 67.250166 107.005079 
L 67.387455 107.005079 
L 67.525379 107.005079 
L 67.663939 107.005079 
L 67.80314 107.005079 
L 67.942984 107.005079 
L 68.083475 107.005079 
L 68.224614 107.005079 
L 68.366406 107.005079 
L 68.508852 107.005079 
L 68.651957 107.005079 
L 68.795723 107.005079 
L 68.940153 107.005079 
L 69.085251 107.005079 
L 69.231019 107.005079 
L 69.377461 107.005079 
L 69.524579 107.005079 
L 69.672377 107.005079 
L 69.820858 107.005079 
L 69.970024 107.005079 
L 70.11988 107.005079 
L 70.270429 107.005079 
L 70.421673 107.005079 
L 70.573616 107.005079 
L 70.726261 107.005079 
L 70.879611 107.005079 
L 71.03367 107.005079 
L 71.18844 107.005079 
L 71.343926 107.005079 
L 71.50013 107.005079 
L 71.657056 107.005079 
L 71.814706 107.005079 
L 71.973086 107.005079 
L 72.132197 107.005079 
L 72.292043 107.005079 
L 72.452628 107.005079 
L 72.613954 107.005079 
L 72.776027 107.005079 
L 72.938848 107.005079 
L 73.102421 107.005079 
L 73.26675 107.005079 
L 73.431838 107.005079 
L 73.597689 107.005079 
L 73.764307 107.005079 
L 73.931694 107.005079 
L 74.099854 107.005079 
L 74.268792 107.005079 
L 74.43851 107.005079 
L 74.609013 107.005079 
L 74.780303 107.005079 
L 74.952384 107.005079 
L 75.125261 107.005079 
L 75.298936 107.005079 
L 75.473414 107.005079 
L 75.648698 107.005079 
L 75.824792 107.005079 
L 76.0017 107.005079 
L 76.179425 107.005079 
L 76.357971 107.005079 
L 76.537342 107.005079 
L 76.717542 107.005079 
L 76.898574 107.005079 
L 77.080443 107.005079 
L 77.263152 107.005079 
L 77.446705 107.005079 
L 77.631107 107.005079 
L 77.81636 107.005079 
L 78.00247 107.005079 
L 78.189439 107.005079 
L 78.377272 107.005079 
L 78.565973 107.005079 
L 78.755546 107.005079 
L 78.945995 107.005079 
L 79.137324 107.005079 
L 79.329537 107.005079 
L 79.522638 107.005079 
L 79.716631 107.005079 
L 79.911521 107.005079 
L 80.107311 107.005079 
L 80.304005 107.005079 
L 80.501608 107.005079 
L 80.700125 107.005079 
L 80.899559 107.005079 
L 81.099914 107.005079 
L 81.301194 107.005079 
L 81.503405 107.005079 
L 81.70655 107.005079 
L 81.910634 107.005079 
L 82.115661 107.005079 
L 82.321635 107.005079 
L 82.528561 107.005079 
L 82.736442 107.005079 
L 82.945285 107.005079 
L 83.155092 107.005079 
L 83.365868 107.005079 
L 83.577619 107.005079 
L 83.790348 107.005079 
L 84.00406 107.005079 
L 84.218759 107.005079 
L 84.43445 107.005079 
L 84.651138 107.005079 
L 84.868827 107.005079 
L 85.087522 107.005079 
L 85.307227 107.005079 
L 85.527947 107.008149 
L 85.749687 107.299042 
L 85.972452 107.005079 
L 86.196246 107.005079 
L 86.421074 107.005079 
L 86.646941 107.005079 
L 86.873852 107.005079 
L 87.10181 107.005079 
L 87.330823 107.005079 
L 87.560893 107.005079 
L 87.792026 107.005079 
L 88.024227 107.005079 
L 88.257501 107.005079 
L 88.491853 107.005079 
L 88.727288 107.005079 
L 88.96381 107.005079 
L 89.201426 107.005079 
L 89.440139 107.005079 
L 89.679955 107.005079 
L 89.920879 107.005079 
L 90.162917 107.005079 
L 90.406073 107.005079 
L 90.650352 107.005079 
L 90.89576 107.005079 
L 91.142301 107.005079 
L 91.389982 107.005079 
L 91.638808 107.005079 
L 91.888783 107.005079 
L 92.139913 107.005079 
L 92.392203 107.005079 
L 92.645659 107.005079 
L 92.900286 107.005079 
L 93.156089 107.005079 
L 93.413075 107.005079 
L 93.671248 107.005079 
L 93.930613 107.005079 
L 94.191177 107.005079 
L 94.452945 107.005079 
L 94.715923 107.005079 
L 94.980115 107.005079 
L 95.245529 107.005079 
L 95.512168 107.005079 
L 95.78004 107.005079 
L 96.049149 107.005079 
L 96.319501 107.005079 
L 96.591103 107.005079 
L 96.86396 107.005079 
L 97.138077 107.005079 
L 97.413461 107.005079 
L 97.690117 107.005079 
L 97.968052 107.005079 
L 98.247271 107.005079 
L 98.527779 107.005079 
L 98.809584 107.005079 
L 99.092691 107.005079 
L 99.377106 107.005079 
L 99.662836 107.005079 
L 99.949885 107.005079 
L 100.238261 107.005079 
L 100.527969 107.005079 
L 100.819015 107.005079 
L 101.111407 107.005079 
L 101.405149 107.005079 
L 101.700249 107.005079 
L 101.996712 107.005079 
L 102.294544 107.005079 
L 102.593753 107.005079 
L 102.894345 107.005079 
L 103.196325 107.005079 
L 103.499701 107.005079 
L 103.804478 107.005079 
L 104.110663 107.005079 
L 104.418264 107.005079 
L 104.727285 107.005079 
L 105.037734 107.005079 
L 105.349618 107.005079 
L 105.662943 107.005079 
L 105.977715 107.005079 
L 106.293942 107.005079 
L 106.61163 107.005079 
L 106.930785 107.005079 
L 107.251416 107.005079 
L 107.573527 107.005079 
L 107.897128 107.005079 
L 108.222223 107.005079 
L 108.54882 107.005079 
L 108.876926 107.005079 
L 109.206549 107.005079 
L 109.537694 107.005079 
L 109.870369 107.005079 
L 110.204582 107.005079 
L 110.540339 107.005079 
L 110.877647 107.005079 
L 111.216513 107.005079 
L 111.556945 107.005079 
L 111.89895 107.005079 
L 112.242536 107.005079 
L 112.587709 107.005079 
L 112.934476 107.005079 
L 113.282846 107.005079 
L 113.632826 107.005079 
L 113.984422 107.005079 
L 114.337644 107.005079 
L 114.692497 107.005079 
L 115.048989 107.005079 
L 115.407129 107.005079 
L 115.766924 107.005079 
L 116.128381 107.005079 
L 116.491508 107.005079 
L 116.856313 107.005079 
L 117.222803 107.005079 
L 117.590987 107.005079 
L 117.960872 107.005079 
L 118.332466 107.005079 
L 118.705777 107.005079 
L 119.080813 107.005079 
L 119.457581 107.005079 
L 119.836091 107.005079 
L 120.216349 107.005079 
L 120.598364 107.005079 
L 120.982145 107.005079 
L 121.367698 107.005079 
L 121.755033 107.005079 
L 122.144158 107.005079 
L 122.53508 107.005079 
L 122.927809 107.005079 
L 123.322352 107.005079 
L 123.718719 107.005079 
L 124.116916 107.005079 
L 124.516954 107.005079 
L 124.91884 107.005079 
L 125.322582 107.005079 
L 125.728191 107.005079 
L 126.135673 107.005079 
L 126.545038 107.005079 
L 126.956294 107.005079 
L 127.369451 107.005079 
L 127.784517 107.005079 
L 128.2015 107.005079 
L 128.62041 107.005079 
L 129.041256 107.005079 
L 129.464046 107.005079 
L 129.888789 107.005079 
L 130.315495 107.005079 
L 130.744173 107.005079 
L 131.174831 107.005079 
L 131.607479 107.005079 
L 132.042126 107.005079 
L 132.478781 107.005079 
L 132.917454 107.005079 
L 133.358154 107.005079 
L 133.80089 107.005079 
L 134.245671 107.005079 
L 134.692508 107.005079 
L 135.141409 107.005079 
L 135.592384 107.005079 
L 136.045443 107.005079 
L 136.500596 107.005079 
L 136.957851 107.005079 
L 137.417219 107.005079 
L 137.87871 107.005079 
L 138.342332 107.005079 
L 138.808097 107.005079 
L 139.276014 107.005079 
L 139.746093 107.005079 
L 140.218344 107.005079 
L 140.692777 107.005079 
L 141.169402 107.005079 
L 141.648229 107.005079 
L 142.129269 107.005079 
L 142.612531 107.005079 
L 143.098026 107.005079 
L 143.585764 107.005079 
L 144.075756 107.005079 
L 144.568012 107.005079 
L 145.062542 107.005079 
L 145.559357 107.005079 
L 146.058468 107.005079 
L 146.559884 107.005079 
L 147.063618 107.005079 
L 147.569679 107.005079 
L 148.078078 107.005079 
L 148.588826 107.005079 
L 149.101934 107.005079 
L 149.617413 107.005079 
L 150.135273 107.005079 
L 150.655527 107.005079 
L 151.178184 107.005079 
L 151.703256 107.005079 
L 152.230754 107.005079 
L 152.760689 107.005079 
L 153.293073 107.005079 
L 153.827916 107.005079 
L 154.365231 107.005079 
L 154.905029 107.005079 
L 155.44732 107.005079 
L 155.992118 107.005079 
L 156.539432 107.005079 
L 157.089275 107.005079 
L 157.641659 107.005079 
L 158.196595 107.005079 
L 158.754095 107.005079 
L 159.314171 107.005079 
L 159.876834 107.005079 
L 160.442098 107.005079 
L 161.009973 107.005079 
L 161.580472 107.005079 
L 162.153607 107.005079 
L 162.72939 107.005079 
L 163.307833 107.005079 
L 163.888949 107.005079 
L 164.47275 107.005079 
L 165.059249 107.005085 
L 165.648457 74697.228081 
L 166.240388 107.005079 
L 166.835053 107.005079 
L 167.432467 107.005079 
L 168.03264 107.005079 
L 168.635587 107.005079 
L 169.24132 107.005079 
L 169.849851 107.005079 
L 170.461194 107.005079 
L 171.075361 107.005079 
L 171.692367 107.005079 
L 172.312223 107.005079 
L 172.934943 107.005079 
L 173.56054 107.005079 
L 174.189028 107.005079 
L 174.82042 107.005079 
L 175.454729 107.005079 
L 176.091969 107.005079 
L 176.732153 107.005079 
L 177.375295 107.005079 
L 178.021409 107.005079 
L 178.670508 107.005079 
L 179.322606 107.005079 
L 179.977717 107.005079 
L 180.635855 107.005079 
L 181.297034 107.005079 
L 181.961267 107.005079 
L 182.62857 107.005079 
L 183.298956 107.005079 
L 183.97244 107.005079 
L 184.649035 107.005079 
L 185.328756 107.005079 
L 186.011618 107.005079 
L 186.697635 107.005079 
L 187.386822 107.005079 
L 188.079193 107.005079 
L 188.774763 107.005079 
L 189.473547 107.005079 
L 190.17556 107.005079 
L 190.880816 107.005079 
L 191.589331 107.005079 
L 192.30112 107.005079 
L 193.016197 107.005079 
L 193.734578 107.005079 
L 194.456279 107.005079 
L 195.181314 107.005079 
L 195.909699 107.005079 
L 196.641449 107.005079 
L 197.37658 107.005079 
L 198.115108 107.005079 
L 198.857049 107.005079 
L 199.602417 107.005079 
L 200.351229 107.005079 
L 201.103502 107.005079 
L 201.85925 107.005079 
L 202.618489 107.005079 
L 203.381237 107.005079 
L 204.147509 107.005079 
L 204.917322 107.005079 
L 205.690691 107.005079 
L 206.467634 107.005079 
L 207.248167 107.005079 
L 208.032306 107.005079 
L 208.820067 107.005079 
L 209.611469 107.005079 
L 210.406528 107.005079 
L 211.205259 107.005079 
L 212.007682 107.005079 
L 212.007682 33.03134 
L 212.007682 33.03134 
L 211.205259 33.03134 
L 210.406528 33.03134 
L 209.611469 33.03134 
L 208.820067 33.03134 
L 208.032306 33.03134 
L 207.248167 33.03134 
L 206.467634 33.03134 
L 205.690691 33.03134 
L 204.917322 33.03134 
L 204.147509 33.03134 
L 203.381237 33.03134 
L 202.618489 33.03134 
L 201.85925 33.03134 
L 201.103502 33.03134 
L 200.351229 33.03134 
L 199.602417 33.03134 
L 198.857049 33.03134 
L 198.115108 33.03134 
L 197.37658 33.03134 
L 196.641449 33.03134 
L 195.909699 33.03134 
L 195.181314 33.03134 
L 194.456279 33.03134 
L 193.734578 33.03134 
L 193.016197 33.03134 
L 192.30112 33.03134 
L 191.589331 33.03134 
L 190.880816 33.03134 
L 190.17556 33.03134 
L 189.473547 33.03134 
L 188.774763 33.03134 
L 188.079193 33.03134 
L 187.386822 33.03134 
L 186.697635 33.03134 
L 186.011618 33.03134 
L 185.328756 33.03134 
L 184.649035 33.03134 
L 183.97244 33.03134 
L 183.298956 33.03134 
L 182.62857 33.03134 
L 181.961267 33.03134 
L 181.297034 33.03134 
L 180.635855 33.03134 
L 179.977717 33.03134 
L 179.322606 33.03134 
L 178.670508 33.03134 
L 178.021409 33.03134 
L 177.375295 33.03134 
L 176.732153 33.03134 
L 176.091969 33.03134 
L 175.454729 33.03134 
L 174.82042 33.03134 
L 174.189028 33.03134 
L 173.56054 33.03134 
L 172.934943 33.03134 
L 172.312223 33.03134 
L 171.692367 33.03134 
L 171.075361 33.03134 
L 170.461194 33.03134 
L 169.849851 33.03134 
L 169.24132 33.03134 
L 168.635587 33.03134 
L 168.03264 33.03134 
L 167.432467 33.03134 
L 166.835053 33.03134 
L 166.240388 33.03134 
L 165.648457 48.070052 
L 165.059249 33.03134 
L 164.47275 33.03134 
L 163.888949 33.03134 
L 163.307833 33.03134 
L 162.72939 33.03134 
L 162.153607 33.03134 
L 161.580472 33.03134 
L 161.009973 33.03134 
L 160.442098 33.03134 
L 159.876834 33.03134 
L 159.314171 33.03134 
L 158.754095 33.03134 
L 158.196595 33.03134 
L 157.641659 33.03134 
L 157.089275 33.03134 
L 156.539432 33.03134 
L 155.992118 33.03134 
L 155.44732 33.03134 
L 154.905029 33.03134 
L 154.365231 33.03134 
L 153.827916 33.03134 
L 153.293073 33.03134 
L 152.760689 33.03134 
L 152.230754 33.03134 
L 151.703256 33.03134 
L 151.178184 33.03134 
L 150.655527 33.03134 
L 150.135273 33.03134 
L 149.617413 33.03134 
L 149.101934 33.03134 
L 148.588826 33.03134 
L 148.078078 33.03134 
L 147.569679 33.03134 
L 147.063618 33.03134 
L 146.559884 33.03134 
L 146.058468 33.03134 
L 145.559357 33.03134 
L 145.062542 33.03134 
L 144.568012 33.03134 
L 144.075756 33.03134 
L 143.585764 33.03134 
L 143.098026 33.03134 
L 142.612531 33.03134 
L 142.129269 33.03134 
L 141.648229 33.03134 
L 141.169402 33.03134 
L 140.692777 33.03134 
L 140.218344 33.03134 
L 139.746093 33.03134 
L 139.276014 33.03134 
L 138.808097 33.03134 
L 138.342332 33.03134 
L 137.87871 33.03134 
L 137.417219 33.03134 
L 136.957851 33.03134 
L 136.500596 33.03134 
L 136.045443 33.03134 
L 135.592384 33.03134 
L 135.141409 33.03134 
L 134.692508 33.03134 
L 134.245671 33.03134 
L 133.80089 33.03134 
L 133.358154 33.03134 
L 132.917454 33.03134 
L 132.478781 33.03134 
L 132.042126 33.03134 
L 131.607479 33.03134 
L 131.174831 33.03134 
L 130.744173 33.03134 
L 130.315495 33.03134 
L 129.888789 33.03134 
L 129.464046 33.03134 
L 129.041256 33.03134 
L 128.62041 33.03134 
L 128.2015 33.03134 
L 127.784517 33.03134 
L 127.369451 33.03134 
L 126.956294 33.03134 
L 126.545038 33.03134 
L 126.135673 33.03134 
L 125.728191 33.03134 
L 125.322582 33.03134 
L 124.91884 33.03134 
L 124.516954 33.03134 
L 124.116916 33.03134 
L 123.718719 33.03134 
L 123.322352 33.03134 
L 122.927809 33.03134 
L 122.53508 33.03134 
L 122.144158 33.03134 
L 121.755033 33.03134 
L 121.367698 33.03134 
L 120.982145 33.03134 
L 120.598364 33.03134 
L 120.216349 33.03134 
L 119.836091 33.03134 
L 119.457581 33.03134 
L 119.080813 33.03134 
L 118.705777 33.03134 
L 118.332466 33.03134 
L 117.960872 33.03134 
L 117.590987 33.03134 
L 117.222803 33.03134 
L 116.856313 33.03134 
L 116.491508 33.03134 
L 116.128381 33.03134 
L 115.766924 33.03134 
L 115.407129 33.03134 
L 115.048989 33.03134 
L 114.692497 33.03134 
L 114.337644 33.03134 
L 113.984422 33.03134 
L 113.632826 33.03134 
L 113.282846 33.03134 
L 112.934476 33.03134 
L 112.587709 33.03134 
L 112.242536 33.03134 
L 111.89895 33.03134 
L 111.556945 33.03134 
L 111.216513 33.03134 
L 110.877647 33.03134 
L 110.540339 33.03134 
L 110.204582 33.03134 
L 109.870369 33.03134 
L 109.537694 33.03134 
L 109.206549 33.03134 
L 108.876926 33.03134 
L 108.54882 33.03134 
L 108.222223 33.03134 
L 107.897128 33.03134 
L 107.573527 33.03134 
L 107.251416 33.03134 
L 106.930785 33.03134 
L 106.61163 33.03134 
L 106.293942 33.03134 
L 105.977715 33.03134 
L 105.662943 33.03134 
L 105.349618 33.03134 
L 105.037734 33.03134 
L 104.727285 33.03134 
L 104.418264 33.03134 
L 104.110663 33.03134 
L 103.804478 33.03134 
L 103.499701 33.03134 
L 103.196325 33.03134 
L 102.894345 33.03134 
L 102.593753 33.03134 
L 102.294544 33.03134 
L 101.996712 33.03134 
L 101.700249 33.03134 
L 101.405149 33.03134 
L 101.111407 33.03134 
L 100.819015 33.03134 
L 100.527969 33.03134 
L 100.238261 33.03134 
L 99.949885 33.03134 
L 99.662836 33.03134 
L 99.377106 33.03134 
L 99.092691 33.03134 
L 98.809584 33.03134 
L 98.527779 33.03134 
L 98.247271 33.03134 
L 97.968052 33.03134 
L 97.690117 33.03134 
L 97.413461 33.03134 
L 97.138077 33.03134 
L 96.86396 33.03134 
L 96.591103 33.03134 
L 96.319501 33.03134 
L 96.049149 33.03134 
L 95.78004 33.03134 
L 95.512168 33.03134 
L 95.245529 33.03134 
L 94.980115 33.03134 
L 94.715923 33.03134 
L 94.452945 33.03134 
L 94.191177 33.03134 
L 93.930613 33.03134 
L 93.671248 33.03134 
L 93.413075 33.03134 
L 93.156089 33.03134 
L 92.900286 33.03134 
L 92.645659 33.03134 
L 92.392203 33.03134 
L 92.139913 33.03134 
L 91.888783 33.03134 
L 91.638808 33.03134 
L 91.389982 33.03134 
L 91.142301 33.03134 
L 90.89576 33.03134 
L 90.650352 33.03134 
L 90.406073 33.03134 
L 90.162917 33.03134 
L 89.920879 33.03134 
L 89.679955 33.03134 
L 89.440139 33.03134 
L 89.201426 33.03134 
L 88.96381 33.03134 
L 88.727288 33.03134 
L 88.491853 33.03134 
L 88.257501 33.03134 
L 88.024227 33.03134 
L 87.792026 33.03134 
L 87.560893 33.03134 
L 87.330823 33.03134 
L 87.10181 33.03134 
L 86.873852 33.03134 
L 86.646941 33.03134 
L 86.421074 33.03134 
L 86.196246 33.03134 
L 85.972452 33.03134 
L 85.749687 33.061262 
L 85.527947 33.031653 
L 85.307227 33.03134 
L 85.087522 33.03134 
L 84.868827 33.03134 
L 84.651138 33.03134 
L 84.43445 33.03134 
L 84.218759 33.03134 
L 84.00406 33.03134 
L 83.790348 33.03134 
L 83.577619 33.03134 
L 83.365868 33.03134 
L 83.155092 33.03134 
L 82.945285 33.03134 
L 82.736442 33.03134 
L 82.528561 33.03134 
L 82.321635 33.03134 
L 82.115661 33.03134 
L 81.910634 33.03134 
L 81.70655 33.03134 
L 81.503405 33.03134 
L 81.301194 33.03134 
L 81.099914 33.03134 
L 80.899559 33.03134 
L 80.700125 33.03134 
L 80.501608 33.03134 
L 80.304005 33.03134 
L 80.107311 33.03134 
L 79.911521 33.03134 
L 79.716631 33.03134 
L 79.522638 33.03134 
L 79.329537 33.03134 
L 79.137324 33.03134 
L 78.945995 33.03134 
L 78.755546 33.03134 
L 78.565973 33.03134 
L 78.377272 33.03134 
L 78.189439 33.03134 
L 78.00247 33.03134 
L 77.81636 33.03134 
L 77.631107 33.03134 
L 77.446705 33.03134 
L 77.263152 33.03134 
L 77.080443 33.03134 
L 76.898574 33.03134 
L 76.717542 33.03134 
L 76.537342 33.03134 
L 76.357971 33.03134 
L 76.179425 33.03134 
L 76.0017 33.03134 
L 75.824792 33.03134 
L 75.648698 33.03134 
L 75.473414 33.03134 
L 75.298936 33.03134 
L 75.125261 33.03134 
L 74.952384 33.03134 
L 74.780303 33.03134 
L 74.609013 33.03134 
L 74.43851 33.03134 
L 74.268792 33.03134 
L 74.099854 33.03134 
L 73.931694 33.03134 
L 73.764307 33.03134 
L 73.597689 33.03134 
L 73.431838 33.03134 
L 73.26675 33.03134 
L 73.102421 33.03134 
L 72.938848 33.03134 
L 72.776027 33.03134 
L 72.613954 33.03134 
L 72.452628 33.03134 
L 72.292043 33.03134 
L 72.132197 33.03134 
L 71.973086 33.03134 
L 71.814706 33.03134 
L 71.657056 33.03134 
L 71.50013 33.03134 
L 71.343926 33.03134 
L 71.18844 33.03134 
L 71.03367 33.03134 
L 70.879611 33.03134 
L 70.726261 33.03134 
L 70.573616 33.03134 
L 70.421673 33.03134 
L 70.270429 33.03134 
L 70.11988 33.03134 
L 69.970024 33.03134 
L 69.820858 33.03134 
L 69.672377 33.03134 
L 69.524579 33.03134 
L 69.377461 33.03134 
L 69.231019 33.03134 
L 69.085251 33.03134 
L 68.940153 33.03134 
L 68.795723 33.03134 
L 68.651957 33.03134 
L 68.508852 33.03134 
L 68.366406 33.03134 
L 68.224614 33.03134 
L 68.083475 33.03134 
L 67.942984 33.03134 
L 67.80314 33.03134 
L 67.663939 33.03134 
L 67.525379 33.03134 
L 67.387455 33.03134 
L 67.250166 33.03134 
L 67.113508 33.03134 
L 66.977479 33.03134 
L 66.842075 33.03134 
L 66.707295 33.03134 
L 66.573134 33.03134 
L 66.43959 33.03134 
L 66.30666 33.03134 
L 66.174341 33.03134 
L 66.042632 33.03134 
L 65.911527 33.03134 
L 65.781026 33.03134 
L 65.651125 33.03134 
L 65.521822 33.03134 
L 65.393113 33.03134 
L 65.264996 33.03134 
L 65.137469 33.03134 
L 65.010528 33.03134 
L 64.88417 33.03134 
L 64.758394 33.03134 
L 64.633197 33.03134 
L 64.508575 33.03134 
L 64.384526 33.03134 
L 64.261048 33.03134 
L 64.138138 33.03134 
L 64.015793 33.03134 
L 63.89401 33.03134 
L 63.772788 33.031329 
L 63.652123 34.724038 
L 63.532014 33.03134 
L 63.412456 33.03134 
L 63.293449 33.03134 
L 63.174989 33.03134 
L 63.057073 33.03134 
L 62.9397 33.03134 
L 62.822867 33.03134 
L 62.706571 33.03134 
L 62.59081 33.03134 
L 62.475582 33.03134 
L 62.360883 33.03134 
L 62.246712 33.03134 
L 62.133066 33.03134 
L 62.019943 33.03134 
L 61.90734 33.03134 
L 61.795255 33.03134 
L 61.683685 33.03134 
L 61.572628 33.03134 
L 61.462083 33.03134 
L 61.352045 33.03134 
L 61.242514 33.03134 
L 61.133486 33.03134 
L 61.02496 33.03134 
L 60.916933 33.03134 
L 60.809403 33.03134 
L 60.702368 33.03134 
L 60.595824 33.03134 
L 60.489771 33.03134 
L 60.384206 33.03134 
L 60.279126 33.03134 
L 60.174529 33.03134 
L 60.070413 33.03134 
L 59.966776 33.03134 
L 59.863616 33.03134 
L 59.76093 33.03134 
L 59.658717 33.03134 
L 59.556974 33.03134 
L 59.455698 33.03134 
L 59.354889 33.03134 
L 59.254543 33.03134 
L 59.154658 33.03134 
L 59.055233 33.03134 
L 58.956265 33.03134 
L 58.857752 33.03134 
L 58.759693 33.03134 
L 58.662084 33.03134 
L 58.564924 33.03134 
L 58.468212 33.03134 
L 58.371944 33.03134 
L 58.276118 33.03134 
L 58.180734 33.03134 
L 58.085788 33.03134 
L 57.991279 33.03134 
L 57.897204 33.03134 
L 57.803562 33.03134 
L 57.710351 33.03134 
L 57.617569 33.03134 
L 57.525213 33.03134 
L 57.433282 33.03134 
L 57.341774 33.03134 
L 57.250686 33.03134 
L 57.160018 33.03134 
L 57.069766 33.03134 
L 56.97993 33.03134 
L 56.890507 33.03134 
L 56.801495 33.03134 
L 56.712892 33.03134 
L 56.624697 33.03134 
L 56.536908 33.03134 
L 56.449522 33.03134 
L 56.362539 33.03134 
L 56.275955 33.03134 
L 56.18977 33.03134 
L 56.10398 33.03134 
L 56.018586 33.03134 
L 55.933584 33.03134 
L 55.848973 33.03134 
L 55.764752 33.03134 
L 55.680917 33.03134 
L 55.597468 33.03134 
L 55.514403 33.03134 
L 55.43172 33.03134 
L 55.349418 33.03134 
L 55.267494 33.03134 
L 55.185946 33.03134 
L 55.104774 33.03134 
L 55.023975 33.03134 
L 54.943548 33.03134 
L 54.86349 33.03134 
L 54.783801 33.03134 
L 54.704478 33.03134 
L 54.62552 33.03134 
L 54.546925 33.03134 
L 54.468692 33.03134 
L 54.390818 33.03134 
L 54.313303 33.03134 
L 54.236144 33.03134 
L 54.15934 33.03134 
L 54.082889 33.03134 
L 54.00679 33.03134 
L 53.931041 33.03134 
L 53.85564 33.03134 
L 53.780586 33.03134 
L 53.705877 33.03134 
L 53.631512 33.03134 
L 53.557489 33.03134 
L 53.483806 33.03134 
L 53.410462 33.03134 
L 53.337455 33.03134 
L 53.264785 33.03134 
L 53.192448 33.03134 
L 53.120444 33.03134 
L 53.048771 33.03134 
L 52.977428 33.03134 
L 52.906413 33.03134 
L 52.835725 33.03134 
L 52.765362 33.03134 
L 52.695322 33.03134 
L 52.625604 33.03134 
L 52.556208 33.03134 
L 52.48713 33.03134 
L 52.41837 33.03134 
L 52.349926 33.03134 
L 52.281797 33.03134 
L 52.213981 33.03134 
L 52.146478 33.03134 
L 52.079284 33.03134 
L 52.0124 33.03134 
L 51.945823 33.03134 
L 51.879553 33.03134 
L 51.813587 33.03134 
L 51.747925 33.03134 
L 51.682565 33.03134 
L 51.617505 33.03134 
L 51.552745 33.03134 
L 51.488282 33.03134 
L 51.424116 33.03134 
L 51.360245 33.03134 
L 51.296668 33.03134 
L 51.233383 33.03134 
L 51.170389 33.03134 
L 51.107685 33.03134 
L 51.045269 33.03134 
L 50.98314 33.03134 
L 50.921298 33.03134 
L 50.859739 33.03134 
L 50.798464 33.03134 
L 50.73747 33.03134 
L 50.676757 33.03134 
L 50.616323 33.03134 
L 50.556167 33.03134 
L 50.496288 33.03134 
L 50.436684 33.03134 
L 50.377355 33.03134 
L 50.318298 33.03134 
L 50.259513 33.03134 
L 50.200998 33.03134 
L 50.142752 33.03134 
L 50.084775 33.03134 
L 50.027063 33.03134 
L 49.969618 33.03134 
L 49.912436 33.03134 
L 49.855517 33.03134 
L 49.798861 33.03134 
L 49.742465 33.03134 
L 49.686328 33.03134 
L 49.630449 33.03134 
L 49.574827 33.03134 
L 49.519462 33.03134 
L 49.46435 33.034191 
L 49.409493 33.031368 
L 49.354887 33.03134 
L 49.300533 33.03134 
L 49.246429 33.03134 
L 49.192573 33.03134 
L 49.138965 33.03134 
L 49.085604 33.03134 
L 49.032488 33.03134 
L 48.979617 33.03134 
L 48.926988 33.03134 
L 48.874602 33.03134 
L 48.822457 33.03134 
L 48.770551 33.03134 
L 48.718884 33.03134 
L 48.667455 33.03134 
L 48.616262 33.03134 
L 48.565305 33.03134 
L 48.514582 33.03134 
L 48.464093 33.03134 
L 48.413835 33.03134 
L 48.363809 33.03134 
L 48.314013 33.03134 
L 48.264446 33.03134 
L 48.215107 33.03134 
L 48.165994 33.03134 
L 48.117108 33.03134 
L 48.068447 33.03134 
L 48.020009 33.03134 
L 47.971794 33.03134 
L 47.923801 33.03134 
L 47.876028 33.03134 
L 47.828475 33.03134 
L 47.781141 33.03134 
L 47.734025 33.03134 
L 47.687125 33.03134 
L 47.640441 33.03134 
L 47.593972 33.03134 
L 47.547717 33.03134 
L 47.501674 33.03134 
L 47.455843 33.03134 
L 47.410222 33.03134 
L 47.364812 33.03134 
L 47.31961 33.03134 
L 47.274617 33.03134 
L 47.22983 33.03134 
L 47.185249 33.03134 
L 47.140873 33.03134 
L 47.096702 33.03134 
L 47.052733 33.03134 
L 47.008967 33.03134 
L 46.965402 33.03134 
L 46.922037 33.03134 
L 46.878872 33.03134 
L 46.835905 33.03134 
L 46.793136 33.03134 
L 46.750564 33.03134 
L 46.708187 33.03134 
L 46.666006 33.03134 
L 46.624018 33.03134 
L 46.582223 33.03134 
L 46.540621 33.03134 
L 46.49921 33.03134 
L 46.45799 33.03134 
L 46.416959 33.03134 
L 46.376116 33.03134 
L 46.335462 33.03134 
L 46.294995 33.03134 
L 46.254713 33.03134 
L 46.214617 33.03134 
L 46.174706 33.03134 
L 46.134977 33.03134 
L 46.095432 33.03134 
L 46.056069 33.03134 
L 46.016886 33.03134 
L 45.977884 33.03134 
L 45.939061 33.03134 
L 45.900417 33.03134 
L 45.86195 33.03134 
L 45.82366 33.03134 
L 45.785547 33.03134 
L 45.747608 33.03134 
L 45.709845 33.03134 
L 45.672255 33.03134 
L 45.634837 33.03134 
L 45.597592 33.03134 
L 45.560518 33.03134 
L 45.523615 33.03134 
L 45.486881 33.03134 
L 45.450317 33.03134 
L 45.41392 33.03134 
L 45.377691 33.03134 
L 45.341629 33.03134 
L 45.305732 33.03134 
L 45.27 33.03134 
L 45.234433 33.03134 
L 45.19903 33.03134 
L 45.163789 33.03134 
L 45.12871 33.03134 
L 45.093793 33.03134 
L 45.059036 33.03134 
L 45.024439 33.03134 
L 44.990001 33.03134 
L 44.955722 33.03134 
L 44.9216 33.03134 
L 44.887635 33.03134 
L 44.853827 33.03134 
L 44.820173 33.03134 
L 44.786675 33.03134 
L 44.753331 33.03134 
L 44.72014 33.03134 
L 44.687101 33.03134 
L 44.654215 33.03134 
L 44.62148 33.03134 
L 44.588895 33.03134 
L 44.556461 28.64043 
L 44.524175 33.03134 
L 44.492038 33.03134 
L 44.460049 33.03134 
L 44.428207 33.03134 
L 44.396511 33.03134 
L 44.364961 33.03134 
L 44.333557 33.03134 
L 44.302296 33.03134 
L 44.27118 33.03134 
L 44.240206 33.03134 
L 44.209375 33.03134 
L 44.178686 33.03134 
L 44.148138 33.03134 
L 44.117731 33.03134 
L 44.087463 33.03134 
L 44.057334 33.03134 
L 44.027344 33.03134 
L 43.997492 33.03134 
L 43.967778 33.03134 
L 43.9382 33.03134 
L 43.908758 33.03134 
L 43.879451 33.03134 
L 43.850279 33.03134 
L 43.821241 33.03134 
L 43.792337 33.03134 
L 43.763566 33.03134 
L 43.734927 33.03134 
L 43.70642 33.03134 
L 43.678044 33.03134 
L 43.649799 33.03134 
L 43.621683 33.03134 
L 43.593697 33.03134 
L 43.565839 33.03134 
L 43.53811 33.03134 
L 43.510508 33.03134 
L 43.483033 33.03134 
L 43.455684 33.03134 
L 43.428461 33.03134 
L 43.401364 33.03134 
L 43.374391 33.03134 
L 43.347542 33.03134 
L 43.320816 33.03134 
L 43.294214 33.03134 
L 43.267733 33.03134 
L 43.241375 33.03134 
L 43.215138 33.03134 
L 43.189021 33.03134 
L 43.163025 33.03134 
L 43.137148 33.03134 
L 43.11139 33.03134 
L 43.085751 33.03134 
L 43.060229 33.03134 
L 43.034825 33.03134 
L 43.009538 33.03134 
L 42.984367 33.03134 
L 42.959312 33.03134 
L 42.934372 33.03134 
L 42.909547 33.03134 
L 42.884836 33.03134 
L 42.860238 33.03134 
L 42.835754 33.03134 
L 42.811382 33.03134 
L 42.787123 33.03134 
L 42.762975 33.03134 
L 42.738938 33.03134 
L 42.715011 33.03134 
L 42.691195 33.03134 
L 42.667488 33.03134 
L 42.64389 33.03134 
L 42.620401 33.03134 
L 42.59702 33.03134 
L 42.573746 33.03134 
L 42.550579 33.03134 
L 42.527519 33.03134 
L 42.504565 33.03134 
L 42.481717 33.03134 
L 42.458973 33.03134 
L 42.436334 33.03134 
L 42.4138 33.03134 
L 42.391369 33.03134 
L 42.369041 33.03134 
L 42.346816 33.03134 
L 42.324693 33.03134 
L 42.302671 33.03134 
L 42.280752 33.03134 
L 42.258932 33.03134 
L 42.237214 33.03134 
L 42.215595 33.03134 
L 42.194075 33.03134 
L 42.172655 33.03134 
L 42.151333 33.03134 
L 42.130109 33.03134 
L 42.108983 33.03134 
L 42.087953 33.03134 
L 42.067021 33.03134 
L 42.046185 33.03134 
L 42.025445 33.03134 
L 42.0048 33.03134 
L 41.98425 33.03134 
L 41.963794 33.03134 
L 41.943433 33.03134 
L 41.923165 33.03134 
L 41.902991 33.03134 
L 41.882909 33.03134 
L 41.862919 33.03134 
L 41.843022 33.03134 
L 41.823216 33.03134 
L 41.803501 33.03134 
L 41.783877 33.03134 
L 41.764343 33.03134 
L 41.744899 33.03134 
L 41.725544 33.03134 
L 41.706279 33.03134 
L 41.687102 33.03134 
L 41.668013 33.03134 
L 41.649012 33.03134 
L 41.630098 33.03134 
L 41.611271 33.03134 
L 41.592531 33.03134 
L 41.573877 33.03134 
L 41.555309 33.03134 
L 41.536827 33.03134 
L 41.518429 33.03134 
L 41.500116 33.03134 
L 41.481887 33.03134 
L 41.463742 33.03134 
L 41.44568 33.03134 
L 41.427702 33.03134 
L 41.409806 33.03134 
L 41.391993 33.03134 
L 41.374261 33.03134 
L 41.356611 33.03134 
L 41.339042 33.03134 
L 41.321554 33.03134 
L 41.304147 33.03134 
L 41.286819 33.03134 
L 41.269571 33.03134 
L 41.252403 33.03134 
L 41.235313 33.03134 
L 41.218302 33.03134 
L 41.201369 33.03134 
L 41.184514 33.03134 
L 41.167737 33.03134 
L 41.151037 33.03134 
L 41.134414 33.03134 
L 41.117867 33.03134 
L 41.101396 33.03134 
L 41.085001 33.03134 
L 41.068681 33.03134 
L 41.052436 33.03134 
L 41.036267 33.03134 
L 41.020171 33.03134 
L 41.004149 33.03134 
L 40.988202 33.03134 
L 40.972327 32.995759 
L 40.956526 33.031039 
L 40.940797 33.03134 
L 40.92514 33.03134 
L 40.909556 33.03134 
L 40.894043 33.03134 
L 40.878602 33.03134 
L 40.863231 33.03134 
L 40.847932 33.03134 
L 40.832702 33.03134 
L 40.817543 33.03134 
L 40.802453 33.03134 
L 40.787433 33.03134 
L 40.772482 33.03134 
L 40.7576 33.03134 
L 40.742786 33.03134 
L 40.72804 33.03134 
L 40.713362 33.03134 
L 40.698752 33.03134 
L 40.684209 33.03134 
L 40.669732 33.03134 
L 40.655322 33.03134 
L 40.640979 33.03134 
L 40.626701 33.03134 
L 40.61249 33.03134 
L 40.598343 33.03134 
L 40.584262 33.03134 
L 40.570245 33.03134 
L 40.556293 33.03134 
L 40.542405 33.03134 
L 40.52858 33.03134 
L 40.51482 33.03134 
L 40.501123 33.03134 
L 40.487488 33.03134 
L 40.473917 33.03134 
L 40.460407 33.03134 
L 40.44696 33.03134 
L 40.433575 33.03134 
L 40.420252 33.03134 
L 40.406989 33.03134 
L 40.393788 33.03134 
L 40.380647 33.03134 
L 40.367567 33.03134 
L 40.354547 33.03134 
L 40.341587 33.03134 
L 40.328686 33.03134 
L 40.315845 33.03134 
L 40.303063 33.03134 
L 40.290339 33.03134 
L 40.277674 33.03134 
L 40.265068 33.03134 
L 40.252519 33.03134 
L 40.240028 33.03134 
L 40.227595 33.03134 
L 40.215218 33.03134 
L 40.202899 33.03134 
L 40.190636 33.03134 
L 40.17843 33.03134 
L 40.16628 33.03134 
L 40.154185 33.03134 
L 40.142147 33.03134 
L 40.130163 33.03134 
L 40.118235 33.03134 
L 40.106362 33.03134 
L 40.094543 33.03134 
L 40.082779 33.03134 
L 40.071068 33.03134 
L 40.059412 33.03134 
L 40.047809 33.03134 
L 40.03626 33.03134 
L 40.024763 33.03134 
L 40.01332 33.03134 
L 40.001929 33.03134 
L 39.990591 33.03134 
L 39.979304 33.03134 
L 39.96807 33.03134 
L 39.956887 33.03134 
L 39.945756 33.03134 
L 39.934676 33.03134 
L 39.923647 33.03134 
L 39.912668 33.03134 
L 39.90174 33.03134 
L 39.890863 33.03134 
L 39.880035 33.03134 
L 39.869257 33.03134 
L 39.858529 33.03134 
L 39.84785 33.03134 
L 39.83722 33.03134 
L 39.826639 33.03134 
L 39.816107 33.03134 
L 39.805623 33.03134 
L 39.795188 33.03134 
L 39.7848 33.03134 
L 39.77446 33.03134 
L 39.764168 33.03134 
L 39.753923 33.03134 
L 39.743725 33.03134 
L 39.733574 33.03134 
L 39.72347 33.03134 
L 39.713412 33.03134 
L 39.703401 33.03134 
L 39.693436 33.03134 
L 39.683516 33.03134 
L 39.673642 33.03134 
L 39.663813 33.03134 
L 39.65403 33.03134 
L 39.644292 33.03134 
L 39.634598 33.03134 
L 39.624949 33.03134 
L 39.615344 33.03134 
L 39.605784 33.03134 
L 39.596267 33.03134 
L 39.586795 33.03134 
L 39.577365 33.03134 
L 39.56798 33.03134 
L 39.558637 33.03134 
L 39.549337 33.03134 
L 39.54008 33.03134 
L 39.530866 33.03134 
L 39.521694 33.03134 
L 39.512564 33.03134 
L 39.503477 33.03134 
L 39.494431 33.03134 
L 39.485426 33.03134 
L 39.476463 33.03134 
L 39.467542 33.03134 
L 39.458661 33.03134 
L 39.449821 33.03134 
L 39.441022 33.03134 
L 39.432263 33.03134 
L 39.423545 33.03134 
L 39.414866 33.03134 
L 39.406228 33.03134 
L 39.397629 33.03134 
L 39.38907 33.03134 
L 39.38055 33.03134 
L 39.37207 33.03134 
L 39.363628 33.03134 
L 39.355225 33.03134 
L 39.346861 33.03134 
L 39.338536 33.03134 
L 39.330248 33.03134 
L 39.321999 33.03134 
L 39.313788 33.03134 
L 39.305614 33.03134 
L 39.297478 33.03134 
L 39.289379 33.031339 
L 39.281318 25.532316 
z
" style="fill:#1f77b4;fill-opacity:0.1;"/>
   </g>
   <g id="matplotlib.axis_1">
    <g id="xtick_1">
     <g id="line2d_1">
      <defs>
       <path d="M 0 0 
L 0 3.5 
" id="m7c72cc1395" style="stroke:#000000;stroke-width:0.8;"/>
      </defs>
      <g>
       <use style="stroke:#000000;stroke-width:0.8;" x="37.536607" xlink:href="#m7c72cc1395" y="132.577561"/>
      </g>
     </g>
     <g id="text_1">
      <!-- 0 -->
      <g transform="translate(34.991607 145.656311)scale(0.08 -0.08)">
       <defs>
        <path d="M 2034 4250 
Q 1547 4250 1301 3770 
Q 1056 3291 1056 2328 
Q 1056 1369 1301 889 
Q 1547 409 2034 409 
Q 2525 409 2770 889 
Q 3016 1369 3016 2328 
Q 3016 3291 2770 3770 
Q 2525 4250 2034 4250 
z
M 2034 4750 
Q 2819 4750 3233 4129 
Q 3647 3509 3647 2328 
Q 3647 1150 3233 529 
Q 2819 -91 2034 -91 
Q 1250 -91 836 529 
Q 422 1150 422 2328 
Q 422 3509 836 4129 
Q 1250 4750 2034 4750 
z
" id="DejaVuSans-30" transform="scale(0.015625)"/>
       </defs>
       <use xlink:href="#DejaVuSans-30"/>
      </g>
     </g>
    </g>
    <g id="xtick_2">
     <g id="line2d_2">
      <g>
       <use style="stroke:#000000;stroke-width:0.8;" x="72.430822" xlink:href="#m7c72cc1395" y="132.577561"/>
      </g>
     </g>
     <g id="text_2">
      <!-- 2 -->
      <g transform="translate(69.885822 145.656311)scale(0.08 -0.08)">
       <defs>
        <path d="M 1228 531 
L 3431 531 
L 3431 0 
L 469 0 
L 469 531 
Q 828 903 1448 1529 
Q 2069 2156 2228 2338 
Q 2531 2678 2651 2914 
Q 2772 3150 2772 3378 
Q 2772 3750 2511 3984 
Q 2250 4219 1831 4219 
Q 1534 4219 1204 4116 
Q 875 4013 500 3803 
L 500 4441 
Q 881 4594 1212 4672 
Q 1544 4750 1819 4750 
Q 2544 4750 2975 4387 
Q 3406 4025 3406 3419 
Q 3406 3131 3298 2873 
Q 3191 2616 2906 2266 
Q 2828 2175 2409 1742 
Q 1991 1309 1228 531 
z
" id="DejaVuSans-32" transform="scale(0.015625)"/>
       </defs>
       <use xlink:href="#DejaVuSans-32"/>
      </g>
     </g>
    </g>
    <g id="xtick_3">
     <g id="line2d_3">
      <g>
       <use style="stroke:#000000;stroke-width:0.8;" x="107.325037" xlink:href="#m7c72cc1395" y="132.577561"/>
      </g>
     </g>
     <g id="text_3">
      <!-- 4 -->
      <g transform="translate(104.780037 145.656311)scale(0.08 -0.08)">
       <defs>
        <path d="M 2419 4116 
L 825 1625 
L 2419 1625 
L 2419 4116 
z
M 2253 4666 
L 3047 4666 
L 3047 1625 
L 3713 1625 
L 3713 1100 
L 3047 1100 
L 3047 0 
L 2419 0 
L 2419 1100 
L 313 1100 
L 313 1709 
L 2253 4666 
z
" id="DejaVuSans-34" transform="scale(0.015625)"/>
       </defs>
       <use xlink:href="#DejaVuSans-34"/>
      </g>
     </g>
    </g>
    <g id="xtick_4">
     <g id="line2d_4">
      <g>
       <use style="stroke:#000000;stroke-width:0.8;" x="142.219252" xlink:href="#m7c72cc1395" y="132.577561"/>
      </g>
     </g>
     <g id="text_4">
      <!-- 6 -->
      <g transform="translate(139.674252 145.656311)scale(0.08 -0.08)">
       <defs>
        <path d="M 2113 2584 
Q 1688 2584 1439 2293 
Q 1191 2003 1191 1497 
Q 1191 994 1439 701 
Q 1688 409 2113 409 
Q 2538 409 2786 701 
Q 3034 994 3034 1497 
Q 3034 2003 2786 2293 
Q 2538 2584 2113 2584 
z
M 3366 4563 
L 3366 3988 
Q 3128 4100 2886 4159 
Q 2644 4219 2406 4219 
Q 1781 4219 1451 3797 
Q 1122 3375 1075 2522 
Q 1259 2794 1537 2939 
Q 1816 3084 2150 3084 
Q 2853 3084 3261 2657 
Q 3669 2231 3669 1497 
Q 3669 778 3244 343 
Q 2819 -91 2113 -91 
Q 1303 -91 875 529 
Q 447 1150 447 2328 
Q 447 3434 972 4092 
Q 1497 4750 2381 4750 
Q 2619 4750 2861 4703 
Q 3103 4656 3366 4563 
z
" id="DejaVuSans-36" transform="scale(0.015625)"/>
       </defs>
       <use xlink:href="#DejaVuSans-36"/>
      </g>
     </g>
    </g>
    <g id="xtick_5">
     <g id="line2d_5">
      <g>
       <use style="stroke:#000000;stroke-width:0.8;" x="177.113467" xlink:href="#m7c72cc1395" y="132.577561"/>
      </g>
     </g>
     <g id="text_5">
      <!-- 8 -->
      <g transform="translate(174.568467 145.656311)scale(0.08 -0.08)">
       <defs>
        <path d="M 2034 2216 
Q 1584 2216 1326 1975 
Q 1069 1734 1069 1313 
Q 1069 891 1326 650 
Q 1584 409 2034 409 
Q 2484 409 2743 651 
Q 3003 894 3003 1313 
Q 3003 1734 2745 1975 
Q 2488 2216 2034 2216 
z
M 1403 2484 
Q 997 2584 770 2862 
Q 544 3141 544 3541 
Q 544 4100 942 4425 
Q 1341 4750 2034 4750 
Q 2731 4750 3128 4425 
Q 3525 4100 3525 3541 
Q 3525 3141 3298 2862 
Q 3072 2584 2669 2484 
Q 3125 2378 3379 2068 
Q 3634 1759 3634 1313 
Q 3634 634 3220 271 
Q 2806 -91 2034 -91 
Q 1263 -91 848 271 
Q 434 634 434 1313 
Q 434 1759 690 2068 
Q 947 2378 1403 2484 
z
M 1172 3481 
Q 1172 3119 1398 2916 
Q 1625 2713 2034 2713 
Q 2441 2713 2670 2916 
Q 2900 3119 2900 3481 
Q 2900 3844 2670 4047 
Q 2441 4250 2034 4250 
Q 1625 4250 1398 4047 
Q 1172 3844 1172 3481 
z
" id="DejaVuSans-38" transform="scale(0.015625)"/>
       </defs>
       <use xlink:href="#DejaVuSans-38"/>
      </g>
     </g>
    </g>
    <g id="xtick_6">
     <g id="line2d_6">
      <g>
       <use style="stroke:#000000;stroke-width:0.8;" x="212.007682" xlink:href="#m7c72cc1395" y="132.577561"/>
      </g>
     </g>
     <g id="text_6">
      <!-- 10 -->
      <g transform="translate(206.917682 145.656311)scale(0.08 -0.08)">
       <defs>
        <path d="M 794 531 
L 1825 531 
L 1825 4091 
L 703 3866 
L 703 4441 
L 1819 4666 
L 2450 4666 
L 2450 531 
L 3481 531 
L 3481 0 
L 794 0 
L 794 531 
z
" id="DejaVuSans-31" transform="scale(0.015625)"/>
       </defs>
       <use xlink:href="#DejaVuSans-31"/>
       <use x="63.623047" xlink:href="#DejaVuSans-30"/>
      </g>
     </g>
    </g>
    <g id="text_7">
     <!-- D ($\mu{}m^2$) -->
     <g transform="translate(109.6445 158.600061)scale(0.08 -0.08)">
      <defs>
       <path d="M 1259 4147 
L 1259 519 
L 2022 519 
Q 2988 519 3436 956 
Q 3884 1394 3884 2338 
Q 3884 3275 3436 3711 
Q 2988 4147 2022 4147 
L 1259 4147 
z
M 628 4666 
L 1925 4666 
Q 3281 4666 3915 4102 
Q 4550 3538 4550 2338 
Q 4550 1131 3912 565 
Q 3275 0 1925 0 
L 628 0 
L 628 4666 
z
" id="DejaVuSans-44" transform="scale(0.015625)"/>
       <path id="DejaVuSans-20" transform="scale(0.015625)"/>
       <path d="M 1984 4856 
Q 1566 4138 1362 3434 
Q 1159 2731 1159 2009 
Q 1159 1288 1364 580 
Q 1569 -128 1984 -844 
L 1484 -844 
Q 1016 -109 783 600 
Q 550 1309 550 2009 
Q 550 2706 781 3412 
Q 1013 4119 1484 4856 
L 1984 4856 
z
" id="DejaVuSans-28" transform="scale(0.015625)"/>
       <path d="M -84 -1331 
L 856 3500 
L 1434 3500 
L 1009 1322 
Q 997 1256 987 1175 
Q 978 1094 978 1013 
Q 978 722 1161 565 
Q 1344 409 1684 409 
Q 2147 409 2431 671 
Q 2716 934 2816 1459 
L 3213 3500 
L 3788 3500 
L 3266 809 
Q 3253 750 3248 706 
Q 3244 663 3244 628 
Q 3244 531 3283 486 
Q 3322 441 3406 441 
Q 3438 441 3492 456 
Q 3547 472 3647 513 
L 3559 50 
Q 3422 -19 3297 -55 
Q 3172 -91 3053 -91 
Q 2847 -91 2730 40 
Q 2613 172 2613 403 
Q 2438 153 2195 31 
Q 1953 -91 1625 -91 
Q 1334 -91 1117 43 
Q 900 178 831 397 
L 494 -1331 
L -84 -1331 
z
" id="DejaVuSans-Oblique-3bc" transform="scale(0.015625)"/>
       <path d="M 5747 2113 
L 5338 0 
L 4763 0 
L 5166 2094 
Q 5191 2228 5203 2325 
Q 5216 2422 5216 2491 
Q 5216 2772 5059 2928 
Q 4903 3084 4622 3084 
Q 4203 3084 3875 2770 
Q 3547 2456 3450 1953 
L 3066 0 
L 2491 0 
L 2900 2094 
Q 2925 2209 2937 2307 
Q 2950 2406 2950 2484 
Q 2950 2769 2794 2926 
Q 2638 3084 2363 3084 
Q 1938 3084 1609 2770 
Q 1281 2456 1184 1953 
L 800 0 
L 225 0 
L 909 3500 
L 1484 3500 
L 1375 2956 
Q 1609 3263 1923 3423 
Q 2238 3584 2597 3584 
Q 2978 3584 3223 3384 
Q 3469 3184 3519 2828 
Q 3781 3197 4126 3390 
Q 4472 3584 4856 3584 
Q 5306 3584 5551 3325 
Q 5797 3066 5797 2591 
Q 5797 2488 5784 2364 
Q 5772 2241 5747 2113 
z
" id="DejaVuSans-Oblique-6d" transform="scale(0.015625)"/>
       <path d="M 513 4856 
L 1013 4856 
Q 1481 4119 1714 3412 
Q 1947 2706 1947 2009 
Q 1947 1309 1714 600 
Q 1481 -109 1013 -844 
L 513 -844 
Q 928 -128 1133 580 
Q 1338 1288 1338 2009 
Q 1338 2731 1133 3434 
Q 928 4138 513 4856 
z
" id="DejaVuSans-29" transform="scale(0.015625)"/>
      </defs>
      <use transform="translate(0 0.765625)" xlink:href="#DejaVuSans-44"/>
      <use transform="translate(77.001953 0.765625)" xlink:href="#DejaVuSans-20"/>
      <use transform="translate(108.789062 0.765625)" xlink:href="#DejaVuSans-28"/>
      <use transform="translate(147.802734 0.765625)" xlink:href="#DejaVuSans-Oblique-3bc"/>
      <use transform="translate(211.425781 0.765625)" xlink:href="#DejaVuSans-Oblique-6d"/>
      <use transform="translate(313.487786 39.046875)scale(0.7)" xlink:href="#DejaVuSans-32"/>
      <use transform="translate(360.758294 0.765625)" xlink:href="#DejaVuSans-29"/>
     </g>
    </g>
   </g>
   <g id="matplotlib.axis_2">
    <g id="ytick_1">
     <g id="line2d_7">
      <defs>
       <path d="M 0 0 
L -3.5 0 
" id="m0499f2b926" style="stroke:#000000;stroke-width:0.8;"/>
      </defs>
      <g>
       <use style="stroke:#000000;stroke-width:0.8;" x="30.645" xlink:href="#m0499f2b926" y="72.584711"/>
      </g>
     </g>
     <g id="text_8">
      <!-- $\mathdefault{10^{0}}$ -->
      <g transform="translate(9.565 75.624086)scale(0.08 -0.08)">
       <use transform="translate(0 0.765625)" xlink:href="#DejaVuSans-31"/>
       <use transform="translate(63.623047 0.765625)" xlink:href="#DejaVuSans-30"/>
       <use transform="translate(128.203125 39.046875)scale(0.7)" xlink:href="#DejaVuSans-30"/>
      </g>
     </g>
    </g>
    <g id="ytick_2">
     <g id="line2d_8">
      <defs>
       <path d="M 0 0 
L -2 0 
" id="mb2fc80c0db" style="stroke:#000000;stroke-width:0.6;"/>
      </defs>
      <g>
       <use style="stroke:#000000;stroke-width:0.6;" x="30.645" xlink:href="#mb2fc80c0db" y="124.745098"/>
      </g>
     </g>
    </g>
    <g id="ytick_3">
     <g id="line2d_9">
      <g>
       <use style="stroke:#000000;stroke-width:0.6;" x="30.645" xlink:href="#mb2fc80c0db" y="111.604351"/>
      </g>
     </g>
    </g>
    <g id="ytick_4">
     <g id="line2d_10">
      <g>
       <use style="stroke:#000000;stroke-width:0.6;" x="30.645" xlink:href="#mb2fc80c0db" y="102.280842"/>
      </g>
     </g>
    </g>
    <g id="ytick_5">
     <g id="line2d_11">
      <g>
       <use style="stroke:#000000;stroke-width:0.6;" x="30.645" xlink:href="#mb2fc80c0db" y="95.048967"/>
      </g>
     </g>
    </g>
    <g id="ytick_6">
     <g id="line2d_12">
      <g>
       <use style="stroke:#000000;stroke-width:0.6;" x="30.645" xlink:href="#mb2fc80c0db" y="89.140095"/>
      </g>
     </g>
    </g>
    <g id="ytick_7">
     <g id="line2d_13">
      <g>
       <use style="stroke:#000000;stroke-width:0.6;" x="30.645" xlink:href="#mb2fc80c0db" y="84.144214"/>
      </g>
     </g>
    </g>
    <g id="ytick_8">
     <g id="line2d_14">
      <g>
       <use style="stroke:#000000;stroke-width:0.6;" x="30.645" xlink:href="#mb2fc80c0db" y="79.816586"/>
      </g>
     </g>
    </g>
    <g id="ytick_9">
     <g id="line2d_15">
      <g>
       <use style="stroke:#000000;stroke-width:0.6;" x="30.645" xlink:href="#mb2fc80c0db" y="75.999347"/>
      </g>
     </g>
    </g>
    <g id="ytick_10">
     <g id="line2d_16">
      <g>
       <use style="stroke:#000000;stroke-width:0.6;" x="30.645" xlink:href="#mb2fc80c0db" y="50.120455"/>
      </g>
     </g>
    </g>
    <g id="ytick_11">
     <g id="line2d_17">
      <g>
       <use style="stroke:#000000;stroke-width:0.6;" x="30.645" xlink:href="#mb2fc80c0db" y="36.979707"/>
      </g>
     </g>
    </g>
    <g id="ytick_12">
     <g id="line2d_18">
      <g>
       <use style="stroke:#000000;stroke-width:0.6;" x="30.645" xlink:href="#mb2fc80c0db" y="27.656199"/>
      </g>
     </g>
    </g>
    <g id="ytick_13">
     <g id="line2d_19">
      <g>
       <use style="stroke:#000000;stroke-width:0.6;" x="30.645" xlink:href="#mb2fc80c0db" y="20.424324"/>
      </g>
     </g>
    </g>
    <g id="text_9">
     <!-- $||$ Theory - - Experiment $||^2$ -->
     <g transform="translate(3.645 127.699813)rotate(-90)scale(0.08 -0.08)">
      <defs>
       <path d="M 1344 4891 
L 1344 -1509 
L 813 -1509 
L 813 4891 
L 1344 4891 
z
" id="DejaVuSans-7c" transform="scale(0.015625)"/>
       <path d="M -19 4666 
L 3928 4666 
L 3928 4134 
L 2272 4134 
L 2272 0 
L 1638 0 
L 1638 4134 
L -19 4134 
L -19 4666 
z
" id="DejaVuSans-54" transform="scale(0.015625)"/>
       <path d="M 3513 2113 
L 3513 0 
L 2938 0 
L 2938 2094 
Q 2938 2591 2744 2837 
Q 2550 3084 2163 3084 
Q 1697 3084 1428 2787 
Q 1159 2491 1159 1978 
L 1159 0 
L 581 0 
L 581 4863 
L 1159 4863 
L 1159 2956 
Q 1366 3272 1645 3428 
Q 1925 3584 2291 3584 
Q 2894 3584 3203 3211 
Q 3513 2838 3513 2113 
z
" id="DejaVuSans-68" transform="scale(0.015625)"/>
       <path d="M 3597 1894 
L 3597 1613 
L 953 1613 
Q 991 1019 1311 708 
Q 1631 397 2203 397 
Q 2534 397 2845 478 
Q 3156 559 3463 722 
L 3463 178 
Q 3153 47 2828 -22 
Q 2503 -91 2169 -91 
Q 1331 -91 842 396 
Q 353 884 353 1716 
Q 353 2575 817 3079 
Q 1281 3584 2069 3584 
Q 2775 3584 3186 3129 
Q 3597 2675 3597 1894 
z
M 3022 2063 
Q 3016 2534 2758 2815 
Q 2500 3097 2075 3097 
Q 1594 3097 1305 2825 
Q 1016 2553 972 2059 
L 3022 2063 
z
" id="DejaVuSans-65" transform="scale(0.015625)"/>
       <path d="M 1959 3097 
Q 1497 3097 1228 2736 
Q 959 2375 959 1747 
Q 959 1119 1226 758 
Q 1494 397 1959 397 
Q 2419 397 2687 759 
Q 2956 1122 2956 1747 
Q 2956 2369 2687 2733 
Q 2419 3097 1959 3097 
z
M 1959 3584 
Q 2709 3584 3137 3096 
Q 3566 2609 3566 1747 
Q 3566 888 3137 398 
Q 2709 -91 1959 -91 
Q 1206 -91 779 398 
Q 353 888 353 1747 
Q 353 2609 779 3096 
Q 1206 3584 1959 3584 
z
" id="DejaVuSans-6f" transform="scale(0.015625)"/>
       <path d="M 2631 2963 
Q 2534 3019 2420 3045 
Q 2306 3072 2169 3072 
Q 1681 3072 1420 2755 
Q 1159 2438 1159 1844 
L 1159 0 
L 581 0 
L 581 3500 
L 1159 3500 
L 1159 2956 
Q 1341 3275 1631 3429 
Q 1922 3584 2338 3584 
Q 2397 3584 2469 3576 
Q 2541 3569 2628 3553 
L 2631 2963 
z
" id="DejaVuSans-72" transform="scale(0.015625)"/>
       <path d="M 2059 -325 
Q 1816 -950 1584 -1140 
Q 1353 -1331 966 -1331 
L 506 -1331 
L 506 -850 
L 844 -850 
Q 1081 -850 1212 -737 
Q 1344 -625 1503 -206 
L 1606 56 
L 191 3500 
L 800 3500 
L 1894 763 
L 2988 3500 
L 3597 3500 
L 2059 -325 
z
" id="DejaVuSans-79" transform="scale(0.015625)"/>
       <path d="M 313 2009 
L 1997 2009 
L 1997 1497 
L 313 1497 
L 313 2009 
z
" id="DejaVuSans-2d" transform="scale(0.015625)"/>
       <path d="M 628 4666 
L 3578 4666 
L 3578 4134 
L 1259 4134 
L 1259 2753 
L 3481 2753 
L 3481 2222 
L 1259 2222 
L 1259 531 
L 3634 531 
L 3634 0 
L 628 0 
L 628 4666 
z
" id="DejaVuSans-45" transform="scale(0.015625)"/>
       <path d="M 3513 3500 
L 2247 1797 
L 3578 0 
L 2900 0 
L 1881 1375 
L 863 0 
L 184 0 
L 1544 1831 
L 300 3500 
L 978 3500 
L 1906 2253 
L 2834 3500 
L 3513 3500 
z
" id="DejaVuSans-78" transform="scale(0.015625)"/>
       <path d="M 1159 525 
L 1159 -1331 
L 581 -1331 
L 581 3500 
L 1159 3500 
L 1159 2969 
Q 1341 3281 1617 3432 
Q 1894 3584 2278 3584 
Q 2916 3584 3314 3078 
Q 3713 2572 3713 1747 
Q 3713 922 3314 415 
Q 2916 -91 2278 -91 
Q 1894 -91 1617 61 
Q 1341 213 1159 525 
z
M 3116 1747 
Q 3116 2381 2855 2742 
Q 2594 3103 2138 3103 
Q 1681 3103 1420 2742 
Q 1159 2381 1159 1747 
Q 1159 1113 1420 752 
Q 1681 391 2138 391 
Q 2594 391 2855 752 
Q 3116 1113 3116 1747 
z
" id="DejaVuSans-70" transform="scale(0.015625)"/>
       <path d="M 603 3500 
L 1178 3500 
L 1178 0 
L 603 0 
L 603 3500 
z
M 603 4863 
L 1178 4863 
L 1178 4134 
L 603 4134 
L 603 4863 
z
" id="DejaVuSans-69" transform="scale(0.015625)"/>
       <path d="M 3328 2828 
Q 3544 3216 3844 3400 
Q 4144 3584 4550 3584 
Q 5097 3584 5394 3201 
Q 5691 2819 5691 2113 
L 5691 0 
L 5113 0 
L 5113 2094 
Q 5113 2597 4934 2840 
Q 4756 3084 4391 3084 
Q 3944 3084 3684 2787 
Q 3425 2491 3425 1978 
L 3425 0 
L 2847 0 
L 2847 2094 
Q 2847 2600 2669 2842 
Q 2491 3084 2119 3084 
Q 1678 3084 1418 2786 
Q 1159 2488 1159 1978 
L 1159 0 
L 581 0 
L 581 3500 
L 1159 3500 
L 1159 2956 
Q 1356 3278 1631 3431 
Q 1906 3584 2284 3584 
Q 2666 3584 2933 3390 
Q 3200 3197 3328 2828 
z
" id="DejaVuSans-6d" transform="scale(0.015625)"/>
       <path d="M 3513 2113 
L 3513 0 
L 2938 0 
L 2938 2094 
Q 2938 2591 2744 2837 
Q 2550 3084 2163 3084 
Q 1697 3084 1428 2787 
Q 1159 2491 1159 1978 
L 1159 0 
L 581 0 
L 581 3500 
L 1159 3500 
L 1159 2956 
Q 1366 3272 1645 3428 
Q 1925 3584 2291 3584 
Q 2894 3584 3203 3211 
Q 3513 2838 3513 2113 
z
" id="DejaVuSans-6e" transform="scale(0.015625)"/>
       <path d="M 1172 4494 
L 1172 3500 
L 2356 3500 
L 2356 3053 
L 1172 3053 
L 1172 1153 
Q 1172 725 1289 603 
Q 1406 481 1766 481 
L 2356 481 
L 2356 0 
L 1766 0 
Q 1100 0 847 248 
Q 594 497 594 1153 
L 594 3053 
L 172 3053 
L 172 3500 
L 594 3500 
L 594 4494 
L 1172 4494 
z
" id="DejaVuSans-74" transform="scale(0.015625)"/>
      </defs>
      <use transform="translate(0 0.765625)" xlink:href="#DejaVuSans-7c"/>
      <use transform="translate(33.691406 0.765625)" xlink:href="#DejaVuSans-7c"/>
      <use transform="translate(67.382812 0.765625)" xlink:href="#DejaVuSans-20"/>
      <use transform="translate(99.169922 0.765625)" xlink:href="#DejaVuSans-54"/>
      <use transform="translate(160.253906 0.765625)" xlink:href="#DejaVuSans-68"/>
      <use transform="translate(223.632812 0.765625)" xlink:href="#DejaVuSans-65"/>
      <use transform="translate(285.15625 0.765625)" xlink:href="#DejaVuSans-6f"/>
      <use transform="translate(346.337891 0.765625)" xlink:href="#DejaVuSans-72"/>
      <use transform="translate(387.451172 0.765625)" xlink:href="#DejaVuSans-79"/>
      <use transform="translate(446.630859 0.765625)" xlink:href="#DejaVuSans-20"/>
      <use transform="translate(478.417969 0.765625)" xlink:href="#DejaVuSans-2d"/>
      <use transform="translate(514.501953 0.765625)" xlink:href="#DejaVuSans-2d"/>
      <use transform="translate(550.585938 0.765625)" xlink:href="#DejaVuSans-20"/>
      <use transform="translate(582.373047 0.765625)" xlink:href="#DejaVuSans-45"/>
      <use transform="translate(645.556641 0.765625)" xlink:href="#DejaVuSans-78"/>
      <use transform="translate(704.736328 0.765625)" xlink:href="#DejaVuSans-70"/>
      <use transform="translate(768.212891 0.765625)" xlink:href="#DejaVuSans-65"/>
      <use transform="translate(829.736328 0.765625)" xlink:href="#DejaVuSans-72"/>
      <use transform="translate(870.849609 0.765625)" xlink:href="#DejaVuSans-69"/>
      <use transform="translate(898.632812 0.765625)" xlink:href="#DejaVuSans-6d"/>
      <use transform="translate(996.044922 0.765625)" xlink:href="#DejaVuSans-65"/>
      <use transform="translate(1057.568359 0.765625)" xlink:href="#DejaVuSans-6e"/>
      <use transform="translate(1120.947266 0.765625)" xlink:href="#DejaVuSans-74"/>
      <use transform="translate(1160.15625 0.765625)" xlink:href="#DejaVuSans-20"/>
      <use transform="translate(1191.943359 0.765625)" xlink:href="#DejaVuSans-7c"/>
      <use transform="translate(1225.634766 0.765625)" xlink:href="#DejaVuSans-7c"/>
      <use transform="translate(1260.283203 39.046875)scale(0.7)" xlink:href="#DejaVuSans-32"/>
     </g>
    </g>
   </g>
   <g id="line2d_20">
    <path clip-path="url(#p586bc5fb81)" d="M 39.281318 38.582526 
L 39.397629 52.346965 
L 44.524175 52.346965 
L 44.556461 34.360093 
L 44.62148 52.346965 
L 63.532014 52.346965 
L 63.652123 55.381505 
L 63.772788 52.346946 
L 165.059249 52.346966 
L 165.648457 74.353978 
L 166.240388 52.346965 
L 212.007682 52.346965 
L 212.007682 52.346965 
" style="fill:none;stroke:#1f77b4;stroke-linecap:square;stroke-width:1.5;"/>
   </g>
   <g id="patch_3">
    <path d="M 30.645 132.577561 
L 30.645 18.182066 
" style="fill:none;stroke:#000000;stroke-linecap:square;stroke-linejoin:miter;stroke-width:0.8;"/>
   </g>
   <g id="patch_4">
    <path d="M 220.644 132.577561 
L 220.644 18.182066 
" style="fill:none;stroke:#000000;stroke-linecap:square;stroke-linejoin:miter;stroke-width:0.8;"/>
   </g>
   <g id="patch_5">
    <path d="M 30.645 132.577561 
L 220.644 132.577561 
" style="fill:none;stroke:#000000;stroke-linecap:square;stroke-linejoin:miter;stroke-width:0.8;"/>
   </g>
   <g id="patch_6">
    <path d="M 30.645 18.182066 
L 220.644 18.182066 
" style="fill:none;stroke:#000000;stroke-linecap:square;stroke-linejoin:miter;stroke-width:0.8;"/>
   </g>
   <g id="PathCollection_1">
    <defs>
     <path d="M 0 3.535534 
C 0.937635 3.535534 1.836992 3.163008 2.5 2.5 
C 3.163008 1.836992 3.535534 0.937635 3.535534 0 
C 3.535534 -0.937635 3.163008 -1.836992 2.5 -2.5 
C 1.836992 -3.163008 0.937635 -3.535534 0 -3.535534 
C -0.937635 -3.535534 -1.836992 -3.163008 -2.5 -2.5 
C -3.163008 -1.836992 -3.535534 -0.937635 -3.535534 0 
C -3.535534 0.937635 -3.163008 1.836992 -2.5 2.5 
C -1.836992 3.163008 -0.937635 3.535534 0 3.535534 
z
" id="mc6968078b3" style="stroke:#ff0000;"/>
    </defs>
    <g clip-path="url(#p586bc5fb81)">
     <use style="fill:#ff0000;stroke:#ff0000;" x="49.44265" xlink:href="#mc6968078b3" y="55.157372"/>
     <use style="fill:#ff0000;stroke:#ff0000;" x="85.661794" xlink:href="#mc6968078b3" y="125.04009"/>
     <use style="fill:#ff0000;stroke:#ff0000;" x="39.282237" xlink:href="#mc6968078b3" y="23.381861"/>
     <use style="fill:#ff0000;stroke:#ff0000;" x="44.557439" xlink:href="#mc6968078b3" y="33.037269"/>
     <use style="fill:#ff0000;stroke:#ff0000;" x="40.966142" xlink:href="#mc6968078b3" y="30.539881"/>
     <use style="fill:#ff0000;stroke:#ff0000;" x="165.604035" xlink:href="#mc6968078b3" y="115.894764"/>
     <use style="fill:#ff0000;stroke:#ff0000;" x="63.6822" xlink:href="#mc6968078b3" y="58.603568"/>
     <use style="fill:#ff0000;stroke:#ff0000;" x="63.67824" xlink:href="#mc6968078b3" y="84.84014"/>
     <use style="fill:#ff0000;stroke:#ff0000;" x="165.546763" xlink:href="#mc6968078b3" y="79.985877"/>
     <use style="fill:#ff0000;stroke:#ff0000;" x="63.662045" xlink:href="#mc6968078b3" y="86.519154"/>
    </g>
   </g>
  </g>
 </g>
 <defs>
  <clipPath id="p586bc5fb81">
   <rect height="114.395496" width="189.999" x="30.645" y="18.182066"/>
  </clipPath>
 </defs>
</svg>
