<?xml version="1.0" encoding="utf-8" standalone="no"?>
<!DOCTYPE svg PUBLIC "-//W3C//DTD SVG 1.1//EN"
  "http://www.w3.org/Graphics/SVG/1.1/DTD/svg11.dtd">
<svg height="151.517213pt" version="1.1" viewBox="0 0 245.16 151.517213" width="245.16pt" xmlns="http://www.w3.org/2000/svg" xmlns:xlink="http://www.w3.org/1999/xlink">
 <metadata>
  <rdf:RDF xmlns:cc="http://creativecommons.org/ns#" xmlns:dc="http://purl.org/dc/elements/1.1/" xmlns:rdf="http://www.w3.org/1999/02/22-rdf-syntax-ns#">
   <cc:Work>
    <dc:type rdf:resource="http://purl.org/dc/dcmitype/StillImage"/>
    <dc:date>2020-10-23T02:58:06.087988</dc:date>
    <dc:format>image/svg+xml</dc:format>
    <dc:creator>
     <cc:Agent>
      <dc:title>Matplotlib v3.3.2.post1425+g0d1f34338, https://matplotlib.org/</dc:title>
     </cc:Agent>
    </dc:creator>
   </cc:Work>
  </rdf:RDF>
 </metadata>
 <defs>
  <style type="text/css">*{stroke-linecap:butt;stroke-linejoin:round;}</style>
 </defs>
 <g id="figure_1">
  <g id="patch_1">
   <path d="M 0 151.517213 
L 245.16 151.517213 
L 245.16 0 
L 0 0 
z
" style="fill:none;"/>
  </g>
  <g id="axes_1">
   <g id="patch_2">
    <path d="M 30.645 132.577561 
L 220.644 132.577561 
L 220.644 18.182066 
L 30.645 18.182066 
z
" style="fill:#ffffff;"/>
   </g>
   <g id="PolyCollection_1">
    <path clip-path="url(#p58b5c8e3a8)" d="M 39.281318 127.377766 
L 39.281318 127.300808 
L 39.289379 127.172528 
L 39.297478 127.008116 
L 39.305614 126.840051 
L 39.313788 126.670567 
L 39.321999 126.500129 
L 39.330248 126.328902 
L 39.338536 126.156969 
L 39.346861 125.98438 
L 39.355225 125.811173 
L 39.363628 125.637378 
L 39.37207 125.463023 
L 39.38055 125.288131 
L 39.38907 125.112727 
L 39.397629 124.936833 
L 39.406228 124.760471 
L 39.414866 124.583662 
L 39.423545 124.406427 
L 39.432263 124.228789 
L 39.441022 124.050766 
L 39.449821 123.872381 
L 39.458661 123.693653 
L 39.467542 123.514602 
L 39.476463 123.335249 
L 39.485426 123.155614 
L 39.494431 122.975717 
L 39.503477 122.795578 
L 39.512564 122.615215 
L 39.521694 122.43465 
L 39.530866 122.253901 
L 39.54008 122.072987 
L 39.549337 121.891928 
L 39.558637 121.710742 
L 39.56798 121.529449 
L 39.577365 121.348068 
L 39.586795 121.166616 
L 39.596267 120.985113 
L 39.605784 120.803577 
L 39.615344 120.622025 
L 39.624949 120.440477 
L 39.634598 120.258949 
L 39.644292 120.077459 
L 39.65403 119.896024 
L 39.663813 119.714663 
L 39.673642 119.533392 
L 39.683516 119.352228 
L 39.693436 119.171187 
L 39.703401 118.990287 
L 39.713412 118.809543 
L 39.72347 118.628972 
L 39.733574 118.448589 
L 39.743725 118.268411 
L 39.753923 118.088451 
L 39.764168 117.908727 
L 39.77446 117.729253 
L 39.7848 117.550043 
L 39.795188 117.371113 
L 39.805623 117.192476 
L 39.816107 117.014146 
L 39.826639 116.836138 
L 39.83722 116.658465 
L 39.84785 116.48114 
L 39.858529 116.304176 
L 39.869257 116.127587 
L 39.880035 115.951384 
L 39.890863 115.77558 
L 39.90174 115.600187 
L 39.912668 115.425217 
L 39.923647 115.25068 
L 39.934676 115.076589 
L 39.945756 114.902954 
L 39.956887 114.729786 
L 39.96807 114.557095 
L 39.979304 114.384891 
L 39.990591 114.213183 
L 40.001929 114.041982 
L 40.01332 113.871295 
L 40.024763 113.701133 
L 40.03626 113.531503 
L 40.047809 113.362414 
L 40.059412 113.193873 
L 40.071068 113.025888 
L 40.082779 112.858467 
L 40.094543 112.691615 
L 40.106362 112.52534 
L 40.118235 112.359648 
L 40.130163 112.194544 
L 40.142147 112.030035 
L 40.154185 111.866125 
L 40.16628 111.702819 
L 40.17843 111.540122 
L 40.190636 111.378038 
L 40.202899 111.21657 
L 40.215218 111.055723 
L 40.227595 110.895498 
L 40.240028 110.7359 
L 40.252519 110.57693 
L 40.265068 110.41859 
L 40.277674 110.260882 
L 40.290339 110.103807 
L 40.303063 109.947366 
L 40.315845 109.79156 
L 40.328686 109.636388 
L 40.341587 109.481851 
L 40.354547 109.327947 
L 40.367567 109.174676 
L 40.380647 109.022036 
L 40.393788 108.870025 
L 40.406989 108.718642 
L 40.420252 108.567883 
L 40.433575 108.417746 
L 40.44696 108.268227 
L 40.460407 108.119322 
L 40.473917 107.971027 
L 40.487488 107.823338 
L 40.501123 107.676249 
L 40.51482 107.529755 
L 40.52858 107.383849 
L 40.542405 107.238527 
L 40.556293 107.09378 
L 40.570245 106.949603 
L 40.584262 106.805986 
L 40.598343 106.662922 
L 40.61249 106.520403 
L 40.626701 106.378419 
L 40.640979 106.236962 
L 40.655322 106.096021 
L 40.669732 105.955585 
L 40.684209 105.815645 
L 40.698752 105.676187 
L 40.713362 105.537202 
L 40.72804 105.398674 
L 40.742786 105.260593 
L 40.7576 105.122943 
L 40.772482 104.985709 
L 40.787433 104.848876 
L 40.802453 104.712427 
L 40.817543 104.576341 
L 40.832702 104.440598 
L 40.847932 104.305172 
L 40.863231 104.170031 
L 40.878602 104.035129 
L 40.894043 103.900399 
L 40.909556 103.765714 
L 40.92514 103.630791 
L 40.940797 103.494739 
L 40.956526 103.352788 
L 40.972327 103.168344 
L 40.988202 102.92926 
L 41.004149 102.681141 
L 41.020171 102.431657 
L 41.036267 102.182033 
L 41.052436 101.93264 
L 41.068681 101.683641 
L 41.085001 101.435131 
L 41.101396 101.187173 
L 41.117867 100.939817 
L 41.134414 100.693107 
L 41.151037 100.447081 
L 41.167737 100.201773 
L 41.184514 99.957217 
L 41.201369 99.713445 
L 41.218302 99.470486 
L 41.235313 99.22837 
L 41.252403 98.987126 
L 41.269571 98.746781 
L 41.286819 98.507361 
L 41.304147 98.268894 
L 41.321554 98.031404 
L 41.339042 97.794916 
L 41.356611 97.559455 
L 41.374261 97.325044 
L 41.391993 97.091706 
L 41.409806 96.859463 
L 41.427702 96.628338 
L 41.44568 96.398351 
L 41.463742 96.169524 
L 41.481887 95.941876 
L 41.500116 95.715428 
L 41.518429 95.490197 
L 41.536827 95.266202 
L 41.555309 95.043462 
L 41.573877 94.821994 
L 41.592531 94.601814 
L 41.611271 94.382938 
L 41.630098 94.165383 
L 41.649012 93.949163 
L 41.668013 93.734294 
L 41.687102 93.520788 
L 41.706279 93.308661 
L 41.725544 93.097924 
L 41.744899 92.88859 
L 41.764343 92.680671 
L 41.783877 92.474178 
L 41.803501 92.269123 
L 41.823216 92.065516 
L 41.843022 91.863366 
L 41.862919 91.662683 
L 41.882909 91.463476 
L 41.902991 91.265752 
L 41.923165 91.06952 
L 41.943433 90.874787 
L 41.963794 90.681559 
L 41.98425 90.489843 
L 42.0048 90.299645 
L 42.025445 90.110968 
L 42.046185 89.923819 
L 42.067021 89.738201 
L 42.087953 89.554118 
L 42.108983 89.371573 
L 42.130109 89.190569 
L 42.151333 89.011107 
L 42.172655 88.83319 
L 42.194075 88.656818 
L 42.215595 88.481993 
L 42.237214 88.308714 
L 42.258932 88.13698 
L 42.280752 87.966792 
L 42.302671 87.798148 
L 42.324693 87.631045 
L 42.346816 87.465482 
L 42.369041 87.301456 
L 42.391369 87.138964 
L 42.4138 86.978001 
L 42.436334 86.818563 
L 42.458973 86.660647 
L 42.481717 86.504246 
L 42.504565 86.349355 
L 42.527519 86.195967 
L 42.550579 86.044077 
L 42.573746 85.893677 
L 42.59702 85.744759 
L 42.620401 85.597316 
L 42.64389 85.451339 
L 42.667488 85.306819 
L 42.691195 85.163746 
L 42.715011 85.022112 
L 42.738938 84.881905 
L 42.762975 84.743114 
L 42.787123 84.60573 
L 42.811382 84.469739 
L 42.835754 84.33513 
L 42.860238 84.20189 
L 42.884836 84.070006 
L 42.909547 83.939465 
L 42.934372 83.810253 
L 42.959312 83.682355 
L 42.984367 83.555758 
L 43.009538 83.430445 
L 43.034825 83.306401 
L 43.060229 83.18361 
L 43.085751 83.062056 
L 43.11139 82.941721 
L 43.137148 82.822589 
L 43.163025 82.704641 
L 43.189021 82.58786 
L 43.215138 82.472227 
L 43.241375 82.357724 
L 43.267733 82.244329 
L 43.294214 82.132025 
L 43.320816 82.02079 
L 43.347542 81.910605 
L 43.374391 81.801448 
L 43.401364 81.693298 
L 43.428461 81.586133 
L 43.455684 81.47993 
L 43.483033 81.374669 
L 43.510508 81.270324 
L 43.53811 81.166874 
L 43.565839 81.064295 
L 43.593697 80.962562 
L 43.621683 80.861651 
L 43.649799 80.761537 
L 43.678044 80.662196 
L 43.70642 80.563601 
L 43.734927 80.465726 
L 43.763566 80.368546 
L 43.792337 80.272034 
L 43.821241 80.176162 
L 43.850279 80.080904 
L 43.879451 79.986231 
L 43.908758 79.892116 
L 43.9382 79.798529 
L 43.967778 79.705442 
L 43.997492 79.612826 
L 44.027344 79.52065 
L 44.057334 79.428885 
L 44.087463 79.337499 
L 44.117731 79.246461 
L 44.148138 79.155739 
L 44.178686 79.0653 
L 44.209375 78.97511 
L 44.240206 78.885133 
L 44.27118 78.79533 
L 44.302296 78.70566 
L 44.333557 78.616076 
L 44.364961 78.526519 
L 44.396511 78.436913 
L 44.428207 78.347133 
L 44.460049 78.256946 
L 44.492038 78.165752 
L 44.524175 78.071231 
L 44.556461 77.95802 
L 44.588895 77.792175 
L 44.62148 77.605878 
L 44.654215 77.416348 
L 44.687101 77.226146 
L 44.72014 77.035905 
L 44.753331 76.845863 
L 44.786675 76.656139 
L 44.820173 76.466805 
L 44.853827 76.277909 
L 44.887635 76.089493 
L 44.9216 75.901589 
L 44.955722 75.714227 
L 44.990001 75.527433 
L 45.024439 75.341235 
L 45.059036 75.155654 
L 45.093793 74.970716 
L 45.12871 74.786442 
L 45.163789 74.602853 
L 45.19903 74.419972 
L 45.234433 74.237817 
L 45.27 74.056411 
L 45.305732 73.875771 
L 45.341629 73.695917 
L 45.377691 73.516868 
L 45.41392 73.338641 
L 45.450317 73.161255 
L 45.486881 72.984726 
L 45.523615 72.809071 
L 45.560518 72.634307 
L 45.597592 72.46045 
L 45.634837 72.287515 
L 45.672255 72.115518 
L 45.709845 71.944472 
L 45.747608 71.774392 
L 45.785547 71.605293 
L 45.82366 71.437187 
L 45.86195 71.270088 
L 45.900417 71.104007 
L 45.939061 70.938958 
L 45.977884 70.774951 
L 46.016886 70.611999 
L 46.056069 70.450111 
L 46.095432 70.289299 
L 46.134977 70.129572 
L 46.174706 69.97094 
L 46.214617 69.813411 
L 46.254713 69.656995 
L 46.294995 69.5017 
L 46.335462 69.347534 
L 46.376116 69.194504 
L 46.416959 69.042616 
L 46.45799 68.891878 
L 46.49921 68.742295 
L 46.540621 68.593873 
L 46.582223 68.446617 
L 46.624018 68.300532 
L 46.666006 68.155622 
L 46.708187 68.011892 
L 46.750564 67.869343 
L 46.793136 67.72798 
L 46.835905 67.587805 
L 46.878872 67.448819 
L 46.922037 67.311025 
L 46.965402 67.174424 
L 47.008967 67.039016 
L 47.052733 66.904802 
L 47.096702 66.771781 
L 47.140873 66.639953 
L 47.185249 66.509317 
L 47.22983 66.379872 
L 47.274617 66.251615 
L 47.31961 66.124544 
L 47.364812 65.998656 
L 47.410222 65.873949 
L 47.455843 65.750417 
L 47.501674 65.628058 
L 47.547717 65.506866 
L 47.593972 65.386837 
L 47.640441 65.267965 
L 47.687125 65.150244 
L 47.734025 65.033667 
L 47.781141 64.918229 
L 47.828475 64.803921 
L 47.876028 64.690736 
L 47.923801 64.578666 
L 47.971794 64.467701 
L 48.020009 64.357834 
L 48.068447 64.249055 
L 48.117108 64.141353 
L 48.165994 64.034718 
L 48.215107 63.92914 
L 48.264446 63.824607 
L 48.314013 63.721107 
L 48.363809 63.618628 
L 48.413835 63.517157 
L 48.464093 63.416681 
L 48.514582 63.317186 
L 48.565305 63.218659 
L 48.616262 63.121083 
L 48.667455 63.024443 
L 48.718884 62.928724 
L 48.770551 62.833908 
L 48.822457 62.739976 
L 48.874602 62.646911 
L 48.926988 62.554689 
L 48.979617 62.463289 
L 49.032488 62.372682 
L 49.085604 62.282834 
L 49.138965 62.193701 
L 49.192573 62.105213 
L 49.246429 62.017247 
L 49.300533 61.929524 
L 49.354887 61.841175 
L 49.409493 61.747425 
L 49.46435 61.608876 
L 49.519462 61.411786 
L 49.574827 61.20461 
L 49.630449 60.994915 
L 49.686328 60.783872 
L 49.742465 60.571827 
L 49.798861 60.358927 
L 49.855517 60.145255 
L 49.912436 59.930863 
L 49.969618 59.715793 
L 50.027063 59.50008 
L 50.084775 59.283752 
L 50.142752 59.066839 
L 50.200998 58.849367 
L 50.259513 58.631362 
L 50.318298 58.412848 
L 50.377355 58.19385 
L 50.436684 57.974392 
L 50.496288 57.754497 
L 50.556167 57.534189 
L 50.616323 57.313492 
L 50.676757 57.092428 
L 50.73747 56.87102 
L 50.798464 56.649291 
L 50.859739 56.427264 
L 50.921298 56.204962 
L 50.98314 55.982406 
L 51.045269 55.759618 
L 51.107685 55.536623 
L 51.170389 55.31344 
L 51.233383 55.090093 
L 51.296668 54.866603 
L 51.360245 54.642992 
L 51.424116 54.419281 
L 51.488282 54.195493 
L 51.552745 53.971648 
L 51.617505 53.747768 
L 51.682565 53.523874 
L 51.747925 53.299987 
L 51.813587 53.076128 
L 51.879553 52.852318 
L 51.945823 52.628577 
L 52.0124 52.404927 
L 52.079284 52.181388 
L 52.146478 51.95798 
L 52.213981 51.734724 
L 52.281797 51.511639 
L 52.349926 51.288745 
L 52.41837 51.066063 
L 52.48713 50.843613 
L 52.556208 50.621413 
L 52.625604 50.399483 
L 52.695322 50.177843 
L 52.765362 49.956512 
L 52.835725 49.735509 
L 52.906413 49.514853 
L 52.977428 49.294563 
L 53.048771 49.074658 
L 53.120444 48.855155 
L 53.192448 48.636075 
L 53.264785 48.417434 
L 53.337455 48.199251 
L 53.410462 47.981544 
L 53.483806 47.764331 
L 53.557489 47.547629 
L 53.631512 47.331457 
L 53.705877 47.115831 
L 53.780586 46.90077 
L 53.85564 46.68629 
L 53.931041 46.472408 
L 54.00679 46.259141 
L 54.082889 46.046505 
L 54.15934 45.834519 
L 54.236144 45.623197 
L 54.313303 45.412556 
L 54.390818 45.202613 
L 54.468692 44.993383 
L 54.546925 44.784882 
L 54.62552 44.577126 
L 54.704478 44.370131 
L 54.783801 44.163911 
L 54.86349 43.958483 
L 54.943548 43.753861 
L 55.023975 43.55006 
L 55.104774 43.347095 
L 55.185946 43.144981 
L 55.267494 42.943732 
L 55.349418 42.743363 
L 55.43172 42.543887 
L 55.514403 42.345319 
L 55.597468 42.147673 
L 55.680917 41.950963 
L 55.764752 41.755202 
L 55.848973 41.560403 
L 55.933584 41.36658 
L 56.018586 41.173746 
L 56.10398 40.981913 
L 56.18977 40.791096 
L 56.275955 40.601306 
L 56.362539 40.412555 
L 56.449522 40.224857 
L 56.536908 40.038224 
L 56.624697 39.852667 
L 56.712892 39.668198 
L 56.801495 39.484829 
L 56.890507 39.302572 
L 56.97993 39.121439 
L 57.069766 38.941439 
L 57.160018 38.762585 
L 57.250686 38.584887 
L 57.341774 38.408356 
L 57.433282 38.233003 
L 57.525213 38.058838 
L 57.617569 37.885871 
L 57.710351 37.714113 
L 57.803562 37.543574 
L 57.897204 37.374263 
L 57.991279 37.20619 
L 58.085788 37.039364 
L 58.180734 36.873796 
L 58.276118 36.709493 
L 58.371944 36.546465 
L 58.468212 36.384721 
L 58.564924 36.22427 
L 58.662084 36.06512 
L 58.759693 35.907278 
L 58.857752 35.750755 
L 58.956265 35.595557 
L 59.055233 35.441692 
L 59.154658 35.289169 
L 59.254543 35.137994 
L 59.354889 34.988175 
L 59.455698 34.83972 
L 59.556974 34.692634 
L 59.658717 34.546925 
L 59.76093 34.402601 
L 59.863616 34.259666 
L 59.966776 34.118128 
L 60.070413 33.977993 
L 60.174529 33.839266 
L 60.279126 33.701954 
L 60.384206 33.566062 
L 60.489771 33.431596 
L 60.595824 33.298562 
L 60.702368 33.166963 
L 60.809403 33.036806 
L 60.916933 32.908094 
L 61.02496 32.780834 
L 61.133486 32.655028 
L 61.242514 32.530682 
L 61.352045 32.407799 
L 61.462083 32.286384 
L 61.572628 32.16644 
L 61.683685 32.04797 
L 61.795255 31.930979 
L 61.90734 31.81547 
L 62.019943 31.701444 
L 62.133066 31.588906 
L 62.246712 31.477859 
L 62.360883 31.368303 
L 62.475582 31.260242 
L 62.59081 31.153679 
L 62.706571 31.048614 
L 62.822867 30.94505 
L 62.9397 30.842988 
L 63.057073 30.74243 
L 63.174989 30.643377 
L 63.293449 30.545829 
L 63.412456 30.449789 
L 63.532014 30.355255 
L 63.652123 30.26223 
L 63.772788 30.170713 
L 63.89401 30.080704 
L 64.015793 29.992203 
L 64.138138 29.90521 
L 64.261048 29.819725 
L 64.384526 29.735746 
L 64.508575 29.653273 
L 64.633197 29.572304 
L 64.758394 29.492839 
L 64.88417 29.414876 
L 65.010528 29.338413 
L 65.137469 29.263448 
L 65.264996 29.18998 
L 65.393113 29.118006 
L 65.521822 29.047523 
L 65.651125 28.978529 
L 65.781026 28.911021 
L 65.911527 28.844996 
L 66.042632 28.780451 
L 66.174341 28.717382 
L 66.30666 28.655785 
L 66.43959 28.595656 
L 66.573134 28.536992 
L 66.707295 28.479788 
L 66.842075 28.424039 
L 66.977479 28.369741 
L 67.113508 28.316889 
L 67.250166 28.265477 
L 67.387455 28.215499 
L 67.525379 28.166952 
L 67.663939 28.119827 
L 67.80314 28.07412 
L 67.942984 28.029825 
L 68.083475 27.986933 
L 68.224614 27.94544 
L 68.366406 27.905337 
L 68.508852 27.866618 
L 68.651957 27.829275 
L 68.795723 27.7933 
L 68.940153 27.758686 
L 69.085251 27.725424 
L 69.231019 27.693507 
L 69.377461 27.662925 
L 69.524579 27.633669 
L 69.672377 27.605731 
L 69.820858 27.579101 
L 69.970024 27.55377 
L 70.11988 27.529727 
L 70.270429 27.506964 
L 70.421673 27.485469 
L 70.573616 27.465232 
L 70.726261 27.446242 
L 70.879611 27.428488 
L 71.03367 27.411959 
L 71.18844 27.396643 
L 71.343926 27.382529 
L 71.50013 27.369604 
L 71.657056 27.357857 
L 71.814706 27.347274 
L 71.973086 27.337843 
L 72.132197 27.329551 
L 72.292043 27.322384 
L 72.452628 27.31633 
L 72.613954 27.311373 
L 72.776027 27.3075 
L 72.938848 27.304696 
L 73.102421 27.302948 
L 73.26675 27.302239 
L 73.431838 27.302555 
L 73.597689 27.30388 
L 73.764307 27.306199 
L 73.931694 27.309495 
L 74.099854 27.313752 
L 74.268792 27.318954 
L 74.43851 27.325084 
L 74.609013 27.332124 
L 74.780303 27.340058 
L 74.952384 27.348867 
L 75.125261 27.358534 
L 75.298936 27.36904 
L 75.473414 27.380366 
L 75.648698 27.392495 
L 75.824792 27.405407 
L 76.0017 27.419082 
L 76.179425 27.4335 
L 76.357971 27.448642 
L 76.537342 27.464488 
L 76.717542 27.481016 
L 76.898574 27.498207 
L 77.080443 27.516038 
L 77.263152 27.534488 
L 77.446705 27.553536 
L 77.631107 27.573159 
L 77.81636 27.593335 
L 78.00247 27.614042 
L 78.189439 27.635256 
L 78.377272 27.656954 
L 78.565973 27.679112 
L 78.755546 27.701707 
L 78.945995 27.724714 
L 79.137324 27.748109 
L 79.329537 27.771866 
L 79.522638 27.795961 
L 79.716631 27.820369 
L 79.911521 27.845063 
L 80.107311 27.870017 
L 80.304005 27.895205 
L 80.501608 27.9206 
L 80.700125 27.946174 
L 80.899559 27.971901 
L 81.099914 27.997753 
L 81.301194 28.023701 
L 81.503405 28.049716 
L 81.70655 28.07577 
L 81.910634 28.101834 
L 82.115661 28.127877 
L 82.321635 28.153869 
L 82.528561 28.17978 
L 82.736442 28.205577 
L 82.945285 28.231228 
L 83.155092 28.2567 
L 83.365868 28.281958 
L 83.577619 28.306965 
L 83.790348 28.331683 
L 84.00406 28.356066 
L 84.218759 28.380064 
L 84.43445 28.403611 
L 84.651138 28.426615 
L 84.868827 28.448918 
L 85.087522 28.470179 
L 85.307227 28.489393 
L 85.527947 28.501637 
L 85.749687 28.478108 
L 85.972452 28.411371 
L 86.196246 28.336407 
L 86.421074 28.260654 
L 86.646941 28.185426 
L 86.873852 28.111103 
L 87.10181 28.037834 
L 87.330823 27.965689 
L 87.560893 27.894701 
L 87.792026 27.82489 
L 88.024227 27.756264 
L 88.257501 27.688827 
L 88.491853 27.622579 
L 88.727288 27.557517 
L 88.96381 27.493637 
L 89.201426 27.430934 
L 89.440139 27.369398 
L 89.679955 27.309023 
L 89.920879 27.249797 
L 90.162917 27.19171 
L 90.406073 27.134751 
L 90.650352 27.078907 
L 90.89576 27.024165 
L 91.142301 26.970511 
L 91.389982 26.917931 
L 91.638808 26.866408 
L 91.888783 26.815926 
L 92.139913 26.76647 
L 92.392203 26.718021 
L 92.645659 26.670562 
L 92.900286 26.624074 
L 93.156089 26.578539 
L 93.413075 26.533936 
L 93.671248 26.490246 
L 93.930613 26.447448 
L 94.191177 26.405521 
L 94.452945 26.364444 
L 94.715923 26.324195 
L 94.980115 26.284752 
L 95.245529 26.246092 
L 95.512168 26.208192 
L 95.78004 26.17103 
L 96.049149 26.134582 
L 96.319501 26.098823 
L 96.591103 26.063731 
L 96.86396 26.02928 
L 97.138077 25.995446 
L 97.413461 25.962205 
L 97.690117 25.929532 
L 97.968052 25.897402 
L 98.247271 25.865791 
L 98.527779 25.834672 
L 98.809584 25.804021 
L 99.092691 25.773812 
L 99.377106 25.744021 
L 99.662836 25.714623 
L 99.949885 25.685591 
L 100.238261 25.656902 
L 100.527969 25.628531 
L 100.819015 25.600452 
L 101.111407 25.572641 
L 101.405149 25.545074 
L 101.700249 25.517726 
L 101.996712 25.490574 
L 102.294544 25.463594 
L 102.593753 25.436762 
L 102.894345 25.410055 
L 103.196325 25.383452 
L 103.499701 25.356929 
L 103.804478 25.330465 
L 104.110663 25.304039 
L 104.418264 25.277629 
L 104.727285 25.251216 
L 105.037734 25.22478 
L 105.349618 25.198301 
L 105.662943 25.171761 
L 105.977715 25.145143 
L 106.293942 25.118429 
L 106.61163 25.091603 
L 106.930785 25.06465 
L 107.251416 25.037555 
L 107.573527 25.010304 
L 107.897128 24.982884 
L 108.222223 24.955283 
L 108.54882 24.927491 
L 108.876926 24.899496 
L 109.206549 24.871291 
L 109.537694 24.842868 
L 109.870369 24.81422 
L 110.204582 24.785342 
L 110.540339 24.756229 
L 110.877647 24.726878 
L 111.216513 24.697288 
L 111.556945 24.667458 
L 111.89895 24.637389 
L 112.242536 24.607084 
L 112.587709 24.576546 
L 112.934476 24.54578 
L 113.282846 24.514791 
L 113.632826 24.483588 
L 113.984422 24.452178 
L 114.337644 24.420571 
L 114.692497 24.388775 
L 115.048989 24.3568 
L 115.407129 24.324653 
L 115.766924 24.29234 
L 116.128381 24.25986 
L 116.491508 24.227205 
L 116.856313 24.19435 
L 117.222803 24.16124 
L 117.590987 24.127773 
L 117.960872 24.093751 
L 118.332466 24.058815 
L 118.705777 24.022342 
L 119.080813 23.983445 
L 119.457581 23.941443 
L 119.836091 23.896706 
L 120.216349 23.850605 
L 120.598364 23.804552 
L 120.982145 23.759522 
L 121.367698 23.716116 
L 121.755033 23.67471 
L 122.144158 23.635555 
L 122.53508 23.598834 
L 122.927809 23.564687 
L 123.322352 23.533229 
L 123.718719 23.504554 
L 124.116916 23.478745 
L 124.516954 23.455872 
L 124.91884 23.435995 
L 125.322582 23.419166 
L 125.728191 23.405426 
L 126.135673 23.394807 
L 126.545038 23.387333 
L 126.956294 23.383017 
L 127.369451 23.381861 
L 127.784517 23.383853 
L 128.2015 23.38897 
L 128.62041 23.397171 
L 129.041256 23.408395 
L 129.464046 23.422557 
L 129.888789 23.439542 
L 130.315495 23.459198 
L 130.744173 23.481328 
L 131.174831 23.505694 
L 131.607479 23.532033 
L 132.042126 23.560105 
L 132.478781 23.589772 
L 132.917454 23.621051 
L 133.358154 23.654102 
L 133.80089 23.689161 
L 134.245671 23.726463 
L 134.692508 23.7662 
L 135.141409 23.808509 
L 135.592384 23.853476 
L 136.045443 23.901148 
L 136.500596 23.951537 
L 136.957851 24.004628 
L 137.417219 24.060386 
L 137.87871 24.118756 
L 138.342332 24.179667 
L 138.808097 24.243026 
L 139.276014 24.308727 
L 139.746093 24.376636 
L 140.218344 24.446592 
L 140.692777 24.518388 
L 141.169402 24.591752 
L 141.648229 24.666301 
L 142.129269 24.741488 
L 142.612531 24.816543 
L 143.098026 24.890509 
L 143.585764 24.962529 
L 144.075756 25.032236 
L 144.568012 25.099794 
L 145.062542 25.165587 
L 145.559357 25.229955 
L 146.058468 25.293126 
L 146.559884 25.35523 
L 147.063618 25.416336 
L 147.569679 25.476473 
L 148.078078 25.535646 
L 148.588826 25.593847 
L 149.101934 25.651059 
L 149.617413 25.707261 
L 150.135273 25.762432 
L 150.655527 25.816547 
L 151.178184 25.869586 
L 151.703256 25.921525 
L 152.230754 25.972345 
L 152.760689 26.022027 
L 153.293073 26.070556 
L 153.827916 26.117916 
L 154.365231 26.164095 
L 154.905029 26.209082 
L 155.44732 26.25287 
L 155.992118 26.29545 
L 156.539432 26.336819 
L 157.089275 26.376974 
L 157.641659 26.415915 
L 158.196595 26.453642 
L 158.754095 26.490159 
L 159.314171 26.52547 
L 159.876834 26.559582 
L 160.442098 26.592502 
L 161.009973 26.62424 
L 161.580472 26.654808 
L 162.153607 26.684219 
L 162.72939 26.712485 
L 163.307833 26.739624 
L 163.888949 26.765651 
L 164.47275 26.790585 
L 165.059249 26.814445 
L 165.648457 26.837253 
L 166.240388 26.859029 
L 166.835053 26.879796 
L 167.432467 26.899579 
L 168.03264 26.918402 
L 168.635587 26.936291 
L 169.24132 26.953273 
L 169.849851 26.969375 
L 170.461194 26.984626 
L 171.075361 26.999054 
L 171.692367 27.01269 
L 172.312223 27.025565 
L 172.934943 27.037709 
L 173.56054 27.049155 
L 174.189028 27.059934 
L 174.82042 27.07008 
L 175.454729 27.079626 
L 176.091969 27.088606 
L 176.732153 27.097054 
L 177.375295 27.105005 
L 178.021409 27.112494 
L 178.670508 27.119556 
L 179.322606 27.126226 
L 179.977717 27.13254 
L 180.635855 27.138534 
L 181.297034 27.144244 
L 181.961267 27.149706 
L 182.62857 27.154956 
L 183.298956 27.160031 
L 183.97244 27.164967 
L 184.649035 27.1698 
L 185.328756 27.174565 
L 186.011618 27.1793 
L 186.697635 27.184041 
L 187.386822 27.188821 
L 188.079193 27.193679 
L 188.774763 27.198648 
L 189.473547 27.203763 
L 190.17556 27.20906 
L 190.880816 27.214573 
L 191.589331 27.220336 
L 192.30112 27.226383 
L 193.016197 27.232746 
L 193.734578 27.239459 
L 194.456279 27.246553 
L 195.181314 27.254061 
L 195.909699 27.262014 
L 196.641449 27.270442 
L 197.37658 27.279374 
L 198.115108 27.28884 
L 198.857049 27.298869 
L 199.602417 27.309487 
L 200.351229 27.320722 
L 201.103502 27.332598 
L 201.85925 27.34514 
L 202.618489 27.358371 
L 203.381237 27.372311 
L 204.147509 27.386981 
L 204.917322 27.402397 
L 205.690691 27.418569 
L 206.467634 27.435505 
L 207.248167 27.453199 
L 208.032306 27.471623 
L 208.820067 27.490709 
L 209.611469 27.51027 
L 210.406528 27.529749 
L 211.205259 27.546778 
L 212.007682 27.544436 
L 212.007682 27.61878 
L 212.007682 27.61878 
L 211.205259 27.675295 
L 210.406528 27.750548 
L 209.611469 27.827569 
L 208.820067 27.903941 
L 208.032306 27.979058 
L 207.248167 28.052685 
L 206.467634 28.124699 
L 205.690691 28.195024 
L 204.917322 28.263603 
L 204.147509 28.330388 
L 203.381237 28.395339 
L 202.618489 28.458419 
L 201.85925 28.519595 
L 201.103502 28.578833 
L 200.351229 28.636102 
L 199.602417 28.691373 
L 198.857049 28.744617 
L 198.115108 28.795807 
L 197.37658 28.844916 
L 196.641449 28.891918 
L 195.909699 28.936789 
L 195.181314 28.979504 
L 194.456279 29.020041 
L 193.734578 29.058377 
L 193.016197 29.094491 
L 192.30112 29.128363 
L 191.589331 29.159974 
L 190.880816 29.189306 
L 190.17556 29.216341 
L 189.473547 29.241064 
L 188.774763 29.263458 
L 188.079193 29.28351 
L 187.386822 29.301207 
L 186.697635 29.316536 
L 186.011618 29.329488 
L 185.328756 29.340052 
L 184.649035 29.348221 
L 183.97244 29.353986 
L 183.298956 29.357342 
L 182.62857 29.358284 
L 181.961267 29.356808 
L 181.297034 29.352913 
L 180.635855 29.346597 
L 179.977717 29.337862 
L 179.322606 29.326708 
L 178.670508 29.313139 
L 178.021409 29.29716 
L 177.375295 29.278776 
L 176.732153 29.257996 
L 176.091969 29.234828 
L 175.454729 29.209284 
L 174.82042 29.181373 
L 174.189028 29.151112 
L 173.56054 29.118513 
L 172.934943 29.083595 
L 172.312223 29.046376 
L 171.692367 29.006876 
L 171.075361 28.965115 
L 170.461194 28.921118 
L 169.849851 28.87491 
L 169.24132 28.826517 
L 168.635587 28.775968 
L 168.03264 28.723292 
L 167.432467 28.668523 
L 166.835053 28.611694 
L 166.240388 28.552839 
L 165.648457 28.491998 
L 165.059249 28.429209 
L 164.47275 28.364513 
L 163.888949 28.297954 
L 163.307833 28.229576 
L 162.72939 28.159427 
L 162.153607 28.087555 
L 161.580472 28.014011 
L 161.009973 27.938849 
L 160.442098 27.862123 
L 159.876834 27.783889 
L 159.314171 27.704208 
L 158.754095 27.62314 
L 158.196595 27.540748 
L 157.641659 27.457097 
L 157.089275 27.372256 
L 156.539432 27.286293 
L 155.992118 27.199281 
L 155.44732 27.111293 
L 154.905029 27.022406 
L 154.365231 26.932698 
L 153.827916 26.842251 
L 153.293073 26.751147 
L 152.760689 26.659473 
L 152.230754 26.567317 
L 151.703256 26.47477 
L 151.178184 26.381927 
L 150.655527 26.288884 
L 150.135273 26.195744 
L 149.617413 26.102609 
L 149.101934 26.009591 
L 148.588826 25.916803 
L 148.078078 25.824369 
L 147.569679 25.73242 
L 147.063618 25.641101 
L 146.559884 25.550578 
L 146.058468 25.461044 
L 145.559357 25.372737 
L 145.062542 25.285967 
L 144.568012 25.201141 
L 144.075756 25.118791 
L 143.585764 25.039492 
L 143.098026 24.963612 
L 142.612531 24.890989 
L 142.129269 24.82098 
L 141.648229 24.752845 
L 141.169402 24.686037 
L 140.692777 24.620231 
L 140.218344 24.555272 
L 139.746093 24.491114 
L 139.276014 24.427779 
L 138.808097 24.365328 
L 138.342332 24.303853 
L 137.87871 24.243465 
L 137.417219 24.18429 
L 136.957851 24.126464 
L 136.500596 24.070137 
L 136.045443 24.01547 
L 135.592384 23.962636 
L 135.141409 23.911827 
L 134.692508 23.863254 
L 134.245671 23.817163 
L 133.80089 23.773833 
L 133.358154 23.733587 
L 132.917454 23.696774 
L 132.478781 23.66373 
L 132.042126 23.6347 
L 131.607479 23.609765 
L 131.174831 23.588834 
L 130.744173 23.571698 
L 130.315495 23.558107 
L 129.888789 23.547821 
L 129.464046 23.540625 
L 129.041256 23.536336 
L 128.62041 23.534793 
L 128.2015 23.535853 
L 127.784517 23.539384 
L 127.369451 23.545264 
L 126.956294 23.553375 
L 126.545038 23.563605 
L 126.135673 23.575841 
L 125.728191 23.589978 
L 125.322582 23.605909 
L 124.91884 23.623532 
L 124.516954 23.642745 
L 124.116916 23.663451 
L 123.718719 23.685559 
L 123.322352 23.70898 
L 122.927809 23.733636 
L 122.53508 23.759458 
L 122.144158 23.786395 
L 121.755033 23.814419 
L 121.367698 23.843544 
L 120.982145 23.873853 
L 120.598364 23.905554 
L 120.216349 23.939081 
L 119.836091 23.975246 
L 119.457581 24.015297 
L 119.080813 24.060448 
L 118.705777 24.110914 
L 118.332466 24.165865 
L 117.960872 24.224267 
L 117.590987 24.285358 
L 117.222803 24.34864 
L 116.856313 24.413784 
L 116.491508 24.480557 
L 116.128381 24.548781 
L 115.766924 24.618311 
L 115.407129 24.689021 
L 115.048989 24.760797 
L 114.692497 24.833537 
L 114.337644 24.907142 
L 113.984422 24.981521 
L 113.632826 25.056583 
L 113.282846 25.132244 
L 112.934476 25.208422 
L 112.587709 25.285035 
L 112.242536 25.362006 
L 111.89895 25.439259 
L 111.556945 25.51672 
L 111.216513 25.594317 
L 110.877647 25.671979 
L 110.540339 25.749639 
L 110.204582 25.82723 
L 109.870369 25.904686 
L 109.537694 25.981945 
L 109.206549 26.058945 
L 108.876926 26.135626 
L 108.54882 26.21193 
L 108.222223 26.2878 
L 107.897128 26.363181 
L 107.573527 26.43802 
L 107.251416 26.512266 
L 106.930785 26.585867 
L 106.61163 26.658776 
L 106.293942 26.730945 
L 105.977715 26.802328 
L 105.662943 26.872883 
L 105.349618 26.942567 
L 105.037734 27.011338 
L 104.727285 27.079158 
L 104.418264 27.145988 
L 104.110663 27.211793 
L 103.804478 27.276538 
L 103.499701 27.340189 
L 103.196325 27.402714 
L 102.894345 27.464083 
L 102.593753 27.524268 
L 102.294544 27.58324 
L 101.996712 27.640975 
L 101.700249 27.697446 
L 101.405149 27.752631 
L 101.111407 27.806507 
L 100.819015 27.859056 
L 100.527969 27.910256 
L 100.238261 27.960092 
L 99.949885 28.008545 
L 99.662836 28.055602 
L 99.377106 28.101248 
L 99.092691 28.145471 
L 98.809584 28.18826 
L 98.527779 28.229604 
L 98.247271 28.269496 
L 97.968052 28.307927 
L 97.690117 28.344892 
L 97.413461 28.380386 
L 97.138077 28.414404 
L 96.86396 28.446945 
L 96.591103 28.478007 
L 96.319501 28.507589 
L 96.049149 28.535693 
L 95.78004 28.562321 
L 95.512168 28.587475 
L 95.245529 28.611161 
L 94.980115 28.633383 
L 94.715923 28.654147 
L 94.452945 28.673462 
L 94.191177 28.691335 
L 93.930613 28.707777 
L 93.671248 28.722798 
L 93.413075 28.736408 
L 93.156089 28.748622 
L 92.900286 28.759452 
L 92.645659 28.768912 
L 92.392203 28.777018 
L 92.139913 28.783786 
L 91.888783 28.789234 
L 91.638808 28.793379 
L 91.389982 28.79624 
L 91.142301 28.797837 
L 90.89576 28.798191 
L 90.650352 28.797323 
L 90.406073 28.795256 
L 90.162917 28.792012 
L 89.920879 28.787616 
L 89.679955 28.782092 
L 89.440139 28.775467 
L 89.201426 28.767766 
L 88.96381 28.759018 
L 88.727288 28.749251 
L 88.491853 28.738494 
L 88.257501 28.72678 
L 88.024227 28.71414 
L 87.792026 28.700611 
L 87.560893 28.68623 
L 87.330823 28.671041 
L 87.10181 28.655098 
L 86.873852 28.638468 
L 86.646941 28.621253 
L 86.421074 28.603634 
L 86.196246 28.586025 
L 85.972452 28.569771 
L 85.749687 28.56234 
L 85.527947 28.598745 
L 85.307227 28.671579 
L 85.087522 28.752068 
L 84.868827 28.835319 
L 84.651138 28.920351 
L 84.43445 29.006853 
L 84.218759 29.094692 
L 84.00406 29.1838 
L 83.790348 29.274138 
L 83.577619 29.365678 
L 83.365868 29.458401 
L 83.155092 29.552288 
L 82.945285 29.647326 
L 82.736442 29.743503 
L 82.528561 29.840805 
L 82.321635 29.93922 
L 82.115661 30.038738 
L 81.910634 30.139346 
L 81.70655 30.241034 
L 81.503405 30.343788 
L 81.301194 30.447599 
L 81.099914 30.552453 
L 80.899559 30.65834 
L 80.700125 30.765246 
L 80.501608 30.873161 
L 80.304005 30.982071 
L 80.107311 31.091965 
L 79.911521 31.202829 
L 79.716631 31.31465 
L 79.522638 31.427417 
L 79.329537 31.541116 
L 79.137324 31.655733 
L 78.945995 31.771256 
L 78.755546 31.887672 
L 78.565973 32.004965 
L 78.377272 32.123124 
L 78.189439 32.242134 
L 78.00247 32.361982 
L 77.81636 32.482653 
L 77.631107 32.604134 
L 77.446705 32.72641 
L 77.263152 32.849467 
L 77.080443 32.973292 
L 76.898574 33.097869 
L 76.717542 33.223184 
L 76.537342 33.349223 
L 76.357971 33.475972 
L 76.179425 33.603416 
L 76.0017 33.73154 
L 75.824792 33.860329 
L 75.648698 33.98977 
L 75.473414 34.119846 
L 75.298936 34.250545 
L 75.125261 34.38185 
L 74.952384 34.513747 
L 74.780303 34.646221 
L 74.609013 34.779257 
L 74.43851 34.912842 
L 74.268792 35.046959 
L 74.099854 35.181594 
L 73.931694 35.316732 
L 73.764307 35.452358 
L 73.597689 35.588459 
L 73.431838 35.725018 
L 73.26675 35.862021 
L 73.102421 35.999453 
L 72.938848 36.1373 
L 72.776027 36.275547 
L 72.613954 36.414179 
L 72.452628 36.553182 
L 72.292043 36.692541 
L 72.132197 36.832242 
L 71.973086 36.97227 
L 71.814706 37.11261 
L 71.657056 37.253248 
L 71.50013 37.39417 
L 71.343926 37.535362 
L 71.18844 37.676809 
L 71.03367 37.818497 
L 70.879611 37.960412 
L 70.726261 38.10254 
L 70.573616 38.244866 
L 70.421673 38.387378 
L 70.270429 38.53006 
L 70.11988 38.6729 
L 69.970024 38.815884 
L 69.820858 38.958997 
L 69.672377 39.102227 
L 69.524579 39.245559 
L 69.377461 39.388981 
L 69.231019 39.532479 
L 69.085251 39.67604 
L 68.940153 39.81965 
L 68.795723 39.963298 
L 68.651957 40.106968 
L 68.508852 40.25065 
L 68.366406 40.39433 
L 68.224614 40.537995 
L 68.083475 40.681633 
L 67.942984 40.825231 
L 67.80314 40.968777 
L 67.663939 41.112259 
L 67.525379 41.255664 
L 67.387455 41.39898 
L 67.250166 41.542196 
L 67.113508 41.6853 
L 66.977479 41.828279 
L 66.842075 41.971122 
L 66.707295 42.113818 
L 66.573134 42.256355 
L 66.43959 42.398722 
L 66.30666 42.540908 
L 66.174341 42.682902 
L 66.042632 42.824692 
L 65.911527 42.966269 
L 65.781026 43.10762 
L 65.651125 43.248736 
L 65.521822 43.389607 
L 65.393113 43.530221 
L 65.264996 43.670569 
L 65.137469 43.81064 
L 65.010528 43.950425 
L 64.88417 44.089914 
L 64.758394 44.229097 
L 64.633197 44.367965 
L 64.508575 44.506508 
L 64.384526 44.644717 
L 64.261048 44.782582 
L 64.138138 44.920095 
L 64.015793 45.057247 
L 63.89401 45.194029 
L 63.772788 45.330432 
L 63.652123 45.466448 
L 63.532014 45.602069 
L 63.412456 45.737286 
L 63.293449 45.872091 
L 63.174989 46.006477 
L 63.057073 46.140436 
L 62.9397 46.273959 
L 62.822867 46.40704 
L 62.706571 46.539672 
L 62.59081 46.671846 
L 62.475582 46.803556 
L 62.360883 46.934795 
L 62.246712 47.065556 
L 62.133066 47.195834 
L 62.019943 47.32562 
L 61.90734 47.454909 
L 61.795255 47.583695 
L 61.683685 47.711971 
L 61.572628 47.839733 
L 61.462083 47.966973 
L 61.352045 48.093688 
L 61.242514 48.21987 
L 61.133486 48.345515 
L 61.02496 48.470619 
L 60.916933 48.595175 
L 60.809403 48.719179 
L 60.702368 48.842627 
L 60.595824 48.965514 
L 60.489771 49.087836 
L 60.384206 49.209589 
L 60.279126 49.330768 
L 60.174529 49.45137 
L 60.070413 49.571391 
L 59.966776 49.690828 
L 59.863616 49.809678 
L 59.76093 49.927936 
L 59.658717 50.045601 
L 59.556974 50.162669 
L 59.455698 50.279138 
L 59.354889 50.395004 
L 59.254543 50.510267 
L 59.154658 50.624923 
L 59.055233 50.738971 
L 58.956265 50.852408 
L 58.857752 50.965233 
L 58.759693 51.077445 
L 58.662084 51.189042 
L 58.564924 51.300023 
L 58.468212 51.410387 
L 58.371944 51.520133 
L 58.276118 51.629261 
L 58.180734 51.737769 
L 58.085788 51.845658 
L 57.991279 51.952928 
L 57.897204 52.059578 
L 57.803562 52.165609 
L 57.710351 52.27102 
L 57.617569 52.375814 
L 57.525213 52.479989 
L 57.433282 52.583548 
L 57.341774 52.686491 
L 57.250686 52.788819 
L 57.160018 52.890534 
L 57.069766 52.991638 
L 56.97993 53.092132 
L 56.890507 53.192019 
L 56.801495 53.291299 
L 56.712892 53.389977 
L 56.624697 53.488053 
L 56.536908 53.585531 
L 56.449522 53.682414 
L 56.362539 53.778705 
L 56.275955 53.874406 
L 56.18977 53.969522 
L 56.10398 54.064055 
L 56.018586 54.158011 
L 55.933584 54.251391 
L 55.848973 54.344202 
L 55.764752 54.436446 
L 55.680917 54.528129 
L 55.597468 54.619255 
L 55.514403 54.70983 
L 55.43172 54.799857 
L 55.349418 54.889342 
L 55.267494 54.978291 
L 55.185946 55.06671 
L 55.104774 55.154604 
L 55.023975 55.241978 
L 54.943548 55.32884 
L 54.86349 55.415196 
L 54.783801 55.501052 
L 54.704478 55.586414 
L 54.62552 55.671291 
L 54.546925 55.755688 
L 54.468692 55.839614 
L 54.390818 55.923075 
L 54.313303 56.00608 
L 54.236144 56.088636 
L 54.15934 56.170751 
L 54.082889 56.252434 
L 54.00679 56.333692 
L 53.931041 56.414536 
L 53.85564 56.494973 
L 53.780586 56.575012 
L 53.705877 56.654663 
L 53.631512 56.733935 
L 53.557489 56.812838 
L 53.483806 56.891381 
L 53.410462 56.969574 
L 53.337455 57.047428 
L 53.264785 57.124953 
L 53.192448 57.20216 
L 53.120444 57.279059 
L 53.048771 57.355661 
L 52.977428 57.431977 
L 52.906413 57.508019 
L 52.835725 57.583798 
L 52.765362 57.659325 
L 52.695322 57.734614 
L 52.625604 57.809675 
L 52.556208 57.884521 
L 52.48713 57.959165 
L 52.41837 58.033619 
L 52.349926 58.107896 
L 52.281797 58.18201 
L 52.213981 58.255972 
L 52.146478 58.329798 
L 52.079284 58.4035 
L 52.0124 58.477092 
L 51.945823 58.550588 
L 51.879553 58.624003 
L 51.813587 58.697351 
L 51.747925 58.770646 
L 51.682565 58.843903 
L 51.617505 58.917138 
L 51.552745 58.990364 
L 51.488282 59.063599 
L 51.424116 59.136856 
L 51.360245 59.210152 
L 51.296668 59.283503 
L 51.233383 59.356925 
L 51.170389 59.430434 
L 51.107685 59.504047 
L 51.045269 59.57778 
L 50.98314 59.65165 
L 50.921298 59.725674 
L 50.859739 59.79987 
L 50.798464 59.874255 
L 50.73747 59.948846 
L 50.676757 60.023662 
L 50.616323 60.098721 
L 50.556167 60.17404 
L 50.496288 60.249639 
L 50.436684 60.325536 
L 50.377355 60.401751 
L 50.318298 60.478303 
L 50.259513 60.555212 
L 50.200998 60.632498 
L 50.142752 60.710183 
L 50.084775 60.788287 
L 50.027063 60.866834 
L 49.969618 60.945849 
L 49.912436 61.025357 
L 49.855517 61.105391 
L 49.798861 61.185988 
L 49.742465 61.267197 
L 49.686328 61.349099 
L 49.630449 61.431837 
L 49.574827 61.515755 
L 49.519462 61.60202 
L 49.46435 61.698199 
L 49.409493 61.852742 
L 49.354887 62.051906 
L 49.300533 62.25629 
L 49.246429 62.461118 
L 49.192573 62.665517 
L 49.138965 62.869209 
L 49.085604 63.072067 
L 49.032488 63.274021 
L 48.979617 63.475024 
L 48.926988 63.67504 
L 48.874602 63.874043 
L 48.822457 64.072005 
L 48.770551 64.268906 
L 48.718884 64.464726 
L 48.667455 64.659444 
L 48.616262 64.853043 
L 48.565305 65.045507 
L 48.514582 65.23682 
L 48.464093 65.426965 
L 48.413835 65.615929 
L 48.363809 65.803697 
L 48.314013 65.990256 
L 48.264446 66.175594 
L 48.215107 66.359698 
L 48.165994 66.542557 
L 48.117108 66.724159 
L 48.068447 66.904494 
L 48.020009 67.083552 
L 47.971794 67.261324 
L 47.923801 67.437801 
L 47.876028 67.612974 
L 47.828475 67.786837 
L 47.781141 67.959381 
L 47.734025 68.1306 
L 47.687125 68.300489 
L 47.640441 68.46904 
L 47.593972 68.63625 
L 47.547717 68.802113 
L 47.501674 68.966626 
L 47.455843 69.129785 
L 47.410222 69.291587 
L 47.364812 69.45203 
L 47.31961 69.611112 
L 47.274617 69.768831 
L 47.22983 69.925187 
L 47.185249 70.080179 
L 47.140873 70.233808 
L 47.096702 70.386074 
L 47.052733 70.536979 
L 47.008967 70.686524 
L 46.965402 70.834711 
L 46.922037 70.981544 
L 46.878872 71.127026 
L 46.835905 71.27116 
L 46.793136 71.413952 
L 46.750564 71.555405 
L 46.708187 71.695526 
L 46.666006 71.83432 
L 46.624018 71.971794 
L 46.582223 72.107955 
L 46.540621 72.24281 
L 46.49921 72.376368 
L 46.45799 72.508636 
L 46.416959 72.639625 
L 46.376116 72.769343 
L 46.335462 72.897801 
L 46.294995 73.025009 
L 46.254713 73.150979 
L 46.214617 73.275722 
L 46.174706 73.39925 
L 46.134977 73.521576 
L 46.095432 73.642713 
L 46.056069 73.762674 
L 46.016886 73.881475 
L 45.977884 73.99913 
L 45.939061 74.115653 
L 45.900417 74.231061 
L 45.86195 74.345369 
L 45.82366 74.458595 
L 45.785547 74.570756 
L 45.747608 74.68187 
L 45.709845 74.791954 
L 45.672255 74.901027 
L 45.634837 75.009109 
L 45.597592 75.11622 
L 45.560518 75.222379 
L 45.523615 75.327608 
L 45.486881 75.431928 
L 45.450317 75.535359 
L 45.41392 75.637926 
L 45.377691 75.73965 
L 45.341629 75.840554 
L 45.305732 75.940663 
L 45.27 76.040001 
L 45.234433 76.138593 
L 45.19903 76.236464 
L 45.163789 76.33364 
L 45.12871 76.430148 
L 45.093793 76.526015 
L 45.059036 76.621268 
L 45.024439 76.715938 
L 44.990001 76.810052 
L 44.955722 76.903643 
L 44.9216 76.996742 
L 44.887635 77.089382 
L 44.853827 77.181601 
L 44.820173 77.273438 
L 44.786675 77.364939 
L 44.753331 77.456163 
L 44.72014 77.547188 
L 44.687101 77.638138 
L 44.654215 77.72926 
L 44.62148 77.821196 
L 44.588895 77.916511 
L 44.556461 78.032434 
L 44.524175 78.201154 
L 44.492038 78.388735 
L 44.460049 78.579821 
L 44.428207 78.772101 
L 44.396511 78.964983 
L 44.364961 79.15824 
L 44.333557 79.351758 
L 44.302296 79.545469 
L 44.27118 79.739321 
L 44.240206 79.933276 
L 44.209375 80.127301 
L 44.178686 80.321365 
L 44.148138 80.515443 
L 44.117731 80.709508 
L 44.087463 80.903537 
L 44.057334 81.097504 
L 44.027344 81.291389 
L 43.997492 81.485169 
L 43.967778 81.678822 
L 43.9382 81.872328 
L 43.908758 82.065666 
L 43.879451 82.258816 
L 43.850279 82.451759 
L 43.821241 82.644476 
L 43.792337 82.836948 
L 43.763566 83.029157 
L 43.734927 83.221084 
L 43.70642 83.412713 
L 43.678044 83.604025 
L 43.649799 83.795005 
L 43.621683 83.985636 
L 43.593697 84.175902 
L 43.565839 84.365787 
L 43.53811 84.555276 
L 43.510508 84.744355 
L 43.483033 84.933007 
L 43.455684 85.121221 
L 43.428461 85.30898 
L 43.401364 85.496273 
L 43.374391 85.683086 
L 43.347542 85.869406 
L 43.320816 86.055221 
L 43.294214 86.24052 
L 43.267733 86.425289 
L 43.241375 86.609519 
L 43.215138 86.793199 
L 43.189021 86.976317 
L 43.163025 87.158863 
L 43.137148 87.340829 
L 43.11139 87.522204 
L 43.085751 87.702979 
L 43.060229 87.883146 
L 43.034825 88.062696 
L 43.009538 88.241622 
L 42.984367 88.419915 
L 42.959312 88.597569 
L 42.934372 88.774576 
L 42.909547 88.95093 
L 42.884836 89.126626 
L 42.860238 89.301656 
L 42.835754 89.476016 
L 42.811382 89.6497 
L 42.787123 89.822704 
L 42.762975 89.995023 
L 42.738938 90.166654 
L 42.715011 90.337592 
L 42.691195 90.507834 
L 42.667488 90.677377 
L 42.64389 90.846219 
L 42.620401 91.014357 
L 42.59702 91.18179 
L 42.573746 91.348515 
L 42.550579 91.514532 
L 42.527519 91.679839 
L 42.504565 91.844436 
L 42.481717 92.008323 
L 42.458973 92.1715 
L 42.436334 92.333967 
L 42.4138 92.495725 
L 42.391369 92.656775 
L 42.369041 92.817119 
L 42.346816 92.976758 
L 42.324693 93.135695 
L 42.302671 93.293932 
L 42.280752 93.451471 
L 42.258932 93.608317 
L 42.237214 93.764471 
L 42.215595 93.919939 
L 42.194075 94.074724 
L 42.172655 94.22883 
L 42.151333 94.382263 
L 42.130109 94.535027 
L 42.108983 94.687127 
L 42.087953 94.83857 
L 42.067021 94.98936 
L 42.046185 95.139506 
L 42.025445 95.289012 
L 42.0048 95.437886 
L 41.98425 95.586136 
L 41.963794 95.733768 
L 41.943433 95.88079 
L 41.923165 96.027211 
L 41.902991 96.173039 
L 41.882909 96.318282 
L 41.862919 96.46295 
L 41.843022 96.607051 
L 41.823216 96.750596 
L 41.803501 96.893594 
L 41.783877 97.036055 
L 41.764343 97.177989 
L 41.744899 97.319408 
L 41.725544 97.460321 
L 41.706279 97.600741 
L 41.687102 97.740679 
L 41.668013 97.880146 
L 41.649012 98.019155 
L 41.630098 98.157717 
L 41.611271 98.295845 
L 41.592531 98.433552 
L 41.573877 98.570852 
L 41.555309 98.707756 
L 41.536827 98.844279 
L 41.518429 98.980434 
L 41.500116 99.116236 
L 41.481887 99.251698 
L 41.463742 99.386836 
L 41.44568 99.521663 
L 41.427702 99.656195 
L 41.409806 99.790447 
L 41.391993 99.924434 
L 41.374261 100.058172 
L 41.356611 100.191677 
L 41.339042 100.324965 
L 41.321554 100.458052 
L 41.304147 100.590955 
L 41.286819 100.723691 
L 41.269571 100.856276 
L 41.252403 100.988729 
L 41.235313 101.121067 
L 41.218302 101.253308 
L 41.201369 101.38547 
L 41.184514 101.517573 
L 41.167737 101.649636 
L 41.151037 101.78168 
L 41.134414 101.913726 
L 41.117867 102.045798 
L 41.101396 102.17792 
L 41.085001 102.310124 
L 41.068681 102.442446 
L 41.052436 102.574936 
L 41.036267 102.707675 
L 41.020171 102.84081 
L 41.004149 102.974698 
L 40.988202 103.110549 
L 40.972327 103.256016 
L 40.956526 103.456688 
L 40.940797 103.7004 
L 40.92514 103.950542 
L 40.909556 104.202325 
L 40.894043 104.45484 
L 40.878602 104.707784 
L 40.863231 104.961013 
L 40.847932 105.214437 
L 40.832702 105.467992 
L 40.817543 105.721625 
L 40.802453 105.975289 
L 40.787433 106.228942 
L 40.772482 106.48254 
L 40.7576 106.736046 
L 40.742786 106.989421 
L 40.72804 107.242625 
L 40.713362 107.495623 
L 40.698752 107.748376 
L 40.684209 108.000848 
L 40.669732 108.253002 
L 40.655322 108.504801 
L 40.640979 108.75621 
L 40.626701 109.007193 
L 40.61249 109.257713 
L 40.598343 109.507734 
L 40.584262 109.757222 
L 40.570245 110.00614 
L 40.556293 110.254454 
L 40.542405 110.502128 
L 40.52858 110.749127 
L 40.51482 110.995416 
L 40.501123 111.240961 
L 40.487488 111.485727 
L 40.473917 111.729679 
L 40.460407 111.972784 
L 40.44696 112.215007 
L 40.433575 112.456314 
L 40.420252 112.696672 
L 40.406989 112.936047 
L 40.393788 113.174406 
L 40.380647 113.411715 
L 40.367567 113.647941 
L 40.354547 113.883053 
L 40.341587 114.117016 
L 40.328686 114.349799 
L 40.315845 114.581369 
L 40.303063 114.811695 
L 40.290339 115.040744 
L 40.277674 115.268485 
L 40.265068 115.494887 
L 40.252519 115.719918 
L 40.240028 115.943548 
L 40.227595 116.165745 
L 40.215218 116.38648 
L 40.202899 116.605723 
L 40.190636 116.823442 
L 40.17843 117.039609 
L 40.16628 117.254194 
L 40.154185 117.467168 
L 40.142147 117.678501 
L 40.130163 117.888166 
L 40.118235 118.096133 
L 40.106362 118.302374 
L 40.094543 118.506863 
L 40.082779 118.70957 
L 40.071068 118.910469 
L 40.059412 119.109532 
L 40.047809 119.306733 
L 40.03626 119.502045 
L 40.024763 119.695443 
L 40.01332 119.886899 
L 40.001929 120.076389 
L 39.990591 120.263888 
L 39.979304 120.449369 
L 39.96807 120.63281 
L 39.956887 120.814185 
L 39.945756 120.993469 
L 39.934676 121.170641 
L 39.923647 121.345676 
L 39.912668 121.51855 
L 39.90174 121.689243 
L 39.890863 121.85773 
L 39.880035 122.02399 
L 39.869257 122.188002 
L 39.858529 122.349743 
L 39.84785 122.509194 
L 39.83722 122.666333 
L 39.826639 122.82114 
L 39.816107 122.973595 
L 39.805623 123.12368 
L 39.795188 123.271373 
L 39.7848 123.416658 
L 39.77446 123.559515 
L 39.764168 123.699926 
L 39.753923 123.837874 
L 39.743725 123.973342 
L 39.733574 124.106313 
L 39.72347 124.236769 
L 39.713412 124.364697 
L 39.703401 124.490079 
L 39.693436 124.6129 
L 39.683516 124.733147 
L 39.673642 124.850803 
L 39.663813 124.965857 
L 39.65403 125.078293 
L 39.644292 125.1881 
L 39.634598 125.295264 
L 39.624949 125.399773 
L 39.615344 125.501616 
L 39.605784 125.600781 
L 39.596267 125.697258 
L 39.586795 125.791036 
L 39.577365 125.882106 
L 39.56798 125.970457 
L 39.558637 126.056082 
L 39.549337 126.138972 
L 39.54008 126.219119 
L 39.530866 126.296515 
L 39.521694 126.371154 
L 39.512564 126.443029 
L 39.503477 126.512135 
L 39.494431 126.578466 
L 39.485426 126.642017 
L 39.476463 126.702785 
L 39.467542 126.760765 
L 39.458661 126.815954 
L 39.449821 126.86835 
L 39.441022 126.917951 
L 39.432263 126.964756 
L 39.423545 127.008764 
L 39.414866 127.049975 
L 39.406228 127.088389 
L 39.397629 127.124009 
L 39.38907 127.156836 
L 39.38055 127.186874 
L 39.37207 127.214128 
L 39.363628 127.238603 
L 39.355225 127.260307 
L 39.346861 127.279251 
L 39.338536 127.295449 
L 39.330248 127.308925 
L 39.321999 127.319715 
L 39.313788 127.327886 
L 39.305614 127.333593 
L 39.297478 127.337285 
L 39.289379 127.341187 
L 39.281318 127.377766 
z
" style="fill:#1f77b4;fill-opacity:0.1;"/>
   </g>
   <g id="matplotlib.axis_1">
    <g id="xtick_1">
     <g id="line2d_1">
      <defs>
       <path d="M 0 0 
L 0 3.5 
" id="m5ba7652043" style="stroke:#000000;stroke-width:0.8;"/>
      </defs>
      <g>
       <use style="stroke:#000000;stroke-width:0.8;" x="37.536607" xlink:href="#m5ba7652043" y="132.577561"/>
      </g>
     </g>
     <g id="text_1">
      <!-- 0 -->
      <g transform="translate(34.991607 145.656311)scale(0.08 -0.08)">
       <defs>
        <path d="M 2034 4250 
Q 1547 4250 1301 3770 
Q 1056 3291 1056 2328 
Q 1056 1369 1301 889 
Q 1547 409 2034 409 
Q 2525 409 2770 889 
Q 3016 1369 3016 2328 
Q 3016 3291 2770 3770 
Q 2525 4250 2034 4250 
z
M 2034 4750 
Q 2819 4750 3233 4129 
Q 3647 3509 3647 2328 
Q 3647 1150 3233 529 
Q 2819 -91 2034 -91 
Q 1250 -91 836 529 
Q 422 1150 422 2328 
Q 422 3509 836 4129 
Q 1250 4750 2034 4750 
z
" id="DejaVuSans-30" transform="scale(0.015625)"/>
       </defs>
       <use xlink:href="#DejaVuSans-30"/>
      </g>
     </g>
    </g>
    <g id="xtick_2">
     <g id="line2d_2">
      <g>
       <use style="stroke:#000000;stroke-width:0.8;" x="72.430822" xlink:href="#m5ba7652043" y="132.577561"/>
      </g>
     </g>
     <g id="text_2">
      <!-- 2 -->
      <g transform="translate(69.885822 145.656311)scale(0.08 -0.08)">
       <defs>
        <path d="M 1228 531 
L 3431 531 
L 3431 0 
L 469 0 
L 469 531 
Q 828 903 1448 1529 
Q 2069 2156 2228 2338 
Q 2531 2678 2651 2914 
Q 2772 3150 2772 3378 
Q 2772 3750 2511 3984 
Q 2250 4219 1831 4219 
Q 1534 4219 1204 4116 
Q 875 4013 500 3803 
L 500 4441 
Q 881 4594 1212 4672 
Q 1544 4750 1819 4750 
Q 2544 4750 2975 4387 
Q 3406 4025 3406 3419 
Q 3406 3131 3298 2873 
Q 3191 2616 2906 2266 
Q 2828 2175 2409 1742 
Q 1991 1309 1228 531 
z
" id="DejaVuSans-32" transform="scale(0.015625)"/>
       </defs>
       <use xlink:href="#DejaVuSans-32"/>
      </g>
     </g>
    </g>
    <g id="xtick_3">
     <g id="line2d_3">
      <g>
       <use style="stroke:#000000;stroke-width:0.8;" x="107.325037" xlink:href="#m5ba7652043" y="132.577561"/>
      </g>
     </g>
     <g id="text_3">
      <!-- 4 -->
      <g transform="translate(104.780037 145.656311)scale(0.08 -0.08)">
       <defs>
        <path d="M 2419 4116 
L 825 1625 
L 2419 1625 
L 2419 4116 
z
M 2253 4666 
L 3047 4666 
L 3047 1625 
L 3713 1625 
L 3713 1100 
L 3047 1100 
L 3047 0 
L 2419 0 
L 2419 1100 
L 313 1100 
L 313 1709 
L 2253 4666 
z
" id="DejaVuSans-34" transform="scale(0.015625)"/>
       </defs>
       <use xlink:href="#DejaVuSans-34"/>
      </g>
     </g>
    </g>
    <g id="xtick_4">
     <g id="line2d_4">
      <g>
       <use style="stroke:#000000;stroke-width:0.8;" x="142.219252" xlink:href="#m5ba7652043" y="132.577561"/>
      </g>
     </g>
     <g id="text_4">
      <!-- 6 -->
      <g transform="translate(139.674252 145.656311)scale(0.08 -0.08)">
       <defs>
        <path d="M 2113 2584 
Q 1688 2584 1439 2293 
Q 1191 2003 1191 1497 
Q 1191 994 1439 701 
Q 1688 409 2113 409 
Q 2538 409 2786 701 
Q 3034 994 3034 1497 
Q 3034 2003 2786 2293 
Q 2538 2584 2113 2584 
z
M 3366 4563 
L 3366 3988 
Q 3128 4100 2886 4159 
Q 2644 4219 2406 4219 
Q 1781 4219 1451 3797 
Q 1122 3375 1075 2522 
Q 1259 2794 1537 2939 
Q 1816 3084 2150 3084 
Q 2853 3084 3261 2657 
Q 3669 2231 3669 1497 
Q 3669 778 3244 343 
Q 2819 -91 2113 -91 
Q 1303 -91 875 529 
Q 447 1150 447 2328 
Q 447 3434 972 4092 
Q 1497 4750 2381 4750 
Q 2619 4750 2861 4703 
Q 3103 4656 3366 4563 
z
" id="DejaVuSans-36" transform="scale(0.015625)"/>
       </defs>
       <use xlink:href="#DejaVuSans-36"/>
      </g>
     </g>
    </g>
    <g id="xtick_5">
     <g id="line2d_5">
      <g>
       <use style="stroke:#000000;stroke-width:0.8;" x="177.113467" xlink:href="#m5ba7652043" y="132.577561"/>
      </g>
     </g>
     <g id="text_5">
      <!-- 8 -->
      <g transform="translate(174.568467 145.656311)scale(0.08 -0.08)">
       <defs>
        <path d="M 2034 2216 
Q 1584 2216 1326 1975 
Q 1069 1734 1069 1313 
Q 1069 891 1326 650 
Q 1584 409 2034 409 
Q 2484 409 2743 651 
Q 3003 894 3003 1313 
Q 3003 1734 2745 1975 
Q 2488 2216 2034 2216 
z
M 1403 2484 
Q 997 2584 770 2862 
Q 544 3141 544 3541 
Q 544 4100 942 4425 
Q 1341 4750 2034 4750 
Q 2731 4750 3128 4425 
Q 3525 4100 3525 3541 
Q 3525 3141 3298 2862 
Q 3072 2584 2669 2484 
Q 3125 2378 3379 2068 
Q 3634 1759 3634 1313 
Q 3634 634 3220 271 
Q 2806 -91 2034 -91 
Q 1263 -91 848 271 
Q 434 634 434 1313 
Q 434 1759 690 2068 
Q 947 2378 1403 2484 
z
M 1172 3481 
Q 1172 3119 1398 2916 
Q 1625 2713 2034 2713 
Q 2441 2713 2670 2916 
Q 2900 3119 2900 3481 
Q 2900 3844 2670 4047 
Q 2441 4250 2034 4250 
Q 1625 4250 1398 4047 
Q 1172 3844 1172 3481 
z
" id="DejaVuSans-38" transform="scale(0.015625)"/>
       </defs>
       <use xlink:href="#DejaVuSans-38"/>
      </g>
     </g>
    </g>
    <g id="xtick_6">
     <g id="line2d_6">
      <g>
       <use style="stroke:#000000;stroke-width:0.8;" x="212.007682" xlink:href="#m5ba7652043" y="132.577561"/>
      </g>
     </g>
     <g id="text_6">
      <!-- 10 -->
      <g transform="translate(206.917682 145.656311)scale(0.08 -0.08)">
       <defs>
        <path d="M 794 531 
L 1825 531 
L 1825 4091 
L 703 3866 
L 703 4441 
L 1819 4666 
L 2450 4666 
L 2450 531 
L 3481 531 
L 3481 0 
L 794 0 
L 794 531 
z
" id="DejaVuSans-31" transform="scale(0.015625)"/>
       </defs>
       <use xlink:href="#DejaVuSans-31"/>
       <use x="63.623047" xlink:href="#DejaVuSans-30"/>
      </g>
     </g>
    </g>
    <g id="text_7">
     <!-- D ($\mu{}m^2$) -->
     <g transform="translate(109.6445 158.600061)scale(0.08 -0.08)">
      <defs>
       <path d="M 1259 4147 
L 1259 519 
L 2022 519 
Q 2988 519 3436 956 
Q 3884 1394 3884 2338 
Q 3884 3275 3436 3711 
Q 2988 4147 2022 4147 
L 1259 4147 
z
M 628 4666 
L 1925 4666 
Q 3281 4666 3915 4102 
Q 4550 3538 4550 2338 
Q 4550 1131 3912 565 
Q 3275 0 1925 0 
L 628 0 
L 628 4666 
z
" id="DejaVuSans-44" transform="scale(0.015625)"/>
       <path id="DejaVuSans-20" transform="scale(0.015625)"/>
       <path d="M 1984 4856 
Q 1566 4138 1362 3434 
Q 1159 2731 1159 2009 
Q 1159 1288 1364 580 
Q 1569 -128 1984 -844 
L 1484 -844 
Q 1016 -109 783 600 
Q 550 1309 550 2009 
Q 550 2706 781 3412 
Q 1013 4119 1484 4856 
L 1984 4856 
z
" id="DejaVuSans-28" transform="scale(0.015625)"/>
       <path d="M -84 -1331 
L 856 3500 
L 1434 3500 
L 1009 1322 
Q 997 1256 987 1175 
Q 978 1094 978 1013 
Q 978 722 1161 565 
Q 1344 409 1684 409 
Q 2147 409 2431 671 
Q 2716 934 2816 1459 
L 3213 3500 
L 3788 3500 
L 3266 809 
Q 3253 750 3248 706 
Q 3244 663 3244 628 
Q 3244 531 3283 486 
Q 3322 441 3406 441 
Q 3438 441 3492 456 
Q 3547 472 3647 513 
L 3559 50 
Q 3422 -19 3297 -55 
Q 3172 -91 3053 -91 
Q 2847 -91 2730 40 
Q 2613 172 2613 403 
Q 2438 153 2195 31 
Q 1953 -91 1625 -91 
Q 1334 -91 1117 43 
Q 900 178 831 397 
L 494 -1331 
L -84 -1331 
z
" id="DejaVuSans-Oblique-3bc" transform="scale(0.015625)"/>
       <path d="M 5747 2113 
L 5338 0 
L 4763 0 
L 5166 2094 
Q 5191 2228 5203 2325 
Q 5216 2422 5216 2491 
Q 5216 2772 5059 2928 
Q 4903 3084 4622 3084 
Q 4203 3084 3875 2770 
Q 3547 2456 3450 1953 
L 3066 0 
L 2491 0 
L 2900 2094 
Q 2925 2209 2937 2307 
Q 2950 2406 2950 2484 
Q 2950 2769 2794 2926 
Q 2638 3084 2363 3084 
Q 1938 3084 1609 2770 
Q 1281 2456 1184 1953 
L 800 0 
L 225 0 
L 909 3500 
L 1484 3500 
L 1375 2956 
Q 1609 3263 1923 3423 
Q 2238 3584 2597 3584 
Q 2978 3584 3223 3384 
Q 3469 3184 3519 2828 
Q 3781 3197 4126 3390 
Q 4472 3584 4856 3584 
Q 5306 3584 5551 3325 
Q 5797 3066 5797 2591 
Q 5797 2488 5784 2364 
Q 5772 2241 5747 2113 
z
" id="DejaVuSans-Oblique-6d" transform="scale(0.015625)"/>
       <path d="M 513 4856 
L 1013 4856 
Q 1481 4119 1714 3412 
Q 1947 2706 1947 2009 
Q 1947 1309 1714 600 
Q 1481 -109 1013 -844 
L 513 -844 
Q 928 -128 1133 580 
Q 1338 1288 1338 2009 
Q 1338 2731 1133 3434 
Q 928 4138 513 4856 
z
" id="DejaVuSans-29" transform="scale(0.015625)"/>
      </defs>
      <use transform="translate(0 0.765625)" xlink:href="#DejaVuSans-44"/>
      <use transform="translate(77.001953 0.765625)" xlink:href="#DejaVuSans-20"/>
      <use transform="translate(108.789062 0.765625)" xlink:href="#DejaVuSans-28"/>
      <use transform="translate(147.802734 0.765625)" xlink:href="#DejaVuSans-Oblique-3bc"/>
      <use transform="translate(211.425781 0.765625)" xlink:href="#DejaVuSans-Oblique-6d"/>
      <use transform="translate(313.487786 39.046875)scale(0.7)" xlink:href="#DejaVuSans-32"/>
      <use transform="translate(360.758294 0.765625)" xlink:href="#DejaVuSans-29"/>
     </g>
    </g>
   </g>
   <g id="matplotlib.axis_2">
    <g id="ytick_1">
     <g id="line2d_7">
      <defs>
       <path d="M 0 0 
L -3.5 0 
" id="m6d8e0d6395" style="stroke:#000000;stroke-width:0.8;"/>
      </defs>
      <g>
       <use style="stroke:#000000;stroke-width:0.8;" x="30.645" xlink:href="#m6d8e0d6395" y="125.016046"/>
      </g>
     </g>
     <g id="text_8">
      <!-- 2.5 -->
      <g transform="translate(4.21875 128.055421)scale(0.08 -0.08)">
       <defs>
        <path d="M 678 2272 
L 4684 2272 
L 4684 1741 
L 678 1741 
L 678 2272 
z
" id="DejaVuSans-2212" transform="scale(0.015625)"/>
        <path d="M 684 794 
L 1344 794 
L 1344 0 
L 684 0 
L 684 794 
z
" id="DejaVuSans-2e" transform="scale(0.015625)"/>
        <path d="M 691 4666 
L 3169 4666 
L 3169 4134 
L 1269 4134 
L 1269 2991 
Q 1406 3038 1543 3061 
Q 1681 3084 1819 3084 
Q 2600 3084 3056 2656 
Q 3513 2228 3513 1497 
Q 3513 744 3044 326 
Q 2575 -91 1722 -91 
Q 1428 -91 1123 -41 
Q 819 9 494 109 
L 494 744 
Q 775 591 1075 516 
Q 1375 441 1709 441 
Q 2250 441 2565 725 
Q 2881 1009 2881 1497 
Q 2881 1984 2565 2268 
Q 2250 2553 1709 2553 
Q 1456 2553 1204 2497 
Q 953 2441 691 2322 
L 691 4666 
z
" id="DejaVuSans-35" transform="scale(0.015625)"/>
       </defs>
       <use xlink:href="#DejaVuSans-2212"/>
       <use x="83.789062" xlink:href="#DejaVuSans-32"/>
       <use x="147.412109" xlink:href="#DejaVuSans-2e"/>
       <use x="179.199219" xlink:href="#DejaVuSans-35"/>
      </g>
     </g>
    </g>
    <g id="ytick_2">
     <g id="line2d_8">
      <g>
       <use style="stroke:#000000;stroke-width:0.8;" x="30.645" xlink:href="#m6d8e0d6395" y="103.385736"/>
      </g>
     </g>
     <g id="text_9">
      <!-- 2.0 -->
      <g transform="translate(4.21875 106.425111)scale(0.08 -0.08)">
       <use xlink:href="#DejaVuSans-2212"/>
       <use x="83.789062" xlink:href="#DejaVuSans-32"/>
       <use x="147.412109" xlink:href="#DejaVuSans-2e"/>
       <use x="179.199219" xlink:href="#DejaVuSans-30"/>
      </g>
     </g>
    </g>
    <g id="ytick_3">
     <g id="line2d_9">
      <g>
       <use style="stroke:#000000;stroke-width:0.8;" x="30.645" xlink:href="#m6d8e0d6395" y="81.755427"/>
      </g>
     </g>
     <g id="text_10">
      <!-- 1.5 -->
      <g transform="translate(4.21875 84.794802)scale(0.08 -0.08)">
       <use xlink:href="#DejaVuSans-2212"/>
       <use x="83.789062" xlink:href="#DejaVuSans-31"/>
       <use x="147.412109" xlink:href="#DejaVuSans-2e"/>
       <use x="179.199219" xlink:href="#DejaVuSans-35"/>
      </g>
     </g>
    </g>
    <g id="ytick_4">
     <g id="line2d_10">
      <g>
       <use style="stroke:#000000;stroke-width:0.8;" x="30.645" xlink:href="#m6d8e0d6395" y="60.125118"/>
      </g>
     </g>
     <g id="text_11">
      <!-- 1.0 -->
      <g transform="translate(4.21875 63.164493)scale(0.08 -0.08)">
       <use xlink:href="#DejaVuSans-2212"/>
       <use x="83.789062" xlink:href="#DejaVuSans-31"/>
       <use x="147.412109" xlink:href="#DejaVuSans-2e"/>
       <use x="179.199219" xlink:href="#DejaVuSans-30"/>
      </g>
     </g>
    </g>
    <g id="ytick_5">
     <g id="line2d_11">
      <g>
       <use style="stroke:#000000;stroke-width:0.8;" x="30.645" xlink:href="#m6d8e0d6395" y="38.494809"/>
      </g>
     </g>
     <g id="text_12">
      <!-- 0.5 -->
      <g transform="translate(4.21875 41.534184)scale(0.08 -0.08)">
       <use xlink:href="#DejaVuSans-2212"/>
       <use x="83.789062" xlink:href="#DejaVuSans-30"/>
       <use x="147.412109" xlink:href="#DejaVuSans-2e"/>
       <use x="179.199219" xlink:href="#DejaVuSans-35"/>
      </g>
     </g>
    </g>
    <g id="text_13">
     <!-- $-||$ Theory - - Experiment $||^2$ -->
     <g transform="translate(-1.70125 131.059813)rotate(-90)scale(0.08 -0.08)">
      <defs>
       <path d="M 1344 4891 
L 1344 -1509 
L 813 -1509 
L 813 4891 
L 1344 4891 
z
" id="DejaVuSans-7c" transform="scale(0.015625)"/>
       <path d="M -19 4666 
L 3928 4666 
L 3928 4134 
L 2272 4134 
L 2272 0 
L 1638 0 
L 1638 4134 
L -19 4134 
L -19 4666 
z
" id="DejaVuSans-54" transform="scale(0.015625)"/>
       <path d="M 3513 2113 
L 3513 0 
L 2938 0 
L 2938 2094 
Q 2938 2591 2744 2837 
Q 2550 3084 2163 3084 
Q 1697 3084 1428 2787 
Q 1159 2491 1159 1978 
L 1159 0 
L 581 0 
L 581 4863 
L 1159 4863 
L 1159 2956 
Q 1366 3272 1645 3428 
Q 1925 3584 2291 3584 
Q 2894 3584 3203 3211 
Q 3513 2838 3513 2113 
z
" id="DejaVuSans-68" transform="scale(0.015625)"/>
       <path d="M 3597 1894 
L 3597 1613 
L 953 1613 
Q 991 1019 1311 708 
Q 1631 397 2203 397 
Q 2534 397 2845 478 
Q 3156 559 3463 722 
L 3463 178 
Q 3153 47 2828 -22 
Q 2503 -91 2169 -91 
Q 1331 -91 842 396 
Q 353 884 353 1716 
Q 353 2575 817 3079 
Q 1281 3584 2069 3584 
Q 2775 3584 3186 3129 
Q 3597 2675 3597 1894 
z
M 3022 2063 
Q 3016 2534 2758 2815 
Q 2500 3097 2075 3097 
Q 1594 3097 1305 2825 
Q 1016 2553 972 2059 
L 3022 2063 
z
" id="DejaVuSans-65" transform="scale(0.015625)"/>
       <path d="M 1959 3097 
Q 1497 3097 1228 2736 
Q 959 2375 959 1747 
Q 959 1119 1226 758 
Q 1494 397 1959 397 
Q 2419 397 2687 759 
Q 2956 1122 2956 1747 
Q 2956 2369 2687 2733 
Q 2419 3097 1959 3097 
z
M 1959 3584 
Q 2709 3584 3137 3096 
Q 3566 2609 3566 1747 
Q 3566 888 3137 398 
Q 2709 -91 1959 -91 
Q 1206 -91 779 398 
Q 353 888 353 1747 
Q 353 2609 779 3096 
Q 1206 3584 1959 3584 
z
" id="DejaVuSans-6f" transform="scale(0.015625)"/>
       <path d="M 2631 2963 
Q 2534 3019 2420 3045 
Q 2306 3072 2169 3072 
Q 1681 3072 1420 2755 
Q 1159 2438 1159 1844 
L 1159 0 
L 581 0 
L 581 3500 
L 1159 3500 
L 1159 2956 
Q 1341 3275 1631 3429 
Q 1922 3584 2338 3584 
Q 2397 3584 2469 3576 
Q 2541 3569 2628 3553 
L 2631 2963 
z
" id="DejaVuSans-72" transform="scale(0.015625)"/>
       <path d="M 2059 -325 
Q 1816 -950 1584 -1140 
Q 1353 -1331 966 -1331 
L 506 -1331 
L 506 -850 
L 844 -850 
Q 1081 -850 1212 -737 
Q 1344 -625 1503 -206 
L 1606 56 
L 191 3500 
L 800 3500 
L 1894 763 
L 2988 3500 
L 3597 3500 
L 2059 -325 
z
" id="DejaVuSans-79" transform="scale(0.015625)"/>
       <path d="M 313 2009 
L 1997 2009 
L 1997 1497 
L 313 1497 
L 313 2009 
z
" id="DejaVuSans-2d" transform="scale(0.015625)"/>
       <path d="M 628 4666 
L 3578 4666 
L 3578 4134 
L 1259 4134 
L 1259 2753 
L 3481 2753 
L 3481 2222 
L 1259 2222 
L 1259 531 
L 3634 531 
L 3634 0 
L 628 0 
L 628 4666 
z
" id="DejaVuSans-45" transform="scale(0.015625)"/>
       <path d="M 3513 3500 
L 2247 1797 
L 3578 0 
L 2900 0 
L 1881 1375 
L 863 0 
L 184 0 
L 1544 1831 
L 300 3500 
L 978 3500 
L 1906 2253 
L 2834 3500 
L 3513 3500 
z
" id="DejaVuSans-78" transform="scale(0.015625)"/>
       <path d="M 1159 525 
L 1159 -1331 
L 581 -1331 
L 581 3500 
L 1159 3500 
L 1159 2969 
Q 1341 3281 1617 3432 
Q 1894 3584 2278 3584 
Q 2916 3584 3314 3078 
Q 3713 2572 3713 1747 
Q 3713 922 3314 415 
Q 2916 -91 2278 -91 
Q 1894 -91 1617 61 
Q 1341 213 1159 525 
z
M 3116 1747 
Q 3116 2381 2855 2742 
Q 2594 3103 2138 3103 
Q 1681 3103 1420 2742 
Q 1159 2381 1159 1747 
Q 1159 1113 1420 752 
Q 1681 391 2138 391 
Q 2594 391 2855 752 
Q 3116 1113 3116 1747 
z
" id="DejaVuSans-70" transform="scale(0.015625)"/>
       <path d="M 603 3500 
L 1178 3500 
L 1178 0 
L 603 0 
L 603 3500 
z
M 603 4863 
L 1178 4863 
L 1178 4134 
L 603 4134 
L 603 4863 
z
" id="DejaVuSans-69" transform="scale(0.015625)"/>
       <path d="M 3328 2828 
Q 3544 3216 3844 3400 
Q 4144 3584 4550 3584 
Q 5097 3584 5394 3201 
Q 5691 2819 5691 2113 
L 5691 0 
L 5113 0 
L 5113 2094 
Q 5113 2597 4934 2840 
Q 4756 3084 4391 3084 
Q 3944 3084 3684 2787 
Q 3425 2491 3425 1978 
L 3425 0 
L 2847 0 
L 2847 2094 
Q 2847 2600 2669 2842 
Q 2491 3084 2119 3084 
Q 1678 3084 1418 2786 
Q 1159 2488 1159 1978 
L 1159 0 
L 581 0 
L 581 3500 
L 1159 3500 
L 1159 2956 
Q 1356 3278 1631 3431 
Q 1906 3584 2284 3584 
Q 2666 3584 2933 3390 
Q 3200 3197 3328 2828 
z
" id="DejaVuSans-6d" transform="scale(0.015625)"/>
       <path d="M 3513 2113 
L 3513 0 
L 2938 0 
L 2938 2094 
Q 2938 2591 2744 2837 
Q 2550 3084 2163 3084 
Q 1697 3084 1428 2787 
Q 1159 2491 1159 1978 
L 1159 0 
L 581 0 
L 581 3500 
L 1159 3500 
L 1159 2956 
Q 1366 3272 1645 3428 
Q 1925 3584 2291 3584 
Q 2894 3584 3203 3211 
Q 3513 2838 3513 2113 
z
" id="DejaVuSans-6e" transform="scale(0.015625)"/>
       <path d="M 1172 4494 
L 1172 3500 
L 2356 3500 
L 2356 3053 
L 1172 3053 
L 1172 1153 
Q 1172 725 1289 603 
Q 1406 481 1766 481 
L 2356 481 
L 2356 0 
L 1766 0 
Q 1100 0 847 248 
Q 594 497 594 1153 
L 594 3053 
L 172 3053 
L 172 3500 
L 594 3500 
L 594 4494 
L 1172 4494 
z
" id="DejaVuSans-74" transform="scale(0.015625)"/>
      </defs>
      <use transform="translate(0 0.765625)" xlink:href="#DejaVuSans-2212"/>
      <use transform="translate(83.789062 0.765625)" xlink:href="#DejaVuSans-7c"/>
      <use transform="translate(117.480469 0.765625)" xlink:href="#DejaVuSans-7c"/>
      <use transform="translate(151.171875 0.765625)" xlink:href="#DejaVuSans-20"/>
      <use transform="translate(182.958984 0.765625)" xlink:href="#DejaVuSans-54"/>
      <use transform="translate(244.042969 0.765625)" xlink:href="#DejaVuSans-68"/>
      <use transform="translate(307.421875 0.765625)" xlink:href="#DejaVuSans-65"/>
      <use transform="translate(368.945312 0.765625)" xlink:href="#DejaVuSans-6f"/>
      <use transform="translate(430.126953 0.765625)" xlink:href="#DejaVuSans-72"/>
      <use transform="translate(471.240234 0.765625)" xlink:href="#DejaVuSans-79"/>
      <use transform="translate(530.419922 0.765625)" xlink:href="#DejaVuSans-20"/>
      <use transform="translate(562.207031 0.765625)" xlink:href="#DejaVuSans-2d"/>
      <use transform="translate(598.291016 0.765625)" xlink:href="#DejaVuSans-2d"/>
      <use transform="translate(634.375 0.765625)" xlink:href="#DejaVuSans-20"/>
      <use transform="translate(666.162109 0.765625)" xlink:href="#DejaVuSans-45"/>
      <use transform="translate(729.345703 0.765625)" xlink:href="#DejaVuSans-78"/>
      <use transform="translate(788.525391 0.765625)" xlink:href="#DejaVuSans-70"/>
      <use transform="translate(852.001953 0.765625)" xlink:href="#DejaVuSans-65"/>
      <use transform="translate(913.525391 0.765625)" xlink:href="#DejaVuSans-72"/>
      <use transform="translate(954.638672 0.765625)" xlink:href="#DejaVuSans-69"/>
      <use transform="translate(982.421875 0.765625)" xlink:href="#DejaVuSans-6d"/>
      <use transform="translate(1079.833984 0.765625)" xlink:href="#DejaVuSans-65"/>
      <use transform="translate(1141.357422 0.765625)" xlink:href="#DejaVuSans-6e"/>
      <use transform="translate(1204.736328 0.765625)" xlink:href="#DejaVuSans-74"/>
      <use transform="translate(1243.945312 0.765625)" xlink:href="#DejaVuSans-20"/>
      <use transform="translate(1275.732422 0.765625)" xlink:href="#DejaVuSans-7c"/>
      <use transform="translate(1309.423828 0.765625)" xlink:href="#DejaVuSans-7c"/>
      <use transform="translate(1344.072266 39.046875)scale(0.7)" xlink:href="#DejaVuSans-32"/>
     </g>
    </g>
   </g>
   <g id="line2d_12">
    <path clip-path="url(#p58b5c8e3a8)" d="M 39.281318 127.339287 
L 39.673642 122.192098 
L 41.235313 100.174719 
L 42.025445 92.69999 
L 42.884836 86.598316 
L 43.879451 81.122524 
L 45.059036 75.888461 
L 46.45799 70.700257 
L 48.068447 65.576774 
L 49.855517 60.625323 
L 51.747925 56.035316 
L 53.631512 52.032696 
L 55.514403 48.527574 
L 57.433282 45.408275 
L 59.354889 42.69159 
L 61.352045 40.250743 
L 63.412456 38.093537 
L 65.521822 36.218565 
L 67.663939 34.616043 
L 69.820858 33.269049 
L 72.132197 32.080897 
L 74.609013 31.055691 
L 77.263152 30.191978 
L 80.304005 29.438638 
L 84.00406 28.769933 
L 88.96381 28.126328 
L 102.894345 26.437069 
L 122.53508 23.679146 
L 126.545038 23.475469 
L 130.315495 23.508653 
L 134.245671 23.771813 
L 138.808097 24.304177 
L 148.588826 25.755325 
L 156.539432 26.811556 
L 163.307833 27.4846 
L 169.849851 27.922142 
L 177.375295 28.191891 
L 186.011618 28.254394 
L 196.641449 28.08118 
L 212.007682 27.581608 
L 212.007682 27.581608 
" style="fill:none;stroke:#1f77b4;stroke-linecap:square;stroke-width:1.5;"/>
   </g>
   <g id="patch_3">
    <path d="M 30.645 132.577561 
L 30.645 18.182066 
" style="fill:none;stroke:#000000;stroke-linecap:square;stroke-linejoin:miter;stroke-width:0.8;"/>
   </g>
   <g id="patch_4">
    <path d="M 220.644 132.577561 
L 220.644 18.182066 
" style="fill:none;stroke:#000000;stroke-linecap:square;stroke-linejoin:miter;stroke-width:0.8;"/>
   </g>
   <g id="patch_5">
    <path d="M 30.645 132.577561 
L 220.644 132.577561 
" style="fill:none;stroke:#000000;stroke-linecap:square;stroke-linejoin:miter;stroke-width:0.8;"/>
   </g>
   <g id="patch_6">
    <path d="M 30.645 18.182066 
L 220.644 18.182066 
" style="fill:none;stroke:#000000;stroke-linecap:square;stroke-linejoin:miter;stroke-width:0.8;"/>
   </g>
   <g id="PathCollection_1">
    <defs>
     <path d="M 0 3.535534 
C 0.937635 3.535534 1.836992 3.163008 2.5 2.5 
C 3.163008 1.836992 3.535534 0.937635 3.535534 0 
C 3.535534 -0.937635 3.163008 -1.836992 2.5 -2.5 
C 1.836992 -3.163008 0.937635 -3.535534 0 -3.535534 
C -0.937635 -3.535534 -1.836992 -3.163008 -2.5 -2.5 
C -3.163008 -1.836992 -3.535534 -0.937635 -3.535534 0 
C -3.535534 0.937635 -3.163008 1.836992 -2.5 2.5 
C -1.836992 3.163008 -0.937635 3.535534 0 3.535534 
z
" id="mc620120160" style="stroke:#ff0000;"/>
    </defs>
    <g clip-path="url(#p58b5c8e3a8)">
     <use style="fill:#ff0000;stroke:#ff0000;" x="49.44265" xlink:href="#mc620120160" y="61.711449"/>
     <use style="fill:#ff0000;stroke:#ff0000;" x="85.661794" xlink:href="#mc620120160" y="28.531852"/>
     <use style="fill:#ff0000;stroke:#ff0000;" x="39.282237" xlink:href="#mc620120160" y="127.330068"/>
     <use style="fill:#ff0000;stroke:#ff0000;" x="44.557439" xlink:href="#mc620120160" y="77.990982"/>
     <use style="fill:#ff0000;stroke:#ff0000;" x="40.966142" xlink:href="#mc620120160" y="103.287352"/>
     <use style="fill:#ff0000;stroke:#ff0000;" x="212.007682" xlink:href="#mc620120160" y="27.581332"/>
     <use style="fill:#ff0000;stroke:#ff0000;" x="132.228028" xlink:href="#mc620120160" y="23.602395"/>
     <use style="fill:#ff0000;stroke:#ff0000;" x="119.278637" xlink:href="#mc620120160" y="24.001997"/>
     <use style="fill:#ff0000;stroke:#ff0000;" x="143.328435" xlink:href="#mc620120160" y="24.966452"/>
     <use style="fill:#ff0000;stroke:#ff0000;" x="66.157153" xlink:href="#mc620120160" y="36.004687"/>
    </g>
   </g>
  </g>
 </g>
 <defs>
  <clipPath id="p58b5c8e3a8">
   <rect height="114.395496" width="189.999" x="30.645" y="18.182066"/>
  </clipPath>
 </defs>
</svg>
