<?xml version="1.0" encoding="utf-8" standalone="no"?>
<!DOCTYPE svg PUBLIC "-//W3C//DTD SVG 1.1//EN"
  "http://www.w3.org/Graphics/SVG/1.1/DTD/svg11.dtd">
<svg height="322.837206pt" version="1.1" viewBox="0 0 245.16 322.837206" width="245.16pt" xmlns="http://www.w3.org/2000/svg" xmlns:xlink="http://www.w3.org/1999/xlink">
 <metadata>
  <rdf:RDF xmlns:cc="http://creativecommons.org/ns#" xmlns:dc="http://purl.org/dc/elements/1.1/" xmlns:rdf="http://www.w3.org/1999/02/22-rdf-syntax-ns#">
   <cc:Work>
    <dc:type rdf:resource="http://purl.org/dc/dcmitype/StillImage"/>
    <dc:date>2020-09-18T16:33:45.726067</dc:date>
    <dc:format>image/svg+xml</dc:format>
    <dc:creator>
     <cc:Agent>
      <dc:title>Matplotlib v1.4.3.post23772+g986bbfe05, https://matplotlib.org/</dc:title>
     </cc:Agent>
    </dc:creator>
   </cc:Work>
  </rdf:RDF>
 </metadata>
 <defs>
  <style type="text/css">*{stroke-linecap:butt;stroke-linejoin:round;}</style>
 </defs>
 <g id="figure_1">
  <g id="patch_1">
   <path d="M 0 322.837206 
L 245.16 322.837206 
L 245.16 0 
L 0 0 
z
" style="fill:none;"/>
  </g>
  <g id="axes_1">
   <g id="patch_2">
    <path d="M 42.230266 124.644546 
L 239.099361 124.644546 
L 239.099361 2.972754 
L 42.230266 2.972754 
z
" style="fill:#ffffff;"/>
   </g>
   <g id="matplotlib.axis_1">
    <g id="xtick_1">
     <g id="line2d_1">
      <defs>
       <path d="M 0 0 
L 0 3.5 
" id="m9cf9a05ff9" style="stroke:#000000;stroke-width:0.8;"/>
      </defs>
      <g>
       <use style="stroke:#000000;stroke-width:0.8;" x="106.545577" xlink:href="#m9cf9a05ff9" y="124.644546"/>
      </g>
     </g>
     <g id="text_1">
      <!-- $\mathdefault{10^{2}}$ -->
      <g transform="translate(100.484938 137.179348)scale(0.08 -0.08)">
       <defs>
        <path d="M 1702 4058 
C 1702 4192 1696 4192 1606 4192 
C 1357 3916 979 3827 621 3827 
C 602 3827 570 3827 563 3808 
C 557 3795 557 3782 557 3648 
C 755 3648 1088 3686 1344 3839 
L 1344 461 
C 1344 236 1331 160 781 160 
L 589 160 
L 589 0 
C 896 0 1216 0 1523 0 
C 1830 0 2150 0 2458 0 
L 2458 160 
L 2266 160 
C 1715 160 1702 230 1702 458 
L 1702 4058 
z
" id="CMR17-31" transform="scale(0.015625)"/>
        <path d="M 2688 2025 
C 2688 2416 2682 3080 2413 3591 
C 2176 4039 1798 4198 1466 4198 
C 1158 4198 768 4058 525 3597 
C 269 3118 243 2524 243 2025 
C 243 1661 250 1106 448 619 
C 723 -39 1216 -128 1466 -128 
C 1760 -128 2208 -7 2470 600 
C 2662 1042 2688 1559 2688 2025 
z
M 1466 -26 
C 1056 -26 813 325 723 812 
C 653 1188 653 1738 653 2096 
C 653 2588 653 2997 736 3387 
C 858 3929 1216 4096 1466 4096 
C 1728 4096 2067 3923 2189 3400 
C 2272 3036 2278 2607 2278 2096 
C 2278 1680 2278 1169 2202 792 
C 2067 95 1690 -26 1466 -26 
z
" id="CMR17-30" transform="scale(0.015625)"/>
        <path d="M 2669 989 
L 2554 989 
C 2490 536 2438 459 2413 420 
C 2381 369 1920 369 1830 369 
L 602 369 
C 832 619 1280 1072 1824 1597 
C 2214 1967 2669 2402 2669 3035 
C 2669 3790 2067 4224 1395 4224 
C 691 4224 262 3604 262 3030 
C 262 2780 448 2748 525 2748 
C 589 2748 781 2787 781 3010 
C 781 3207 614 3264 525 3264 
C 486 3264 448 3258 422 3245 
C 544 3790 915 4058 1306 4058 
C 1862 4058 2227 3617 2227 3035 
C 2227 2479 1901 2000 1536 1584 
L 262 146 
L 262 0 
L 2515 0 
L 2669 989 
z
" id="CMR17-32" transform="scale(0.015625)"/>
       </defs>
       <use transform="scale(0.996264)" xlink:href="#CMR17-31"/>
       <use transform="translate(45.690477 0)scale(0.996264)" xlink:href="#CMR17-30"/>
       <use transform="translate(91.380954 36.153639)scale(0.697382)" xlink:href="#CMR17-32"/>
      </g>
     </g>
    </g>
    <g id="xtick_2">
     <g id="line2d_2">
      <g>
       <use style="stroke:#000000;stroke-width:0.8;" x="212.433826" xlink:href="#m9cf9a05ff9" y="124.644546"/>
      </g>
     </g>
     <g id="text_2">
      <!-- $\mathdefault{10^{3}}$ -->
      <g transform="translate(206.373187 137.179348)scale(0.08 -0.08)">
       <defs>
        <path d="M 1414 2157 
C 1984 2157 2234 1662 2234 1090 
C 2234 320 1824 25 1453 25 
C 1114 25 563 194 390 693 
C 422 680 454 680 486 680 
C 640 680 755 782 755 948 
C 755 1133 614 1216 486 1216 
C 378 1216 211 1165 211 926 
C 211 335 787 -128 1466 -128 
C 2176 -128 2720 430 2720 1085 
C 2720 1707 2208 2157 1600 2227 
C 2086 2328 2554 2756 2554 3329 
C 2554 3820 2048 4179 1472 4179 
C 890 4179 378 3829 378 3329 
C 378 3110 544 3072 627 3072 
C 762 3072 877 3155 877 3321 
C 877 3486 762 3569 627 3569 
C 602 3569 570 3569 544 3557 
C 730 3959 1235 4032 1459 4032 
C 1683 4032 2106 3925 2106 3320 
C 2106 3143 2080 2828 1862 2550 
C 1670 2304 1453 2304 1242 2284 
C 1210 2284 1062 2269 1037 2269 
C 992 2263 966 2257 966 2208 
C 966 2163 973 2157 1101 2157 
L 1414 2157 
z
" id="CMR17-33" transform="scale(0.015625)"/>
       </defs>
       <use transform="scale(0.996264)" xlink:href="#CMR17-31"/>
       <use transform="translate(45.690477 0)scale(0.996264)" xlink:href="#CMR17-30"/>
       <use transform="translate(91.380954 36.153639)scale(0.697382)" xlink:href="#CMR17-33"/>
      </g>
     </g>
    </g>
    <g id="xtick_3">
     <g id="line2d_3">
      <defs>
       <path d="M 0 0 
L 0 2 
" id="m199dccc101" style="stroke:#000000;stroke-width:0.6;"/>
      </defs>
      <g>
       <use style="stroke:#000000;stroke-width:0.6;" x="51.178861" xlink:href="#m199dccc101" y="124.644546"/>
      </g>
     </g>
    </g>
    <g id="xtick_4">
     <g id="line2d_4">
      <g>
       <use style="stroke:#000000;stroke-width:0.6;" x="64.408406" xlink:href="#m199dccc101" y="124.644546"/>
      </g>
     </g>
    </g>
    <g id="xtick_5">
     <g id="line2d_5">
      <g>
       <use style="stroke:#000000;stroke-width:0.6;" x="74.670037" xlink:href="#m199dccc101" y="124.644546"/>
      </g>
     </g>
    </g>
    <g id="xtick_6">
     <g id="line2d_6">
      <g>
       <use style="stroke:#000000;stroke-width:0.6;" x="83.054401" xlink:href="#m199dccc101" y="124.644546"/>
      </g>
     </g>
    </g>
    <g id="xtick_7">
     <g id="line2d_7">
      <g>
       <use style="stroke:#000000;stroke-width:0.6;" x="90.143279" xlink:href="#m199dccc101" y="124.644546"/>
      </g>
     </g>
    </g>
    <g id="xtick_8">
     <g id="line2d_8">
      <g>
       <use style="stroke:#000000;stroke-width:0.6;" x="96.283945" xlink:href="#m199dccc101" y="124.644546"/>
      </g>
     </g>
    </g>
    <g id="xtick_9">
     <g id="line2d_9">
      <g>
       <use style="stroke:#000000;stroke-width:0.6;" x="101.700396" xlink:href="#m199dccc101" y="124.644546"/>
      </g>
     </g>
    </g>
    <g id="xtick_10">
     <g id="line2d_10">
      <g>
       <use style="stroke:#000000;stroke-width:0.6;" x="138.421116" xlink:href="#m199dccc101" y="124.644546"/>
      </g>
     </g>
    </g>
    <g id="xtick_11">
     <g id="line2d_11">
      <g>
       <use style="stroke:#000000;stroke-width:0.6;" x="157.067111" xlink:href="#m199dccc101" y="124.644546"/>
      </g>
     </g>
    </g>
    <g id="xtick_12">
     <g id="line2d_12">
      <g>
       <use style="stroke:#000000;stroke-width:0.6;" x="170.296655" xlink:href="#m199dccc101" y="124.644546"/>
      </g>
     </g>
    </g>
    <g id="xtick_13">
     <g id="line2d_13">
      <g>
       <use style="stroke:#000000;stroke-width:0.6;" x="180.558287" xlink:href="#m199dccc101" y="124.644546"/>
      </g>
     </g>
    </g>
    <g id="xtick_14">
     <g id="line2d_14">
      <g>
       <use style="stroke:#000000;stroke-width:0.6;" x="188.94265" xlink:href="#m199dccc101" y="124.644546"/>
      </g>
     </g>
    </g>
    <g id="xtick_15">
     <g id="line2d_15">
      <g>
       <use style="stroke:#000000;stroke-width:0.6;" x="196.031529" xlink:href="#m199dccc101" y="124.644546"/>
      </g>
     </g>
    </g>
    <g id="xtick_16">
     <g id="line2d_16">
      <g>
       <use style="stroke:#000000;stroke-width:0.6;" x="202.172194" xlink:href="#m199dccc101" y="124.644546"/>
      </g>
     </g>
    </g>
    <g id="xtick_17">
     <g id="line2d_17">
      <g>
       <use style="stroke:#000000;stroke-width:0.6;" x="207.588646" xlink:href="#m199dccc101" y="124.644546"/>
      </g>
     </g>
    </g>
    <g id="text_3">
     <!-- time (s) -->
     <g transform="translate(124.283411 149.902191)scale(0.096 -0.096)">
      <defs>
       <path d="M 1069 2368 
L 1901 2368 
L 1901 2737 
L 1069 2737 
L 1069 3520 
L 614 3520 
L 614 2737 
L 109 2737 
L 109 2368 
L 602 2368 
L 602 749 
C 602 384 685 -64 1107 -64 
C 1427 -64 1722 25 2003 172 
L 1901 548 
C 1747 414 1562 337 1363 337 
C 1082 337 1069 696 1069 856 
L 1069 2368 
z
" id="CMSS17-74" transform="scale(0.015625)"/>
       <path d="M 979 4183 
L 442 4183 
L 442 3648 
L 979 3648 
L 979 4183 
z
M 947 2739 
L 474 2739 
L 474 0 
L 947 0 
L 947 2739 
z
" id="CMSS17-69" transform="scale(0.015625)"/>
       <path d="M 4288 1877 
C 4288 2308 4179 2816 3462 2816 
C 2982 2816 2694 2516 2566 2331 
C 2451 2670 2182 2816 1798 2816 
C 1363 2816 1088 2568 941 2389 
L 941 2758 
L 474 2758 
L 474 0 
L 960 0 
L 960 1559 
C 960 1939 1101 2428 1555 2428 
C 2138 2428 2138 2016 2138 1829 
L 2138 0 
L 2624 0 
L 2624 1559 
C 2624 1939 2765 2428 3219 2428 
C 3802 2428 3802 2016 3802 1829 
L 3802 0 
L 4288 0 
L 4288 1877 
z
" id="CMSS17-6d" transform="scale(0.015625)"/>
       <path d="M 2502 1377 
C 2502 1590 2490 2003 2285 2345 
C 2061 2713 1696 2816 1421 2816 
C 755 2816 192 2188 192 1375 
C 192 582 774 -64 1510 -64 
C 1798 -64 2150 19 2470 248 
C 2470 274 2458 414 2451 420 
C 2451 433 2432 630 2432 656 
C 2125 407 1773 325 1517 325 
C 1107 325 666 667 646 1377 
L 2502 1377 
z
M 698 1728 
C 781 2084 1062 2421 1421 2421 
C 1517 2421 1965 2421 2080 1728 
L 698 1728 
z
" id="CMSS17-65" transform="scale(0.015625)"/>
       <path d="M 1613 4768 
C 1267 4417 474 3601 474 1588 
C 474 -433 1267 -1243 1613 -1600 
L 2003 -1600 
C 1216 -784 960 357 960 1581 
C 960 2798 1203 3946 2003 4768 
L 1613 4768 
z
" id="CMSS17-28" transform="scale(0.015625)"/>
       <path d="M 2061 2627 
C 1683 2807 1389 2807 1197 2807 
C 742 2807 198 2648 198 2003 
C 198 1359 902 1218 1094 1179 
C 1389 1122 1715 1058 1715 740 
C 1715 337 1254 337 1171 337 
C 915 337 563 407 243 638 
L 166 210 
C 531 0 883 -64 1178 -64 
C 1965 -64 2163 416 2163 781 
C 2163 1094 1984 1305 1862 1401 
C 1651 1568 1574 1587 1050 1696 
C 960 1709 646 1779 646 2066 
C 646 2432 1050 2432 1139 2432 
C 1555 2432 1811 2303 1984 2208 
L 2061 2627 
z
" id="CMSS17-73" transform="scale(0.015625)"/>
       <path d="M 723 -1600 
C 1069 -1249 1862 -433 1862 1581 
C 1862 3601 1069 4411 723 4768 
L 333 4768 
C 1120 3952 1376 2811 1376 1588 
C 1376 370 1133 -778 333 -1600 
L 723 -1600 
z
" id="CMSS17-29" transform="scale(0.015625)"/>
      </defs>
      <use transform="scale(0.996264)" xlink:href="#CMSS17-74"/>
      <use transform="translate(33.831567 0)scale(0.996264)" xlink:href="#CMSS17-69"/>
      <use transform="translate(56.01229 0)scale(0.996264)" xlink:href="#CMSS17-6d"/>
      <use transform="translate(130.241544 0)scale(0.996264)" xlink:href="#CMSS17-65"/>
      <use transform="translate(203.109479 0)scale(0.996264)" xlink:href="#CMSS17-28"/>
      <use transform="translate(239.543393 0)scale(0.996264)" xlink:href="#CMSS17-73"/>
      <use transform="translate(275.456935 0)scale(0.996264)" xlink:href="#CMSS17-29"/>
     </g>
    </g>
   </g>
   <g id="matplotlib.axis_2">
    <g id="ytick_1">
     <g id="line2d_18">
      <defs>
       <path d="M 0 0 
L -3.5 0 
" id="m7dbf819500" style="stroke:#000000;stroke-width:0.8;"/>
      </defs>
      <g>
       <use style="stroke:#000000;stroke-width:0.8;" x="42.230266" xlink:href="#m7dbf819500" y="124.644546"/>
      </g>
     </g>
     <g id="text_4">
      <!-- $2\times{}10^{-1}$ -->
      <g transform="translate(2.768441 127.6173)scale(0.08 -0.08)">
       <defs>
        <path d="M 2490 1785 
L 1210 3059 
C 1133 3136 1120 3148 1069 3148 
C 1005 3148 941 3091 941 3020 
C 941 2976 954 2963 1024 2892 
L 2304 1606 
L 1024 320 
C 954 249 941 236 941 192 
C 941 121 1005 64 1069 64 
C 1120 64 1133 76 1210 153 
L 2483 1427 
L 3808 102 
C 3821 96 3866 64 3904 64 
C 3981 64 4032 121 4032 192 
C 4032 204 4032 230 4013 262 
C 4006 275 2989 1280 2669 1606 
L 3840 2777 
C 3872 2816 3968 2899 4000 2937 
C 4006 2950 4032 2976 4032 3020 
C 4032 3091 3981 3148 3904 3148 
C 3853 3148 3827 3123 3757 3052 
L 2490 1785 
z
" id="CMSY10-2" transform="scale(0.015625)"/>
        <path d="M 4218 1472 
C 4326 1472 4442 1472 4442 1600 
C 4442 1728 4326 1728 4218 1728 
L 755 1728 
C 646 1728 531 1728 531 1600 
C 531 1472 646 1472 755 1472 
L 4218 1472 
z
" id="CMSY10-0" transform="scale(0.015625)"/>
       </defs>
       <use transform="scale(0.996264)" xlink:href="#CMR17-32"/>
       <use transform="translate(67.829684 0)scale(0.996264)" xlink:href="#CMSY10-2"/>
       <use transform="translate(167.456359 0)scale(0.996264)" xlink:href="#CMR17-31"/>
       <use transform="translate(213.146836 0)scale(0.996264)" xlink:href="#CMR17-30"/>
       <use transform="translate(258.837313 36.153639)scale(0.697382)" xlink:href="#CMSY10-0"/>
       <use transform="translate(313.078306 36.153639)scale(0.697382)" xlink:href="#CMR17-31"/>
      </g>
     </g>
    </g>
    <g id="ytick_2">
     <g id="line2d_19">
      <g>
       <use style="stroke:#000000;stroke-width:0.8;" x="42.230266" xlink:href="#m7dbf819500" y="108.176564"/>
      </g>
     </g>
    </g>
    <g id="ytick_3">
     <g id="line2d_20">
      <g>
       <use style="stroke:#000000;stroke-width:0.8;" x="42.230266" xlink:href="#m7dbf819500" y="96.492344"/>
      </g>
     </g>
    </g>
    <g id="ytick_4">
     <g id="line2d_21">
      <g>
       <use style="stroke:#000000;stroke-width:0.8;" x="42.230266" xlink:href="#m7dbf819500" y="87.42936"/>
      </g>
     </g>
    </g>
    <g id="ytick_5">
     <g id="line2d_22">
      <g>
       <use style="stroke:#000000;stroke-width:0.8;" x="42.230266" xlink:href="#m7dbf819500" y="80.024362"/>
      </g>
     </g>
    </g>
    <g id="ytick_6">
     <g id="line2d_23">
      <g>
       <use style="stroke:#000000;stroke-width:0.8;" x="42.230266" xlink:href="#m7dbf819500" y="73.763526"/>
      </g>
     </g>
    </g>
    <g id="ytick_7">
     <g id="line2d_24">
      <g>
       <use style="stroke:#000000;stroke-width:0.8;" x="42.230266" xlink:href="#m7dbf819500" y="68.340142"/>
      </g>
     </g>
    </g>
    <g id="ytick_8">
     <g id="line2d_25">
      <g>
       <use style="stroke:#000000;stroke-width:0.8;" x="42.230266" xlink:href="#m7dbf819500" y="63.55638"/>
      </g>
     </g>
    </g>
    <g id="ytick_9">
     <g id="line2d_26">
      <g>
       <use style="stroke:#000000;stroke-width:0.8;" x="42.230266" xlink:href="#m7dbf819500" y="59.277158"/>
      </g>
     </g>
     <g id="text_5">
      <!-- $10^0$ -->
      <g transform="translate(23.108988 62.044559)scale(0.08 -0.08)">
       <use transform="scale(0.996264)" xlink:href="#CMR17-31"/>
       <use transform="translate(45.690477 0)scale(0.996264)" xlink:href="#CMR17-30"/>
       <use transform="translate(91.380954 36.153639)scale(0.697382)" xlink:href="#CMR17-30"/>
      </g>
     </g>
    </g>
    <g id="ytick_10">
     <g id="line2d_27">
      <g>
       <use style="stroke:#000000;stroke-width:0.8;" x="42.230266" xlink:href="#m7dbf819500" y="31.124956"/>
      </g>
     </g>
    </g>
    <g id="ytick_11">
     <g id="line2d_28">
      <g>
       <use style="stroke:#000000;stroke-width:0.8;" x="42.230266" xlink:href="#m7dbf819500" y="14.656974"/>
      </g>
     </g>
    </g>
    <g id="ytick_12">
     <g id="line2d_29">
      <g>
       <use style="stroke:#000000;stroke-width:0.8;" x="42.230266" xlink:href="#m7dbf819500" y="2.972754"/>
      </g>
     </g>
     <g id="text_6">
      <!-- $4\times{}10^0$ -->
      <g transform="translate(8.524581 5.945508)scale(0.08 -0.08)">
       <defs>
        <path d="M 2150 4122 
C 2150 4256 2144 4256 2029 4256 
L 128 1254 
L 128 1088 
L 1779 1088 
L 1779 457 
C 1779 224 1766 160 1318 160 
L 1197 160 
L 1197 0 
C 1402 0 1747 0 1965 0 
C 2182 0 2528 0 2733 0 
L 2733 160 
L 2611 160 
C 2163 160 2150 224 2150 457 
L 2150 1088 
L 2803 1088 
L 2803 1254 
L 2150 1254 
L 2150 4122 
z
M 1798 3703 
L 1798 1254 
L 256 1254 
L 1798 3703 
z
" id="CMR17-34" transform="scale(0.015625)"/>
       </defs>
       <use transform="scale(0.996264)" xlink:href="#CMR17-34"/>
       <use transform="translate(67.829684 0)scale(0.996264)" xlink:href="#CMSY10-2"/>
       <use transform="translate(167.456359 0)scale(0.996264)" xlink:href="#CMR17-31"/>
       <use transform="translate(213.146836 0)scale(0.996264)" xlink:href="#CMR17-30"/>
       <use transform="translate(258.837313 36.153639)scale(0.697382)" xlink:href="#CMR17-30"/>
      </g>
     </g>
    </g>
    <g id="text_7">
     <!-- MSCD ($\mu{}m^2$) -->
     <g transform="translate(8.377413 92.574276)rotate(-90)scale(0.096 -0.096)">
      <defs>
       <path d="M 3194 2371 
L 2886 1473 
C 2835 1307 2662 791 2624 587 
L 2618 587 
C 2598 715 2560 849 2458 1174 
C 2400 1365 2336 1562 2272 1741 
L 1325 4416 
L 576 4416 
L 576 0 
L 1075 0 
L 1075 3900 
L 1082 3900 
C 1082 3894 1139 3613 1530 2499 
L 2374 96 
L 2848 96 
L 3610 2231 
C 3661 2378 3821 2843 3891 3066 
C 3955 3257 4115 3728 4154 3913 
L 4160 3913 
L 4160 0 
L 4666 0 
L 4666 4416 
L 3923 4416 
L 3194 2371 
z
" id="CMSS17-4d" transform="scale(0.015625)"/>
       <path d="M 2797 4169 
C 2515 4334 2208 4480 1690 4480 
C 864 4480 333 3879 333 3266 
C 333 3025 403 2753 653 2475 
C 902 2196 1184 2121 1542 2033 
C 1690 1994 1939 1924 1984 1906 
C 2342 1767 2515 1444 2515 1140 
C 2515 742 2202 318 1645 318 
C 1453 318 890 318 358 819 
L 269 318 
C 794 -64 1363 -128 1651 -128 
C 2438 -128 3002 488 3002 1186 
C 3002 1440 2925 1763 2656 2061 
C 2394 2347 2163 2410 1638 2549 
C 1338 2626 1146 2677 986 2873 
C 877 3013 819 3146 819 3317 
C 819 3673 1126 4060 1690 4060 
C 1971 4060 2336 4002 2707 3660 
L 2797 4169 
z
" id="CMSS17-53" transform="scale(0.015625)"/>
       <path d="M 3501 714 
C 3072 427 2874 344 2355 344 
C 1459 344 934 1303 934 2179 
C 934 3112 1472 4032 2381 4032 
C 2790 4032 3059 3918 3386 3715 
L 3475 4217 
C 3168 4370 2778 4440 2387 4440 
C 1158 4440 397 3316 397 2179 
C 397 927 1299 -64 2323 -64 
C 2874 -64 3066 -19 3539 280 
L 3501 714 
z
" id="CMSS17-43" transform="scale(0.015625)"/>
       <path d="M 570 4416 
L 570 0 
L 2144 0 
C 3194 0 4000 980 4000 2170 
C 4000 3398 3194 4416 2144 4416 
L 570 4416 
z
M 1094 357 
L 1094 4059 
L 2003 4059 
C 2861 4059 3475 3277 3475 2170 
C 3475 1107 2867 357 2003 357 
L 1094 357 
z
" id="CMSS17-44" transform="scale(0.015625)"/>
       <path d="M 922 140 
C 1082 -6 1318 -64 1536 -64 
C 1946 -64 2227 208 2374 405 
C 2438 69 2707 -64 2931 -64 
C 3123 -64 3277 50 3392 277 
C 3494 493 3584 879 3584 903 
C 3584 935 3558 960 3520 960 
C 3462 960 3456 928 3430 834 
C 3334 461 3213 64 2950 64 
C 2765 64 2752 229 2752 358 
C 2752 504 2810 735 2854 926 
L 3034 1615 
C 3059 1737 3130 2023 3162 2139 
C 3200 2292 3270 2567 3270 2592 
C 3270 2688 3194 2752 3098 2752 
C 3040 2752 2906 2726 2854 2535 
L 2406 760 
C 2374 632 2374 619 2291 517 
C 2214 409 1965 64 1562 64 
C 1203 64 1088 326 1088 625 
C 1088 811 1146 1034 1171 1143 
L 1459 2293 
C 1491 2414 1542 2618 1542 2657 
C 1542 2759 1459 2816 1376 2816 
C 1318 2816 1178 2797 1126 2592 
L 198 -1107 
C 192 -1139 179 -1177 179 -1216 
C 179 -1312 256 -1376 352 -1376 
C 538 -1376 576 -1228 621 -1050 
L 922 140 
z
" id="CMMI12-16" transform="scale(0.015625)"/>
       <path d="M 1318 1871 
C 1331 1910 1491 2229 1728 2433 
C 1894 2586 2112 2689 2362 2689 
C 2618 2689 2707 2497 2707 2242 
C 2707 2203 2707 2076 2630 1775 
L 2470 1118 
C 2419 926 2298 453 2285 383 
C 2259 287 2221 121 2221 96 
C 2221 6 2291 -64 2387 -64 
C 2579 -64 2611 83 2669 313 
L 3053 1839 
C 3066 1890 3398 2689 4102 2689 
C 4358 2689 4448 2497 4448 2242 
C 4448 1884 4198 1188 4058 805 
C 4000 651 3968 568 3968 453 
C 3968 166 4166 -64 4474 -64 
C 5069 -64 5293 875 5293 913 
C 5293 945 5267 971 5229 971 
C 5171 971 5165 952 5133 843 
C 4986 332 4749 64 4493 64 
C 4429 64 4326 64 4326 269 
C 4326 436 4403 640 4429 710 
C 4544 1018 4832 1773 4832 2145 
C 4832 2528 4608 2816 4122 2816 
C 3693 2816 3347 2574 3091 2197 
C 3072 2542 2861 2816 2381 2816 
C 1811 2816 1510 2415 1395 2255 
C 1376 2618 1114 2816 832 2816 
C 646 2816 499 2727 378 2484 
C 262 2254 173 1865 173 1839 
C 173 1814 198 1782 243 1782 
C 294 1782 301 1788 339 1935 
C 435 2312 557 2689 813 2689 
C 960 2689 1011 2586 1011 2395 
C 1011 2254 947 2005 902 1807 
L 723 1118 
C 698 996 627 709 595 594 
C 550 428 480 128 480 96 
C 480 6 550 -64 646 -64 
C 723 -64 813 -26 864 70 
C 877 102 934 326 966 453 
L 1107 1028 
L 1318 1871 
z
" id="CMMI12-6d" transform="scale(0.015625)"/>
      </defs>
      <use transform="scale(0.996264)" xlink:href="#CMSS17-4d"/>
      <use transform="translate(81.67603 0)scale(0.996264)" xlink:href="#CMSS17-53"/>
      <use transform="translate(133.724546 0)scale(0.996264)" xlink:href="#CMSS17-43"/>
      <use transform="translate(193.580318 0)scale(0.996264)" xlink:href="#CMSS17-44"/>
      <use transform="translate(292.352272 0)scale(0.996264)" xlink:href="#CMSS17-28"/>
      <use transform="translate(328.786186 0)scale(0.996264)" xlink:href="#CMMI12-16"/>
      <use transform="translate(387.477608 0)scale(0.996264)" xlink:href="#CMMI12-6d"/>
      <use transform="translate(472.804832 36.153639)scale(0.697382)" xlink:href="#CMR17-32"/>
      <use transform="translate(505.286146 0)scale(0.996264)" xlink:href="#CMSS17-29"/>
     </g>
    </g>
   </g>
   <g id="line2d_30">
    <path clip-path="url(#pf69f8d4ad9)" d="M 51.178861 79.895832 
L 83.054401 68.042042 
L 101.700396 72.338144 
L 114.92994 59.684805 
L 125.191572 64.391758 
L 133.575935 62.86924 
L 140.664814 63.724592 
L 146.805479 75.679038 
L 152.22193 52.125446 
L 157.067111 72.374093 
L 161.45011 88.235614 
" style="fill:none;stroke:#aec7e8;stroke-linecap:square;"/>
   </g>
   <g id="line2d_31">
    <path clip-path="url(#pf69f8d4ad9)" d="M 51.178861 79.895832 
L 83.054401 68.042042 
L 101.700396 72.338144 
L 114.92994 59.684805 
L 125.191572 64.391758 
L 133.575935 62.86924 
L 140.664814 63.724592 
L 146.805479 75.679038 
L 152.22193 52.125446 
L 157.067111 72.374093 
L 161.45011 88.235614 
" style="fill:none;stroke:#aec7e8;stroke-linecap:square;stroke-opacity:0.3;stroke-width:3;"/>
   </g>
   <g id="line2d_32">
    <path clip-path="url(#pf69f8d4ad9)" d="M 51.178861 50.539436 
L 83.054401 47.09418 
L 101.700396 45.938369 
L 114.92994 42.714597 
L 125.191572 39.356252 
L 133.575935 43.712702 
L 140.664814 43.259151 
L 146.805479 38.829066 
L 152.22193 38.306144 
L 157.067111 40.546553 
L 161.45011 39.349733 
L 165.451475 38.415313 
L 169.132373 44.935226 
L 172.540353 48.332864 
L 175.713106 42.763379 
L 178.681019 44.77373 
L 181.468944 43.420662 
L 184.09747 38.643652 
L 186.583842 38.27612 
L 188.94265 42.46093 
L 191.186348 41.292901 
L 193.325649 36.369626 
L 195.369838 47.214021 
L 197.327014 40.96873 
L 199.204282 40.265019 
L 201.007912 40.16346 
L 202.743465 41.503449 
L 204.415892 42.534622 
L 206.029626 41.842876 
L 207.588646 42.372346 
L 209.096541 38.284613 
L 210.556558 39.251522 
L 211.971644 30.885191 
L 213.344483 27.463507 
L 214.677524 30.237436 
" style="fill:none;stroke:#aec7e8;stroke-linecap:square;"/>
   </g>
   <g id="line2d_33">
    <path clip-path="url(#pf69f8d4ad9)" d="M 51.178861 50.539436 
L 83.054401 47.09418 
L 101.700396 45.938369 
L 114.92994 42.714597 
L 125.191572 39.356252 
L 133.575935 43.712702 
L 140.664814 43.259151 
L 146.805479 38.829066 
L 152.22193 38.306144 
L 157.067111 40.546553 
L 161.45011 39.349733 
L 165.451475 38.415313 
L 169.132373 44.935226 
L 172.540353 48.332864 
L 175.713106 42.763379 
L 178.681019 44.77373 
L 181.468944 43.420662 
L 184.09747 38.643652 
L 186.583842 38.27612 
L 188.94265 42.46093 
L 191.186348 41.292901 
L 193.325649 36.369626 
L 195.369838 47.214021 
L 197.327014 40.96873 
L 199.204282 40.265019 
L 201.007912 40.16346 
L 202.743465 41.503449 
L 204.415892 42.534622 
L 206.029626 41.842876 
L 207.588646 42.372346 
L 209.096541 38.284613 
L 210.556558 39.251522 
L 211.971644 30.885191 
L 213.344483 27.463507 
L 214.677524 30.237436 
" style="fill:none;stroke:#aec7e8;stroke-linecap:square;stroke-opacity:0.3;stroke-width:3;"/>
   </g>
   <g id="line2d_34">
    <path clip-path="url(#pf69f8d4ad9)" d="M 51.178861 58.198625 
L 83.054401 60.248292 
L 101.700396 49.391896 
L 114.92994 49.395666 
L 125.191572 42.45315 
L 133.575935 40.311368 
L 140.664814 37.704431 
L 146.805479 36.136395 
L 152.22193 37.55928 
L 157.067111 38.926844 
L 161.45011 38.70995 
L 165.451475 40.110178 
L 169.132373 40.930108 
L 172.540353 38.366244 
L 175.713106 37.468148 
L 178.681019 36.457801 
L 181.468944 34.800525 
L 184.09747 33.59046 
L 186.583842 33.208485 
L 188.94265 34.556117 
L 191.186348 34.515292 
L 193.325649 38.422865 
L 195.369838 37.295415 
L 197.327014 40.198441 
L 199.204282 41.646825 
L 201.007912 42.328194 
L 202.743465 40.041438 
L 204.415892 39.673705 
L 206.029626 39.588962 
L 207.588646 38.661898 
L 209.096541 39.912266 
L 210.556558 37.56198 
L 211.971644 37.823558 
L 213.344483 38.541403 
L 214.677524 37.636695 
L 215.973009 39.363914 
L 217.232997 38.773447 
L 218.459381 38.723888 
L 219.653908 35.489478 
L 220.81819 35.486133 
L 221.953721 33.382426 
L 223.061887 30.696101 
L 224.143977 28.327201 
L 225.201189 30.859644 
L 226.234641 28.348269 
L 227.245378 30.373286 
L 228.234377 28.269626 
L 229.202553 33.471546 
L 230.150766 17.820057 
" style="fill:none;stroke:#aec7e8;stroke-linecap:square;"/>
   </g>
   <g id="line2d_35">
    <path clip-path="url(#pf69f8d4ad9)" d="M 51.178861 58.198625 
L 83.054401 60.248292 
L 101.700396 49.391896 
L 114.92994 49.395666 
L 125.191572 42.45315 
L 133.575935 40.311368 
L 140.664814 37.704431 
L 146.805479 36.136395 
L 152.22193 37.55928 
L 157.067111 38.926844 
L 161.45011 38.70995 
L 165.451475 40.110178 
L 169.132373 40.930108 
L 172.540353 38.366244 
L 175.713106 37.468148 
L 178.681019 36.457801 
L 181.468944 34.800525 
L 184.09747 33.59046 
L 186.583842 33.208485 
L 188.94265 34.556117 
L 191.186348 34.515292 
L 193.325649 38.422865 
L 195.369838 37.295415 
L 197.327014 40.198441 
L 199.204282 41.646825 
L 201.007912 42.328194 
L 202.743465 40.041438 
L 204.415892 39.673705 
L 206.029626 39.588962 
L 207.588646 38.661898 
L 209.096541 39.912266 
L 210.556558 37.56198 
L 211.971644 37.823558 
L 213.344483 38.541403 
L 214.677524 37.636695 
L 215.973009 39.363914 
L 217.232997 38.773447 
L 218.459381 38.723888 
L 219.653908 35.489478 
L 220.81819 35.486133 
L 221.953721 33.382426 
L 223.061887 30.696101 
L 224.143977 28.327201 
L 225.201189 30.859644 
L 226.234641 28.348269 
L 227.245378 30.373286 
L 228.234377 28.269626 
L 229.202553 33.471546 
L 230.150766 17.820057 
" style="fill:none;stroke:#aec7e8;stroke-linecap:square;stroke-opacity:0.3;stroke-width:3;"/>
   </g>
   <g id="line2d_36">
    <path clip-path="url(#pf69f8d4ad9)" d="M 51.178861 82.605157 
L 83.054401 80.919279 
L 101.700396 102.672564 
L 114.92994 78.553118 
L 125.191572 92.295125 
L 133.575935 77.214687 
L 140.664814 78.704162 
L 146.805479 97.056629 
L 152.22193 73.985191 
L 157.067111 79.035815 
L 161.45011 84.789931 
L 165.451475 74.509259 
L 169.132373 87.614512 
L 172.540353 82.556065 
L 175.713106 74.407174 
L 178.681019 73.779916 
L 181.468944 62.482721 
L 184.09747 85.229132 
L 186.583842 74.482972 
L 188.94265 65.274857 
L 191.186348 74.24786 
L 193.325649 106.054415 
L 195.369838 88.333397 
L 195.700969 323.837206 
M 198.878512 323.837206 
L 199.204282 81.012895 
L 201.007912 100.821545 
L 202.743465 66.448869 
L 204.415892 69.030502 
L 206.029626 87.183858 
L 207.588646 81.775382 
L 209.096541 92.65577 
L 210.556558 73.074041 
L 211.971644 74.001034 
L 213.344483 97.61639 
L 215.973009 92.292984 
L 218.459381 75.746155 
L 219.653908 82.417259 
L 220.81819 74.338078 
L 221.953721 68.569367 
L 224.143977 79.760556 
L 227.245378 64.490747 
L 228.234377 88.235614 
L 229.202553 91.487647 
" style="fill:none;stroke:#aec7e8;stroke-linecap:square;"/>
   </g>
   <g id="line2d_37">
    <path clip-path="url(#pf69f8d4ad9)" d="M 51.178861 82.605157 
L 83.054401 80.919279 
L 101.700396 102.672564 
L 114.92994 78.553118 
L 125.191572 92.295125 
L 133.575935 77.214687 
L 140.664814 78.704162 
L 146.805479 97.056629 
L 152.22193 73.985191 
L 157.067111 79.035815 
L 161.45011 84.789931 
L 165.451475 74.509259 
L 169.132373 87.614512 
L 172.540353 82.556065 
L 175.713106 74.407174 
L 178.681019 73.779916 
L 181.468944 62.482721 
L 184.09747 85.229132 
L 186.583842 74.482972 
L 188.94265 65.274857 
L 191.186348 74.24786 
L 193.325649 106.054415 
L 195.369838 88.333397 
L 195.700969 323.837206 
M 198.878512 323.837206 
L 199.204282 81.012895 
L 201.007912 100.821545 
L 202.743465 66.448869 
L 204.415892 69.030502 
L 206.029626 87.183858 
L 207.588646 81.775382 
L 209.096541 92.65577 
L 210.556558 73.074041 
L 211.971644 74.001034 
L 213.344483 97.61639 
L 215.973009 92.292984 
L 218.459381 75.746155 
L 219.653908 82.417259 
L 220.81819 74.338078 
L 221.953721 68.569367 
L 224.143977 79.760556 
L 227.245378 64.490747 
L 228.234377 88.235614 
L 229.202553 91.487647 
" style="fill:none;stroke:#aec7e8;stroke-linecap:square;stroke-opacity:0.3;stroke-width:3;"/>
   </g>
   <g id="line2d_38">
    <path clip-path="url(#pf69f8d4ad9)" d="M 51.178861 59.498782 
L 83.054401 54.743009 
L 101.700396 50.801539 
L 114.92994 47.829272 
L 125.191572 50.356081 
L 133.575935 48.512882 
L 140.664814 46.55843 
L 146.805479 48.196895 
L 152.22193 48.258516 
L 157.067111 51.059255 
L 161.45011 53.119689 
L 165.451475 52.382272 
L 169.132373 50.66383 
L 172.540353 50.037882 
L 175.713106 48.468327 
L 178.681019 46.991946 
L 181.468944 47.088638 
L 184.09747 46.676422 
L 186.583842 47.352238 
L 188.94265 47.880156 
L 191.186348 45.434008 
L 193.325649 49.24496 
L 195.369838 51.672268 
L 197.327014 48.98769 
L 199.204282 48.558508 
L 201.007912 46.80338 
L 202.743465 46.65997 
L 204.415892 44.473547 
L 206.029626 47.367792 
L 207.588646 49.46118 
L 209.096541 49.364851 
L 210.556558 53.795737 
L 211.971644 50.100605 
L 213.344483 50.140452 
L 214.677524 51.026038 
L 215.973009 48.101811 
L 217.232997 46.5736 
L 218.459381 46.649898 
L 219.653908 44.434567 
L 220.81819 43.844152 
L 221.953721 45.052125 
L 223.061887 45.004003 
L 224.143977 44.887709 
L 225.201189 46.30743 
L 226.234641 50.693405 
L 227.245378 52.606453 
L 228.234377 43.33769 
L 229.202553 46.648437 
L 230.150766 26.56618 
" style="fill:none;stroke:#aec7e8;stroke-linecap:square;"/>
   </g>
   <g id="line2d_39">
    <path clip-path="url(#pf69f8d4ad9)" d="M 51.178861 59.498782 
L 83.054401 54.743009 
L 101.700396 50.801539 
L 114.92994 47.829272 
L 125.191572 50.356081 
L 133.575935 48.512882 
L 140.664814 46.55843 
L 146.805479 48.196895 
L 152.22193 48.258516 
L 157.067111 51.059255 
L 161.45011 53.119689 
L 165.451475 52.382272 
L 169.132373 50.66383 
L 172.540353 50.037882 
L 175.713106 48.468327 
L 178.681019 46.991946 
L 181.468944 47.088638 
L 184.09747 46.676422 
L 186.583842 47.352238 
L 188.94265 47.880156 
L 191.186348 45.434008 
L 193.325649 49.24496 
L 195.369838 51.672268 
L 197.327014 48.98769 
L 199.204282 48.558508 
L 201.007912 46.80338 
L 202.743465 46.65997 
L 204.415892 44.473547 
L 206.029626 47.367792 
L 207.588646 49.46118 
L 209.096541 49.364851 
L 210.556558 53.795737 
L 211.971644 50.100605 
L 213.344483 50.140452 
L 214.677524 51.026038 
L 215.973009 48.101811 
L 217.232997 46.5736 
L 218.459381 46.649898 
L 219.653908 44.434567 
L 220.81819 43.844152 
L 221.953721 45.052125 
L 223.061887 45.004003 
L 224.143977 44.887709 
L 225.201189 46.30743 
L 226.234641 50.693405 
L 227.245378 52.606453 
L 228.234377 43.33769 
L 229.202553 46.648437 
L 230.150766 26.56618 
" style="fill:none;stroke:#aec7e8;stroke-linecap:square;stroke-opacity:0.3;stroke-width:3;"/>
   </g>
   <g id="line2d_40">
    <path clip-path="url(#pf69f8d4ad9)" d="M 51.178861 47.792091 
L 83.054401 41.937713 
L 101.700396 36.405168 
L 114.92994 35.748952 
L 125.191572 38.767425 
L 133.575935 38.850559 
L 140.664814 42.188588 
L 146.805479 39.561565 
L 152.22193 37.246473 
L 157.067111 34.324569 
L 161.45011 33.030023 
L 165.451475 34.903914 
L 169.132373 37.089116 
L 172.540353 34.367281 
L 175.713106 39.693079 
L 178.681019 40.860488 
L 181.468944 39.055252 
L 184.09747 35.020335 
L 186.583842 34.537174 
L 188.94265 36.730026 
L 191.186348 37.546778 
L 193.325649 37.479429 
L 195.369838 38.182899 
L 197.327014 39.838061 
L 199.204282 36.603391 
L 201.007912 36.868593 
L 202.743465 42.224408 
L 204.415892 36.147414 
L 206.029626 40.320871 
L 207.588646 37.896451 
L 209.096541 40.734305 
L 210.556558 45.53546 
L 211.971644 43.682346 
L 213.344483 40.264539 
L 214.677524 46.25588 
L 215.973009 44.387809 
L 217.232997 45.893826 
L 218.459381 40.332988 
L 219.653908 45.943282 
L 220.81819 42.652505 
L 221.953721 44.287382 
L 223.061887 48.144045 
L 224.143977 38.645882 
L 225.201189 46.077308 
L 226.234641 38.712979 
L 227.245378 35.337907 
L 228.234377 44.838093 
L 229.202553 59.137069 
" style="fill:none;stroke:#aec7e8;stroke-linecap:square;"/>
   </g>
   <g id="line2d_41">
    <path clip-path="url(#pf69f8d4ad9)" d="M 51.178861 47.792091 
L 83.054401 41.937713 
L 101.700396 36.405168 
L 114.92994 35.748952 
L 125.191572 38.767425 
L 133.575935 38.850559 
L 140.664814 42.188588 
L 146.805479 39.561565 
L 152.22193 37.246473 
L 157.067111 34.324569 
L 161.45011 33.030023 
L 165.451475 34.903914 
L 169.132373 37.089116 
L 172.540353 34.367281 
L 175.713106 39.693079 
L 178.681019 40.860488 
L 181.468944 39.055252 
L 184.09747 35.020335 
L 186.583842 34.537174 
L 188.94265 36.730026 
L 191.186348 37.546778 
L 193.325649 37.479429 
L 195.369838 38.182899 
L 197.327014 39.838061 
L 199.204282 36.603391 
L 201.007912 36.868593 
L 202.743465 42.224408 
L 204.415892 36.147414 
L 206.029626 40.320871 
L 207.588646 37.896451 
L 209.096541 40.734305 
L 210.556558 45.53546 
L 211.971644 43.682346 
L 213.344483 40.264539 
L 214.677524 46.25588 
L 215.973009 44.387809 
L 217.232997 45.893826 
L 218.459381 40.332988 
L 219.653908 45.943282 
L 220.81819 42.652505 
L 221.953721 44.287382 
L 223.061887 48.144045 
L 224.143977 38.645882 
L 225.201189 46.077308 
L 226.234641 38.712979 
L 227.245378 35.337907 
L 228.234377 44.838093 
L 229.202553 59.137069 
" style="fill:none;stroke:#aec7e8;stroke-linecap:square;stroke-opacity:0.3;stroke-width:3;"/>
   </g>
   <g id="line2d_42">
    <path clip-path="url(#pf69f8d4ad9)" d="M 51.178861 41.752757 
L 83.054401 36.884518 
L 101.700396 37.647682 
L 114.92994 37.879458 
L 125.191572 38.552463 
L 133.575935 33.474327 
L 140.664814 33.506622 
L 146.805479 40.420772 
L 152.22193 33.89476 
L 157.067111 34.947041 
L 161.45011 37.186231 
L 165.451475 36.787822 
L 169.132373 38.642044 
L 172.540353 40.481453 
L 175.713106 38.772514 
L 178.681019 40.872373 
L 181.468944 33.798067 
L 184.09747 36.476877 
L 186.583842 38.409761 
L 188.94265 36.185548 
L 191.186348 35.483124 
L 193.325649 32.707159 
L 195.369838 36.666377 
L 197.327014 39.167488 
L 199.204282 30.695936 
L 201.007912 38.995469 
L 202.743465 39.363845 
L 204.415892 36.895614 
L 206.029626 34.061191 
L 207.588646 29.635521 
L 209.096541 37.079858 
L 210.556558 37.763185 
L 211.971644 30.635116 
L 213.344483 35.834017 
L 214.677524 35.159526 
L 215.973009 29.040515 
L 217.232997 29.562903 
L 218.459381 31.067984 
L 219.653908 38.383264 
L 220.81819 38.390632 
L 221.953721 27.646972 
L 223.061887 38.273567 
L 224.143977 35.791821 
L 225.201189 34.489233 
L 226.234641 30.621683 
L 227.245378 23.34726 
L 228.234377 36.455605 
L 229.202553 19.243345 
L 230.150766 24.707123 
" style="fill:none;stroke:#aec7e8;stroke-linecap:square;"/>
   </g>
   <g id="line2d_43">
    <path clip-path="url(#pf69f8d4ad9)" d="M 51.178861 41.752757 
L 83.054401 36.884518 
L 101.700396 37.647682 
L 114.92994 37.879458 
L 125.191572 38.552463 
L 133.575935 33.474327 
L 140.664814 33.506622 
L 146.805479 40.420772 
L 152.22193 33.89476 
L 157.067111 34.947041 
L 161.45011 37.186231 
L 165.451475 36.787822 
L 169.132373 38.642044 
L 172.540353 40.481453 
L 175.713106 38.772514 
L 178.681019 40.872373 
L 181.468944 33.798067 
L 184.09747 36.476877 
L 186.583842 38.409761 
L 188.94265 36.185548 
L 191.186348 35.483124 
L 193.325649 32.707159 
L 195.369838 36.666377 
L 197.327014 39.167488 
L 199.204282 30.695936 
L 201.007912 38.995469 
L 202.743465 39.363845 
L 204.415892 36.895614 
L 206.029626 34.061191 
L 207.588646 29.635521 
L 209.096541 37.079858 
L 210.556558 37.763185 
L 211.971644 30.635116 
L 213.344483 35.834017 
L 214.677524 35.159526 
L 215.973009 29.040515 
L 217.232997 29.562903 
L 218.459381 31.067984 
L 219.653908 38.383264 
L 220.81819 38.390632 
L 221.953721 27.646972 
L 223.061887 38.273567 
L 224.143977 35.791821 
L 225.201189 34.489233 
L 226.234641 30.621683 
L 227.245378 23.34726 
L 228.234377 36.455605 
L 229.202553 19.243345 
L 230.150766 24.707123 
" style="fill:none;stroke:#aec7e8;stroke-linecap:square;stroke-opacity:0.3;stroke-width:3;"/>
   </g>
   <g id="line2d_44">
    <path clip-path="url(#pf69f8d4ad9)" d="M 51.178861 45.44478 
L 83.054401 39.550206 
L 101.700396 41.484019 
L 114.92994 37.705029 
L 125.191572 39.731224 
L 133.575935 36.552075 
L 140.664814 36.928788 
L 146.805479 35.790673 
L 152.22193 37.53838 
L 157.067111 34.213758 
L 161.45011 37.217114 
L 165.451475 38.556372 
L 169.132373 37.652985 
L 172.540353 45.914945 
L 175.713106 44.184285 
L 178.681019 37.684929 
L 181.468944 42.126234 
L 184.09747 46.285049 
L 186.583842 40.376484 
L 188.94265 46.683066 
L 191.186348 41.42601 
L 193.325649 42.901099 
L 195.369838 48.534016 
L 197.327014 35.264531 
L 199.204282 35.052592 
L 201.007912 46.482431 
L 202.743465 44.361764 
" style="fill:none;stroke:#aec7e8;stroke-linecap:square;"/>
   </g>
   <g id="line2d_45">
    <path clip-path="url(#pf69f8d4ad9)" d="M 51.178861 45.44478 
L 83.054401 39.550206 
L 101.700396 41.484019 
L 114.92994 37.705029 
L 125.191572 39.731224 
L 133.575935 36.552075 
L 140.664814 36.928788 
L 146.805479 35.790673 
L 152.22193 37.53838 
L 157.067111 34.213758 
L 161.45011 37.217114 
L 165.451475 38.556372 
L 169.132373 37.652985 
L 172.540353 45.914945 
L 175.713106 44.184285 
L 178.681019 37.684929 
L 181.468944 42.126234 
L 184.09747 46.285049 
L 186.583842 40.376484 
L 188.94265 46.683066 
L 191.186348 41.42601 
L 193.325649 42.901099 
L 195.369838 48.534016 
L 197.327014 35.264531 
L 199.204282 35.052592 
L 201.007912 46.482431 
L 202.743465 44.361764 
" style="fill:none;stroke:#aec7e8;stroke-linecap:square;stroke-opacity:0.3;stroke-width:3;"/>
   </g>
   <g id="line2d_46">
    <path clip-path="url(#pf69f8d4ad9)" d="M 51.178861 39.092023 
L 83.054401 36.339855 
L 101.700396 36.655265 
L 114.92994 33.746659 
L 125.191572 31.366252 
L 133.575935 31.731993 
L 140.664814 30.597755 
L 146.805479 35.480557 
L 152.22193 32.458399 
L 157.067111 31.559522 
L 161.45011 30.168001 
L 165.451475 30.293528 
L 169.132373 30.961994 
L 172.540353 31.042689 
L 175.713106 31.330088 
L 178.681019 32.421932 
L 181.468944 33.809636 
L 184.09747 33.968127 
L 186.583842 36.321516 
L 188.94265 33.435488 
L 191.186348 34.844859 
L 193.325649 34.07732 
L 195.369838 35.250661 
L 197.327014 30.545493 
L 199.204282 32.736256 
L 201.007912 32.701002 
L 202.743465 31.318477 
L 204.415892 30.592601 
L 206.029626 27.895401 
L 207.588646 25.790773 
L 209.096541 37.807858 
L 210.556558 32.378301 
L 211.971644 31.752802 
L 213.344483 29.527675 
L 214.677524 33.638009 
L 215.973009 34.823337 
L 217.232997 27.296723 
L 218.459381 30.440577 
L 219.653908 30.978615 
L 220.81819 29.942757 
L 221.953721 28.341831 
L 223.061887 31.840292 
L 224.143977 32.282318 
L 225.201189 45.901602 
L 226.234641 34.750687 
L 227.245378 49.068282 
L 228.234377 79.760556 
L 229.202553 49.145963 
L 230.150766 51.221322 
" style="fill:none;stroke:#aec7e8;stroke-linecap:square;"/>
   </g>
   <g id="line2d_47">
    <path clip-path="url(#pf69f8d4ad9)" d="M 51.178861 39.092023 
L 83.054401 36.339855 
L 101.700396 36.655265 
L 114.92994 33.746659 
L 125.191572 31.366252 
L 133.575935 31.731993 
L 140.664814 30.597755 
L 146.805479 35.480557 
L 152.22193 32.458399 
L 157.067111 31.559522 
L 161.45011 30.168001 
L 165.451475 30.293528 
L 169.132373 30.961994 
L 172.540353 31.042689 
L 175.713106 31.330088 
L 178.681019 32.421932 
L 181.468944 33.809636 
L 184.09747 33.968127 
L 186.583842 36.321516 
L 188.94265 33.435488 
L 191.186348 34.844859 
L 193.325649 34.07732 
L 195.369838 35.250661 
L 197.327014 30.545493 
L 199.204282 32.736256 
L 201.007912 32.701002 
L 202.743465 31.318477 
L 204.415892 30.592601 
L 206.029626 27.895401 
L 207.588646 25.790773 
L 209.096541 37.807858 
L 210.556558 32.378301 
L 211.971644 31.752802 
L 213.344483 29.527675 
L 214.677524 33.638009 
L 215.973009 34.823337 
L 217.232997 27.296723 
L 218.459381 30.440577 
L 219.653908 30.978615 
L 220.81819 29.942757 
L 221.953721 28.341831 
L 223.061887 31.840292 
L 224.143977 32.282318 
L 225.201189 45.901602 
L 226.234641 34.750687 
L 227.245378 49.068282 
L 228.234377 79.760556 
L 229.202553 49.145963 
L 230.150766 51.221322 
" style="fill:none;stroke:#aec7e8;stroke-linecap:square;stroke-opacity:0.3;stroke-width:3;"/>
   </g>
   <g id="line2d_48">
    <path clip-path="url(#pf69f8d4ad9)" d="M 51.178861 107.420731 
L 101.700396 83.578004 
L 114.92994 96.49336 
L 125.191572 82.777056 
L 133.575935 91.487647 
L 140.664814 97.61639 
L 146.805479 80.775341 
L 152.22193 127.037443 
L 157.067111 88.484263 
L 161.45011 73.074041 
L 165.451475 98.842509 
L 169.132373 141.113544 
L 172.540353 74.902931 
L 175.713106 86.051629 
L 178.681019 94.353749 
L 186.583842 74.94968 
L 188.94265 63.809665 
L 193.325649 121.569105 
L 195.369838 94.353749 
L 199.204282 84.80914 
L 202.743465 83.238409 
L 204.415892 110.49828 
L 207.588646 79.760556 
L 217.232997 110.49828 
L 223.061887 70.733039 
" style="fill:none;stroke:#aec7e8;stroke-linecap:square;"/>
   </g>
   <g id="line2d_49">
    <path clip-path="url(#pf69f8d4ad9)" d="M 51.178861 107.420731 
L 101.700396 83.578004 
L 114.92994 96.49336 
L 125.191572 82.777056 
L 133.575935 91.487647 
L 140.664814 97.61639 
L 146.805479 80.775341 
L 152.22193 127.037443 
L 157.067111 88.484263 
L 161.45011 73.074041 
L 165.451475 98.842509 
L 169.132373 141.113544 
L 172.540353 74.902931 
L 175.713106 86.051629 
L 178.681019 94.353749 
L 186.583842 74.94968 
L 188.94265 63.809665 
L 193.325649 121.569105 
L 195.369838 94.353749 
L 199.204282 84.80914 
L 202.743465 83.238409 
L 204.415892 110.49828 
L 207.588646 79.760556 
L 217.232997 110.49828 
L 223.061887 70.733039 
" style="fill:none;stroke:#aec7e8;stroke-linecap:square;stroke-opacity:0.3;stroke-width:3;"/>
   </g>
   <g id="line2d_50"/>
   <g id="line2d_51"/>
   <g id="line2d_52">
    <path clip-path="url(#pf69f8d4ad9)" d="M 51.178861 46.038174 
L 83.054401 38.009725 
L 101.700396 41.753745 
L 114.92994 43.447821 
L 125.191572 51.285483 
L 133.575935 46.878196 
L 140.664814 44.375939 
L 146.805479 66.682805 
L 152.22193 31.913444 
L 157.067111 50.131675 
" style="fill:none;stroke:#aec7e8;stroke-linecap:square;"/>
   </g>
   <g id="line2d_53">
    <path clip-path="url(#pf69f8d4ad9)" d="M 51.178861 46.038174 
L 83.054401 38.009725 
L 101.700396 41.753745 
L 114.92994 43.447821 
L 125.191572 51.285483 
L 133.575935 46.878196 
L 140.664814 44.375939 
L 146.805479 66.682805 
L 152.22193 31.913444 
L 157.067111 50.131675 
" style="fill:none;stroke:#aec7e8;stroke-linecap:square;stroke-opacity:0.3;stroke-width:3;"/>
   </g>
   <g id="line2d_54">
    <path clip-path="url(#pf69f8d4ad9)" d="M 51.178861 66.788032 
L 83.054401 53.987187 
L 101.700396 51.6924 
L 114.92994 46.986693 
L 125.191572 49.023794 
L 133.575935 62.131868 
L 140.664814 86.40301 
L 146.805479 66.216054 
L 152.22193 57.010537 
L 157.067111 72.567665 
L 161.45011 81.894312 
L 165.451475 68.341158 
L 169.132373 57.460893 
L 172.540353 91.487647 
" style="fill:none;stroke:#aec7e8;stroke-linecap:square;"/>
   </g>
   <g id="line2d_55">
    <path clip-path="url(#pf69f8d4ad9)" d="M 51.178861 66.788032 
L 83.054401 53.987187 
L 101.700396 51.6924 
L 114.92994 46.986693 
L 125.191572 49.023794 
L 133.575935 62.131868 
L 140.664814 86.40301 
L 146.805479 66.216054 
L 152.22193 57.010537 
L 157.067111 72.567665 
L 161.45011 81.894312 
L 165.451475 68.341158 
L 169.132373 57.460893 
L 172.540353 91.487647 
" style="fill:none;stroke:#aec7e8;stroke-linecap:square;stroke-opacity:0.3;stroke-width:3;"/>
   </g>
   <g id="line2d_56">
    <path clip-path="url(#pf69f8d4ad9)" d="M 51.178861 65.209575 
L 83.054401 102.910481 
L 101.700396 67.503609 
L 114.92994 74.94968 
L 157.067111 108.42985 
L 165.451475 94.353749 
L 169.132373 59.182439 
L 172.540353 83.578004 
" style="fill:none;stroke:#aec7e8;stroke-linecap:square;"/>
   </g>
   <g id="line2d_57">
    <path clip-path="url(#pf69f8d4ad9)" d="M 51.178861 65.209575 
L 83.054401 102.910481 
L 101.700396 67.503609 
L 114.92994 74.94968 
L 157.067111 108.42985 
L 165.451475 94.353749 
L 169.132373 59.182439 
L 172.540353 83.578004 
" style="fill:none;stroke:#aec7e8;stroke-linecap:square;stroke-opacity:0.3;stroke-width:3;"/>
   </g>
   <g id="line2d_58">
    <path clip-path="url(#pf69f8d4ad9)" d="M 51.178861 51.967882 
L 83.054401 38.086834 
L 101.700396 42.161876 
L 114.92994 38.754787 
L 125.191572 42.559076 
L 133.575935 45.328871 
L 140.664814 42.061558 
L 146.805479 42.311828 
L 152.22193 48.150358 
L 157.067111 40.37 
L 161.45011 44.03295 
L 165.451475 52.54468 
L 169.132373 49.055917 
L 172.540353 39.190395 
L 175.713106 51.598769 
L 178.681019 46.717057 
L 181.468944 41.276428 
L 184.09747 38.511229 
L 186.583842 37.725887 
L 188.94265 42.666221 
L 191.186348 47.702724 
L 193.325649 49.654364 
L 195.369838 38.893686 
L 197.327014 38.531331 
L 199.204282 46.543869 
L 201.007912 33.427542 
L 202.743465 44.214577 
L 204.415892 44.689088 
L 206.029626 41.018318 
L 207.588646 38.819015 
L 209.096541 41.707207 
L 210.556558 39.777593 
L 211.971644 44.946675 
L 213.344483 39.128418 
L 214.677524 33.146638 
L 215.973009 43.286368 
L 217.232997 52.358982 
L 218.459381 43.145512 
L 219.653908 30.158262 
L 220.81819 29.184916 
L 221.953721 41.180465 
L 223.061887 36.800488 
L 224.143977 31.894676 
L 225.201189 42.665593 
L 226.234641 48.26485 
L 227.245378 45.734805 
L 228.234377 34.635433 
L 229.202553 26.095037 
" style="fill:none;stroke:#aec7e8;stroke-linecap:square;"/>
   </g>
   <g id="line2d_59">
    <path clip-path="url(#pf69f8d4ad9)" d="M 51.178861 51.967882 
L 83.054401 38.086834 
L 101.700396 42.161876 
L 114.92994 38.754787 
L 125.191572 42.559076 
L 133.575935 45.328871 
L 140.664814 42.061558 
L 146.805479 42.311828 
L 152.22193 48.150358 
L 157.067111 40.37 
L 161.45011 44.03295 
L 165.451475 52.54468 
L 169.132373 49.055917 
L 172.540353 39.190395 
L 175.713106 51.598769 
L 178.681019 46.717057 
L 181.468944 41.276428 
L 184.09747 38.511229 
L 186.583842 37.725887 
L 188.94265 42.666221 
L 191.186348 47.702724 
L 193.325649 49.654364 
L 195.369838 38.893686 
L 197.327014 38.531331 
L 199.204282 46.543869 
L 201.007912 33.427542 
L 202.743465 44.214577 
L 204.415892 44.689088 
L 206.029626 41.018318 
L 207.588646 38.819015 
L 209.096541 41.707207 
L 210.556558 39.777593 
L 211.971644 44.946675 
L 213.344483 39.128418 
L 214.677524 33.146638 
L 215.973009 43.286368 
L 217.232997 52.358982 
L 218.459381 43.145512 
L 219.653908 30.158262 
L 220.81819 29.184916 
L 221.953721 41.180465 
L 223.061887 36.800488 
L 224.143977 31.894676 
L 225.201189 42.665593 
L 226.234641 48.26485 
L 227.245378 45.734805 
L 228.234377 34.635433 
L 229.202553 26.095037 
" style="fill:none;stroke:#aec7e8;stroke-linecap:square;stroke-opacity:0.3;stroke-width:3;"/>
   </g>
   <g id="line2d_60">
    <path clip-path="url(#pf69f8d4ad9)" d="M 51.178861 81.973761 
L 83.054401 82.480228 
L 101.700396 60.038595 
L 114.92994 80.277648 
L 125.191572 83.578004 
L 133.575935 102.910481 
L 140.664814 79.769955 
L 146.805479 85.015207 
L 152.22193 65.949276 
L 157.067111 55.272345 
L 161.45011 63.809665 
L 165.451475 74.94968 
L 169.132373 89.796603 
L 172.540353 102.664302 
L 175.713106 58.656012 
L 181.468944 70.343355 
L 184.09747 87.226363 
L 186.583842 100.15312 
L 188.94265 64.774054 
L 191.186348 61.0486 
L 193.325649 58.656012 
L 195.369838 85.015207 
L 197.327014 106.436079 
L 201.007912 65.941355 
L 202.743465 72.632824 
L 204.415892 72.159828 
L 206.029626 89.755139 
L 207.588646 92.65577 
L 209.096541 112.961342 
L 210.556558 106.436079 
" style="fill:none;stroke:#aec7e8;stroke-linecap:square;"/>
   </g>
   <g id="line2d_61">
    <path clip-path="url(#pf69f8d4ad9)" d="M 51.178861 81.973761 
L 83.054401 82.480228 
L 101.700396 60.038595 
L 114.92994 80.277648 
L 125.191572 83.578004 
L 133.575935 102.910481 
L 140.664814 79.769955 
L 146.805479 85.015207 
L 152.22193 65.949276 
L 157.067111 55.272345 
L 161.45011 63.809665 
L 165.451475 74.94968 
L 169.132373 89.796603 
L 172.540353 102.664302 
L 175.713106 58.656012 
L 181.468944 70.343355 
L 184.09747 87.226363 
L 186.583842 100.15312 
L 188.94265 64.774054 
L 191.186348 61.0486 
L 193.325649 58.656012 
L 195.369838 85.015207 
L 197.327014 106.436079 
L 201.007912 65.941355 
L 202.743465 72.632824 
L 204.415892 72.159828 
L 206.029626 89.755139 
L 207.588646 92.65577 
L 209.096541 112.961342 
L 210.556558 106.436079 
" style="fill:none;stroke:#aec7e8;stroke-linecap:square;stroke-opacity:0.3;stroke-width:3;"/>
   </g>
   <g id="line2d_62">
    <path clip-path="url(#pf69f8d4ad9)" d="M 51.178861 57.295543 
L 125.300636 57.295543 
" style="fill:none;stroke:#000000;stroke-linecap:square;stroke-width:1.5;"/>
   </g>
   <g id="line2d_63">
    <path clip-path="url(#pf69f8d4ad9)" d="M 51.178861 57.295543 
L 125.300636 57.295543 
" style="fill:none;stroke:#000000;stroke-linecap:square;stroke-width:1.5;"/>
   </g>
   <g id="line2d_64">
    <path clip-path="url(#pf69f8d4ad9)" d="M 125.300636 57.295543 
L 125.300636 57.295543 
" style="fill:none;stroke:#000000;stroke-linecap:square;stroke-width:1.5;"/>
   </g>
   <g id="line2d_65">
    <path clip-path="url(#pf69f8d4ad9)" d="M 143.837567 99.658756 
L 217.959342 66.926899 
" style="fill:none;stroke:#000000;stroke-linecap:square;stroke-width:1.5;"/>
   </g>
   <g id="line2d_66">
    <path clip-path="url(#pf69f8d4ad9)" d="M 143.837567 99.658756 
L 217.959342 99.658756 
" style="fill:none;stroke:#000000;stroke-linecap:square;stroke-width:1.5;"/>
   </g>
   <g id="line2d_67">
    <path clip-path="url(#pf69f8d4ad9)" d="M 217.959342 99.658756 
L 217.959342 66.926899 
" style="fill:none;stroke:#000000;stroke-linecap:square;stroke-width:1.5;"/>
   </g>
   <g id="patch_3">
    <path d="M 42.230266 124.644546 
L 42.230266 2.972754 
" style="fill:none;stroke:#000000;stroke-linecap:square;stroke-linejoin:miter;stroke-width:0.8;"/>
   </g>
   <g id="patch_4">
    <path d="M 239.099361 124.644546 
L 239.099361 2.972754 
" style="fill:none;stroke:#000000;stroke-linecap:square;stroke-linejoin:miter;stroke-width:0.8;"/>
   </g>
   <g id="patch_5">
    <path d="M 42.230266 124.644546 
L 239.099361 124.644546 
" style="fill:none;stroke:#000000;stroke-linecap:square;stroke-linejoin:miter;stroke-width:0.8;"/>
   </g>
   <g id="patch_6">
    <path d="M 42.230266 2.972754 
L 239.099361 2.972754 
" style="fill:none;stroke:#000000;stroke-linecap:square;stroke-linejoin:miter;stroke-width:0.8;"/>
   </g>
   <g id="line2d_68">
    <path clip-path="url(#pf69f8d4ad9)" d="M 51.178861 87.850209 
L 83.054401 87.022893 
L 101.700396 87.956656 
L 114.92994 84.221386 
L 125.191572 79.009172 
L 133.575935 82.32178 
L 140.664814 72.576885 
L 146.805479 75.308063 
L 152.22193 71.45412 
L 157.067111 75.137994 
L 161.45011 80.852499 
L 165.451475 78.316377 
L 169.132373 72.145095 
L 172.540353 72.482499 
L 175.713106 74.145124 
L 178.681019 75.559795 
L 181.468944 71.259972 
L 184.09747 77.696951 
L 186.583842 72.862495 
L 188.94265 67.960247 
L 191.186348 71.009719 
L 193.325649 69.583805 
L 195.369838 69.54931 
L 197.327014 64.049062 
L 199.204282 61.151544 
L 201.007912 62.002669 
L 202.743465 58.258332 
L 204.415892 56.369833 
L 206.029626 58.026623 
L 207.588646 60.527249 
L 209.096541 58.993576 
L 210.556558 54.867569 
L 211.971644 55.36165 
L 213.344483 61.545673 
L 214.677524 59.575516 
L 215.973009 59.197721 
L 217.232997 52.812993 
L 218.459381 48.876948 
L 219.653908 56.229514 
L 220.81819 60.939282 
L 221.953721 49.251027 
L 223.061887 44.467794 
" style="fill:none;stroke:#1f77b4;stroke-linecap:square;stroke-width:5;"/>
   </g>
   <g id="text_8">
    <g id="patch_7">
     <path d="M 73.757611 69.513796 
L 102.721887 69.513796 
L 102.721887 54.429249 
L 73.757611 54.429249 
z
" style="fill:#ffffff;fill-opacity:0.9;stroke:#ffffff;stroke-linejoin:miter;stroke-opacity:0.9;"/>
    </g>
    <!-- $\alpha=0$ -->
    <g transform="translate(77.757611 63.964051)scale(0.08 -0.08)">
     <defs>
      <path d="M 2963 1616 
C 2963 2235 2611 2815 1933 2815 
C 1094 2815 256 1902 256 996 
C 256 441 602 -64 1254 -64 
C 1651 -64 2125 89 2579 472 
C 2669 115 2867 -64 3142 -64 
C 3488 -64 3661 294 3661 377 
C 3661 434 3616 434 3597 434 
C 3546 434 3539 415 3520 364 
C 3462 204 3315 64 3162 64 
C 2963 64 2963 472 2963 862 
C 3616 1641 3770 2446 3770 2452 
C 3770 2510 3718 2510 3699 2510 
C 3642 2510 3635 2491 3610 2376 
C 3526 2095 3360 1597 2963 1073 
L 2963 1616 
z
M 2560 626 
C 1997 121 1491 64 1267 64 
C 813 64 685 466 685 766 
C 685 1040 826 1692 1024 2044 
C 1286 2491 1645 2688 1933 2688 
C 2554 2688 2554 1877 2554 1341 
C 2554 1182 2547 1016 2547 856 
C 2547 728 2554 696 2560 626 
z
" id="CMMI12-b" transform="scale(0.015625)"/>
      <path d="M 4115 2017 
C 4211 2017 4307 2017 4307 2125 
C 4307 2240 4198 2240 4090 2240 
L 512 2240 
C 403 2240 294 2240 294 2125 
C 294 2017 390 2017 486 2017 
L 4115 2017 
z
M 4090 896 
C 4198 896 4307 896 4307 1011 
C 4307 1119 4211 1119 4115 1119 
L 486 1119 
C 390 1119 294 1119 294 1011 
C 294 896 403 896 512 896 
L 4090 896 
z
" id="CMR17-3d" transform="scale(0.015625)"/>
     </defs>
     <use transform="scale(0.996264)" xlink:href="#CMMI12-b"/>
     <use transform="translate(90.355032 0)scale(0.996264)" xlink:href="#CMR17-3d"/>
     <use transform="translate(189.743829 0)scale(0.996264)" xlink:href="#CMR17-30"/>
    </g>
   </g>
   <g id="text_9">
    <g id="patch_8">
     <path d="M 163.123063 111.877009 
L 198.673846 111.877009 
L 198.673846 96.792461 
L 163.123063 96.792461 
z
" style="fill:#ffffff;fill-opacity:0.9;stroke:#ffffff;stroke-linejoin:miter;stroke-opacity:0.9;"/>
    </g>
    <!-- $\alpha=0.5$ -->
    <g transform="translate(167.123063 106.327263)scale(0.08 -0.08)">
     <defs>
      <path d="M 1178 307 
C 1178 492 1024 619 870 619 
C 685 619 557 466 557 313 
C 557 128 710 0 864 0 
C 1050 0 1178 153 1178 307 
z
" id="CMMI12-3a" transform="scale(0.015625)"/>
      <path d="M 730 3692 
C 794 3666 1056 3584 1325 3584 
C 1920 3584 2246 3911 2432 4100 
C 2432 4157 2432 4192 2394 4192 
C 2387 4192 2374 4192 2323 4163 
C 2099 4058 1837 3973 1517 3973 
C 1325 3973 1037 3999 723 4139 
C 653 4171 640 4171 634 4171 
C 602 4171 595 4164 595 4037 
L 595 2203 
C 595 2089 595 2057 659 2057 
C 691 2057 704 2070 736 2114 
C 941 2401 1222 2522 1542 2522 
C 1766 2522 2246 2382 2246 1289 
C 2246 1085 2246 715 2054 421 
C 1894 159 1645 25 1370 25 
C 947 25 518 320 403 814 
C 429 807 480 795 506 795 
C 589 795 749 840 749 1038 
C 749 1210 627 1280 506 1280 
C 358 1280 262 1190 262 1011 
C 262 454 704 -128 1382 -128 
C 2042 -128 2669 440 2669 1264 
C 2669 2030 2170 2624 1549 2624 
C 1222 2624 947 2503 730 2274 
L 730 3692 
z
" id="CMR17-35" transform="scale(0.015625)"/>
     </defs>
     <use transform="scale(0.996264)" xlink:href="#CMMI12-b"/>
     <use transform="translate(90.355032 0)scale(0.996264)" xlink:href="#CMR17-3d"/>
     <use transform="translate(189.743829 0)scale(0.996264)" xlink:href="#CMR17-30"/>
     <use transform="translate(235.434306 0)scale(0.996264)" xlink:href="#CMMI12-3a"/>
     <use transform="translate(262.531483 0)scale(0.996264)" xlink:href="#CMR17-35"/>
    </g>
   </g>
  </g>
  <g id="axes_2">
   <g id="patch_9">
    <path d="M 42.230266 295.188534 
L 239.099361 295.188534 
L 239.099361 173.516742 
L 42.230266 173.516742 
z
" style="fill:#ffffff;"/>
   </g>
   <g id="matplotlib.axis_3">
    <g id="xtick_18">
     <g id="line2d_69">
      <g>
       <use style="stroke:#000000;stroke-width:0.8;" x="42.230266" xlink:href="#m9cf9a05ff9" y="295.188534"/>
      </g>
     </g>
     <g id="text_10">
      <!-- $\mathdefault{10^{1}}$ -->
      <g transform="translate(36.169627 307.723335)scale(0.08 -0.08)">
       <use transform="scale(0.996264)" xlink:href="#CMR17-31"/>
       <use transform="translate(45.690477 0)scale(0.996264)" xlink:href="#CMR17-30"/>
       <use transform="translate(91.380954 36.153639)scale(0.697382)" xlink:href="#CMR17-31"/>
      </g>
     </g>
    </g>
    <g id="xtick_19">
     <g id="line2d_70">
      <g>
       <use style="stroke:#000000;stroke-width:0.8;" x="107.853298" xlink:href="#m9cf9a05ff9" y="295.188534"/>
      </g>
     </g>
     <g id="text_11">
      <!-- $\mathdefault{10^{2}}$ -->
      <g transform="translate(101.792659 307.723335)scale(0.08 -0.08)">
       <use transform="scale(0.996264)" xlink:href="#CMR17-31"/>
       <use transform="translate(45.690477 0)scale(0.996264)" xlink:href="#CMR17-30"/>
       <use transform="translate(91.380954 36.153639)scale(0.697382)" xlink:href="#CMR17-32"/>
      </g>
     </g>
    </g>
    <g id="xtick_20">
     <g id="line2d_71">
      <g>
       <use style="stroke:#000000;stroke-width:0.8;" x="173.476329" xlink:href="#m9cf9a05ff9" y="295.188534"/>
      </g>
     </g>
     <g id="text_12">
      <!-- $\mathdefault{10^{3}}$ -->
      <g transform="translate(167.41569 307.723335)scale(0.08 -0.08)">
       <use transform="scale(0.996264)" xlink:href="#CMR17-31"/>
       <use transform="translate(45.690477 0)scale(0.996264)" xlink:href="#CMR17-30"/>
       <use transform="translate(91.380954 36.153639)scale(0.697382)" xlink:href="#CMR17-33"/>
      </g>
     </g>
    </g>
    <g id="xtick_21">
     <g id="line2d_72">
      <g>
       <use style="stroke:#000000;stroke-width:0.8;" x="239.099361" xlink:href="#m9cf9a05ff9" y="295.188534"/>
      </g>
     </g>
     <g id="text_13">
      <!-- $\mathdefault{10^{4}}$ -->
      <g transform="translate(233.038722 307.723335)scale(0.08 -0.08)">
       <use transform="scale(0.996264)" xlink:href="#CMR17-31"/>
       <use transform="translate(45.690477 0)scale(0.996264)" xlink:href="#CMR17-30"/>
       <use transform="translate(91.380954 36.153639)scale(0.697382)" xlink:href="#CMR17-34"/>
      </g>
     </g>
    </g>
    <g id="xtick_22">
     <g id="line2d_73">
      <g>
       <use style="stroke:#000000;stroke-width:0.6;" x="61.984767" xlink:href="#m199dccc101" y="295.188534"/>
      </g>
     </g>
    </g>
    <g id="xtick_23">
     <g id="line2d_74">
      <g>
       <use style="stroke:#000000;stroke-width:0.6;" x="73.540409" xlink:href="#m199dccc101" y="295.188534"/>
      </g>
     </g>
    </g>
    <g id="xtick_24">
     <g id="line2d_75">
      <g>
       <use style="stroke:#000000;stroke-width:0.6;" x="81.739268" xlink:href="#m199dccc101" y="295.188534"/>
      </g>
     </g>
    </g>
    <g id="xtick_25">
     <g id="line2d_76">
      <g>
       <use style="stroke:#000000;stroke-width:0.6;" x="88.098797" xlink:href="#m199dccc101" y="295.188534"/>
      </g>
     </g>
    </g>
    <g id="xtick_26">
     <g id="line2d_77">
      <g>
       <use style="stroke:#000000;stroke-width:0.6;" x="93.29491" xlink:href="#m199dccc101" y="295.188534"/>
      </g>
     </g>
    </g>
    <g id="xtick_27">
     <g id="line2d_78">
      <g>
       <use style="stroke:#000000;stroke-width:0.6;" x="97.688162" xlink:href="#m199dccc101" y="295.188534"/>
      </g>
     </g>
    </g>
    <g id="xtick_28">
     <g id="line2d_79">
      <g>
       <use style="stroke:#000000;stroke-width:0.6;" x="101.493769" xlink:href="#m199dccc101" y="295.188534"/>
      </g>
     </g>
    </g>
    <g id="xtick_29">
     <g id="line2d_80">
      <g>
       <use style="stroke:#000000;stroke-width:0.6;" x="104.850553" xlink:href="#m199dccc101" y="295.188534"/>
      </g>
     </g>
    </g>
    <g id="xtick_30">
     <g id="line2d_81">
      <g>
       <use style="stroke:#000000;stroke-width:0.6;" x="127.607799" xlink:href="#m199dccc101" y="295.188534"/>
      </g>
     </g>
    </g>
    <g id="xtick_31">
     <g id="line2d_82">
      <g>
       <use style="stroke:#000000;stroke-width:0.6;" x="139.163441" xlink:href="#m199dccc101" y="295.188534"/>
      </g>
     </g>
    </g>
    <g id="xtick_32">
     <g id="line2d_83">
      <g>
       <use style="stroke:#000000;stroke-width:0.6;" x="147.3623" xlink:href="#m199dccc101" y="295.188534"/>
      </g>
     </g>
    </g>
    <g id="xtick_33">
     <g id="line2d_84">
      <g>
       <use style="stroke:#000000;stroke-width:0.6;" x="153.721829" xlink:href="#m199dccc101" y="295.188534"/>
      </g>
     </g>
    </g>
    <g id="xtick_34">
     <g id="line2d_85">
      <g>
       <use style="stroke:#000000;stroke-width:0.6;" x="158.917942" xlink:href="#m199dccc101" y="295.188534"/>
      </g>
     </g>
    </g>
    <g id="xtick_35">
     <g id="line2d_86">
      <g>
       <use style="stroke:#000000;stroke-width:0.6;" x="163.311193" xlink:href="#m199dccc101" y="295.188534"/>
      </g>
     </g>
    </g>
    <g id="xtick_36">
     <g id="line2d_87">
      <g>
       <use style="stroke:#000000;stroke-width:0.6;" x="167.116801" xlink:href="#m199dccc101" y="295.188534"/>
      </g>
     </g>
    </g>
    <g id="xtick_37">
     <g id="line2d_88">
      <g>
       <use style="stroke:#000000;stroke-width:0.6;" x="170.473584" xlink:href="#m199dccc101" y="295.188534"/>
      </g>
     </g>
    </g>
    <g id="xtick_38">
     <g id="line2d_89">
      <g>
       <use style="stroke:#000000;stroke-width:0.6;" x="193.23083" xlink:href="#m199dccc101" y="295.188534"/>
      </g>
     </g>
    </g>
    <g id="xtick_39">
     <g id="line2d_90">
      <g>
       <use style="stroke:#000000;stroke-width:0.6;" x="204.786473" xlink:href="#m199dccc101" y="295.188534"/>
      </g>
     </g>
    </g>
    <g id="xtick_40">
     <g id="line2d_91">
      <g>
       <use style="stroke:#000000;stroke-width:0.6;" x="212.985331" xlink:href="#m199dccc101" y="295.188534"/>
      </g>
     </g>
    </g>
    <g id="xtick_41">
     <g id="line2d_92">
      <g>
       <use style="stroke:#000000;stroke-width:0.6;" x="219.34486" xlink:href="#m199dccc101" y="295.188534"/>
      </g>
     </g>
    </g>
    <g id="xtick_42">
     <g id="line2d_93">
      <g>
       <use style="stroke:#000000;stroke-width:0.6;" x="224.540974" xlink:href="#m199dccc101" y="295.188534"/>
      </g>
     </g>
    </g>
    <g id="xtick_43">
     <g id="line2d_94">
      <g>
       <use style="stroke:#000000;stroke-width:0.6;" x="228.934225" xlink:href="#m199dccc101" y="295.188534"/>
      </g>
     </g>
    </g>
    <g id="xtick_44">
     <g id="line2d_95">
      <g>
       <use style="stroke:#000000;stroke-width:0.6;" x="232.739832" xlink:href="#m199dccc101" y="295.188534"/>
      </g>
     </g>
    </g>
    <g id="xtick_45">
     <g id="line2d_96">
      <g>
       <use style="stroke:#000000;stroke-width:0.6;" x="236.096616" xlink:href="#m199dccc101" y="295.188534"/>
      </g>
     </g>
    </g>
    <g id="text_14">
     <!-- time (s) -->
     <g transform="translate(124.283411 320.446179)scale(0.096 -0.096)">
      <use transform="scale(0.996264)" xlink:href="#CMSS17-74"/>
      <use transform="translate(33.831567 0)scale(0.996264)" xlink:href="#CMSS17-69"/>
      <use transform="translate(56.01229 0)scale(0.996264)" xlink:href="#CMSS17-6d"/>
      <use transform="translate(130.241544 0)scale(0.996264)" xlink:href="#CMSS17-65"/>
      <use transform="translate(203.109479 0)scale(0.996264)" xlink:href="#CMSS17-28"/>
      <use transform="translate(239.543393 0)scale(0.996264)" xlink:href="#CMSS17-73"/>
      <use transform="translate(275.456935 0)scale(0.996264)" xlink:href="#CMSS17-29"/>
     </g>
    </g>
   </g>
   <g id="matplotlib.axis_4">
    <g id="ytick_13">
     <g id="line2d_97">
      <g>
       <use style="stroke:#000000;stroke-width:0.8;" x="42.230266" xlink:href="#m7dbf819500" y="295.188534"/>
      </g>
     </g>
     <g id="text_15">
      <!-- $2\times{}10^{-1}$ -->
      <g transform="translate(2.768441 298.161288)scale(0.08 -0.08)">
       <use transform="scale(0.996264)" xlink:href="#CMR17-32"/>
       <use transform="translate(67.829684 0)scale(0.996264)" xlink:href="#CMSY10-2"/>
       <use transform="translate(167.456359 0)scale(0.996264)" xlink:href="#CMR17-31"/>
       <use transform="translate(213.146836 0)scale(0.996264)" xlink:href="#CMR17-30"/>
       <use transform="translate(258.837313 36.153639)scale(0.697382)" xlink:href="#CMSY10-0"/>
       <use transform="translate(313.078306 36.153639)scale(0.697382)" xlink:href="#CMR17-31"/>
      </g>
     </g>
    </g>
    <g id="ytick_14">
     <g id="line2d_98">
      <g>
       <use style="stroke:#000000;stroke-width:0.8;" x="42.230266" xlink:href="#m7dbf819500" y="278.720551"/>
      </g>
     </g>
    </g>
    <g id="ytick_15">
     <g id="line2d_99">
      <g>
       <use style="stroke:#000000;stroke-width:0.8;" x="42.230266" xlink:href="#m7dbf819500" y="267.036332"/>
      </g>
     </g>
    </g>
    <g id="ytick_16">
     <g id="line2d_100">
      <g>
       <use style="stroke:#000000;stroke-width:0.8;" x="42.230266" xlink:href="#m7dbf819500" y="257.973347"/>
      </g>
     </g>
    </g>
    <g id="ytick_17">
     <g id="line2d_101">
      <g>
       <use style="stroke:#000000;stroke-width:0.8;" x="42.230266" xlink:href="#m7dbf819500" y="250.56835"/>
      </g>
     </g>
    </g>
    <g id="ytick_18">
     <g id="line2d_102">
      <g>
       <use style="stroke:#000000;stroke-width:0.8;" x="42.230266" xlink:href="#m7dbf819500" y="244.307513"/>
      </g>
     </g>
    </g>
    <g id="ytick_19">
     <g id="line2d_103">
      <g>
       <use style="stroke:#000000;stroke-width:0.8;" x="42.230266" xlink:href="#m7dbf819500" y="238.88413"/>
      </g>
     </g>
    </g>
    <g id="ytick_20">
     <g id="line2d_104">
      <g>
       <use style="stroke:#000000;stroke-width:0.8;" x="42.230266" xlink:href="#m7dbf819500" y="234.100367"/>
      </g>
     </g>
    </g>
    <g id="ytick_21">
     <g id="line2d_105">
      <g>
       <use style="stroke:#000000;stroke-width:0.8;" x="42.230266" xlink:href="#m7dbf819500" y="229.821145"/>
      </g>
     </g>
     <g id="text_16">
      <!-- $10^0$ -->
      <g transform="translate(23.108988 232.588546)scale(0.08 -0.08)">
       <use transform="scale(0.996264)" xlink:href="#CMR17-31"/>
       <use transform="translate(45.690477 0)scale(0.996264)" xlink:href="#CMR17-30"/>
       <use transform="translate(91.380954 36.153639)scale(0.697382)" xlink:href="#CMR17-30"/>
      </g>
     </g>
    </g>
    <g id="ytick_22">
     <g id="line2d_106">
      <g>
       <use style="stroke:#000000;stroke-width:0.8;" x="42.230266" xlink:href="#m7dbf819500" y="201.668944"/>
      </g>
     </g>
    </g>
    <g id="ytick_23">
     <g id="line2d_107">
      <g>
       <use style="stroke:#000000;stroke-width:0.8;" x="42.230266" xlink:href="#m7dbf819500" y="185.200961"/>
      </g>
     </g>
    </g>
    <g id="ytick_24">
     <g id="line2d_108">
      <g>
       <use style="stroke:#000000;stroke-width:0.8;" x="42.230266" xlink:href="#m7dbf819500" y="173.516742"/>
      </g>
     </g>
     <g id="text_17">
      <!-- $4\times{}10^0$ -->
      <g transform="translate(8.524581 176.489496)scale(0.08 -0.08)">
       <use transform="scale(0.996264)" xlink:href="#CMR17-34"/>
       <use transform="translate(67.829684 0)scale(0.996264)" xlink:href="#CMSY10-2"/>
       <use transform="translate(167.456359 0)scale(0.996264)" xlink:href="#CMR17-31"/>
       <use transform="translate(213.146836 0)scale(0.996264)" xlink:href="#CMR17-30"/>
       <use transform="translate(258.837313 36.153639)scale(0.697382)" xlink:href="#CMR17-30"/>
      </g>
     </g>
    </g>
    <g id="text_18">
     <!-- MSCD ($\mu{}m^2$) -->
     <g transform="translate(8.377413 263.118264)rotate(-90)scale(0.096 -0.096)">
      <use transform="scale(0.996264)" xlink:href="#CMSS17-4d"/>
      <use transform="translate(81.67603 0)scale(0.996264)" xlink:href="#CMSS17-53"/>
      <use transform="translate(133.724546 0)scale(0.996264)" xlink:href="#CMSS17-43"/>
      <use transform="translate(193.580318 0)scale(0.996264)" xlink:href="#CMSS17-44"/>
      <use transform="translate(292.352272 0)scale(0.996264)" xlink:href="#CMSS17-28"/>
      <use transform="translate(328.786186 0)scale(0.996264)" xlink:href="#CMMI12-16"/>
      <use transform="translate(387.477608 0)scale(0.996264)" xlink:href="#CMMI12-6d"/>
      <use transform="translate(472.804832 36.153639)scale(0.697382)" xlink:href="#CMR17-32"/>
      <use transform="translate(505.286146 0)scale(0.996264)" xlink:href="#CMSS17-29"/>
     </g>
    </g>
   </g>
   <g id="patch_10">
    <path d="M 42.230266 295.188534 
L 42.230266 173.516742 
" style="fill:none;stroke:#000000;stroke-linecap:square;stroke-linejoin:miter;stroke-width:0.8;"/>
   </g>
   <g id="patch_11">
    <path d="M 239.099361 295.188534 
L 239.099361 173.516742 
" style="fill:none;stroke:#000000;stroke-linecap:square;stroke-linejoin:miter;stroke-width:0.8;"/>
   </g>
   <g id="patch_12">
    <path d="M 42.230266 295.188534 
L 239.099361 295.188534 
" style="fill:none;stroke:#000000;stroke-linecap:square;stroke-linejoin:miter;stroke-width:0.8;"/>
   </g>
   <g id="patch_13">
    <path d="M 42.230266 173.516742 
L 239.099361 173.516742 
" style="fill:none;stroke:#000000;stroke-linecap:square;stroke-linejoin:miter;stroke-width:0.8;"/>
   </g>
  </g>
 </g>
 <defs>
  <clipPath id="pf69f8d4ad9">
   <rect height="121.671792" width="196.869095" x="42.230266" y="2.972754"/>
  </clipPath>
 </defs>
</svg>
